<svg width="40" height="40" viewBox="0 0 40 40" fill="none" xmlns="http://www.w3.org/2000/svg">
<circle cx="20" cy="20" r="20" fill="#000B33"/>
<path d="M19.9997 5.8335C18.1393 5.8335 16.2971 6.19993 14.5783 6.91187C12.8595 7.62381 11.2978 8.66732 9.98233 9.98282C7.32556 12.6396 5.83301 16.2429 5.83301 20.0002C5.83301 26.2618 9.89884 31.5743 15.523 33.4585C16.2313 33.5718 16.458 33.1327 16.458 32.7502V30.356C12.5338 31.206 11.698 28.4577 11.698 28.4577C11.0463 26.8143 10.1255 26.3752 10.1255 26.3752C8.83634 25.4968 10.2247 25.5252 10.2247 25.5252C11.6413 25.6243 12.3922 26.9843 12.3922 26.9843C13.6247 29.1377 15.7072 28.5002 16.5147 28.1602C16.6422 27.2393 17.0105 26.616 17.4072 26.2618C14.2622 25.9077 10.9613 24.6893 10.9613 19.2918C10.9613 17.7193 11.4997 16.4585 12.4205 15.4527C12.2788 15.0985 11.783 13.6252 12.5622 11.7127C12.5622 11.7127 13.7522 11.3302 16.458 13.1577C17.5772 12.846 18.7955 12.6902 19.9997 12.6902C21.2038 12.6902 22.4222 12.846 23.5413 13.1577C26.2472 11.3302 27.4372 11.7127 27.4372 11.7127C28.2163 13.6252 27.7205 15.0985 27.5788 15.4527C28.4997 16.4585 29.038 17.7193 29.038 19.2918C29.038 24.7035 25.723 25.8935 22.5638 26.2477C23.0738 26.6868 23.5413 27.551 23.5413 28.8685V32.7502C23.5413 33.1327 23.768 33.586 24.4905 33.4585C30.1147 31.5602 34.1663 26.2618 34.1663 20.0002C34.1663 18.1398 33.7999 16.2976 33.088 14.5788C32.376 12.86 31.3325 11.2983 30.017 9.98282C28.7015 8.66732 27.1398 7.62381 25.421 6.91187C23.7022 6.19993 21.8601 5.8335 19.9997 5.8335Z" fill="white"/>
</svg>
