<svg width="40" height="40" viewBox="0 0 40 40" fill="none" xmlns="http://www.w3.org/2000/svg">
<circle cx="20" cy="20" r="20" fill="#000B33"/>
<path d="M18.4379 21.3C18.4379 20.5875 17.8504 20 17.1379 20C16.4254 20 15.8379 20.5875 15.8379 21.3C15.8379 21.6448 15.9749 21.9754 16.2187 22.2192C16.4624 22.463 16.7931 22.6 17.1379 22.6C17.4827 22.6 17.8133 22.463 18.0571 22.2192C18.3009 21.9754 18.4379 21.6448 18.4379 21.3ZM22.6129 24.2625C22.0504 24.825 20.8504 25.025 20.0004 25.025C19.1504 25.025 17.9504 24.825 17.3879 24.2625C17.3575 24.2299 17.3207 24.204 17.2799 24.1863C17.239 24.1685 17.1949 24.1594 17.1504 24.1594C17.1058 24.1594 17.0618 24.1685 17.0209 24.1863C16.9801 24.204 16.9433 24.2299 16.9129 24.2625C16.8803 24.2929 16.8544 24.3297 16.8366 24.3705C16.8189 24.4114 16.8097 24.4555 16.8097 24.5C16.8097 24.5445 16.8189 24.5886 16.8366 24.6295C16.8544 24.6703 16.8803 24.7071 16.9129 24.7375C17.8004 25.625 19.5004 25.7 20.0004 25.7C20.5004 25.7 22.2004 25.625 23.0879 24.7375C23.1204 24.7071 23.1464 24.6703 23.1641 24.6295C23.1819 24.5886 23.191 24.5445 23.191 24.5C23.191 24.4555 23.1819 24.4114 23.1641 24.3705C23.1464 24.3297 23.1204 24.2929 23.0879 24.2625C22.9629 24.1375 22.7504 24.1375 22.6129 24.2625ZM22.8629 20C22.1504 20 21.5629 20.5875 21.5629 21.3C21.5629 22.0125 22.1504 22.6 22.8629 22.6C23.5754 22.6 24.1629 22.0125 24.1629 21.3C24.1629 20.5875 23.5879 20 22.8629 20Z" fill="white"/>
<path d="M20 7.5C13.1 7.5 7.5 13.1 7.5 20C7.5 26.9 13.1 32.5 20 32.5C26.9 32.5 32.5 26.9 32.5 20C32.5 13.1 26.9 7.5 20 7.5ZM27.25 21.6625C27.275 21.8375 27.2875 22.025 27.2875 22.2125C27.2875 25.0125 24.025 27.2875 20 27.2875C15.975 27.2875 12.7125 25.0125 12.7125 22.2125C12.7125 22.025 12.725 21.8375 12.75 21.6625C12.1125 21.375 11.675 20.7375 11.675 20C11.6731 19.6416 11.7773 19.2906 11.9742 18.9911C12.1712 18.6916 12.4523 18.457 12.7822 18.3168C13.1121 18.1766 13.476 18.1369 13.8284 18.2029C14.1807 18.2689 14.5057 18.4374 14.7625 18.6875C16.025 17.775 17.775 17.2 19.7125 17.1375L20.6375 12.775C20.65 12.6875 20.7 12.6125 20.775 12.575C20.85 12.525 20.9375 12.5125 21.025 12.525L24.05 13.175C24.1526 12.967 24.309 12.7902 24.5029 12.663C24.6969 12.5358 24.9213 12.4628 25.153 12.4515C25.3847 12.4403 25.6151 12.4913 25.8205 12.5991C26.0258 12.707 26.1986 12.8678 26.3208 13.065C26.443 13.2621 26.5103 13.4884 26.5156 13.7203C26.5209 13.9521 26.4641 14.1812 26.351 14.3837C26.2379 14.5863 26.0727 14.7548 25.8725 14.872C25.6723 14.9892 25.4444 15.0506 25.2125 15.05C24.5125 15.05 23.95 14.5 23.9125 13.8125L21.2 13.2375L20.375 17.1375C22.2875 17.2 24 17.7875 25.25 18.6875C25.4416 18.5045 25.6709 18.3656 25.9218 18.2805C26.1727 18.1954 26.4392 18.1661 26.7026 18.1948C26.966 18.2234 27.22 18.3092 27.4468 18.4463C27.6735 18.5833 27.8676 18.7683 28.0154 18.9882C28.1633 19.208 28.2613 19.4576 28.3026 19.7193C28.3439 19.981 28.3275 20.2486 28.2546 20.5033C28.1817 20.758 28.054 20.9938 27.8805 21.194C27.707 21.3942 27.4918 21.5541 27.25 21.6625Z" fill="white"/>
</svg>
