<svg width="40" height="40" viewBox="0 0 40 40" fill="none" xmlns="http://www.w3.org/2000/svg">
<circle cx="20" cy="20" r="20" fill="#000B33"/>
<path d="M26.7097 11.6545C26.7097 11.6545 28.6523 10.897 28.4904 12.7366C28.4365 13.4942 27.9508 16.1454 27.573 19.0131L26.278 27.5079C26.278 27.5079 26.17 28.7524 25.1987 28.9688C24.2274 29.1852 22.7704 28.2113 22.5005 27.9949C22.2847 27.8326 18.4534 25.3977 17.1043 24.2074C16.7265 23.8827 16.2948 23.2334 17.1582 22.476L22.8244 17.0653C23.4719 16.416 24.1194 14.9009 21.4213 16.7406L13.8666 21.8808C13.8666 21.8808 13.0032 22.4219 11.3843 21.9349L7.87671 20.8527C7.87671 20.8527 6.58161 20.0412 8.79408 19.2295C14.1904 16.6865 20.8278 14.0893 26.7097 11.6545Z" fill="white"/>
</svg>
