<svg width="474" height="126" viewBox="0 0 474 126" fill="none" xmlns="http://www.w3.org/2000/svg">
<path d="M32.305 63.355H14.235L11.245 72H1.69L18.005 26.565H28.6L44.915 72H35.295L32.305 63.355ZM29.835 56.075L23.27 37.095L16.705 56.075H29.835ZM66.8733 26.63C71.64 26.63 75.8217 27.5617 79.4183 29.425C83.0583 31.2883 85.8533 33.9533 87.8033 37.42C89.7967 40.8433 90.7933 44.83 90.7933 49.38C90.7933 53.93 89.7967 57.9167 87.8033 61.34C85.8533 64.72 83.0583 67.3417 79.4183 69.205C75.8217 71.0683 71.64 72 66.8733 72H51.0133V26.63H66.8733ZM66.5483 64.265C71.315 64.265 74.9983 62.965 77.5983 60.365C80.1983 57.765 81.4983 54.1033 81.4983 49.38C81.4983 44.6567 80.1983 40.9733 77.5983 38.33C74.9983 35.6433 71.315 34.3 66.5483 34.3H60.1133V64.265H66.5483ZM113.465 26.63C118.232 26.63 122.413 27.5617 126.01 29.425C129.65 31.2883 132.445 33.9533 134.395 37.42C136.388 40.8433 137.385 44.83 137.385 49.38C137.385 53.93 136.388 57.9167 134.395 61.34C132.445 64.72 129.65 67.3417 126.01 69.205C122.413 71.0683 118.232 72 113.465 72H97.6051V26.63H113.465ZM113.14 64.265C117.907 64.265 121.59 62.965 124.19 60.365C126.79 57.765 128.09 54.1033 128.09 49.38C128.09 44.6567 126.79 40.9733 124.19 38.33C121.59 35.6433 117.907 34.3 113.14 34.3H106.705V64.265H113.14ZM153.297 26.63V72H144.197V26.63H153.297ZM201.093 72H191.993L171.388 40.865V72H162.288V26.565H171.388L191.993 57.765V26.565H201.093V72ZM241.676 40.28C240.636 38.3733 239.206 36.9217 237.386 35.925C235.566 34.9283 233.442 34.43 231.016 34.43C228.329 34.43 225.946 35.0367 223.866 36.25C221.786 37.4633 220.161 39.1967 218.991 41.45C217.821 43.7033 217.236 46.3033 217.236 49.25C217.236 52.2833 217.821 54.9267 218.991 57.18C220.204 59.4333 221.872 61.1667 223.996 62.38C226.119 63.5933 228.589 64.2 231.406 64.2C234.872 64.2 237.711 63.29 239.921 61.47C242.131 59.6067 243.582 57.0283 244.276 53.735H228.676V46.78H253.246V54.71C252.639 57.8733 251.339 60.7983 249.346 63.485C247.352 66.1717 244.774 68.3383 241.611 69.985C238.491 71.5883 234.981 72.39 231.081 72.39C226.704 72.39 222.739 71.415 219.186 69.465C215.676 67.4717 212.902 64.72 210.866 61.21C208.872 57.7 207.876 53.7133 207.876 49.25C207.876 44.7867 208.872 40.8 210.866 37.29C212.902 33.7367 215.676 30.985 219.186 29.035C222.739 27.0417 226.682 26.045 231.016 26.045C236.129 26.045 240.571 27.3017 244.341 29.815C248.111 32.285 250.711 35.7733 252.141 40.28H241.676ZM316.221 26.63L299.581 72H288.531L271.891 26.63H281.641L294.121 62.705L306.536 26.63H316.221ZM349.497 63.355H331.427L328.437 72H318.882L335.197 26.565H345.792L362.107 72H352.487L349.497 63.355ZM347.027 56.075L340.462 37.095L333.897 56.075H347.027ZM377.306 64.785H392.256V72H368.206V26.63H377.306V64.785ZM407.01 26.63V54.71C407.01 57.7867 407.811 60.1483 409.415 61.795C411.018 63.3983 413.271 64.2 416.175 64.2C419.121 64.2 421.396 63.3983 423 61.795C424.603 60.1483 425.405 57.7867 425.405 54.71V26.63H434.57V54.645C434.57 58.5017 433.725 61.7733 432.035 64.46C430.388 67.1033 428.156 69.0967 425.34 70.44C422.566 71.7833 419.468 72.455 416.045 72.455C412.665 72.455 409.588 71.7833 406.815 70.44C404.085 69.0967 401.918 67.1033 400.315 64.46C398.711 61.7733 397.91 58.5017 397.91 54.645V26.63H407.01ZM452.462 33.975V45.35H467.737V52.565H452.462V64.59H469.687V72H443.362V26.565H469.687V33.975H452.462Z" fill="url(#paint0_linear_67_108)"/>
<path d="M9.432 116.168C7.88 116.168 6.464 115.808 5.184 115.088C3.904 114.352 2.888 113.336 2.136 112.04C1.4 110.728 1.032 109.256 1.032 107.624C1.032 105.992 1.4 104.528 2.136 103.232C2.888 101.92 3.904 100.904 5.184 100.184C6.464 99.448 7.88 99.08 9.432 99.08C11 99.08 12.424 99.448 13.704 100.184C14.984 100.904 15.992 101.912 16.728 103.208C17.464 104.504 17.832 105.976 17.832 107.624C17.832 109.272 17.464 110.744 16.728 112.04C15.992 113.336 14.984 114.352 13.704 115.088C12.424 115.808 11 116.168 9.432 116.168ZM9.432 114.272C10.6 114.272 11.648 114 12.576 113.456C13.52 112.912 14.256 112.136 14.784 111.128C15.328 110.12 15.6 108.952 15.6 107.624C15.6 106.28 15.328 105.112 14.784 104.12C14.256 103.112 13.528 102.336 12.6 101.792C11.672 101.248 10.616 100.976 9.432 100.976C8.248 100.976 7.192 101.248 6.264 101.792C5.336 102.336 4.6 103.112 4.056 104.12C3.528 105.112 3.264 106.28 3.264 107.624C3.264 108.952 3.528 110.12 4.056 111.128C4.6 112.136 5.336 112.912 6.264 113.456C7.208 114 8.264 114.272 9.432 114.272ZM32.3792 102.848V116H30.1952V114.056C29.7792 114.728 29.1952 115.256 28.4432 115.64C27.7072 116.008 26.8912 116.192 25.9952 116.192C24.9712 116.192 24.0512 115.984 23.2352 115.568C22.4192 115.136 21.7712 114.496 21.2912 113.648C20.8272 112.8 20.5952 111.768 20.5952 110.552V102.848H22.7552V110.264C22.7552 111.56 23.0832 112.56 23.7392 113.264C24.3952 113.952 25.2912 114.296 26.4272 114.296C27.5952 114.296 28.5152 113.936 29.1872 113.216C29.8592 112.496 30.1952 111.448 30.1952 110.072V102.848H32.3792ZM38.2508 104.984C38.6348 104.232 39.1788 103.648 39.8828 103.232C40.6028 102.816 41.4748 102.608 42.4988 102.608V104.864H41.9228C39.4748 104.864 38.2508 106.192 38.2508 108.848V116H36.0668V102.848H38.2508V104.984ZM56.3143 113.984L60.3943 102.848H62.7223L57.5623 116H55.0183L49.8583 102.848H52.2103L56.3143 113.984ZM64.0554 109.376C64.0554 108.032 64.3274 106.856 64.8714 105.848C65.4154 104.824 66.1594 104.032 67.1034 103.472C68.0634 102.912 69.1274 102.632 70.2954 102.632C71.4474 102.632 72.4474 102.88 73.2954 103.376C74.1434 103.872 74.7754 104.496 75.1914 105.248V102.848H77.3994V116H75.1914V113.552C74.7594 114.32 74.1114 114.96 73.2474 115.472C72.3994 115.968 71.4074 116.216 70.2714 116.216C69.1034 116.216 68.0474 115.928 67.1034 115.352C66.1594 114.776 65.4154 113.968 64.8714 112.928C64.3274 111.888 64.0554 110.704 64.0554 109.376ZM75.1914 109.4C75.1914 108.408 74.9914 107.544 74.5914 106.808C74.1914 106.072 73.6474 105.512 72.9594 105.128C72.2874 104.728 71.5434 104.528 70.7274 104.528C69.9114 104.528 69.1674 104.72 68.4954 105.104C67.8234 105.488 67.2874 106.048 66.8874 106.784C66.4874 107.52 66.2874 108.384 66.2874 109.376C66.2874 110.384 66.4874 111.264 66.8874 112.016C67.2874 112.752 67.8234 113.32 68.4954 113.72C69.1674 114.104 69.9114 114.296 70.7274 114.296C71.5434 114.296 72.2874 114.104 72.9594 113.72C73.6474 113.32 74.1914 112.752 74.5914 112.016C74.9914 111.264 75.1914 110.392 75.1914 109.4ZM83.2742 98.24V116H81.0902V98.24H83.2742ZM98.6604 102.848V116H96.4764V114.056C96.0604 114.728 95.4764 115.256 94.7244 115.64C93.9884 116.008 93.1724 116.192 92.2764 116.192C91.2524 116.192 90.3324 115.984 89.5164 115.568C88.7004 115.136 88.0524 114.496 87.5724 113.648C87.1084 112.8 86.8764 111.768 86.8764 110.552V102.848H89.0364V110.264C89.0364 111.56 89.3644 112.56 90.0204 113.264C90.6764 113.952 91.5724 114.296 92.7084 114.296C93.8764 114.296 94.7964 113.936 95.4684 113.216C96.1404 112.496 96.4764 111.448 96.4764 110.072V102.848H98.6604ZM114.348 108.92C114.348 109.336 114.324 109.776 114.276 110.24H103.764C103.844 111.536 104.284 112.552 105.084 113.288C105.9 114.008 106.884 114.368 108.036 114.368C108.98 114.368 109.764 114.152 110.388 113.72C111.028 113.272 111.476 112.68 111.732 111.944H114.084C113.732 113.208 113.028 114.24 111.972 115.04C110.916 115.824 109.604 116.216 108.036 116.216C106.788 116.216 105.668 115.936 104.676 115.376C103.7 114.816 102.932 114.024 102.372 113C101.812 111.96 101.532 110.76 101.532 109.4C101.532 108.04 101.804 106.848 102.348 105.824C102.892 104.8 103.652 104.016 104.628 103.472C105.62 102.912 106.756 102.632 108.036 102.632C109.284 102.632 110.388 102.904 111.348 103.448C112.308 103.992 113.044 104.744 113.556 105.704C114.084 106.648 114.348 107.72 114.348 108.92ZM112.092 108.464C112.092 107.632 111.908 106.92 111.54 106.328C111.172 105.72 110.668 105.264 110.028 104.96C109.404 104.64 108.708 104.48 107.94 104.48C106.836 104.48 105.892 104.832 105.108 105.536C104.34 106.24 103.9 107.216 103.788 108.464H112.092ZM122.813 109.376C122.813 108.032 123.085 106.856 123.629 105.848C124.173 104.824 124.917 104.032 125.861 103.472C126.821 102.912 127.885 102.632 129.053 102.632C130.205 102.632 131.205 102.88 132.053 103.376C132.901 103.872 133.533 104.496 133.949 105.248V102.848H136.157V116H133.949V113.552C133.517 114.32 132.869 114.96 132.005 115.472C131.157 115.968 130.165 116.216 129.029 116.216C127.861 116.216 126.805 115.928 125.861 115.352C124.917 114.776 124.173 113.968 123.629 112.928C123.085 111.888 122.813 110.704 122.813 109.376ZM133.949 109.4C133.949 108.408 133.749 107.544 133.349 106.808C132.949 106.072 132.405 105.512 131.717 105.128C131.045 104.728 130.301 104.528 129.485 104.528C128.669 104.528 127.925 104.72 127.253 105.104C126.581 105.488 126.045 106.048 125.645 106.784C125.245 107.52 125.045 108.384 125.045 109.376C125.045 110.384 125.245 111.264 125.645 112.016C126.045 112.752 126.581 113.32 127.253 113.72C127.925 114.104 128.669 114.296 129.485 114.296C130.301 114.296 131.045 114.104 131.717 113.72C132.405 113.32 132.949 112.752 133.349 112.016C133.749 111.264 133.949 110.392 133.949 109.4ZM139.032 109.376C139.032 108.032 139.304 106.856 139.848 105.848C140.392 104.824 141.136 104.032 142.08 103.472C143.04 102.912 144.112 102.632 145.296 102.632C146.32 102.632 147.272 102.872 148.152 103.352C149.032 103.816 149.704 104.432 150.168 105.2V98.24H152.376V116H150.168V113.528C149.736 114.312 149.096 114.96 148.248 115.472C147.4 115.968 146.408 116.216 145.272 116.216C144.104 116.216 143.04 115.928 142.08 115.352C141.136 114.776 140.392 113.968 139.848 112.928C139.304 111.888 139.032 110.704 139.032 109.376ZM150.168 109.4C150.168 108.408 149.968 107.544 149.568 106.808C149.168 106.072 148.624 105.512 147.936 105.128C147.264 104.728 146.52 104.528 145.704 104.528C144.888 104.528 144.144 104.72 143.472 105.104C142.8 105.488 142.264 106.048 141.864 106.784C141.464 107.52 141.264 108.384 141.264 109.376C141.264 110.384 141.464 111.264 141.864 112.016C142.264 112.752 142.8 113.32 143.472 113.72C144.144 114.104 144.888 114.296 145.704 114.296C146.52 114.296 147.264 114.104 147.936 113.72C148.624 113.32 149.168 112.752 149.568 112.016C149.968 111.264 150.168 110.392 150.168 109.4ZM155.251 109.376C155.251 108.032 155.523 106.856 156.067 105.848C156.611 104.824 157.355 104.032 158.299 103.472C159.259 102.912 160.331 102.632 161.515 102.632C162.539 102.632 163.491 102.872 164.371 103.352C165.251 103.816 165.923 104.432 166.387 105.2V98.24H168.595V116H166.387V113.528C165.955 114.312 165.315 114.96 164.467 115.472C163.619 115.968 162.627 116.216 161.491 116.216C160.323 116.216 159.259 115.928 158.299 115.352C157.355 114.776 156.611 113.968 156.067 112.928C155.523 111.888 155.251 110.704 155.251 109.376ZM166.387 109.4C166.387 108.408 166.187 107.544 165.787 106.808C165.387 106.072 164.843 105.512 164.155 105.128C163.483 104.728 162.739 104.528 161.923 104.528C161.107 104.528 160.363 104.72 159.691 105.104C159.019 105.488 158.483 106.048 158.083 106.784C157.683 107.52 157.483 108.384 157.483 109.376C157.483 110.384 157.683 111.264 158.083 112.016C158.483 112.752 159.019 113.32 159.691 113.72C160.363 114.104 161.107 114.296 161.923 114.296C162.739 114.296 163.483 114.104 164.155 113.72C164.843 113.32 165.387 112.752 165.787 112.016C166.187 111.264 166.387 110.392 166.387 109.4Z" fill="#7C8782"/>
<defs>
<linearGradient id="paint0_linear_67_108" x1="16.6316" y1="36.2174" x2="389.039" y2="214.094" gradientUnits="userSpaceOnUse">
<stop stop-color="#5BFFAC"/>
<stop offset="1" stop-color="#78FA52"/>
</linearGradient>
</defs>
</svg>
