<svg width="913" height="1056" viewBox="0 0 913 1056" fill="none" xmlns="http://www.w3.org/2000/svg">
<path d="M893.677 1012.17C894.712 1013.08 896.292 1012.98 897.205 1011.95L912.089 995.074C913.003 994.039 912.904 992.459 911.868 991.546C910.833 990.632 909.253 990.731 908.339 991.767L895.109 1006.77L880.111 993.535C879.075 992.622 877.495 992.721 876.582 993.756C875.669 994.792 875.768 996.372 876.803 997.285L893.677 1012.17ZM614.573 475.576L616.02 473.537L614.573 475.576ZM16.743 457.266L14.3087 457.835L16.743 457.266ZM153.655 5.24639C154.751 4.40651 154.958 2.83726 154.118 1.74137C153.279 0.645493 151.709 0.437962 150.613 1.27784L153.655 5.24639ZM150.613 1.27784C148.923 2.57354 147.2 3.93585 145.45 5.36411L148.611 9.23812C150.324 7.84085 152.006 6.51012 153.655 5.24639L150.613 1.27784ZM135.409 14.0167C132.271 16.8615 129.069 19.895 125.818 23.1142L129.337 26.6667C132.536 23.4978 135.686 20.515 138.767 17.721L135.409 14.0167ZM116.592 32.6257C113.659 35.7682 110.702 39.0535 107.73 42.4797L111.507 45.7559C114.439 42.3751 117.357 39.1348 120.247 36.0368L116.592 32.6257ZM99.2577 52.5918C96.5462 55.9413 93.8319 59.4053 91.1235 62.9826L95.1098 66.0007C97.7855 62.4667 100.466 59.0453 103.144 55.7379L99.2577 52.5918ZM83.3221 73.6318C80.818 77.1646 78.326 80.7944 75.8531 84.5202L80.019 87.2852C82.4635 83.6022 84.9265 80.0145 87.4013 76.5232L83.3221 73.6318ZM68.7168 95.6326C66.4244 99.323 64.155 103.098 61.9143 106.956L66.2381 109.467C68.4537 105.652 70.6976 101.92 72.9641 98.2709L68.7168 95.6326ZM55.4494 118.477C53.3799 122.295 51.3416 126.188 49.3392 130.154L53.8028 132.408C55.783 128.485 57.7988 124.635 59.8453 120.859L55.4494 118.477ZM43.5702 142.008C41.7229 145.949 39.9132 149.956 38.1455 154.03L42.7323 156.02C44.4806 151.991 46.2704 148.028 48.0974 144.131L43.5702 142.008ZM33.0684 166.211C31.4486 170.261 29.872 174.372 28.3424 178.544L33.0368 180.265C34.5496 176.14 36.109 172.073 37.711 168.067L33.0684 166.211ZM23.9711 191.021C22.59 195.154 21.2563 199.343 19.9733 203.586L24.7593 205.033C26.0282 200.836 27.3474 196.694 28.7134 192.606L23.9711 191.021ZM16.3415 216.253C15.1996 220.464 14.1086 224.725 13.0715 229.037L17.9329 230.206C18.9586 225.941 20.0378 221.726 21.1672 217.562L16.3415 216.253ZM10.1661 241.93C9.2676 246.203 8.42285 250.523 7.63466 254.888L12.5552 255.777C13.3348 251.458 14.1704 247.186 15.0591 242.959L10.1661 241.93ZM5.47976 267.879C4.82681 272.195 4.22955 276.553 3.69078 280.954L8.65372 281.562C9.18677 277.208 9.77754 272.896 10.4235 268.627L5.47976 267.879ZM2.26867 294.109C1.86179 298.444 1.51195 302.818 1.22161 307.231L6.2108 307.559C6.4981 303.193 6.84424 298.865 7.24679 294.577L2.26867 294.109ZM0.538315 320.394C0.371889 324.766 0.264036 329.173 0.216958 333.617L5.2167 333.67C5.26329 329.272 5.37001 324.91 5.53469 320.584L0.538315 320.394ZM0.255863 346.789C0.327496 351.145 0.457742 355.535 0.648567 359.957L5.64395 359.742C5.45501 355.364 5.3261 351.019 5.25519 346.707L0.255863 346.789ZM1.39438 373.173C1.69658 377.511 2.05727 381.879 2.47813 386.277L7.45541 385.801C7.03864 381.445 6.68149 377.12 6.38226 372.825L1.39438 373.173ZM3.90179 399.385C4.4294 403.728 5.01586 408.099 5.66283 412.498L10.6096 411.771C9.96874 407.413 9.38788 403.083 8.8653 398.782L3.90179 399.385ZM7.73244 425.464C8.47431 429.773 9.27428 434.109 10.1339 438.47L15.0395 437.503C14.1877 433.181 13.3949 428.885 12.66 424.616L7.73244 425.464ZM12.8298 451.344C13.3081 453.501 13.801 455.665 14.3087 457.835L19.1772 456.696C18.6739 454.545 18.1854 452.4 17.7113 450.262L12.8298 451.344ZM14.3087 457.835C14.7967 459.921 15.3104 462.004 15.8494 464.084L20.6896 462.83C20.1604 460.787 19.6561 458.743 19.1772 456.696L14.3087 457.835ZM19.3826 476.533C20.6519 480.649 22.0174 484.754 23.4751 488.848L28.1854 487.171C26.751 483.143 25.4082 479.105 24.1606 475.059L19.3826 476.533ZM28.0431 500.9C29.6527 504.906 31.3482 508.9 33.1258 512.883L37.6917 510.845C35.9389 506.918 34.2681 502.981 32.6826 499.036L28.0431 500.9ZM38.5641 524.514C40.451 528.376 42.4127 532.226 44.4461 536.065L48.8644 533.724C46.8558 529.933 44.9188 526.131 43.0565 522.319L38.5641 524.514ZM50.6562 547.367C52.7716 551.084 54.9518 554.79 57.1939 558.484L61.4682 555.89C59.2497 552.235 57.0933 548.569 55.0018 544.894L50.6562 547.367ZM64.0689 569.479C66.3728 573.058 68.7326 576.627 71.1455 580.184L75.2832 577.377C72.8923 573.852 70.5548 570.318 68.2735 566.773L64.0689 569.479ZM78.5408 590.819C81.0169 594.295 83.5419 597.761 86.1127 601.214L90.1233 598.228C87.5728 594.802 85.0686 591.365 82.6134 587.918L78.5408 590.819ZM93.9096 611.472C96.543 614.867 99.219 618.251 101.935 621.622L105.829 618.486C103.131 615.137 100.475 611.778 97.8606 608.407L93.9096 611.472ZM110.069 631.544C112.818 634.839 115.603 638.122 118.421 641.393L122.209 638.13C119.408 634.878 116.64 631.615 113.909 628.341L110.069 631.544ZM126.898 651.082C129.738 654.279 132.608 657.465 135.506 660.638L139.198 657.267C136.315 654.11 133.46 650.941 130.637 647.762L126.898 651.082ZM144.283 670.121C147.205 673.237 150.152 676.341 153.121 679.432L156.727 675.968C153.771 672.891 150.838 669.802 147.931 666.701L144.283 670.121ZM162.095 688.665C165.102 691.724 168.129 694.771 171.175 697.804L174.703 694.262C171.67 691.24 168.655 688.206 165.661 685.16L162.095 688.665ZM180.329 706.832C183.398 709.828 186.482 712.811 189.58 715.78L193.04 712.171C189.953 709.212 186.88 706.239 183.823 703.254L180.329 706.832ZM198.909 724.647C202.03 727.588 205.163 730.516 208.306 733.43L211.706 729.764C208.573 726.858 205.45 723.94 202.338 721.008L198.909 724.647ZM217.757 742.131C220.932 745.032 224.113 747.919 227.3 750.791L230.647 747.077C227.469 744.212 224.296 741.333 221.13 738.44L217.757 742.131ZM236.87 759.365C240.076 762.219 243.285 765.059 246.493 767.884L249.797 764.131C246.595 761.312 243.394 758.478 240.195 755.631L236.87 759.365ZM256.186 776.372C259.416 779.186 262.643 781.984 265.866 784.767L269.134 780.983C265.916 778.204 262.694 775.411 259.471 772.602L256.186 776.372ZM275.642 793.173C278.909 795.971 282.17 798.753 285.42 801.518L288.66 797.71C285.413 794.948 282.157 792.17 278.894 789.375L275.642 793.173ZM295.178 809.793C298.485 812.59 301.78 815.37 305.06 818.131L308.28 814.306C305.003 811.547 301.711 808.77 298.406 805.975L295.178 809.793ZM314.85 826.359C318.162 829.138 321.455 831.898 324.727 834.639L327.938 830.806C324.666 828.066 321.374 825.307 318.064 822.529L314.85 826.359ZM334.585 842.893C337.873 845.646 341.135 848.378 344.369 851.088L347.581 847.257C344.346 844.545 341.083 841.812 337.795 839.059L334.585 842.893ZM354.288 859.413C357.562 862.166 360.802 864.895 364.006 867.601L367.232 863.782C364.025 861.072 360.782 858.34 357.505 855.586L354.288 859.413ZM373.899 875.987C377.177 878.776 380.41 881.539 383.596 884.276L386.854 880.483C383.662 877.74 380.422 874.972 377.139 872.179L373.899 875.987ZM393.349 892.705C396.616 895.548 399.825 898.36 402.97 901.141L406.282 897.396C403.126 894.605 399.907 891.784 396.631 888.933L393.349 892.705ZM412.547 909.695C415.775 912.609 418.925 915.487 421.991 918.328L425.389 914.66C422.306 911.803 419.14 908.911 415.898 905.984L412.547 909.695ZM431.344 927.134C434.479 930.136 437.508 933.095 440.424 936.007L443.957 932.47C441.014 929.53 437.96 926.547 434.803 923.523L431.344 927.134ZM449.441 945.257C452.42 948.403 455.246 951.489 457.91 954.515L461.663 951.21C458.954 948.134 456.087 945.004 453.072 941.82L449.441 945.257ZM466.17 964.362C468.956 967.872 471.485 971.287 473.742 974.604L477.876 971.792C475.541 968.359 472.937 964.845 470.086 961.253L466.17 964.362ZM480.234 985.306C482.321 989.272 483.922 993.054 485.017 996.648L489.8 995.191C488.596 991.239 486.862 987.165 484.659 982.977L480.234 985.306ZM486.763 1008.44C486.635 1012.4 485.684 1016.09 483.846 1019.54L488.26 1021.89C490.472 1017.73 491.609 1013.29 491.761 1008.6L486.763 1008.44ZM476.324 1028.61C473.566 1030.95 470.208 1033.19 466.197 1035.3L468.523 1039.72C472.801 1037.48 476.478 1035.04 479.566 1032.41L476.324 1028.61ZM454.873 1040.26C451.15 1041.63 447.071 1042.92 442.622 1044.13L443.932 1048.95C448.503 1047.71 452.722 1046.38 456.599 1044.95L454.873 1040.26ZM430.459 1047.03C428.296 1047.48 426.065 1047.92 423.764 1048.34L424.667 1053.26C427.007 1052.83 429.279 1052.39 431.485 1051.92L430.459 1047.03ZM423.764 1048.34C421.524 1048.75 419.32 1049.1 417.151 1049.38L417.798 1054.34C420.054 1054.05 422.344 1053.69 424.667 1053.26L423.764 1048.34ZM404.571 1050.33C400.167 1050.4 395.929 1050.19 391.853 1049.71L391.263 1054.67C395.573 1055.18 400.036 1055.41 404.655 1055.33L404.571 1050.33ZM379.644 1047.33C375.507 1046.18 371.557 1044.73 367.789 1042.97L365.677 1047.5C369.698 1049.38 373.909 1050.93 378.312 1052.15L379.644 1047.33ZM356.924 1036.76C353.487 1034.4 350.223 1031.75 347.131 1028.82L343.694 1032.45C346.968 1035.55 350.433 1038.36 354.093 1040.88L356.924 1036.76ZM338.587 1019.51C336.01 1016.3 333.579 1012.86 331.292 1009.2L327.053 1011.86C329.437 1015.67 331.98 1019.27 334.686 1022.64L338.587 1019.51ZM325.012 997.914C323.19 994.229 321.485 990.378 319.896 986.372L315.248 988.215C316.884 992.34 318.644 996.316 320.53 1000.13L325.012 997.914ZM315.573 974.202C314.31 970.219 313.146 966.113 312.079 961.89L307.232 963.115C308.322 967.428 309.513 971.631 310.807 975.713L315.573 974.202ZM309.249 949.287C308.43 945.153 307.694 940.926 307.04 936.612L302.097 937.361C302.761 941.746 303.51 946.047 304.344 950.259L309.249 949.287ZM305.363 923.766C304.899 919.564 304.505 915.291 304.183 910.955L299.197 911.326C299.524 915.72 299.922 920.051 300.393 924.316L305.363 923.766ZM303.433 897.95C303.258 893.724 303.145 889.447 303.093 885.121L298.093 885.181C298.146 889.554 298.26 893.881 298.437 898.157L303.433 897.95ZM303.122 872.013C303.189 867.786 303.312 863.521 303.489 859.222L298.493 859.016C298.314 863.356 298.19 867.664 298.122 871.933L303.122 872.013ZM304.183 846.223C304.463 841.954 304.793 837.655 305.174 833.332L300.194 832.893C299.809 837.253 299.476 841.589 299.194 845.897L304.183 846.223ZM306.451 820.454C306.923 816.16 307.443 811.847 308.01 807.516L303.053 806.867C302.481 811.231 301.957 815.579 301.481 819.907L306.451 820.454ZM309.813 794.749C310.458 790.48 311.149 786.199 311.883 781.909L306.954 781.065C306.215 785.387 305.519 789.7 304.869 794.002L309.813 794.749ZM314.188 769.165C314.994 764.935 315.843 760.699 316.732 756.462L311.838 755.435C310.943 759.702 310.089 763.968 309.276 768.229L314.188 769.165ZM319.518 743.763C320.48 739.563 321.482 735.366 322.522 731.173L317.669 729.969C316.622 734.191 315.613 738.418 314.644 742.647L319.518 743.763ZM325.76 718.613C326.877 714.436 328.032 710.267 329.225 706.109L324.419 704.73C323.218 708.917 322.054 713.115 320.929 717.322L325.76 718.613ZM332.915 693.679C334.182 689.549 335.486 685.435 336.825 681.339L332.073 679.784C330.724 683.91 329.411 688.054 328.135 692.212L332.915 693.679ZM340.983 669.022C342.405 664.936 343.863 660.872 345.357 656.834L340.667 655.099C339.163 659.168 337.693 663.262 336.261 667.378L340.983 669.022ZM349.971 644.724C351.559 640.678 353.183 636.662 354.841 632.679L350.225 630.757C348.553 634.772 346.917 638.82 345.317 642.897L349.971 644.724ZM359.919 620.833C361.682 616.839 363.481 612.883 365.314 608.969L360.786 606.849C358.937 610.797 357.123 614.787 355.345 618.814L359.919 620.833ZM370.932 597.325C372.864 593.438 374.831 589.599 376.833 585.81L372.411 583.475C370.391 587.301 368.405 591.177 366.455 595.1L370.932 597.325ZM383.052 574.399C385.161 570.648 387.306 566.954 389.483 563.322L385.195 560.751C382.993 564.424 380.825 568.158 378.694 571.948L383.052 574.399ZM396.377 552.205C398.711 548.57 401.08 545.005 403.482 541.516L399.364 538.68C396.93 542.215 394.531 545.825 392.17 549.505L396.377 552.205ZM411.046 530.938C413.635 527.453 416.26 524.057 418.92 520.754L415.026 517.618C412.323 520.973 409.659 524.421 407.032 527.956L411.046 530.938ZM427.236 510.866C430.113 507.595 433.026 504.435 435.975 501.391L432.384 497.912C429.377 501.016 426.409 504.236 423.481 507.564L427.236 510.866ZM445.163 492.395C448.357 489.435 451.589 486.612 454.858 483.933L451.688 480.066C448.338 482.812 445.029 485.702 441.764 488.728L445.163 492.395ZM465.043 476.141C468.573 473.631 472.141 471.291 475.744 469.128L473.171 464.841C469.452 467.073 465.776 469.485 462.146 472.066L465.043 476.141ZM486.992 463.017C490.845 461.141 494.735 459.469 498.661 458.01L496.919 453.323C492.835 454.841 488.796 456.578 484.803 458.522L486.992 463.017ZM510.838 454.204C514.95 453.161 519.099 452.352 523.282 451.788L522.615 446.833C518.238 447.423 513.901 448.268 509.608 449.357L510.838 454.204ZM535.925 450.842C540.11 450.779 544.329 450.963 548.581 451.404L549.097 446.431C544.649 445.969 540.232 445.777 535.849 445.843L535.925 450.842ZM561.131 453.445C565.161 454.337 569.221 455.463 573.308 456.833L574.897 452.092C570.647 450.668 566.417 449.494 562.211 448.563L561.131 453.445ZM585.265 461.509C589.013 463.184 592.783 465.067 596.573 467.164L598.994 462.789C595.084 460.626 591.187 458.679 587.305 456.944L585.265 461.509ZM607.581 473.825C609.425 475.037 611.273 476.299 613.126 477.614L616.02 473.537C614.12 472.188 612.222 470.891 610.327 469.646L607.581 473.825ZM613.126 477.614C614.888 478.865 616.64 480.125 618.382 481.393L621.325 477.351C619.567 476.071 617.799 474.799 616.02 473.537L613.126 477.614ZM628.71 489.109C632.135 491.732 635.518 494.389 638.862 497.08L641.997 493.185C638.622 490.469 635.207 487.787 631.751 485.139L628.71 489.109ZM648.801 505.276C652.098 508.061 655.355 510.878 658.571 513.726L661.886 509.983C658.641 507.109 655.355 504.266 652.027 501.456L648.801 505.276ZM668.115 522.377C671.279 525.312 674.403 528.278 677.486 531.271L680.969 527.684C677.859 524.664 674.707 521.673 671.515 518.711L668.115 522.377ZM686.635 540.356C689.661 543.428 692.646 546.528 695.591 549.653L699.23 546.224C696.26 543.072 693.249 539.946 690.198 536.848L686.635 540.356ZM704.339 559.141C707.225 562.34 710.071 565.563 712.877 568.81L716.66 565.54C713.831 562.267 710.961 559.017 708.051 555.792L704.339 559.141ZM721.221 578.67C723.968 581.985 726.675 585.322 729.343 588.679L733.257 585.569C730.569 582.185 727.84 578.822 725.072 575.48L721.221 578.67ZM737.282 598.881C739.895 602.309 742.468 605.755 745.002 609.219L749.037 606.267C746.484 602.777 743.891 599.304 741.259 595.85L737.282 598.881ZM752.526 619.715C755.006 623.246 757.446 626.794 759.848 630.355L763.994 627.56C761.574 623.972 759.116 620.399 756.617 616.842L752.526 619.715ZM766.96 641.116C769.309 644.743 771.619 648.382 773.891 652.033L778.136 649.392C775.849 645.716 773.523 642.051 771.157 638.398L766.96 641.116ZM780.607 663.048C782.824 666.757 785.002 670.475 787.141 674.201L791.477 671.712C789.324 667.961 787.131 664.217 784.899 660.483L780.607 663.048ZM793.477 685.46C795.56 689.238 797.605 693.022 799.612 696.81L804.03 694.469C802.01 690.656 799.952 686.848 797.855 683.045L793.477 685.46ZM805.574 708.294C807.531 712.141 809.449 715.991 811.33 719.841L815.822 717.647C813.93 713.772 812 709.898 810.03 706.027L805.574 708.294ZM816.91 731.504C818.747 735.423 820.545 739.34 822.304 743.253L826.865 741.203C825.094 737.266 823.286 733.325 821.438 729.382L816.91 731.504ZM827.497 755.047C829.216 759.033 830.895 763.013 832.536 766.985L837.157 765.076C835.507 761.081 833.818 757.077 832.089 753.067L827.497 755.047ZM837.377 778.962C838.967 782.984 840.519 786.995 842.031 790.993L846.708 789.224C845.186 785.203 843.626 781.168 842.027 777.123L837.377 778.962ZM846.525 803.145C847.998 807.22 849.431 811.279 850.824 815.32L855.551 813.69C854.15 809.626 852.709 805.544 851.227 801.445L846.525 803.145ZM854.942 827.547C856.301 831.685 857.62 835.799 858.898 839.889L863.67 838.397C862.385 834.285 861.059 830.147 859.692 825.986L854.942 827.547ZM862.661 852.246C863.893 856.399 865.083 860.523 866.232 864.614L871.046 863.262C869.89 859.148 868.694 855.001 867.455 850.824L862.661 852.246ZM869.648 877.131C870.765 881.348 871.838 885.526 872.868 889.662L877.72 888.453C876.684 884.294 875.605 880.091 874.481 875.85L869.648 877.131ZM875.893 902.204C876.881 906.442 877.822 910.629 878.719 914.761L883.605 913.701C882.703 909.543 881.756 905.332 880.762 901.069L875.893 902.204ZM881.368 927.457C882.231 931.764 883.043 936.003 883.807 940.17L888.725 939.27C887.957 935.075 887.139 930.809 886.271 926.475L881.368 927.457ZM886.026 952.905C886.744 957.251 887.407 961.506 888.015 965.664L892.962 964.94C892.349 960.751 891.682 956.466 890.959 952.089L886.026 952.905ZM889.757 978.454C890.312 982.862 890.802 987.139 891.229 991.278L896.202 990.765C895.771 986.588 895.277 982.273 894.718 977.829L889.757 978.454ZM892.393 1004.13C892.559 1006.29 892.706 1008.39 892.835 1010.45L897.826 1010.14C897.695 1008.05 897.546 1005.92 897.378 1003.75L892.393 1004.13Z" fill="#FF8D56"/>
</svg>
