<svg width="215" height="48" viewBox="0 0 215 48" fill="none" xmlns="http://www.w3.org/2000/svg">
<path d="M82.656 34V11.6H93.6C96.416 11.6 98.528 12.1333 99.936 13.2C101.365 14.2667 102.08 15.6747 102.08 17.424C102.08 18.5973 101.792 19.6213 101.216 20.496C100.64 21.3493 99.8507 22.0107 98.848 22.48C97.8453 22.9493 96.6933 23.184 95.392 23.184L96 21.872C97.408 21.872 98.656 22.1067 99.744 22.576C100.832 23.024 101.675 23.696 102.272 24.592C102.891 25.488 103.2 26.5867 103.2 27.888C103.2 29.808 102.443 31.312 100.928 32.4C99.4133 33.4667 97.184 34 94.24 34H82.656ZM87.808 30.096H93.856C95.2 30.096 96.2133 29.8827 96.896 29.456C97.6 29.008 97.952 28.304 97.952 27.344C97.952 26.4053 97.6 25.712 96.896 25.264C96.2133 24.7947 95.2 24.56 93.856 24.56H87.424V20.784H92.96C94.2187 20.784 95.1787 20.5707 95.84 20.144C96.5227 19.696 96.864 19.024 96.864 18.128C96.864 17.2533 96.5227 16.6027 95.84 16.176C95.1787 15.728 94.2187 15.504 92.96 15.504H87.808V30.096ZM106.773 34V16.784H111.541V21.648L110.869 20.24C111.381 19.024 112.202 18.1067 113.333 17.488C114.463 16.848 115.839 16.528 117.461 16.528V21.136C117.247 21.1147 117.055 21.104 116.885 21.104C116.714 21.0827 116.533 21.072 116.341 21.072C114.975 21.072 113.866 21.4667 113.013 22.256C112.181 23.024 111.765 24.2293 111.765 25.872V34H106.773ZM120.46 34V16.784H125.452V34H120.46ZM122.956 14.384C122.039 14.384 121.292 14.1173 120.716 13.584C120.14 13.0507 119.852 12.3893 119.852 11.6C119.852 10.8107 120.14 10.1493 120.716 9.616C121.292 9.08267 122.039 8.816 122.956 8.816C123.874 8.816 124.62 9.072 125.196 9.584C125.772 10.0747 126.06 10.7147 126.06 11.504C126.06 12.336 125.772 13.0293 125.196 13.584C124.642 14.1173 123.895 14.384 122.956 14.384ZM137.477 34.256C135.856 34.256 134.395 33.8933 133.093 33.168C131.792 32.4213 130.757 31.3867 129.989 30.064C129.243 28.7413 128.869 27.184 128.869 25.392C128.869 23.5787 129.243 22.0107 129.989 20.688C130.757 19.3653 131.792 18.3413 133.093 17.616C134.395 16.8907 135.856 16.528 137.477 16.528C138.928 16.528 140.197 16.848 141.285 17.488C142.373 18.128 143.216 19.0987 143.813 20.4C144.411 21.7013 144.709 23.3653 144.709 25.392C144.709 27.3973 144.421 29.0613 143.845 30.384C143.269 31.6853 142.437 32.656 141.349 33.296C140.283 33.936 138.992 34.256 137.477 34.256ZM138.341 30.16C139.152 30.16 139.888 29.968 140.549 29.584C141.211 29.2 141.733 28.656 142.117 27.952C142.523 27.2267 142.725 26.3733 142.725 25.392C142.725 24.3893 142.523 23.536 142.117 22.832C141.733 22.128 141.211 21.584 140.549 21.2C139.888 20.816 139.152 20.624 138.341 20.624C137.509 20.624 136.763 20.816 136.101 21.2C135.44 21.584 134.907 22.128 134.501 22.832C134.117 23.536 133.925 24.3893 133.925 25.392C133.925 26.3733 134.117 27.2267 134.501 27.952C134.907 28.656 135.44 29.2 136.101 29.584C136.763 29.968 137.509 30.16 138.341 30.16ZM142.853 34V30.48L142.949 25.36L142.629 20.272V10.256H147.621V34H142.853ZM160.338 40.464C158.716 40.464 157.148 40.2613 155.634 39.856C154.14 39.472 152.892 38.8853 151.89 38.096L153.874 34.512C154.599 35.1093 155.516 35.5787 156.626 35.92C157.756 36.2827 158.866 36.464 159.954 36.464C161.724 36.464 163.004 36.0693 163.794 35.28C164.604 34.4907 165.01 33.3173 165.01 31.76V29.168L165.33 24.848L165.266 20.496V16.784H170.002V31.12C170.002 34.32 169.17 36.6773 167.506 38.192C165.842 39.7067 163.452 40.464 160.338 40.464ZM159.57 33.168C157.97 33.168 156.519 32.8267 155.218 32.144C153.938 31.44 152.903 30.4693 152.114 29.232C151.346 27.9733 150.962 26.512 150.962 24.848C150.962 23.1627 151.346 21.7013 152.114 20.464C152.903 19.2053 153.938 18.2347 155.218 17.552C156.519 16.8693 157.97 16.528 159.57 16.528C161.02 16.528 162.3 16.8267 163.41 17.424C164.519 18 165.383 18.9067 166.002 20.144C166.62 21.36 166.93 22.928 166.93 24.848C166.93 26.7467 166.62 28.3147 166.002 29.552C165.383 30.768 164.519 31.6747 163.41 32.272C162.3 32.8693 161.02 33.168 159.57 33.168ZM160.562 29.072C161.436 29.072 162.215 28.9013 162.898 28.56C163.58 28.1973 164.114 27.696 164.498 27.056C164.882 26.416 165.074 25.68 165.074 24.848C165.074 23.9947 164.882 23.2587 164.498 22.64C164.114 22 163.58 21.5093 162.898 21.168C162.215 20.8053 161.436 20.624 160.562 20.624C159.687 20.624 158.908 20.8053 158.226 21.168C157.543 21.5093 156.999 22 156.594 22.64C156.21 23.2587 156.018 23.9947 156.018 24.848C156.018 25.68 156.21 26.416 156.594 27.056C156.999 27.696 157.543 28.1973 158.226 28.56C158.908 28.9013 159.687 29.072 160.562 29.072ZM183.192 34.256C181.229 34.256 179.501 33.872 178.008 33.104C176.536 32.336 175.394 31.2907 174.584 29.968C173.773 28.624 173.368 27.0987 173.368 25.392C173.368 23.664 173.762 22.1387 174.552 20.816C175.362 19.472 176.461 18.4267 177.848 17.68C179.234 16.912 180.802 16.528 182.552 16.528C184.237 16.528 185.752 16.8907 187.096 17.616C188.461 18.32 189.538 19.344 190.328 20.688C191.117 22.0107 191.512 23.6 191.512 25.456C191.512 25.648 191.501 25.872 191.48 26.128C191.458 26.3627 191.437 26.5867 191.416 26.8H177.432V23.888H188.792L186.872 24.752C186.872 23.856 186.69 23.0773 186.328 22.416C185.965 21.7547 185.464 21.2427 184.824 20.88C184.184 20.496 183.437 20.304 182.584 20.304C181.73 20.304 180.973 20.496 180.312 20.88C179.672 21.2427 179.17 21.7653 178.808 22.448C178.445 23.1093 178.264 23.8987 178.264 24.816V25.584C178.264 26.5227 178.466 27.3547 178.872 28.08C179.298 28.784 179.885 29.328 180.632 29.712C181.4 30.0747 182.296 30.256 183.32 30.256C184.237 30.256 185.037 30.1173 185.72 29.84C186.424 29.5627 187.064 29.1467 187.64 28.592L190.296 31.472C189.506 32.368 188.514 33.0613 187.32 33.552C186.125 34.0213 184.749 34.256 183.192 34.256Z" fill="black"/>
<g clip-path="url(#clip0_33_228)">
<path d="M3.55364 2.94446C1.58803 2.94446 0 4.26026 0 5.8889C0 7.51755 1.58803 8.83335 3.55364 8.83335H7.99569V14.7222H0V26.5C5.88572 26.5 10.6609 30.4566 10.6609 35.3334V41.2222C10.6609 42.8509 12.249 44.1667 14.2146 44.1667H17.7682C19.7338 44.1667 21.3218 42.8509 21.3218 41.2222V35.3334C21.3218 30.4566 26.097 26.5 31.9828 26.5C37.8685 26.5 42.6437 30.4566 42.6437 35.3334V41.2222C42.6437 42.8509 44.2317 44.1667 46.1973 44.1667H49.751C51.7166 44.1667 53.3046 42.8509 53.3046 41.2222V35.3334C53.3046 30.4566 58.0798 26.5 63.9655 26.5V14.7222H55.9698V8.83335H60.4119C62.3775 8.83335 63.9655 7.51755 63.9655 5.8889C63.9655 4.26026 62.3775 2.94446 60.4119 2.94446H3.55364ZM50.6394 8.83335V14.7222H41.7553V8.83335H50.6394ZM36.4248 8.83335V14.7222H27.5407V8.83335H36.4248ZM22.2102 8.83335V14.7222H13.3261V8.83335H22.2102Z" fill="url(#paint0_linear_33_228)"/>
</g>
<defs>
<linearGradient id="paint0_linear_33_228" x1="58.6351" y1="2.65003" x2="15.5291" y2="46.0037" gradientUnits="userSpaceOnUse">
<stop stop-color="#00F0FF"/>
<stop offset="0.245" stop-color="#000AFF"/>
<stop offset="0.53" stop-color="#5200FF"/>
<stop offset="0.78" stop-color="#EA00FE"/>
<stop offset="1" stop-color="#FE0000"/>
</linearGradient>
<clipPath id="clip0_33_228">
<rect width="63.9655" height="47.1111" fill="white"/>
</clipPath>
</defs>
</svg>
