<svg width="353" height="111" viewBox="0 0 353 111" fill="none" xmlns="http://www.w3.org/2000/svg">
  <path
    d="M256.095 43.4796C248.817 44.3842 243.451 48.5167 241.478 54.6845C240.121 58.8787 240.285 62.8673 241.992 66.9175C244.006 71.7079 248.345 75.1208 254.101 76.416C255.767 76.8067 260.063 76.8272 261.79 76.4983C268.472 75.1825 273.139 71.0294 275.072 64.7382C275.524 63.2373 275.586 62.785 275.586 60.1123C275.586 57.4395 275.524 56.9872 275.072 55.4864C273.16 49.2774 268.657 45.186 262.222 43.8291C260.886 43.5618 257.226 43.3562 256.095 43.4796ZM260.166 51.6417C262.572 52.2791 264.854 53.8416 265.902 55.6714C267.527 58.4264 267.465 62.0654 265.779 64.6971C262.757 69.4463 255.849 70.2276 251.696 66.2802C248.242 62.9906 248.118 57.7685 251.408 54.2117C253.608 51.8679 257.103 50.8605 260.166 51.6417Z"
    fill="white" />
  <path
    d="M291.663 43.4796C284.385 44.3842 279.019 48.5167 277.046 54.6845C275.689 58.8787 275.853 62.8673 277.559 66.9175C279.574 71.7079 283.912 75.1208 289.669 76.416C291.334 76.8067 295.631 76.8272 297.358 76.4983C304.04 75.1825 308.707 71.0294 310.64 64.7382C311.092 63.2373 311.154 62.785 311.154 60.1123C311.154 57.4395 311.092 56.9872 310.64 55.4864C308.728 49.2774 304.225 45.186 297.79 43.8291C296.454 43.5618 292.794 43.3562 291.663 43.4796ZM295.755 51.6417C298.181 52.2791 300.442 53.8416 301.491 55.6714C303.115 58.4264 303.053 62.0654 301.367 64.6971C298.345 69.4463 291.437 70.2276 287.284 66.2802C283.83 62.9906 283.707 57.7685 286.996 54.2117C289.176 51.8679 292.671 50.8605 295.755 51.6417Z"
    fill="white" />
  <path
    d="M339.568 43.5825C335.332 44.1992 332.146 46.9131 331.118 50.8194C330.131 54.4996 330.83 58.262 332.803 60.0918C333.975 61.1815 335.373 61.8188 339.218 63.0524C342.939 64.2448 343.782 64.7588 344.173 66.013C344.605 67.4521 343.536 69.1791 341.911 69.6315C341.027 69.8782 339.362 69.8782 338.252 69.6109C337.039 69.3231 334.859 68.254 333.934 67.4521C333.523 67.0615 333.05 66.7737 332.968 66.7737C332.886 66.7737 332.413 67.4727 331.96 68.3362C331.323 69.5492 331.118 69.8165 331.076 69.4875L331.015 69.0763H326.06H321.126V56.6172V44.1581H317.034H312.943V60.1329V76.1077H321.969H330.994V75.2237C330.994 74.7508 331.035 74.3602 331.076 74.3602C331.118 74.3602 331.858 74.7097 332.721 75.1003C335.394 76.3545 337.1 76.7245 340.41 76.7245C343.638 76.7245 345.16 76.4367 347.154 75.4704C348.737 74.7097 350.875 72.592 351.595 71.1117C353.013 68.1512 353.219 64.1626 352.027 61.6338C351.821 61.1609 351.122 60.2357 350.464 59.5984C349.066 58.2003 347.565 57.4396 343.721 56.206C342.199 55.7332 340.678 55.1575 340.328 54.9519C339.095 54.1912 338.848 52.5259 339.814 51.4773C341.5 49.6681 344.502 49.8326 347.627 51.9091L348.244 52.2997L349.909 49.113C350.793 47.386 351.533 45.9263 351.492 45.9057C351.307 45.7207 348.984 44.7955 347.668 44.3843C344.892 43.5208 341.973 43.2124 339.568 43.5825Z"
    fill="white" />
  <path
    d="M109.711 55.5892V76.6422H117.154C121.245 76.6422 125.522 76.5188 126.632 76.3955C135.822 75.2647 142.607 69.693 144.786 61.5103C145.506 58.7964 145.67 54.0266 145.156 51.1894C144.108 45.6794 141.25 41.2386 136.85 38.2369C134.876 36.8799 133.108 36.1398 130.271 35.3585C128.051 34.7623 127.701 34.7623 118.86 34.6389L109.732 34.5361V55.5892H109.711ZM125.953 43.13C131.731 44.3636 135.575 49.1951 135.575 55.2396C135.555 59.2488 134.321 62.7028 132.019 64.9849C129.736 67.2876 126.344 68.3978 121.615 68.4183H119.374V55.6097V42.8011H121.862C123.219 42.8011 125.049 42.9656 125.953 43.13Z"
    fill="white" />
  <path
    d="M148.631 55.6097V76.6422L166.353 76.6216H184.055L188.619 70.207C191.148 66.7119 193.266 63.8335 193.327 63.8335C193.43 63.8335 195.548 66.7119 198.056 70.2481L202.641 76.6627H208.398C211.543 76.6627 214.134 76.5805 214.134 76.5188C214.134 76.4366 210.741 71.7079 206.65 66.0129L199.166 55.6508L206.321 45.6589C210.268 40.1901 213.702 35.4819 213.928 35.2146C214.38 34.7623 214.38 34.824 214.38 39.0387V43.3151H218.739H223.098V59.9889V76.6627H228.299H233.501V59.9889V43.3151L238.579 43.274L243.637 43.1918L240.923 38.9154L238.209 34.639L220.445 34.6184H202.661L198.097 41.033C195.568 44.5281 193.451 47.4065 193.389 47.4476C193.307 47.4476 191.189 44.5692 188.681 41.033L184.096 34.6184H166.394H148.672V55.6097H148.631ZM179.902 45.0832C183.973 50.7166 187.303 55.4452 187.303 55.5892C187.303 55.7331 183.973 60.5029 179.881 66.1773L172.439 76.4982L172.357 72.4686L172.315 68.4389H165.305H158.294V63.7102V59.0021H163.968H169.643V55.0135V51.0249H163.968H158.294V46.913V42.8011H165.305H172.315V38.8126C172.315 36.6127 172.357 34.824 172.418 34.824C172.48 34.824 175.831 39.4499 179.902 45.0832Z"
    fill="white" />
  <path fill-rule="evenodd" clip-rule="evenodd"
    d="M36.3137 6.65728C29.7346 10.0907 24.3275 12.9896 24.348 13.113C24.348 13.4214 40.1583 21.4191 40.7134 21.3985C40.9602 21.3985 42.8105 20.535 44.8254 19.507L48.485 17.6361L52.4735 19.6921L56.4621 21.748L63 18.808C72.8275 14.3877 73.8555 13.8943 73.691 13.7503C73.4854 13.5242 69.9492 11.6327 60.3684 6.59561C55.7425 4.16958 51.2605 1.7641 50.397 1.29123C49.5335 0.797803 48.7111 0.427734 48.5672 0.427734C48.4233 0.427734 42.8928 3.22383 36.3137 6.65728ZM7.4275 21.6247L0.5606 25.1609V40.7039C0.5606 49.2567 0.642838 56.247 0.766196 56.247C0.868994 56.247 4.24076 54.7873 8.27044 52.9986L15.5691 49.7502V33.3642L19.1259 35.2968C21.8809 36.7976 24.6153 38.2779 27.3703 39.7788L32.0579 42.3076L34.1344 41.3618C35.4502 40.7656 36.7454 40.1694 38.0407 39.5732C39.0481 39.1003 41.5153 37.9901 43.5301 37.106C45.5449 36.222 47.3953 35.3173 47.6626 35.1117C48.0121 34.8445 43.7357 32.4801 31.8523 26.3739C22.8883 21.7686 15.2607 18.0267 14.9112 18.0473C14.5617 18.0679 11.1899 19.6715 7.4275 21.6247ZM74.904 22.6115C70.237 24.7291 66.4129 26.5384 66.4129 26.6412C66.4129 26.744 68.9623 28.2654 72.0668 30.013C75.1919 31.7605 77.7207 33.2819 77.7207 33.4053C77.7207 33.5286 74.9657 34.865 71.5939 36.3659C68.2222 37.8873 59.7105 41.7319 52.6586 44.9187L29.0767 55.5891C23.135 58.2618 17.7895 60.6878 17.1933 60.9551C5.0837 66.4445 1.7325 67.9659 1.28018 68.2332C0.827874 68.5005 0.725075 70.0219 0.642837 77.6906L0.540039 86.8396L6.66679 89.9647L12.7935 93.0898L21.3052 89.2451C25.9722 87.1275 29.8169 85.2977 29.8169 85.1537C29.8169 85.0098 28.9534 84.4547 27.9048 83.8996C26.8563 83.3445 24.677 82.1109 23.0528 81.1652C21.4491 80.2195 19.8455 79.3559 19.496 79.2326C19.1465 79.1092 18.8586 78.9242 18.8586 78.7803C18.8586 78.6569 22.6005 76.8682 27.1852 74.8328C36.067 70.8648 42.8516 67.8015 57.4284 61.2018C63.9458 58.2618 70.4632 55.3012 77.0011 52.3612C82.7372 49.7707 89.3985 46.7485 91.804 45.6382L96.1832 43.6234L96.286 34.3716L96.3888 25.1198L90.1798 21.9536C86.7669 20.2061 83.8269 18.7669 83.683 18.7669C83.5185 18.7669 79.571 20.5144 74.904 22.6115ZM94.5384 56.0003C93.6132 56.4526 91.804 57.2955 90.5087 57.8712C89.2135 58.4469 86.7463 59.5571 85.0399 60.3383L81.9354 61.757L81.8737 69.878C81.8326 74.3394 81.6681 77.9785 81.5036 77.9579C81.1336 77.8962 75.3152 74.9151 69.4557 71.7695C65.2205 69.5079 64.9532 69.4051 63.9663 69.8985C63.3907 70.1864 59.9572 71.7283 56.3387 73.3114C52.7202 74.9151 49.6363 76.3131 49.4924 76.457C49.3485 76.5804 56.6266 80.5278 65.6933 85.236L82.141 93.7888L89.1724 90.1497C93.0376 88.1554 96.3271 86.3257 96.471 86.0995C96.8205 85.5855 96.7794 55.1162 96.4505 55.1573C96.3065 55.1779 95.443 55.548 94.5384 56.0003ZM55.5986 91.7534C54.3856 92.2674 53.152 92.8019 51.939 93.3365C48.2588 94.9195 48.9784 94.9812 44.5992 92.8019C41.6797 91.3422 40.4256 90.9104 39.8705 91.116C39.4593 91.2805 35.9436 92.8636 32.0373 94.6317C28.1516 96.3998 24.8209 97.8596 24.6564 97.8596C23.0117 97.8596 25.7461 99.4838 36.2315 104.768L48.5261 110.977L53.7071 108.427C56.5443 107.029 62.301 104.212 66.454 102.177C70.6276 100.142 73.9788 98.4352 73.9172 98.353C73.8555 98.2913 70.3604 96.5026 66.1456 94.3644L58.4975 90.4992L55.5986 91.7534Z"
    fill="white" />
</svg>