<svg width="652" height="38" viewBox="0 0 652 38" fill="none" xmlns="http://www.w3.org/2000/svg">
<path d="M27.1416 11.624C26.3096 10.0987 25.1656 8.93733 23.7096 8.14C22.2536 7.34267 20.5549 6.944 18.6136 6.944C16.4642 6.944 14.5576 7.42933 12.8936 8.4C11.2296 9.37067 9.92956 10.7573 8.99356 12.56C8.05756 14.3627 7.58956 16.4427 7.58956 18.8C7.58956 21.2267 8.05756 23.3413 8.99356 25.144C9.96422 26.9467 11.2989 28.3333 12.9976 29.304C14.6962 30.2747 16.6722 30.76 18.9256 30.76C21.6989 30.76 23.9696 30.032 25.7376 28.576C27.5056 27.0853 28.6669 25.0227 29.2216 22.388H16.7416V16.824H36.3976V23.168C35.9122 25.6987 34.8722 28.0387 33.2776 30.188C31.6829 32.3373 29.6202 34.0707 27.0896 35.388C24.5936 36.6707 21.7856 37.312 18.6656 37.312C15.1642 37.312 11.9922 36.532 9.14956 34.972C6.34156 33.3773 4.12289 31.176 2.49356 28.368C0.898889 25.56 0.101555 22.3707 0.101555 18.8C0.101555 15.2293 0.898889 12.04 2.49356 9.232C4.12289 6.38933 6.34156 4.188 9.14956 2.628C11.9922 1.03333 15.1469 0.235999 18.6136 0.235999C22.7042 0.235999 26.2576 1.24133 29.2736 3.252C32.2896 5.228 34.3696 8.01867 35.5136 11.624H27.1416ZM49.0636 6.58V15.68H61.2836V21.452H49.0636V31.072H62.8436V37H41.7836V0.651997H62.8436V6.58H49.0636ZM94.1594 0.703999V6.58H84.4874V37H77.2074V6.58H67.5354V0.703999H94.1594ZM119.142 0.703999V37H111.862V0.703999H119.142ZM157.378 37H150.098L133.614 12.092V37H126.334V0.651997H133.614L150.098 25.612V0.651997H157.378V37ZM201.663 0.703999V6.58H191.991V37H184.711V6.58H175.039V0.703999H201.663ZM223.823 37.364C220.426 37.364 217.306 36.5667 214.463 34.972C211.62 33.3773 209.367 31.176 207.703 28.368C206.039 25.5253 205.207 22.3187 205.207 18.748C205.207 15.212 206.039 12.04 207.703 9.232C209.367 6.38933 211.62 4.17066 214.463 2.576C217.306 0.981332 220.426 0.184 223.823 0.184C227.255 0.184 230.375 0.981332 233.183 2.576C236.026 4.17066 238.262 6.38933 239.891 9.232C241.555 12.04 242.387 15.212 242.387 18.748C242.387 22.3187 241.555 25.5253 239.891 28.368C238.262 31.176 236.026 33.3773 233.183 34.972C230.34 36.5667 227.22 37.364 223.823 37.364ZM223.823 30.864C226.007 30.864 227.931 30.3787 229.595 29.408C231.259 28.4027 232.559 26.9813 233.495 25.144C234.431 23.3067 234.899 21.1747 234.899 18.748C234.899 16.3213 234.431 14.2067 233.495 12.404C232.559 10.5667 231.259 9.16267 229.595 8.192C227.931 7.22133 226.007 6.736 223.823 6.736C221.639 6.736 219.698 7.22133 217.999 8.192C216.335 9.16267 215.035 10.5667 214.099 12.404C213.163 14.2067 212.695 16.3213 212.695 18.748C212.695 21.1747 213.163 23.3067 214.099 25.144C215.035 26.9813 216.335 28.4027 217.999 29.408C219.698 30.3787 221.639 30.864 223.823 30.864ZM254.979 0.703999V23.168C254.979 25.6293 255.62 27.5187 256.903 28.836C258.186 30.1187 259.988 30.76 262.311 30.76C264.668 30.76 266.488 30.1187 267.771 28.836C269.054 27.5187 269.695 25.6293 269.695 23.168V0.703999H277.027V23.116C277.027 26.2013 276.351 28.8187 274.999 30.968C273.682 33.0827 271.896 34.6773 269.643 35.752C267.424 36.8267 264.946 37.364 262.207 37.364C259.503 37.364 257.042 36.8267 254.823 35.752C252.639 34.6773 250.906 33.0827 249.623 30.968C248.34 28.8187 247.699 26.2013 247.699 23.116V0.703999H254.979ZM282.293 18.8C282.293 15.2293 283.09 12.04 284.685 9.232C286.314 6.38933 288.516 4.188 291.289 2.628C294.097 1.03333 297.234 0.235999 300.701 0.235999C304.757 0.235999 308.31 1.276 311.361 3.356C314.412 5.436 316.544 8.31333 317.757 11.988H309.385C308.553 10.2547 307.374 8.95467 305.849 8.088C304.358 7.22133 302.625 6.788 300.649 6.788C298.534 6.788 296.645 7.29066 294.981 8.296C293.352 9.26666 292.069 10.6533 291.133 12.456C290.232 14.2587 289.781 16.3733 289.781 18.8C289.781 21.192 290.232 23.3067 291.133 25.144C292.069 26.9467 293.352 28.3507 294.981 29.356C296.645 30.3267 298.534 30.812 300.649 30.812C302.625 30.812 304.358 30.3787 305.849 29.512C307.374 28.6107 308.553 27.2933 309.385 25.56H317.757C316.544 29.2693 314.412 32.164 311.361 34.244C308.345 36.2893 304.792 37.312 300.701 37.312C297.234 37.312 294.097 36.532 291.289 34.972C288.516 33.3773 286.314 31.176 284.685 28.368C283.09 25.56 282.293 22.3707 282.293 18.8ZM354.083 0.703999V37H346.803V21.556H331.255V37H323.975V0.703999H331.255V15.628H346.803V0.703999H354.083ZM398.339 0.703999V6.58H388.667V37H381.387V6.58H371.715V0.703999H398.339ZM420.499 37.364C417.101 37.364 413.981 36.5667 411.139 34.972C408.296 33.3773 406.043 31.176 404.379 28.368C402.715 25.5253 401.883 22.3187 401.883 18.748C401.883 15.212 402.715 12.04 404.379 9.232C406.043 6.38933 408.296 4.17066 411.139 2.576C413.981 0.981332 417.101 0.184 420.499 0.184C423.931 0.184 427.051 0.981332 429.859 2.576C432.701 4.17066 434.937 6.38933 436.567 9.232C438.231 12.04 439.063 15.212 439.063 18.748C439.063 22.3187 438.231 25.5253 436.567 28.368C434.937 31.176 432.701 33.3773 429.859 34.972C427.016 36.5667 423.896 37.364 420.499 37.364ZM420.499 30.864C422.683 30.864 424.607 30.3787 426.271 29.408C427.935 28.4027 429.235 26.9813 430.171 25.144C431.107 23.3067 431.575 21.1747 431.575 18.748C431.575 16.3213 431.107 14.2067 430.171 12.404C429.235 10.5667 427.935 9.16267 426.271 8.192C424.607 7.22133 422.683 6.736 420.499 6.736C418.315 6.736 416.373 7.22133 414.675 8.192C413.011 9.16267 411.711 10.5667 410.775 12.404C409.839 14.2067 409.371 16.3213 409.371 18.748C409.371 21.1747 409.839 23.3067 410.775 25.144C411.711 26.9813 413.011 28.4027 414.675 29.408C416.373 30.3787 418.315 30.864 420.499 30.864ZM469.402 37.364C466.871 37.364 464.583 36.9307 462.538 36.064C460.527 35.1973 458.932 33.9493 457.754 32.32C456.575 30.6907 455.968 28.7667 455.934 26.548H463.734C463.838 28.0387 464.358 29.2173 465.294 30.084C466.264 30.9507 467.582 31.384 469.246 31.384C470.944 31.384 472.279 30.9853 473.25 30.188C474.22 29.356 474.706 28.2813 474.706 26.964C474.706 25.8893 474.376 25.0053 473.718 24.312C473.059 23.6187 472.227 23.0813 471.222 22.7C470.251 22.284 468.899 21.8333 467.166 21.348C464.808 20.6547 462.884 19.9787 461.394 19.32C459.938 18.6267 458.672 17.604 457.598 16.252C456.558 14.8653 456.038 13.028 456.038 10.74C456.038 8.59067 456.575 6.71866 457.65 5.124C458.724 3.52933 460.232 2.316 462.174 1.484C464.115 0.617333 466.334 0.184 468.83 0.184C472.574 0.184 475.607 1.10267 477.93 2.94C480.287 4.74266 481.587 7.27333 481.83 10.532H473.822C473.752 9.284 473.215 8.26133 472.21 7.464C471.239 6.632 469.939 6.216 468.31 6.216C466.888 6.216 465.744 6.58 464.878 7.308C464.046 8.036 463.63 9.09333 463.63 10.48C463.63 11.4507 463.942 12.2653 464.566 12.924C465.224 13.548 466.022 14.068 466.958 14.484C467.928 14.8653 469.28 15.316 471.014 15.836C473.371 16.5293 475.295 17.2227 476.786 17.916C478.276 18.6093 479.559 19.6493 480.634 21.036C481.708 22.4227 482.246 24.2427 482.246 26.496C482.246 28.4373 481.743 30.24 480.738 31.904C479.732 33.568 478.259 34.9027 476.318 35.908C474.376 36.8787 472.071 37.364 469.402 37.364ZM486.789 18.8C486.789 15.2293 487.586 12.04 489.181 9.232C490.81 6.38933 493.012 4.188 495.785 2.628C498.593 1.03333 501.73 0.235999 505.197 0.235999C509.253 0.235999 512.806 1.276 515.857 3.356C518.908 5.436 521.04 8.31333 522.253 11.988H513.881C513.049 10.2547 511.87 8.95467 510.345 8.088C508.854 7.22133 507.121 6.788 505.145 6.788C503.03 6.788 501.141 7.29066 499.477 8.296C497.848 9.26666 496.565 10.6533 495.629 12.456C494.728 14.2587 494.277 16.3733 494.277 18.8C494.277 21.192 494.728 23.3067 495.629 25.144C496.565 26.9467 497.848 28.3507 499.477 29.356C501.141 30.3267 503.03 30.812 505.145 30.812C507.121 30.812 508.854 30.3787 510.345 29.512C511.87 28.6107 513.049 27.2933 513.881 25.56H522.253C521.04 29.2693 518.908 32.164 515.857 34.244C512.841 36.2893 509.288 37.312 505.197 37.312C501.73 37.312 498.593 36.532 495.785 34.972C493.012 33.3773 490.81 31.176 489.181 28.368C487.586 25.56 486.789 22.3707 486.789 18.8ZM547.191 37L539.183 22.856H535.751V37H528.471V0.703999H542.095C544.903 0.703999 547.295 1.20667 549.271 2.212C551.247 3.18267 552.72 4.51733 553.691 6.216C554.696 7.88 555.199 9.752 555.199 11.832C555.199 14.224 554.506 16.3907 553.119 18.332C551.732 20.2387 549.67 21.556 546.931 22.284L555.615 37H547.191ZM535.751 17.396H541.835C543.811 17.396 545.284 16.928 546.255 15.992C547.226 15.0213 547.711 13.6867 547.711 11.988C547.711 10.324 547.226 9.04133 546.255 8.14C545.284 7.204 543.811 6.736 541.835 6.736H535.751V17.396ZM584.04 30.084H569.584L567.192 37H559.548L572.6 0.651997H581.076L594.128 37H586.432L584.04 30.084ZM582.064 24.26L576.812 9.076L571.56 24.26H582.064ZM625.474 11.936C625.474 13.8773 625.006 15.6973 624.07 17.396C623.169 19.0947 621.73 20.464 619.754 21.504C617.813 22.544 615.352 23.064 612.37 23.064H606.286V37H599.006V0.703999H612.37C615.178 0.703999 617.57 1.18933 619.546 2.16C621.522 3.13067 622.996 4.46533 623.966 6.164C624.972 7.86266 625.474 9.78667 625.474 11.936ZM612.058 17.188C614.069 17.188 615.56 16.7373 616.53 15.836C617.501 14.9 617.986 13.6 617.986 11.936C617.986 8.4 616.01 6.632 612.058 6.632H606.286V17.188H612.058ZM637.923 6.58V15.68H650.143V21.452H637.923V31.072H651.703V37H630.643V0.651997H651.703V6.58H637.923Z" fill="url(#paint0_linear_95_23)"/>
<defs>
<linearGradient id="paint0_linear_95_23" x1="17.2407" y1="8.82607" x2="392.758" y2="325.086" gradientUnits="userSpaceOnUse">
<stop stop-color="#5BFFAC"/>
<stop offset="0.9999" stop-color="#78FA52"/>
<stop offset="1" stop-color="#78FA52"/>
</linearGradient>
</defs>
</svg>
