<svg width="528" height="170" viewBox="0 0 528 170" fill="none" xmlns="http://www.w3.org/2000/svg">
<path d="M25.545 72.455C21.2983 72.455 17.3983 71.4583 13.845 69.465C10.2917 67.4717 7.475 64.72 5.395 61.21C3.315 57.6567 2.275 53.6483 2.275 49.185C2.275 44.765 3.315 40.8 5.395 37.29C7.475 33.7367 10.2917 30.9633 13.845 28.97C17.3983 26.9767 21.2983 25.98 25.545 25.98C29.835 25.98 33.735 26.9767 37.245 28.97C40.7983 30.9633 43.5933 33.7367 45.63 37.29C47.71 40.8 48.75 44.765 48.75 49.185C48.75 53.6483 47.71 57.6567 45.63 61.21C43.5933 64.72 40.7983 67.4717 37.245 69.465C33.6917 71.4583 29.7917 72.455 25.545 72.455ZM25.545 64.33C28.275 64.33 30.68 63.7233 32.76 62.51C34.84 61.2533 36.465 59.4767 37.635 57.18C38.805 54.8833 39.39 52.2183 39.39 49.185C39.39 46.1517 38.805 43.5083 37.635 41.255C36.465 38.9583 34.84 37.2033 32.76 35.99C30.68 34.7767 28.275 34.17 25.545 34.17C22.815 34.17 20.3883 34.7767 18.265 35.99C16.185 37.2033 14.56 38.9583 13.39 41.255C12.22 43.5083 11.635 46.1517 11.635 49.185C11.635 52.2183 12.22 54.8833 13.39 57.18C14.56 59.4767 16.185 61.2533 18.265 62.51C20.3883 63.7233 22.815 64.33 25.545 64.33ZM64.4902 26.63V54.71C64.4902 57.7867 65.2918 60.1483 66.8952 61.795C68.4985 63.3983 70.7518 64.2 73.6552 64.2C76.6018 64.2 78.8768 63.3983 80.4802 61.795C82.0835 60.1483 82.8852 57.7867 82.8852 54.71V26.63H92.0502V54.645C92.0502 58.5017 91.2052 61.7733 89.5152 64.46C87.8685 67.1033 85.6368 69.0967 82.8202 70.44C80.0468 71.7833 76.9485 72.455 73.5252 72.455C70.1452 72.455 67.0685 71.7833 64.2952 70.44C61.5652 69.0967 59.3985 67.1033 57.7952 64.46C56.1918 61.7733 55.3902 58.5017 55.3902 54.645V26.63H64.4902ZM124.242 72L114.232 54.32H109.942V72H100.842V26.63H117.872C121.382 26.63 124.372 27.2583 126.842 28.515C129.312 29.7283 131.154 31.3967 132.367 33.52C133.624 35.6 134.252 37.94 134.252 40.54C134.252 43.53 133.386 46.2383 131.652 48.665C129.919 51.0483 127.341 52.695 123.917 53.605L134.772 72H124.242ZM109.942 47.495H117.547C120.017 47.495 121.859 46.91 123.072 45.74C124.286 44.5267 124.892 42.8583 124.892 40.735C124.892 38.655 124.286 37.0517 123.072 35.925C121.859 34.755 120.017 34.17 117.547 34.17H109.942V47.495ZM191.056 40.67C191.056 43.0967 190.471 45.3717 189.301 47.495C188.175 49.6183 186.376 51.33 183.906 52.63C181.48 53.93 178.403 54.58 174.676 54.58H167.071V72H157.971V26.63H174.676C178.186 26.63 181.176 27.2367 183.646 28.45C186.116 29.6633 187.958 31.3317 189.171 33.455C190.428 35.5783 191.056 37.9833 191.056 40.67ZM174.286 47.235C176.8 47.235 178.663 46.6717 179.876 45.545C181.09 44.375 181.696 42.75 181.696 40.67C181.696 36.25 179.226 34.04 174.286 34.04H167.071V47.235H174.286ZM218.577 72.455C214.331 72.455 210.431 71.4583 206.877 69.465C203.324 67.4717 200.507 64.72 198.427 61.21C196.347 57.6567 195.307 53.6483 195.307 49.185C195.307 44.765 196.347 40.8 198.427 37.29C200.507 33.7367 203.324 30.9633 206.877 28.97C210.431 26.9767 214.331 25.98 218.577 25.98C222.867 25.98 226.767 26.9767 230.277 28.97C233.831 30.9633 236.626 33.7367 238.662 37.29C240.742 40.8 241.782 44.765 241.782 49.185C241.782 53.6483 240.742 57.6567 238.662 61.21C236.626 64.72 233.831 67.4717 230.277 69.465C226.724 71.4583 222.824 72.455 218.577 72.455ZM218.577 64.33C221.307 64.33 223.712 63.7233 225.792 62.51C227.872 61.2533 229.497 59.4767 230.667 57.18C231.837 54.8833 232.422 52.2183 232.422 49.185C232.422 46.1517 231.837 43.5083 230.667 41.255C229.497 38.9583 227.872 37.2033 225.792 35.99C223.712 34.7767 221.307 34.17 218.577 34.17C215.847 34.17 213.421 34.7767 211.297 35.99C209.217 37.2033 207.592 38.9583 206.422 41.255C205.252 43.5083 204.667 46.1517 204.667 49.185C204.667 52.2183 205.252 54.8833 206.422 57.18C207.592 59.4767 209.217 61.2533 211.297 62.51C213.421 63.7233 215.847 64.33 218.577 64.33ZM271.952 72L261.942 54.32H257.652V72H248.552V26.63H265.582C269.092 26.63 272.082 27.2583 274.552 28.515C277.022 29.7283 278.864 31.3967 280.077 33.52C281.334 35.6 281.962 37.94 281.962 40.54C281.962 43.53 281.096 46.2383 279.362 48.665C277.629 51.0483 275.051 52.695 271.627 53.605L282.482 72H271.952ZM257.652 47.495H265.257C267.727 47.495 269.569 46.91 270.782 45.74C271.996 44.5267 272.602 42.8583 272.602 40.735C272.602 38.655 271.996 37.0517 270.782 35.925C269.569 34.755 267.727 34.17 265.257 34.17H257.652V47.495ZM321.068 26.63V33.975H308.978V72H299.878V33.975H287.788V26.63H321.068ZM355.723 26.63V33.975H336.808V45.61H351.303V52.825H336.808V72H327.708V26.63H355.723ZM383.235 72.455C378.989 72.455 375.089 71.4583 371.535 69.465C367.982 67.4717 365.165 64.72 363.085 61.21C361.005 57.6567 359.965 53.6483 359.965 49.185C359.965 44.765 361.005 40.8 363.085 37.29C365.165 33.7367 367.982 30.9633 371.535 28.97C375.089 26.9767 378.989 25.98 383.235 25.98C387.525 25.98 391.425 26.9767 394.935 28.97C398.489 30.9633 401.284 33.7367 403.32 37.29C405.4 40.8 406.44 44.765 406.44 49.185C406.44 53.6483 405.4 57.6567 403.32 61.21C401.284 64.72 398.489 67.4717 394.935 69.465C391.382 71.4583 387.482 72.455 383.235 72.455ZM383.235 64.33C385.965 64.33 388.37 63.7233 390.45 62.51C392.53 61.2533 394.155 59.4767 395.325 57.18C396.495 54.8833 397.08 52.2183 397.08 49.185C397.08 46.1517 396.495 43.5083 395.325 41.255C394.155 38.9583 392.53 37.2033 390.45 35.99C388.37 34.7767 385.965 34.17 383.235 34.17C380.505 34.17 378.079 34.7767 375.955 35.99C373.875 37.2033 372.25 38.9583 371.08 41.255C369.91 43.5083 369.325 46.1517 369.325 49.185C369.325 52.2183 369.91 54.8833 371.08 57.18C372.25 59.4767 373.875 61.2533 375.955 62.51C378.079 63.7233 380.505 64.33 383.235 64.33ZM422.311 64.785H437.261V72H413.211V26.63H422.311V64.785ZM452.145 26.63V72H443.045V26.63H452.145ZM482.195 72.455C477.949 72.455 474.049 71.4583 470.495 69.465C466.942 67.4717 464.125 64.72 462.045 61.21C459.965 57.6567 458.925 53.6483 458.925 49.185C458.925 44.765 459.965 40.8 462.045 37.29C464.125 33.7367 466.942 30.9633 470.495 28.97C474.049 26.9767 477.949 25.98 482.195 25.98C486.485 25.98 490.385 26.9767 493.895 28.97C497.449 30.9633 500.244 33.7367 502.28 37.29C504.36 40.8 505.4 44.765 505.4 49.185C505.4 53.6483 504.36 57.6567 502.28 61.21C500.244 64.72 497.449 67.4717 493.895 69.465C490.342 71.4583 486.442 72.455 482.195 72.455ZM482.195 64.33C484.925 64.33 487.33 63.7233 489.41 62.51C491.49 61.2533 493.115 59.4767 494.285 57.18C495.455 54.8833 496.04 52.2183 496.04 49.185C496.04 46.1517 495.455 43.5083 494.285 41.255C493.115 38.9583 491.49 37.2033 489.41 35.99C487.33 34.7767 484.925 34.17 482.195 34.17C479.465 34.17 477.039 34.7767 474.915 35.99C472.835 37.2033 471.21 38.9583 470.04 41.255C468.87 43.5083 468.285 46.1517 468.285 49.185C468.285 52.2183 468.87 54.8833 470.04 57.18C471.21 59.4767 472.835 61.2533 474.915 62.51C477.039 63.7233 479.465 64.33 482.195 64.33Z" fill="url(#paint0_linear_67_45)"/>
<path d="M3.984 107.272V117.856C3.984 119.344 4.344 120.448 5.064 121.168C5.8 121.888 6.816 122.248 8.112 122.248C9.392 122.248 10.392 121.888 11.112 121.168C11.848 120.448 12.216 119.344 12.216 117.856V107.272H14.4V117.832C14.4 119.224 14.12 120.4 13.56 121.36C13 122.304 12.24 123.008 11.28 123.472C10.336 123.936 9.272 124.168 8.088 124.168C6.904 124.168 5.832 123.936 4.872 123.472C3.928 123.008 3.176 122.304 2.616 121.36C2.072 120.4 1.8 119.224 1.8 117.832V107.272H3.984ZM24.4513 110.608C26.0513 110.608 27.3473 111.096 28.3393 112.072C29.3313 113.032 29.8273 114.424 29.8273 116.248V124H27.6673V116.56C27.6673 115.248 27.3393 114.248 26.6833 113.56C26.0273 112.856 25.1313 112.504 23.9953 112.504C22.8433 112.504 21.9233 112.864 21.2353 113.584C20.5633 114.304 20.2273 115.352 20.2273 116.728V124H18.0433V110.848H20.2273V112.72C20.6593 112.048 21.2433 111.528 21.9793 111.16C22.7313 110.792 23.5553 110.608 24.4513 110.608ZM40.7389 124L35.5789 118.192V124H33.3949V106.24H35.5789V116.68L40.6429 110.848H43.6909L37.4989 117.4L43.7149 124H40.7389ZM47.9304 122.224H53.7864V124H45.7464V107.272H47.9304V122.224ZM61.8418 124.216C60.6098 124.216 59.4898 123.936 58.4818 123.376C57.4898 122.816 56.7058 122.024 56.1298 121C55.5698 119.96 55.2898 118.76 55.2898 117.4C55.2898 116.056 55.5778 114.872 56.1538 113.848C56.7458 112.808 57.5458 112.016 58.5538 111.472C59.5618 110.912 60.6898 110.632 61.9378 110.632C63.1858 110.632 64.3138 110.912 65.3218 111.472C66.3298 112.016 67.1218 112.8 67.6978 113.824C68.2898 114.848 68.5858 116.04 68.5858 117.4C68.5858 118.76 68.2818 119.96 67.6738 121C67.0818 122.024 66.2738 122.816 65.2498 123.376C64.2258 123.936 63.0898 124.216 61.8418 124.216ZM61.8418 122.296C62.6258 122.296 63.3618 122.112 64.0498 121.744C64.7378 121.376 65.2898 120.824 65.7058 120.088C66.1378 119.352 66.3538 118.456 66.3538 117.4C66.3538 116.344 66.1458 115.448 65.7298 114.712C65.3138 113.976 64.7698 113.432 64.0978 113.08C63.4258 112.712 62.6978 112.528 61.9138 112.528C61.1138 112.528 60.3778 112.712 59.7058 113.08C59.0498 113.432 58.5218 113.976 58.1218 114.712C57.7218 115.448 57.5218 116.344 57.5218 117.4C57.5218 118.472 57.7138 119.376 58.0978 120.112C58.4978 120.848 59.0258 121.4 59.6818 121.768C60.3378 122.12 61.0578 122.296 61.8418 122.296ZM83.1214 110.848V124H80.9374V122.056C80.5214 122.728 79.9374 123.256 79.1854 123.64C78.4494 124.008 77.6334 124.192 76.7374 124.192C75.7134 124.192 74.7934 123.984 73.9774 123.568C73.1614 123.136 72.5134 122.496 72.0334 121.648C71.5694 120.8 71.3374 119.768 71.3374 118.552V110.848H73.4974V118.264C73.4974 119.56 73.8254 120.56 74.4814 121.264C75.1374 121.952 76.0334 122.296 77.1694 122.296C78.3374 122.296 79.2574 121.936 79.9294 121.216C80.6014 120.496 80.9374 119.448 80.9374 118.072V110.848H83.1214ZM87.9369 108.712C87.5209 108.712 87.1689 108.568 86.8809 108.28C86.5929 107.992 86.4489 107.64 86.4489 107.224C86.4489 106.808 86.5929 106.456 86.8809 106.168C87.1689 105.88 87.5209 105.736 87.9369 105.736C88.3369 105.736 88.6729 105.88 88.9449 106.168C89.2329 106.456 89.3769 106.808 89.3769 107.224C89.3769 107.64 89.2329 107.992 88.9449 108.28C88.6729 108.568 88.3369 108.712 87.9369 108.712ZM88.9929 110.848V124H86.8089V110.848H88.9929ZM97.3712 124.216C96.3632 124.216 95.4592 124.048 94.6592 123.712C93.8592 123.36 93.2272 122.88 92.7632 122.272C92.2992 121.648 92.0432 120.936 91.9952 120.136H94.2512C94.3152 120.792 94.6192 121.328 95.1632 121.744C95.7232 122.16 96.4512 122.368 97.3472 122.368C98.1792 122.368 98.8352 122.184 99.3152 121.816C99.7952 121.448 100.035 120.984 100.035 120.424C100.035 119.848 99.7792 119.424 99.2672 119.152C98.7552 118.864 97.9632 118.584 96.8912 118.312C95.9152 118.056 95.1152 117.8 94.4912 117.544C93.8832 117.272 93.3552 116.88 92.9072 116.368C92.4752 115.84 92.2592 115.152 92.2592 114.304C92.2592 113.632 92.4592 113.016 92.8592 112.456C93.2592 111.896 93.8272 111.456 94.5632 111.136C95.2992 110.8 96.1392 110.632 97.0832 110.632C98.5392 110.632 99.7152 111 100.611 111.736C101.507 112.472 101.987 113.48 102.051 114.76H99.8672C99.8192 114.072 99.5392 113.52 99.0272 113.104C98.5312 112.688 97.8592 112.48 97.0112 112.48C96.2272 112.48 95.6032 112.648 95.1392 112.984C94.6752 113.32 94.4432 113.76 94.4432 114.304C94.4432 114.736 94.5792 115.096 94.8512 115.384C95.1392 115.656 95.4912 115.88 95.9072 116.056C96.3392 116.216 96.9312 116.4 97.6832 116.608C98.6272 116.864 99.3952 117.12 99.9872 117.376C100.579 117.616 101.083 117.984 101.499 118.48C101.931 118.976 102.155 119.624 102.171 120.424C102.171 121.144 101.971 121.792 101.571 122.368C101.171 122.944 100.603 123.4 99.8672 123.736C99.1472 124.056 98.3152 124.216 97.3712 124.216ZM125.477 107.272L119.165 124H116.645L110.333 107.272H112.661L117.917 121.696L123.173 107.272H125.477ZM139.871 116.92C139.871 117.336 139.847 117.776 139.799 118.24H129.287C129.367 119.536 129.807 120.552 130.607 121.288C131.423 122.008 132.407 122.368 133.559 122.368C134.503 122.368 135.287 122.152 135.911 121.72C136.551 121.272 136.999 120.68 137.255 119.944H139.607C139.255 121.208 138.551 122.24 137.495 123.04C136.439 123.824 135.127 124.216 133.559 124.216C132.311 124.216 131.191 123.936 130.199 123.376C129.223 122.816 128.455 122.024 127.895 121C127.335 119.96 127.055 118.76 127.055 117.4C127.055 116.04 127.327 114.848 127.871 113.824C128.415 112.8 129.175 112.016 130.151 111.472C131.143 110.912 132.279 110.632 133.559 110.632C134.807 110.632 135.911 110.904 136.871 111.448C137.831 111.992 138.567 112.744 139.079 113.704C139.607 114.648 139.871 115.72 139.871 116.92ZM137.615 116.464C137.615 115.632 137.431 114.92 137.063 114.328C136.695 113.72 136.191 113.264 135.551 112.96C134.927 112.64 134.231 112.48 133.463 112.48C132.359 112.48 131.415 112.832 130.631 113.536C129.863 114.24 129.423 115.216 129.311 116.464H137.615ZM149.162 110.608C150.762 110.608 152.058 111.096 153.05 112.072C154.042 113.032 154.538 114.424 154.538 116.248V124H152.378V116.56C152.378 115.248 152.05 114.248 151.394 113.56C150.738 112.856 149.842 112.504 148.706 112.504C147.554 112.504 146.634 112.864 145.946 113.584C145.274 114.304 144.938 115.352 144.938 116.728V124H142.754V110.848H144.938V112.72C145.37 112.048 145.954 111.528 146.69 111.16C147.442 110.792 148.266 110.608 149.162 110.608ZM160.77 112.648V120.4C160.77 121.04 160.906 121.496 161.178 121.768C161.45 122.024 161.922 122.152 162.594 122.152H164.202V124H162.234C161.018 124 160.106 123.72 159.498 123.16C158.89 122.6 158.586 121.68 158.586 120.4V112.648H156.882V110.848H158.586V107.536H160.77V110.848H164.202V112.648H160.77ZM178.512 110.848V124H176.328V122.056C175.912 122.728 175.328 123.256 174.576 123.64C173.84 124.008 173.024 124.192 172.128 124.192C171.104 124.192 170.184 123.984 169.368 123.568C168.552 123.136 167.904 122.496 167.424 121.648C166.96 120.8 166.728 119.768 166.728 118.552V110.848H168.888V118.264C168.888 119.56 169.216 120.56 169.872 121.264C170.528 121.952 171.424 122.296 172.56 122.296C173.728 122.296 174.648 121.936 175.32 121.216C175.992 120.496 176.328 119.448 176.328 118.072V110.848H178.512ZM184.384 112.984C184.768 112.232 185.312 111.648 186.016 111.232C186.736 110.816 187.608 110.608 188.632 110.608V112.864H188.056C185.608 112.864 184.384 114.192 184.384 116.848V124H182.2V110.848H184.384V112.984ZM203.153 116.92C203.153 117.336 203.129 117.776 203.081 118.24H192.569C192.649 119.536 193.089 120.552 193.889 121.288C194.705 122.008 195.689 122.368 196.841 122.368C197.785 122.368 198.569 122.152 199.193 121.72C199.833 121.272 200.281 120.68 200.537 119.944H202.889C202.537 121.208 201.833 122.24 200.777 123.04C199.721 123.824 198.409 124.216 196.841 124.216C195.593 124.216 194.473 123.936 193.481 123.376C192.505 122.816 191.737 122.024 191.177 121C190.617 119.96 190.337 118.76 190.337 117.4C190.337 116.04 190.609 114.848 191.153 113.824C191.697 112.8 192.457 112.016 193.433 111.472C194.425 110.912 195.561 110.632 196.841 110.632C198.089 110.632 199.193 110.904 200.153 111.448C201.113 111.992 201.849 112.744 202.361 113.704C202.889 114.648 203.153 115.72 203.153 116.92ZM200.897 116.464C200.897 115.632 200.713 114.92 200.345 114.328C199.977 113.72 199.473 113.264 198.833 112.96C198.209 112.64 197.513 112.48 196.745 112.48C195.641 112.48 194.697 112.832 193.913 113.536C193.145 114.24 192.705 115.216 192.593 116.464H200.897ZM210.692 124.216C209.684 124.216 208.78 124.048 207.98 123.712C207.18 123.36 206.548 122.88 206.084 122.272C205.62 121.648 205.364 120.936 205.316 120.136H207.572C207.636 120.792 207.94 121.328 208.484 121.744C209.044 122.16 209.772 122.368 210.668 122.368C211.5 122.368 212.156 122.184 212.636 121.816C213.116 121.448 213.356 120.984 213.356 120.424C213.356 119.848 213.1 119.424 212.588 119.152C212.076 118.864 211.284 118.584 210.212 118.312C209.236 118.056 208.436 117.8 207.812 117.544C207.204 117.272 206.676 116.88 206.228 116.368C205.796 115.84 205.58 115.152 205.58 114.304C205.58 113.632 205.78 113.016 206.18 112.456C206.58 111.896 207.148 111.456 207.884 111.136C208.62 110.8 209.46 110.632 210.404 110.632C211.86 110.632 213.036 111 213.932 111.736C214.828 112.472 215.308 113.48 215.372 114.76H213.188C213.14 114.072 212.86 113.52 212.348 113.104C211.852 112.688 211.18 112.48 210.332 112.48C209.548 112.48 208.924 112.648 208.46 112.984C207.996 113.32 207.764 113.76 207.764 114.304C207.764 114.736 207.9 115.096 208.172 115.384C208.46 115.656 208.812 115.88 209.228 116.056C209.66 116.216 210.252 116.4 211.004 116.608C211.948 116.864 212.716 117.12 213.308 117.376C213.9 117.616 214.404 117.984 214.82 118.48C215.252 118.976 215.476 119.624 215.492 120.424C215.492 121.144 215.292 121.792 214.892 122.368C214.492 122.944 213.924 123.4 213.188 123.736C212.468 124.056 211.636 124.216 210.692 124.216ZM231.501 110.608C232.493 110.608 233.389 110.824 234.189 111.256C234.989 111.672 235.613 112.304 236.061 113.152C236.525 114 236.757 115.032 236.757 116.248V124H234.597V116.56C234.597 115.248 234.269 114.248 233.613 113.56C232.957 112.856 232.061 112.504 230.925 112.504C229.773 112.504 228.853 112.864 228.165 113.584C227.493 114.304 227.157 115.352 227.157 116.728V124H224.973V106.24H227.157V112.72C227.589 112.048 228.181 111.528 228.933 111.16C229.701 110.792 230.557 110.608 231.501 110.608ZM239.509 117.376C239.509 116.032 239.781 114.856 240.325 113.848C240.869 112.824 241.613 112.032 242.557 111.472C243.517 110.912 244.581 110.632 245.749 110.632C246.901 110.632 247.901 110.88 248.749 111.376C249.597 111.872 250.229 112.496 250.645 113.248V110.848H252.853V124H250.645V121.552C250.213 122.32 249.565 122.96 248.701 123.472C247.853 123.968 246.861 124.216 245.725 124.216C244.557 124.216 243.501 123.928 242.557 123.352C241.613 122.776 240.869 121.968 240.325 120.928C239.781 119.888 239.509 118.704 239.509 117.376ZM250.645 117.4C250.645 116.408 250.445 115.544 250.045 114.808C249.645 114.072 249.101 113.512 248.413 113.128C247.741 112.728 246.997 112.528 246.181 112.528C245.365 112.528 244.621 112.72 243.949 113.104C243.277 113.488 242.741 114.048 242.341 114.784C241.941 115.52 241.741 116.384 241.741 117.376C241.741 118.384 241.941 119.264 242.341 120.016C242.741 120.752 243.277 121.32 243.949 121.72C244.621 122.104 245.365 122.296 246.181 122.296C246.997 122.296 247.741 122.104 248.413 121.72C249.101 121.32 249.645 120.752 250.045 120.016C250.445 119.264 250.645 118.392 250.645 117.4ZM261.199 124.216C260.191 124.216 259.287 124.048 258.487 123.712C257.687 123.36 257.055 122.88 256.591 122.272C256.127 121.648 255.871 120.936 255.823 120.136H258.079C258.143 120.792 258.447 121.328 258.991 121.744C259.551 122.16 260.279 122.368 261.175 122.368C262.007 122.368 262.663 122.184 263.143 121.816C263.623 121.448 263.863 120.984 263.863 120.424C263.863 119.848 263.607 119.424 263.095 119.152C262.583 118.864 261.791 118.584 260.719 118.312C259.743 118.056 258.943 117.8 258.319 117.544C257.711 117.272 257.183 116.88 256.735 116.368C256.303 115.84 256.087 115.152 256.087 114.304C256.087 113.632 256.287 113.016 256.687 112.456C257.087 111.896 257.655 111.456 258.391 111.136C259.127 110.8 259.967 110.632 260.911 110.632C262.367 110.632 263.543 111 264.439 111.736C265.335 112.472 265.815 113.48 265.879 114.76H263.695C263.647 114.072 263.367 113.52 262.855 113.104C262.359 112.688 261.687 112.48 260.839 112.48C260.055 112.48 259.431 112.648 258.967 112.984C258.503 113.32 258.271 113.76 258.271 114.304C258.271 114.736 258.407 115.096 258.679 115.384C258.967 115.656 259.319 115.88 259.735 116.056C260.167 116.216 260.759 116.4 261.511 116.608C262.455 116.864 263.223 117.12 263.815 117.376C264.407 117.616 264.911 117.984 265.327 118.48C265.759 118.976 265.983 119.624 265.999 120.424C265.999 121.144 265.799 121.792 265.399 122.368C264.999 122.944 264.431 123.4 263.695 123.736C262.975 124.056 262.143 124.216 261.199 124.216ZM276.609 108.712C276.193 108.712 275.841 108.568 275.553 108.28C275.265 107.992 275.121 107.64 275.121 107.224C275.121 106.808 275.265 106.456 275.553 106.168C275.841 105.88 276.193 105.736 276.609 105.736C277.009 105.736 277.345 105.88 277.617 106.168C277.905 106.456 278.049 106.808 278.049 107.224C278.049 107.64 277.905 107.992 277.617 108.28C277.345 108.568 277.009 108.712 276.609 108.712ZM277.665 110.848V124H275.481V110.848H277.665ZM287.795 110.608C289.395 110.608 290.691 111.096 291.683 112.072C292.675 113.032 293.171 114.424 293.171 116.248V124H291.011V116.56C291.011 115.248 290.683 114.248 290.027 113.56C289.371 112.856 288.475 112.504 287.339 112.504C286.187 112.504 285.267 112.864 284.579 113.584C283.907 114.304 283.571 115.352 283.571 116.728V124H281.387V110.848H283.571V112.72C284.003 112.048 284.587 111.528 285.323 111.16C286.075 110.792 286.899 110.608 287.795 110.608ZM301.635 121.984L305.715 110.848H308.043L302.883 124H300.339L295.179 110.848H297.531L301.635 121.984ZM322.192 116.92C322.192 117.336 322.168 117.776 322.12 118.24H311.608C311.688 119.536 312.128 120.552 312.928 121.288C313.744 122.008 314.728 122.368 315.88 122.368C316.824 122.368 317.608 122.152 318.232 121.72C318.872 121.272 319.32 120.68 319.576 119.944H321.928C321.576 121.208 320.872 122.24 319.816 123.04C318.76 123.824 317.448 124.216 315.88 124.216C314.632 124.216 313.512 123.936 312.52 123.376C311.544 122.816 310.776 122.024 310.216 121C309.656 119.96 309.376 118.76 309.376 117.4C309.376 116.04 309.648 114.848 310.192 113.824C310.736 112.8 311.496 112.016 312.472 111.472C313.464 110.912 314.6 110.632 315.88 110.632C317.128 110.632 318.232 110.904 319.192 111.448C320.152 111.992 320.888 112.744 321.4 113.704C321.928 114.648 322.192 115.72 322.192 116.92ZM319.936 116.464C319.936 115.632 319.752 114.92 319.384 114.328C319.016 113.72 318.512 113.264 317.872 112.96C317.248 112.64 316.552 112.48 315.784 112.48C314.68 112.48 313.736 112.832 312.952 113.536C312.184 114.24 311.744 115.216 311.632 116.464H319.936ZM329.731 124.216C328.723 124.216 327.819 124.048 327.019 123.712C326.219 123.36 325.587 122.88 325.123 122.272C324.659 121.648 324.403 120.936 324.355 120.136H326.611C326.675 120.792 326.979 121.328 327.523 121.744C328.083 122.16 328.811 122.368 329.707 122.368C330.539 122.368 331.195 122.184 331.675 121.816C332.155 121.448 332.395 120.984 332.395 120.424C332.395 119.848 332.139 119.424 331.627 119.152C331.115 118.864 330.323 118.584 329.251 118.312C328.275 118.056 327.475 117.8 326.851 117.544C326.243 117.272 325.715 116.88 325.267 116.368C324.835 115.84 324.619 115.152 324.619 114.304C324.619 113.632 324.819 113.016 325.219 112.456C325.619 111.896 326.187 111.456 326.923 111.136C327.659 110.8 328.499 110.632 329.443 110.632C330.899 110.632 332.075 111 332.971 111.736C333.867 112.472 334.347 113.48 334.411 114.76H332.227C332.179 114.072 331.899 113.52 331.387 113.104C330.891 112.688 330.219 112.48 329.371 112.48C328.587 112.48 327.963 112.648 327.499 112.984C327.035 113.32 326.803 113.76 326.803 114.304C326.803 114.736 326.939 115.096 327.211 115.384C327.499 115.656 327.851 115.88 328.267 116.056C328.699 116.216 329.291 116.4 330.043 116.608C330.987 116.864 331.755 117.12 332.347 117.376C332.939 117.616 333.443 117.984 333.859 118.48C334.291 118.976 334.515 119.624 334.531 120.424C334.531 121.144 334.331 121.792 333.931 122.368C333.531 122.944 332.963 123.4 332.227 123.736C331.507 124.056 330.675 124.216 329.731 124.216ZM340.278 112.648V120.4C340.278 121.04 340.414 121.496 340.686 121.768C340.958 122.024 341.43 122.152 342.102 122.152H343.71V124H341.742C340.526 124 339.614 123.72 339.006 123.16C338.398 122.6 338.094 121.68 338.094 120.4V112.648H336.39V110.848H338.094V107.536H340.278V110.848H343.71V112.648H340.278ZM358.356 116.92C358.356 117.336 358.332 117.776 358.284 118.24H347.772C347.852 119.536 348.292 120.552 349.092 121.288C349.908 122.008 350.892 122.368 352.044 122.368C352.988 122.368 353.772 122.152 354.396 121.72C355.036 121.272 355.484 120.68 355.74 119.944H358.092C357.74 121.208 357.036 122.24 355.98 123.04C354.924 123.824 353.612 124.216 352.044 124.216C350.796 124.216 349.676 123.936 348.684 123.376C347.708 122.816 346.94 122.024 346.38 121C345.82 119.96 345.54 118.76 345.54 117.4C345.54 116.04 345.812 114.848 346.356 113.824C346.9 112.8 347.66 112.016 348.636 111.472C349.628 110.912 350.764 110.632 352.044 110.632C353.292 110.632 354.396 110.904 355.356 111.448C356.316 111.992 357.052 112.744 357.564 113.704C358.092 114.648 358.356 115.72 358.356 116.92ZM356.1 116.464C356.1 115.632 355.916 114.92 355.548 114.328C355.18 113.72 354.676 113.264 354.036 112.96C353.412 112.64 352.716 112.48 351.948 112.48C350.844 112.48 349.9 112.832 349.116 113.536C348.348 114.24 347.908 115.216 347.796 116.464H356.1ZM360.423 117.376C360.423 116.032 360.695 114.856 361.239 113.848C361.783 112.824 362.527 112.032 363.471 111.472C364.431 110.912 365.503 110.632 366.687 110.632C367.711 110.632 368.663 110.872 369.543 111.352C370.423 111.816 371.095 112.432 371.559 113.2V106.24H373.767V124H371.559V121.528C371.127 122.312 370.487 122.96 369.639 123.472C368.791 123.968 367.799 124.216 366.663 124.216C365.495 124.216 364.431 123.928 363.471 123.352C362.527 122.776 361.783 121.968 361.239 120.928C360.695 119.888 360.423 118.704 360.423 117.376ZM371.559 117.4C371.559 116.408 371.359 115.544 370.959 114.808C370.559 114.072 370.015 113.512 369.327 113.128C368.655 112.728 367.911 112.528 367.095 112.528C366.279 112.528 365.535 112.72 364.863 113.104C364.191 113.488 363.655 114.048 363.255 114.784C362.855 115.52 362.655 116.384 362.655 117.376C362.655 118.384 362.855 119.264 363.255 120.016C363.655 120.752 364.191 121.32 364.863 121.72C365.535 122.104 366.279 122.296 367.095 122.296C367.911 122.296 368.655 122.104 369.327 121.72C370.015 121.32 370.559 120.752 370.959 120.016C371.359 119.264 371.559 118.392 371.559 117.4ZM384.984 108.712C384.568 108.712 384.216 108.568 383.928 108.28C383.64 107.992 383.496 107.64 383.496 107.224C383.496 106.808 383.64 106.456 383.928 106.168C384.216 105.88 384.568 105.736 384.984 105.736C385.384 105.736 385.72 105.88 385.992 106.168C386.28 106.456 386.424 106.808 386.424 107.224C386.424 107.64 386.28 107.992 385.992 108.28C385.72 108.568 385.384 108.712 384.984 108.712ZM386.04 110.848V124H383.856V110.848H386.04ZM396.17 110.608C397.77 110.608 399.066 111.096 400.058 112.072C401.05 113.032 401.546 114.424 401.546 116.248V124H399.386V116.56C399.386 115.248 399.058 114.248 398.402 113.56C397.746 112.856 396.85 112.504 395.714 112.504C394.562 112.504 393.642 112.864 392.954 113.584C392.282 114.304 391.946 115.352 391.946 116.728V124H389.762V110.848H391.946V112.72C392.378 112.048 392.962 111.528 393.698 111.16C394.45 110.792 395.274 110.608 396.17 110.608ZM7.584 160.216C6.352 160.216 5.232 159.936 4.224 159.376C3.232 158.816 2.448 158.024 1.872 157C1.312 155.96 1.032 154.76 1.032 153.4C1.032 152.056 1.32 150.872 1.896 149.848C2.488 148.808 3.288 148.016 4.296 147.472C5.304 146.912 6.432 146.632 7.68 146.632C8.928 146.632 10.056 146.912 11.064 147.472C12.072 148.016 12.864 148.8 13.44 149.824C14.032 150.848 14.328 152.04 14.328 153.4C14.328 154.76 14.024 155.96 13.416 157C12.824 158.024 12.016 158.816 10.992 159.376C9.968 159.936 8.832 160.216 7.584 160.216ZM7.584 158.296C8.368 158.296 9.104 158.112 9.792 157.744C10.48 157.376 11.032 156.824 11.448 156.088C11.88 155.352 12.096 154.456 12.096 153.4C12.096 152.344 11.888 151.448 11.472 150.712C11.056 149.976 10.512 149.432 9.84 149.08C9.168 148.712 8.44 148.528 7.656 148.528C6.856 148.528 6.12 148.712 5.448 149.08C4.792 149.432 4.264 149.976 3.864 150.712C3.464 151.448 3.264 152.344 3.264 153.4C3.264 154.472 3.456 155.376 3.84 156.112C4.24 156.848 4.768 157.4 5.424 157.768C6.08 158.12 6.8 158.296 7.584 158.296ZM22.0956 157.984L26.1756 146.848H28.5036L23.3436 160H20.7996L15.6396 146.848H17.9916L22.0956 157.984ZM42.6527 152.92C42.6527 153.336 42.6287 153.776 42.5807 154.24H32.0687C32.1487 155.536 32.5887 156.552 33.3887 157.288C34.2047 158.008 35.1887 158.368 36.3407 158.368C37.2847 158.368 38.0687 158.152 38.6927 157.72C39.3327 157.272 39.7807 156.68 40.0367 155.944H42.3887C42.0367 157.208 41.3327 158.24 40.2767 159.04C39.2207 159.824 37.9087 160.216 36.3407 160.216C35.0927 160.216 33.9727 159.936 32.9807 159.376C32.0047 158.816 31.2367 158.024 30.6767 157C30.1167 155.96 29.8367 154.76 29.8367 153.4C29.8367 152.04 30.1087 150.848 30.6527 149.824C31.1967 148.8 31.9567 148.016 32.9327 147.472C33.9247 146.912 35.0607 146.632 36.3407 146.632C37.5887 146.632 38.6927 146.904 39.6527 147.448C40.6127 147.992 41.3487 148.744 41.8607 149.704C42.3887 150.648 42.6527 151.72 42.6527 152.92ZM40.3967 152.464C40.3967 151.632 40.2127 150.92 39.8447 150.328C39.4767 149.72 38.9727 149.264 38.3327 148.96C37.7087 148.64 37.0127 148.48 36.2447 148.48C35.1407 148.48 34.1967 148.832 33.4127 149.536C32.6447 150.24 32.2047 151.216 32.0927 152.464H40.3967ZM47.7195 148.984C48.1035 148.232 48.6475 147.648 49.3515 147.232C50.0715 146.816 50.9435 146.608 51.9675 146.608V148.864H51.3915C48.9435 148.864 47.7195 150.192 47.7195 152.848V160H45.5355V146.848H47.7195V148.984ZM63.6951 150.976C62.7991 150.624 62.1111 150.112 61.6311 149.44C61.1511 148.768 60.9111 147.952 60.9111 146.992C60.9111 146.128 61.1271 145.352 61.5591 144.664C61.9911 143.96 62.6311 143.408 63.4791 143.008C64.3431 142.592 65.3831 142.384 66.5991 142.384C67.8151 142.384 68.8471 142.592 69.6951 143.008C70.5591 143.408 71.2071 143.96 71.6391 144.664C72.0871 145.352 72.3111 146.128 72.3111 146.992C72.3111 147.92 72.0631 148.736 71.5671 149.44C71.0711 150.128 70.3911 150.64 69.5271 150.976C70.5191 151.28 71.3031 151.816 71.8791 152.584C72.4711 153.336 72.7671 154.248 72.7671 155.32C72.7671 156.36 72.5111 157.272 71.9991 158.056C71.4871 158.824 70.7591 159.424 69.8151 159.856C68.8871 160.272 67.8151 160.48 66.5991 160.48C65.3831 160.48 64.3111 160.272 63.3831 159.856C62.4711 159.424 61.7591 158.824 61.2471 158.056C60.7351 157.272 60.4791 156.36 60.4791 155.32C60.4791 154.248 60.7671 153.328 61.3431 152.56C61.9191 151.792 62.7031 151.264 63.6951 150.976ZM70.1991 147.256C70.1991 146.28 69.8791 145.528 69.2391 145C68.5991 144.472 67.7191 144.208 66.5991 144.208C65.4951 144.208 64.6231 144.472 63.9831 145C63.3431 145.528 63.0231 146.288 63.0231 147.28C63.0231 148.176 63.3511 148.896 64.0071 149.44C64.6791 149.984 65.5431 150.256 66.5991 150.256C67.6711 150.256 68.5351 149.984 69.1911 149.44C69.8631 148.88 70.1991 148.152 70.1991 147.256ZM66.5991 151.936C65.4151 151.936 64.4471 152.216 63.6951 152.776C62.9431 153.32 62.5671 154.144 62.5671 155.248C62.5671 156.272 62.9271 157.096 63.6471 157.72C64.3831 158.344 65.3671 158.656 66.5991 158.656C67.8311 158.656 68.8071 158.344 69.5271 157.72C70.2471 157.096 70.6071 156.272 70.6071 155.248C70.6071 154.176 70.2391 153.36 69.5031 152.8C68.7671 152.224 67.7991 151.936 66.5991 151.936ZM86.7317 144.544H78.3077V150.016C78.6757 149.504 79.2197 149.088 79.9397 148.768C80.6597 148.432 81.4357 148.264 82.2677 148.264C83.5957 148.264 84.6757 148.544 85.5077 149.104C86.3397 149.648 86.9317 150.36 87.2837 151.24C87.6517 152.104 87.8357 153.024 87.8357 154C87.8357 155.152 87.6197 156.184 87.1877 157.096C86.7557 158.008 86.0917 158.728 85.1957 159.256C84.3157 159.784 83.2197 160.048 81.9077 160.048C80.2277 160.048 78.8677 159.616 77.8277 158.752C76.7877 157.888 76.1557 156.736 75.9317 155.296H78.0677C78.2757 156.208 78.7157 156.92 79.3877 157.432C80.0597 157.944 80.9077 158.2 81.9317 158.2C83.1957 158.2 84.1477 157.824 84.7877 157.072C85.4277 156.304 85.7477 155.296 85.7477 154.048C85.7477 152.8 85.4277 151.84 84.7877 151.168C84.1477 150.48 83.2037 150.136 81.9557 150.136C81.1077 150.136 80.3637 150.344 79.7237 150.76C79.0997 151.16 78.6437 151.712 78.3557 152.416H76.2917V142.624H86.7317V144.544ZM99.6804 149.272C100.112 148.52 100.752 147.896 101.6 147.4C102.464 146.888 103.464 146.632 104.6 146.632C105.768 146.632 106.824 146.912 107.768 147.472C108.728 148.032 109.48 148.824 110.024 149.848C110.568 150.856 110.84 152.032 110.84 153.376C110.84 154.704 110.568 155.888 110.024 156.928C109.48 157.968 108.728 158.776 107.768 159.352C106.824 159.928 105.768 160.216 104.6 160.216C103.48 160.216 102.488 159.968 101.624 159.472C100.776 158.96 100.128 158.328 99.6804 157.576V166.24H97.4964V146.848H99.6804V149.272ZM108.608 153.376C108.608 152.384 108.408 151.52 108.008 150.784C107.608 150.048 107.064 149.488 106.376 149.104C105.704 148.72 104.96 148.528 104.144 148.528C103.344 148.528 102.6 148.728 101.912 149.128C101.24 149.512 100.696 150.08 100.28 150.832C99.8804 151.568 99.6804 152.424 99.6804 153.4C99.6804 154.392 99.8804 155.264 100.28 156.016C100.696 156.752 101.24 157.32 101.912 157.72C102.6 158.104 103.344 158.296 104.144 158.296C104.96 158.296 105.704 158.104 106.376 157.72C107.064 157.32 107.608 156.752 108.008 156.016C108.408 155.264 108.608 154.384 108.608 153.376ZM115.899 148.984C116.283 148.232 116.827 147.648 117.531 147.232C118.251 146.816 119.123 146.608 120.147 146.608V148.864H119.571C117.123 148.864 115.899 150.192 115.899 152.848V160H113.715V146.848H115.899V148.984ZM128.404 160.216C127.172 160.216 126.052 159.936 125.044 159.376C124.052 158.816 123.268 158.024 122.692 157C122.132 155.96 121.852 154.76 121.852 153.4C121.852 152.056 122.14 150.872 122.716 149.848C123.308 148.808 124.108 148.016 125.116 147.472C126.124 146.912 127.252 146.632 128.5 146.632C129.748 146.632 130.876 146.912 131.884 147.472C132.892 148.016 133.684 148.8 134.26 149.824C134.852 150.848 135.148 152.04 135.148 153.4C135.148 154.76 134.844 155.96 134.236 157C133.644 158.024 132.836 158.816 131.812 159.376C130.788 159.936 129.652 160.216 128.404 160.216ZM128.404 158.296C129.188 158.296 129.924 158.112 130.612 157.744C131.3 157.376 131.852 156.824 132.268 156.088C132.7 155.352 132.916 154.456 132.916 153.4C132.916 152.344 132.708 151.448 132.292 150.712C131.876 149.976 131.332 149.432 130.66 149.08C129.988 148.712 129.26 148.528 128.476 148.528C127.676 148.528 126.94 148.712 126.268 149.08C125.612 149.432 125.084 149.976 124.684 150.712C124.284 151.448 124.084 152.344 124.084 153.4C124.084 154.472 124.276 155.376 124.66 156.112C125.06 156.848 125.588 157.4 126.244 157.768C126.9 158.12 127.62 158.296 128.404 158.296ZM139.196 144.712C138.78 144.712 138.428 144.568 138.14 144.28C137.868 143.992 137.732 143.64 137.732 143.224C137.732 142.808 137.868 142.456 138.14 142.168C138.428 141.88 138.78 141.736 139.196 141.736C139.612 141.736 139.956 141.88 140.228 142.168C140.516 142.456 140.66 142.808 140.66 143.224C140.66 143.64 140.516 143.992 140.228 144.28C139.956 144.568 139.612 144.712 139.196 144.712ZM140.276 162.856C140.276 164.024 139.98 164.88 139.388 165.424C138.796 165.968 137.932 166.24 136.796 166.24H135.524V164.392H136.436C137.044 164.392 137.468 164.272 137.708 164.032C137.964 163.792 138.092 163.384 138.092 162.808V146.848H140.276V162.856ZM155.973 152.92C155.973 153.336 155.949 153.776 155.901 154.24H145.389C145.469 155.536 145.909 156.552 146.709 157.288C147.525 158.008 148.509 158.368 149.661 158.368C150.605 158.368 151.389 158.152 152.013 157.72C152.653 157.272 153.101 156.68 153.357 155.944H155.709C155.357 157.208 154.653 158.24 153.597 159.04C152.541 159.824 151.229 160.216 149.661 160.216C148.413 160.216 147.293 159.936 146.301 159.376C145.325 158.816 144.557 158.024 143.997 157C143.437 155.96 143.157 154.76 143.157 153.4C143.157 152.04 143.429 150.848 143.973 149.824C144.517 148.8 145.277 148.016 146.253 147.472C147.245 146.912 148.381 146.632 149.661 146.632C150.909 146.632 152.013 146.904 152.973 147.448C153.933 147.992 154.669 148.744 155.181 149.704C155.709 150.648 155.973 151.72 155.973 152.92ZM153.717 152.464C153.717 151.632 153.533 150.92 153.165 150.328C152.797 149.72 152.293 149.264 151.653 148.96C151.029 148.64 150.333 148.48 149.565 148.48C148.461 148.48 147.517 148.832 146.733 149.536C145.965 150.24 145.525 151.216 145.413 152.464H153.717ZM158.04 153.4C158.04 152.04 158.312 150.856 158.856 149.848C159.4 148.824 160.152 148.032 161.112 147.472C162.088 146.912 163.2 146.632 164.448 146.632C166.064 146.632 167.392 147.024 168.432 147.808C169.488 148.592 170.184 149.68 170.52 151.072H168.168C167.944 150.272 167.504 149.64 166.848 149.176C166.208 148.712 165.408 148.48 164.448 148.48C163.2 148.48 162.192 148.912 161.424 149.776C160.656 150.624 160.272 151.832 160.272 153.4C160.272 154.984 160.656 156.208 161.424 157.072C162.192 157.936 163.2 158.368 164.448 158.368C165.408 158.368 166.208 158.144 166.848 157.696C167.488 157.248 167.928 156.608 168.168 155.776H170.52C170.168 157.12 169.464 158.2 168.408 159.016C167.352 159.816 166.032 160.216 164.448 160.216C163.2 160.216 162.088 159.936 161.112 159.376C160.152 158.816 159.4 158.024 158.856 157C158.312 155.976 158.04 154.776 158.04 153.4ZM176.098 148.648V156.4C176.098 157.04 176.234 157.496 176.506 157.768C176.778 158.024 177.25 158.152 177.922 158.152H179.53V160H177.562C176.346 160 175.434 159.72 174.826 159.16C174.218 158.6 173.914 157.68 173.914 156.4V148.648H172.21V146.848H173.914V143.536H176.098V146.848H179.53V148.648H176.098ZM186.832 160.216C185.824 160.216 184.92 160.048 184.12 159.712C183.32 159.36 182.688 158.88 182.224 158.272C181.76 157.648 181.504 156.936 181.456 156.136H183.712C183.776 156.792 184.08 157.328 184.624 157.744C185.184 158.16 185.912 158.368 186.808 158.368C187.64 158.368 188.296 158.184 188.776 157.816C189.256 157.448 189.496 156.984 189.496 156.424C189.496 155.848 189.24 155.424 188.728 155.152C188.216 154.864 187.424 154.584 186.352 154.312C185.376 154.056 184.576 153.8 183.952 153.544C183.344 153.272 182.816 152.88 182.368 152.368C181.936 151.84 181.72 151.152 181.72 150.304C181.72 149.632 181.92 149.016 182.32 148.456C182.72 147.896 183.288 147.456 184.024 147.136C184.76 146.8 185.6 146.632 186.544 146.632C188 146.632 189.176 147 190.072 147.736C190.968 148.472 191.448 149.48 191.512 150.76H189.328C189.28 150.072 189 149.52 188.488 149.104C187.992 148.688 187.32 148.48 186.472 148.48C185.688 148.48 185.064 148.648 184.6 148.984C184.136 149.32 183.904 149.76 183.904 150.304C183.904 150.736 184.04 151.096 184.312 151.384C184.6 151.656 184.952 151.88 185.368 152.056C185.8 152.216 186.392 152.4 187.144 152.608C188.088 152.864 188.856 153.12 189.448 153.376C190.04 153.616 190.544 153.984 190.96 154.48C191.392 154.976 191.616 155.624 191.632 156.424C191.632 157.144 191.432 157.792 191.032 158.368C190.632 158.944 190.064 159.4 189.328 159.736C188.608 160.056 187.776 160.216 186.832 160.216ZM205.77 160.216C204.762 160.216 203.858 160.048 203.058 159.712C202.258 159.36 201.626 158.88 201.162 158.272C200.698 157.648 200.442 156.936 200.394 156.136H202.65C202.714 156.792 203.018 157.328 203.562 157.744C204.122 158.16 204.85 158.368 205.746 158.368C206.578 158.368 207.234 158.184 207.714 157.816C208.194 157.448 208.434 156.984 208.434 156.424C208.434 155.848 208.178 155.424 207.666 155.152C207.154 154.864 206.362 154.584 205.29 154.312C204.314 154.056 203.514 153.8 202.89 153.544C202.282 153.272 201.754 152.88 201.306 152.368C200.874 151.84 200.658 151.152 200.658 150.304C200.658 149.632 200.858 149.016 201.258 148.456C201.658 147.896 202.226 147.456 202.962 147.136C203.698 146.8 204.538 146.632 205.482 146.632C206.938 146.632 208.114 147 209.01 147.736C209.906 148.472 210.386 149.48 210.45 150.76H208.266C208.218 150.072 207.938 149.52 207.426 149.104C206.93 148.688 206.258 148.48 205.41 148.48C204.626 148.48 204.002 148.648 203.538 148.984C203.074 149.32 202.842 149.76 202.842 150.304C202.842 150.736 202.978 151.096 203.25 151.384C203.538 151.656 203.89 151.88 204.306 152.056C204.738 152.216 205.33 152.4 206.082 152.608C207.026 152.864 207.794 153.12 208.386 153.376C208.978 153.616 209.482 153.984 209.898 154.48C210.33 154.976 210.554 155.624 210.57 156.424C210.57 157.144 210.37 157.792 209.97 158.368C209.57 158.944 209.002 159.4 208.266 159.736C207.546 160.056 206.714 160.216 205.77 160.216ZM214.781 144.712C214.365 144.712 214.013 144.568 213.725 144.28C213.437 143.992 213.293 143.64 213.293 143.224C213.293 142.808 213.437 142.456 213.725 142.168C214.013 141.88 214.365 141.736 214.781 141.736C215.181 141.736 215.517 141.88 215.789 142.168C216.077 142.456 216.221 142.808 216.221 143.224C216.221 143.64 216.077 143.992 215.789 144.28C215.517 144.568 215.181 144.712 214.781 144.712ZM215.837 146.848V160H213.653V146.848H215.837ZM225.967 146.608C227.567 146.608 228.863 147.096 229.855 148.072C230.847 149.032 231.343 150.424 231.343 152.248V160H229.183V152.56C229.183 151.248 228.855 150.248 228.199 149.56C227.543 148.856 226.647 148.504 225.511 148.504C224.359 148.504 223.439 148.864 222.751 149.584C222.079 150.304 221.743 151.352 221.743 152.728V160H219.559V146.848H221.743V148.72C222.175 148.048 222.759 147.528 223.495 147.16C224.247 146.792 225.071 146.608 225.967 146.608ZM234.095 153.4C234.095 152.04 234.367 150.856 234.911 149.848C235.455 148.824 236.207 148.032 237.167 147.472C238.143 146.912 239.255 146.632 240.503 146.632C242.119 146.632 243.447 147.024 244.487 147.808C245.543 148.592 246.239 149.68 246.575 151.072H244.223C243.999 150.272 243.559 149.64 242.903 149.176C242.263 148.712 241.463 148.48 240.503 148.48C239.255 148.48 238.247 148.912 237.479 149.776C236.711 150.624 236.327 151.832 236.327 153.4C236.327 154.984 236.711 156.208 237.479 157.072C238.247 157.936 239.255 158.368 240.503 158.368C241.463 158.368 242.263 158.144 242.903 157.696C243.543 157.248 243.983 156.608 244.223 155.776H246.575C246.223 157.12 245.519 158.2 244.463 159.016C243.407 159.816 242.087 160.216 240.503 160.216C239.255 160.216 238.143 159.936 237.167 159.376C236.207 158.816 235.455 158.024 234.911 157C234.367 155.976 234.095 154.776 234.095 153.4ZM261.489 152.92C261.489 153.336 261.465 153.776 261.417 154.24H250.905C250.985 155.536 251.425 156.552 252.225 157.288C253.041 158.008 254.025 158.368 255.177 158.368C256.121 158.368 256.905 158.152 257.529 157.72C258.169 157.272 258.617 156.68 258.873 155.944H261.225C260.873 157.208 260.169 158.24 259.113 159.04C258.057 159.824 256.745 160.216 255.177 160.216C253.929 160.216 252.809 159.936 251.817 159.376C250.841 158.816 250.073 158.024 249.513 157C248.953 155.96 248.673 154.76 248.673 153.4C248.673 152.04 248.945 150.848 249.489 149.824C250.033 148.8 250.793 148.016 251.769 147.472C252.761 146.912 253.897 146.632 255.177 146.632C256.425 146.632 257.529 146.904 258.489 147.448C259.449 147.992 260.185 148.744 260.697 149.704C261.225 150.648 261.489 151.72 261.489 152.92ZM259.233 152.464C259.233 151.632 259.049 150.92 258.681 150.328C258.313 149.72 257.809 149.264 257.169 148.96C256.545 148.64 255.849 148.48 255.081 148.48C253.977 148.48 253.033 148.832 252.249 149.536C251.481 150.24 251.041 151.216 250.929 152.464H259.233ZM270.146 158.248C272.178 156.616 273.77 155.28 274.922 154.24C276.074 153.184 277.042 152.088 277.826 150.952C278.626 149.8 279.026 148.672 279.026 147.568C279.026 146.528 278.77 145.712 278.258 145.12C277.762 144.512 276.954 144.208 275.834 144.208C274.746 144.208 273.898 144.552 273.29 145.24C272.698 145.912 272.378 146.816 272.33 147.952H270.218C270.282 146.16 270.826 144.776 271.85 143.8C272.874 142.824 274.194 142.336 275.81 142.336C277.458 142.336 278.762 142.792 279.722 143.704C280.698 144.616 281.186 145.872 281.186 147.472C281.186 148.8 280.786 150.096 279.986 151.36C279.202 152.608 278.306 153.712 277.298 154.672C276.29 155.616 275.002 156.72 273.434 157.984H281.69V159.808H270.146V158.248ZM284.215 151.144C284.215 148.392 284.663 146.248 285.559 144.712C286.455 143.16 288.023 142.384 290.263 142.384C292.487 142.384 294.047 143.16 294.943 144.712C295.839 146.248 296.287 148.392 296.287 151.144C296.287 153.944 295.839 156.12 294.943 157.672C294.047 159.224 292.487 160 290.263 160C288.023 160 286.455 159.224 285.559 157.672C284.663 156.12 284.215 153.944 284.215 151.144ZM294.127 151.144C294.127 149.752 294.031 148.576 293.839 147.616C293.663 146.64 293.287 145.856 292.711 145.264C292.151 144.672 291.335 144.376 290.263 144.376C289.175 144.376 288.343 144.672 287.767 145.264C287.207 145.856 286.831 146.64 286.639 147.616C286.463 148.576 286.375 149.752 286.375 151.144C286.375 152.584 286.463 153.792 286.639 154.768C286.831 155.744 287.207 156.528 287.767 157.12C288.343 157.712 289.175 158.008 290.263 158.008C291.335 158.008 292.151 157.712 292.711 157.12C293.287 156.528 293.663 155.744 293.839 154.768C294.031 153.792 294.127 152.584 294.127 151.144ZM299.021 158.248C301.053 156.616 302.645 155.28 303.797 154.24C304.949 153.184 305.917 152.088 306.701 150.952C307.501 149.8 307.901 148.672 307.901 147.568C307.901 146.528 307.645 145.712 307.133 145.12C306.637 144.512 305.829 144.208 304.709 144.208C303.621 144.208 302.773 144.552 302.165 145.24C301.573 145.912 301.253 146.816 301.205 147.952H299.093C299.157 146.16 299.701 144.776 300.725 143.8C301.749 142.824 303.069 142.336 304.685 142.336C306.333 142.336 307.637 142.792 308.597 143.704C309.573 144.616 310.061 145.872 310.061 147.472C310.061 148.8 309.661 150.096 308.861 151.36C308.077 152.608 307.181 153.712 306.173 154.672C305.165 155.616 303.877 156.72 302.309 157.984H310.565V159.808H299.021V158.248ZM313.09 151.144C313.09 148.392 313.538 146.248 314.434 144.712C315.33 143.16 316.898 142.384 319.138 142.384C321.362 142.384 322.922 143.16 323.818 144.712C324.714 146.248 325.162 148.392 325.162 151.144C325.162 153.944 324.714 156.12 323.818 157.672C322.922 159.224 321.362 160 319.138 160C316.898 160 315.33 159.224 314.434 157.672C313.538 156.12 313.09 153.944 313.09 151.144ZM323.002 151.144C323.002 149.752 322.906 148.576 322.714 147.616C322.538 146.64 322.162 145.856 321.586 145.264C321.026 144.672 320.21 144.376 319.138 144.376C318.05 144.376 317.218 144.672 316.642 145.264C316.082 145.856 315.706 146.64 315.514 147.616C315.338 148.576 315.25 149.752 315.25 151.144C315.25 152.584 315.338 153.792 315.514 154.768C315.706 155.744 316.082 156.528 316.642 157.12C317.218 157.712 318.05 158.008 319.138 158.008C320.21 158.008 321.026 157.712 321.586 157.12C322.162 156.528 322.538 155.744 322.714 154.768C322.906 153.792 323.002 152.584 323.002 151.144Z" fill="#7C8782"/>
<defs>
<linearGradient id="paint0_linear_67_45" x1="17.8246" y1="36.2174" x2="406.223" y2="235.039" gradientUnits="userSpaceOnUse">
<stop stop-color="#5BFFAC"/>
<stop offset="1" stop-color="#78FA52"/>
</linearGradient>
</defs>
</svg>
