<svg width="492" height="96" viewBox="0 0 492 96" fill="none" xmlns="http://www.w3.org/2000/svg">
<path d="M7.825 10.55C9.65833 10.55 11.2667 10.9083 12.65 11.625C14.05 12.3417 15.125 13.3667 15.875 14.7C16.6417 16.0167 17.025 17.55 17.025 19.3C17.025 21.05 16.6417 22.5833 15.875 23.9C15.125 25.2 14.05 26.2083 12.65 26.925C11.2667 27.6417 9.65833 28 7.825 28H1.725V10.55H7.825ZM7.7 25.025C9.53333 25.025 10.95 24.525 11.95 23.525C12.95 22.525 13.45 21.1167 13.45 19.3C13.45 17.4833 12.95 16.0667 11.95 15.05C10.95 14.0167 9.53333 13.5 7.7 13.5H5.225V25.025H7.7ZM23.1449 13.375V17.75H29.0199V20.525H23.1449V25.15H29.7699V28H19.6449V10.525H29.7699V13.375H23.1449ZM32.1006 19.25C32.1006 17.5333 32.4839 16 33.2506 14.65C34.0339 13.2833 35.0923 12.225 36.4256 11.475C37.7756 10.7083 39.2839 10.325 40.9506 10.325C42.9006 10.325 44.6089 10.825 46.0756 11.825C47.5423 12.825 48.5673 14.2083 49.1506 15.975H45.1256C44.7256 15.1417 44.1589 14.5167 43.4256 14.1C42.7089 13.6833 41.8756 13.475 40.9256 13.475C39.9089 13.475 39.0006 13.7167 38.2006 14.2C37.4173 14.6667 36.8006 15.3333 36.3506 16.2C35.9173 17.0667 35.7006 18.0833 35.7006 19.25C35.7006 20.4 35.9173 21.4167 36.3506 22.3C36.8006 23.1667 37.4173 23.8417 38.2006 24.325C39.0006 24.7917 39.9089 25.025 40.9256 25.025C41.8756 25.025 42.7089 24.8167 43.4256 24.4C44.1589 23.9667 44.7256 23.3333 45.1256 22.5H49.1506C48.5673 24.2833 47.5423 25.675 46.0756 26.675C44.6256 27.6583 42.9173 28.15 40.9506 28.15C39.2839 28.15 37.7756 27.775 36.4256 27.025C35.0923 26.2583 34.0339 25.2 33.2506 23.85C32.4839 22.5 32.1006 20.9667 32.1006 19.25ZM55.64 13.375V17.75H61.515V20.525H55.64V25.15H62.265V28H52.14V10.525H62.265V13.375H55.64ZM80.3707 28H76.8707L68.9457 16.025V28H65.4457V10.525H68.9457L76.8707 22.525V10.525H80.3707V28ZM95.7045 10.55V13.375H91.0545V28H87.5545V13.375H82.9045V10.55H95.7045ZM107.258 28L103.408 21.2H101.758V28H98.2582V10.55H104.808C106.158 10.55 107.308 10.7917 108.258 11.275C109.208 11.7417 109.917 12.3833 110.383 13.2C110.867 14 111.108 14.9 111.108 15.9C111.108 17.05 110.775 18.0917 110.108 19.025C109.442 19.9417 108.45 20.575 107.133 20.925L111.308 28H107.258ZM101.758 18.575H104.683C105.633 18.575 106.342 18.35 106.808 17.9C107.275 17.4333 107.508 16.7917 107.508 15.975C107.508 15.175 107.275 14.5583 106.808 14.125C106.342 13.675 105.633 13.45 104.683 13.45H101.758V18.575ZM124.974 24.675H118.024L116.874 28H113.199L119.474 10.525H123.549L129.824 28H126.124L124.974 24.675ZM124.024 21.875L121.499 14.575L118.974 21.875H124.024ZM135.669 25.225H141.419V28H132.169V10.55H135.669V25.225ZM147.144 10.55V28H143.644V10.55H147.144ZM154.177 25.05H162.027V28H150.127V25.3L157.927 13.5H150.127V10.55H162.027V13.25L154.177 25.05ZM168.506 13.375V17.75H174.381V20.525H168.506V25.15H175.131V28H165.006V10.525H175.131V13.375H168.506ZM184.412 10.55C186.245 10.55 187.854 10.9083 189.237 11.625C190.637 12.3417 191.712 13.3667 192.462 14.7C193.229 16.0167 193.612 17.55 193.612 19.3C193.612 21.05 193.229 22.5833 192.462 23.9C191.712 25.2 190.637 26.2083 189.237 26.925C187.854 27.6417 186.245 28 184.412 28H178.312V10.55H184.412ZM184.287 25.025C186.12 25.025 187.537 24.525 188.537 23.525C189.537 22.525 190.037 21.1167 190.037 19.3C190.037 17.4833 189.537 16.0667 188.537 15.05C187.537 14.0167 186.12 13.5 184.287 13.5H181.812V25.025H184.287ZM214.064 10.55V13.375H209.414V28H205.914V13.375H201.264V10.55H214.064ZM225.618 28L221.768 21.2H220.118V28H216.618V10.55H223.168C224.518 10.55 225.668 10.7917 226.618 11.275C227.568 11.7417 228.276 12.3833 228.743 13.2C229.226 14 229.468 14.9 229.468 15.9C229.468 17.05 229.134 18.0917 228.468 19.025C227.801 19.9417 226.809 20.575 225.493 20.925L229.668 28H225.618ZM220.118 18.575H223.043C223.993 18.575 224.701 18.35 225.168 17.9C225.634 17.4333 225.868 16.7917 225.868 15.975C225.868 15.175 225.634 14.5583 225.168 14.125C224.701 13.675 223.993 13.45 223.043 13.45H220.118V18.575ZM243.333 24.675H236.383L235.233 28H231.558L237.833 10.525H241.908L248.183 28H244.483L243.333 24.675ZM242.383 21.875L239.858 14.575L237.333 21.875H242.383ZM256.629 10.55C258.462 10.55 260.07 10.9083 261.454 11.625C262.854 12.3417 263.929 13.3667 264.679 14.7C265.445 16.0167 265.829 17.55 265.829 19.3C265.829 21.05 265.445 22.5833 264.679 23.9C263.929 25.2 262.854 26.2083 261.454 26.925C260.07 27.6417 258.462 28 256.629 28H250.529V10.55H256.629ZM256.504 25.025C258.337 25.025 259.754 24.525 260.754 23.525C261.754 22.525 262.254 21.1167 262.254 19.3C262.254 17.4833 261.754 16.0667 260.754 15.05C259.754 14.0167 258.337 13.5 256.504 13.5H254.029V25.025H256.504ZM271.949 10.55V28H268.449V10.55H271.949ZM290.332 28H286.832L278.907 16.025V28H275.407V10.525H278.907L286.832 22.525V10.525H290.332V28ZM305.94 15.8C305.54 15.0667 304.99 14.5083 304.29 14.125C303.59 13.7417 302.774 13.55 301.84 13.55C300.807 13.55 299.89 13.7833 299.09 14.25C298.29 14.7167 297.665 15.3833 297.215 16.25C296.765 17.1167 296.54 18.1167 296.54 19.25C296.54 20.4167 296.765 21.4333 297.215 22.3C297.682 23.1667 298.324 23.8333 299.14 24.3C299.957 24.7667 300.907 25 301.99 25C303.324 25 304.415 24.65 305.265 23.95C306.115 23.2333 306.674 22.2417 306.94 20.975H300.94V18.3H310.39V21.35C310.157 22.5667 309.657 23.6917 308.89 24.725C308.124 25.7583 307.132 26.5917 305.915 27.225C304.715 27.8417 303.365 28.15 301.865 28.15C300.182 28.15 298.657 27.775 297.29 27.025C295.94 26.2583 294.874 25.2 294.09 23.85C293.324 22.5 292.94 20.9667 292.94 19.25C292.94 17.5333 293.324 16 294.09 14.65C294.874 13.2833 295.94 12.225 297.29 11.475C298.657 10.7083 300.174 10.325 301.84 10.325C303.807 10.325 305.515 10.8083 306.965 11.775C308.415 12.725 309.415 14.0667 309.965 15.8H305.94ZM331.662 15.95C331.662 16.8833 331.437 17.7583 330.987 18.575C330.554 19.3917 329.862 20.05 328.912 20.55C327.979 21.05 326.795 21.3 325.362 21.3H322.437V28H318.937V10.55H325.362C326.712 10.55 327.862 10.7833 328.812 11.25C329.762 11.7167 330.47 12.3583 330.937 13.175C331.42 13.9917 331.662 14.9167 331.662 15.95ZM325.212 18.475C326.179 18.475 326.895 18.2583 327.362 17.825C327.829 17.375 328.062 16.75 328.062 15.95C328.062 14.25 327.112 13.4 325.212 13.4H322.437V18.475H325.212ZM337.647 25.225H343.397V28H334.147V10.55H337.647V25.225ZM356.321 24.675H349.371L348.221 28H344.546L350.821 10.525H354.896L361.171 28H357.471L356.321 24.675ZM355.371 21.875L352.846 14.575L350.321 21.875H355.371ZM375.392 10.55V13.375H370.742V28H367.242V13.375H362.592V10.55H375.392ZM388.721 10.55V13.375H381.446V17.85H387.021V20.625H381.446V28H377.946V10.55H388.721ZM399.303 28.175C397.669 28.175 396.169 27.7917 394.803 27.025C393.436 26.2583 392.353 25.2 391.553 23.85C390.753 22.4833 390.353 20.9417 390.353 19.225C390.353 17.525 390.753 16 391.553 14.65C392.353 13.2833 393.436 12.2167 394.803 11.45C396.169 10.6833 397.669 10.3 399.303 10.3C400.953 10.3 402.453 10.6833 403.803 11.45C405.169 12.2167 406.244 13.2833 407.028 14.65C407.828 16 408.228 17.525 408.228 19.225C408.228 20.9417 407.828 22.4833 407.028 23.85C406.244 25.2 405.169 26.2583 403.803 27.025C402.436 27.7917 400.936 28.175 399.303 28.175ZM399.303 25.05C400.353 25.05 401.278 24.8167 402.078 24.35C402.878 23.8667 403.503 23.1833 403.953 22.3C404.403 21.4167 404.628 20.3917 404.628 19.225C404.628 18.0583 404.403 17.0417 403.953 16.175C403.503 15.2917 402.878 14.6167 402.078 14.15C401.278 13.6833 400.353 13.45 399.303 13.45C398.253 13.45 397.319 13.6833 396.503 14.15C395.703 14.6167 395.078 15.2917 394.628 16.175C394.178 17.0417 393.953 18.0583 393.953 19.225C393.953 20.3917 394.178 21.4167 394.628 22.3C395.078 23.1833 395.703 23.8667 396.503 24.35C397.319 24.8167 398.253 25.05 399.303 25.05ZM419.831 28L415.981 21.2H414.331V28H410.831V10.55H417.381C418.731 10.55 419.881 10.7917 420.831 11.275C421.781 11.7417 422.49 12.3833 422.956 13.2C423.44 14 423.681 14.9 423.681 15.9C423.681 17.05 423.348 18.0917 422.681 19.025C422.015 19.9417 421.023 20.575 419.706 20.925L423.881 28H419.831ZM414.331 18.575H417.256C418.206 18.575 418.915 18.35 419.381 17.9C419.848 17.4333 420.081 16.7917 420.081 15.975C420.081 15.175 419.848 14.5583 419.381 14.125C418.915 13.675 418.206 13.45 417.256 13.45H414.331V18.575ZM445.872 10.55V28H442.372V16.65L437.697 28H435.047L430.347 16.65V28H426.847V10.55H430.822L436.372 23.525L441.922 10.55H445.872ZM455.357 28.175C454.141 28.175 453.041 27.9667 452.057 27.55C451.091 27.1333 450.324 26.5333 449.757 25.75C449.191 24.9667 448.899 24.0417 448.882 22.975H452.632C452.682 23.6917 452.932 24.2583 453.382 24.675C453.849 25.0917 454.482 25.3 455.282 25.3C456.099 25.3 456.741 25.1083 457.207 24.725C457.674 24.325 457.907 23.8083 457.907 23.175C457.907 22.6583 457.749 22.2333 457.432 21.9C457.116 21.5667 456.716 21.3083 456.232 21.125C455.766 20.925 455.116 20.7083 454.282 20.475C453.149 20.1417 452.224 19.8167 451.507 19.5C450.807 19.1667 450.199 18.675 449.682 18.025C449.182 17.3583 448.932 16.475 448.932 15.375C448.932 14.3417 449.191 13.4417 449.707 12.675C450.224 11.9083 450.949 11.325 451.882 10.925C452.816 10.5083 453.882 10.3 455.082 10.3C456.882 10.3 458.341 10.7417 459.457 11.625C460.591 12.4917 461.216 13.7083 461.332 15.275H457.482C457.449 14.675 457.191 14.1833 456.707 13.8C456.241 13.4 455.616 13.2 454.832 13.2C454.149 13.2 453.599 13.375 453.182 13.725C452.782 14.075 452.582 14.5833 452.582 15.25C452.582 15.7167 452.732 16.1083 453.032 16.425C453.349 16.725 453.732 16.975 454.182 17.175C454.649 17.3583 455.299 17.575 456.132 17.825C457.266 18.1583 458.191 18.4917 458.907 18.825C459.624 19.1583 460.241 19.6583 460.757 20.325C461.274 20.9917 461.532 21.8667 461.532 22.95C461.532 23.8833 461.291 24.75 460.807 25.55C460.324 26.35 459.616 26.9917 458.682 27.475C457.749 27.9417 456.641 28.175 455.357 28.175Z" fill="white"/>
<path d="M5.453 45.719C6.92233 45.719 8.18267 45.985 9.234 46.517C10.2853 47.049 11.0897 47.8153 11.647 48.816C12.2043 49.8167 12.483 51.0073 12.483 52.388C12.483 53.756 12.2043 54.9403 11.647 55.941C11.0897 56.929 10.2853 57.689 9.234 58.221C8.18267 58.7403 6.92233 59 5.453 59H1.52V45.719H5.453ZM5.453 57.898C7.30233 57.898 8.70833 57.4167 9.671 56.454C10.6463 55.4787 11.134 54.1233 11.134 52.388C11.134 50.64 10.6463 49.2783 9.671 48.303C8.70833 47.315 7.30233 46.821 5.453 46.821H2.85V57.898H5.453ZM16.265 46.802V51.761H21.3V52.863H16.265V57.898H21.87V59H14.935V45.7H21.87V46.802H16.265ZM23.8827 52.35C23.8827 51.0453 24.1677 49.88 24.7377 48.854C25.3077 47.8153 26.0867 47.011 27.0747 46.441C28.0627 45.8583 29.1647 45.567 30.3807 45.567C31.8627 45.567 33.1294 45.9217 34.1807 46.631C35.2447 47.3277 36.0174 48.3157 36.4987 49.595H34.9407C34.5607 48.6957 33.978 47.9927 33.1927 47.486C32.42 46.9793 31.4827 46.726 30.3807 46.726C29.4054 46.726 28.525 46.954 27.7397 47.41C26.967 47.866 26.359 48.5247 25.9157 49.386C25.4724 50.2347 25.2507 51.2227 25.2507 52.35C25.2507 53.4773 25.4724 54.4653 25.9157 55.314C26.359 56.1627 26.967 56.815 27.7397 57.271C28.525 57.727 29.4054 57.955 30.3807 57.955C31.4827 57.955 32.42 57.708 33.1927 57.214C33.978 56.7073 34.5607 56.0107 34.9407 55.124H36.4987C36.0174 56.3907 35.2447 57.3723 34.1807 58.069C33.1167 58.7657 31.85 59.114 30.3807 59.114C29.1647 59.114 28.0627 58.829 27.0747 58.259C26.0867 57.6763 25.3077 56.872 24.7377 55.846C24.1677 54.82 23.8827 53.6547 23.8827 52.35ZM40.4789 46.802V51.761H45.5139V52.863H40.4789V57.898H46.0839V59H39.1489V45.7H46.0839V46.802H40.4789ZM58.7176 59H57.3876L50.0346 47.828V59H48.7046V45.719H50.0346L57.3876 56.872V45.719H58.7176V59ZM69.501 45.719V46.821H65.815V59H64.485V46.821H60.78V45.719H69.501ZM78.6691 59L75.3821 53.452H72.9311V59H71.6011V45.719H75.5911C77.0731 45.719 78.1941 46.0737 78.9541 46.783C79.7267 47.4923 80.1131 48.4233 80.1131 49.576C80.1131 50.5387 79.8344 51.362 79.2771 52.046C78.7324 52.7173 77.9217 53.1543 76.8451 53.357L80.2651 59H78.6691ZM72.9311 52.369H75.6101C76.6487 52.369 77.4277 52.1157 77.9471 51.609C78.4791 51.1023 78.7451 50.4247 78.7451 49.576C78.7451 48.702 78.4917 48.0307 77.9851 47.562C77.4784 47.0807 76.6804 46.84 75.5911 46.84H72.9311V52.369ZM90.4474 55.846H84.4054L83.2464 59H81.8404L86.6854 45.89H88.1864L93.0124 59H91.6064L90.4474 55.846ZM90.0484 54.744L87.4264 47.562L84.8044 54.744H90.0484ZM96.477 57.917H101.246V59H95.147V45.719H96.477V57.917ZM104.474 45.719V59H103.144V45.719H104.474ZM108.341 57.822H115.124V59H106.783V57.936L113.471 46.897H106.897V45.719H115.029V46.783L108.341 57.822ZM118.798 46.802V51.761H123.833V52.863H118.798V57.898H124.403V59H117.468V45.7H124.403V46.802H118.798ZM130.957 45.719C132.426 45.719 133.687 45.985 134.738 46.517C135.789 47.049 136.594 47.8153 137.151 48.816C137.708 49.8167 137.987 51.0073 137.987 52.388C137.987 53.756 137.708 54.9403 137.151 55.941C136.594 56.929 135.789 57.689 134.738 58.221C133.687 58.7403 132.426 59 130.957 59H127.024V45.719H130.957ZM130.957 57.898C132.806 57.898 134.212 57.4167 135.175 56.454C136.15 55.4787 136.638 54.1233 136.638 52.388C136.638 50.64 136.15 49.2783 135.175 48.303C134.212 47.315 132.806 46.821 130.957 46.821H128.354V57.898H130.957ZM153.424 45.719V46.821H149.738V59H148.408V46.821H144.703V45.719H153.424ZM162.592 59L159.305 53.452H156.854V59H155.524V45.719H159.514C160.996 45.719 162.117 46.0737 162.877 46.783C163.65 47.4923 164.036 48.4233 164.036 49.576C164.036 50.5387 163.757 51.362 163.2 52.046C162.655 52.7173 161.845 53.1543 160.768 53.357L164.188 59H162.592ZM156.854 52.369H159.533C160.572 52.369 161.351 52.1157 161.87 51.609C162.402 51.1023 162.668 50.4247 162.668 49.576C162.668 48.702 162.415 48.0307 161.908 47.562C161.401 47.0807 160.603 46.84 159.514 46.84H156.854V52.369ZM174.37 55.846H168.328L167.169 59H165.763L170.608 45.89H172.109L176.935 59H175.529L174.37 55.846ZM173.971 54.744L171.349 47.562L168.727 54.744H173.971ZM188.217 45.719C189.686 45.719 190.946 45.985 191.998 46.517C193.049 47.049 193.853 47.8153 194.411 48.816C194.968 49.8167 195.247 51.0073 195.247 52.388C195.247 53.756 194.968 54.9403 194.411 55.941C193.853 56.929 193.049 57.689 191.998 58.221C190.946 58.7403 189.686 59 188.217 59H184.284V45.719H188.217ZM188.217 57.898C190.066 57.898 191.472 57.4167 192.435 56.454C193.41 55.4787 193.898 54.1233 193.898 52.388C193.898 50.64 193.41 49.2783 192.435 48.303C191.472 47.315 190.066 46.821 188.217 46.821H185.614V57.898H188.217ZM197.091 53.813C197.091 52.7363 197.306 51.799 197.737 51.001C198.167 50.1903 198.763 49.5697 199.523 49.139C200.283 48.6957 201.15 48.474 202.126 48.474C203.405 48.474 204.456 48.7907 205.28 49.424C206.116 50.0573 206.654 50.9187 206.895 52.008H205.47C205.292 51.2607 204.906 50.678 204.311 50.26C203.728 49.8293 203 49.614 202.126 49.614C201.429 49.614 200.802 49.7723 200.245 50.089C199.687 50.4057 199.244 50.8807 198.915 51.514C198.598 52.1347 198.44 52.901 198.44 53.813C198.44 54.725 198.598 55.4977 198.915 56.131C199.244 56.7643 199.687 57.2393 200.245 57.556C200.802 57.8727 201.429 58.031 202.126 58.031C203 58.031 203.728 57.822 204.311 57.404C204.906 56.9733 205.292 56.378 205.47 55.618H206.895C206.654 56.682 206.116 57.537 205.28 58.183C204.444 58.829 203.392 59.152 202.126 59.152C201.15 59.152 200.283 58.9367 199.523 58.506C198.763 58.0627 198.167 57.442 197.737 56.644C197.306 55.8333 197.091 54.8897 197.091 53.813ZM218.737 53.281C218.737 53.737 218.724 54.0853 218.699 54.326H210.092C210.13 55.1113 210.32 55.7827 210.662 56.34C211.004 56.8973 211.454 57.3217 212.011 57.613C212.568 57.8917 213.176 58.031 213.835 58.031C214.696 58.031 215.418 57.822 216.001 57.404C216.596 56.986 216.989 56.4223 217.179 55.713H218.585C218.332 56.7263 217.787 57.556 216.951 58.202C216.128 58.8353 215.089 59.152 213.835 59.152C212.86 59.152 211.986 58.9367 211.213 58.506C210.44 58.0627 209.832 57.442 209.389 56.644C208.958 55.8333 208.743 54.8897 208.743 53.813C208.743 52.7363 208.958 51.7927 209.389 50.982C209.82 50.1713 210.421 49.5507 211.194 49.12C211.967 48.6893 212.847 48.474 213.835 48.474C214.823 48.474 215.684 48.6893 216.419 49.12C217.166 49.5507 217.736 50.1333 218.129 50.868C218.534 51.59 218.737 52.3943 218.737 53.281ZM217.388 53.243C217.401 52.4703 217.242 51.8117 216.913 51.267C216.596 50.7223 216.159 50.3107 215.602 50.032C215.045 49.7533 214.437 49.614 213.778 49.614C212.79 49.614 211.948 49.9307 211.251 50.564C210.554 51.1973 210.168 52.0903 210.092 53.243H217.388ZM226.034 48.436C227.276 48.436 228.289 48.8223 229.074 49.595C229.86 50.355 230.252 51.4633 230.252 52.92V59H228.941V53.072C228.941 51.9447 228.656 51.0833 228.086 50.488C227.529 49.8927 226.763 49.595 225.787 49.595C224.787 49.595 223.989 49.9117 223.393 50.545C222.798 51.1783 222.5 52.1093 222.5 53.338V59H221.17V48.626H222.5V50.393C222.83 49.7597 223.305 49.2783 223.925 48.949C224.546 48.607 225.249 48.436 226.034 48.436ZM234.923 49.747V56.188C234.923 56.8213 235.043 57.2583 235.284 57.499C235.524 57.7397 235.949 57.86 236.557 57.86H237.773V59H236.348C235.41 59 234.714 58.7847 234.258 58.354C233.802 57.9107 233.574 57.1887 233.574 56.188V49.747H232.13V48.626H233.574V46.023H234.923V48.626H237.773V49.747H234.923ZM241.296 50.469C241.588 49.823 242.031 49.3227 242.626 48.968C243.234 48.6133 243.975 48.436 244.849 48.436V49.823H244.488C243.526 49.823 242.753 50.0827 242.17 50.602C241.588 51.1213 241.296 51.989 241.296 53.205V59H239.966V48.626H241.296V50.469ZM246.242 53.794C246.242 52.73 246.451 51.799 246.869 51.001C247.3 50.1903 247.889 49.5697 248.636 49.139C249.396 48.6957 250.251 48.474 251.201 48.474C252.189 48.474 253.038 48.702 253.747 49.158C254.469 49.614 254.988 50.1967 255.305 50.906V48.626H256.635V59H255.305V56.701C254.976 57.4103 254.45 57.9993 253.728 58.468C253.019 58.924 252.17 59.152 251.182 59.152C250.245 59.152 249.396 58.9303 248.636 58.487C247.889 58.0437 247.3 57.4167 246.869 56.606C246.451 55.7953 246.242 54.858 246.242 53.794ZM255.305 53.813C255.305 52.977 255.134 52.2423 254.792 51.609C254.45 50.9757 253.981 50.488 253.386 50.146C252.803 49.804 252.157 49.633 251.448 49.633C250.713 49.633 250.055 49.7977 249.472 50.127C248.889 50.4563 248.427 50.9377 248.085 51.571C247.756 52.1917 247.591 52.9327 247.591 53.794C247.591 54.6427 247.756 55.39 248.085 56.036C248.427 56.6693 248.889 57.157 249.472 57.499C250.055 57.8283 250.713 57.993 251.448 57.993C252.157 57.993 252.803 57.822 253.386 57.48C253.981 57.138 254.45 56.6503 254.792 56.017C255.134 55.3837 255.305 54.649 255.305 53.813ZM261.001 44.94V59H259.671V44.94H261.001ZM264.678 46.669C264.412 46.669 264.184 46.574 263.994 46.384C263.804 46.194 263.709 45.9597 263.709 45.681C263.709 45.4023 263.804 45.1743 263.994 44.997C264.184 44.807 264.412 44.712 264.678 44.712C264.944 44.712 265.172 44.807 265.362 44.997C265.552 45.1743 265.647 45.4023 265.647 45.681C265.647 45.9597 265.552 46.194 265.362 46.384C265.172 46.574 264.944 46.669 264.678 46.669ZM265.343 48.626V59H264.013V48.626H265.343ZM269.058 57.898H274.492V59H267.538V57.898L272.877 49.728H267.633V48.626H274.397V49.728L269.058 57.898ZM286.128 53.281C286.128 53.737 286.115 54.0853 286.09 54.326H277.483C277.521 55.1113 277.711 55.7827 278.053 56.34C278.395 56.8973 278.844 57.3217 279.402 57.613C279.959 57.8917 280.567 58.031 281.226 58.031C282.087 58.031 282.809 57.822 283.392 57.404C283.987 56.986 284.38 56.4223 284.57 55.713H285.976C285.722 56.7263 285.178 57.556 284.342 58.202C283.518 58.8353 282.48 59.152 281.226 59.152C280.25 59.152 279.376 58.9367 278.604 58.506C277.831 58.0627 277.223 57.442 276.78 56.644C276.349 55.8333 276.134 54.8897 276.134 53.813C276.134 52.7363 276.349 51.7927 276.78 50.982C277.21 50.1713 277.812 49.5507 278.585 49.12C279.357 48.6893 280.238 48.474 281.226 48.474C282.214 48.474 283.075 48.6893 283.81 49.12C284.557 49.5507 285.127 50.1333 285.52 50.868C285.925 51.59 286.128 52.3943 286.128 53.281ZM284.779 53.243C284.791 52.4703 284.633 51.8117 284.304 51.267C283.987 50.7223 283.55 50.3107 282.993 50.032C282.435 49.7533 281.827 49.614 281.169 49.614C280.181 49.614 279.338 49.9307 278.642 50.564C277.945 51.1973 277.559 52.0903 277.483 53.243H284.779ZM287.953 53.794C287.953 52.73 288.168 51.799 288.599 51.001C289.03 50.1903 289.619 49.5697 290.366 49.139C291.126 48.6957 291.981 48.474 292.931 48.474C293.843 48.474 294.666 48.6957 295.401 49.139C296.136 49.5823 296.674 50.1587 297.016 50.868V44.94H298.346V59H297.016V56.682C296.699 57.404 296.18 57.9993 295.458 58.468C294.736 58.924 293.887 59.152 292.912 59.152C291.962 59.152 291.107 58.9303 290.347 58.487C289.6 58.0437 289.011 57.4167 288.58 56.606C288.162 55.7953 287.953 54.858 287.953 53.794ZM297.016 53.813C297.016 52.977 296.845 52.2423 296.503 51.609C296.161 50.9757 295.692 50.488 295.097 50.146C294.514 49.804 293.868 49.633 293.159 49.633C292.424 49.633 291.766 49.7977 291.183 50.127C290.6 50.4563 290.138 50.9377 289.796 51.571C289.467 52.1917 289.302 52.9327 289.302 53.794C289.302 54.6427 289.467 55.39 289.796 56.036C290.138 56.6693 290.6 57.157 291.183 57.499C291.766 57.8283 292.424 57.993 293.159 57.993C293.868 57.993 294.514 57.822 295.097 57.48C295.692 57.138 296.161 56.6503 296.503 56.017C296.845 55.3837 297.016 54.649 297.016 53.813ZM311.137 59.152C310.162 59.152 309.282 58.9367 308.496 58.506C307.724 58.0627 307.109 57.442 306.653 56.644C306.21 55.8333 305.988 54.8897 305.988 53.813C305.988 52.7363 306.216 51.799 306.672 51.001C307.128 50.1903 307.749 49.5697 308.534 49.139C309.32 48.6957 310.2 48.474 311.175 48.474C312.151 48.474 313.031 48.6957 313.816 49.139C314.614 49.5697 315.235 50.1903 315.678 51.001C316.134 51.799 316.362 52.7363 316.362 53.813C316.362 54.877 316.134 55.8143 315.678 56.625C315.222 57.4357 314.595 58.0627 313.797 58.506C312.999 58.9367 312.113 59.152 311.137 59.152ZM311.137 57.993C311.821 57.993 312.455 57.841 313.037 57.537C313.62 57.2203 314.089 56.7517 314.443 56.131C314.811 55.4977 314.994 54.725 314.994 53.813C314.994 52.901 314.817 52.1347 314.462 51.514C314.108 50.8807 313.639 50.412 313.056 50.108C312.474 49.7913 311.84 49.633 311.156 49.633C310.472 49.633 309.839 49.7913 309.256 50.108C308.674 50.412 308.205 50.8807 307.85 51.514C307.508 52.1347 307.337 52.901 307.337 53.813C307.337 54.725 307.508 55.4977 307.85 56.131C308.205 56.7517 308.667 57.2203 309.237 57.537C309.82 57.841 310.453 57.993 311.137 57.993ZM320.117 50.469C320.408 49.823 320.851 49.3227 321.447 48.968C322.055 48.6133 322.796 48.436 323.67 48.436V49.823H323.309C322.346 49.823 321.573 50.0827 320.991 50.602C320.408 51.1213 320.117 51.989 320.117 53.205V59H318.787V48.626H320.117V50.469ZM325.062 53.794C325.062 52.73 325.278 51.799 325.708 51.001C326.139 50.1903 326.728 49.5697 327.475 49.139C328.235 48.6957 329.09 48.474 330.04 48.474C330.952 48.474 331.776 48.6957 332.51 49.139C333.245 49.5823 333.783 50.1587 334.125 50.868V44.94H335.455V59H334.125V56.682C333.809 57.404 333.289 57.9993 332.567 58.468C331.845 58.924 330.997 59.152 330.021 59.152C329.071 59.152 328.216 58.9303 327.456 58.487C326.709 58.0437 326.12 57.4167 325.689 56.606C325.271 55.7953 325.062 54.858 325.062 53.794ZM334.125 53.813C334.125 52.977 333.954 52.2423 333.612 51.609C333.27 50.9757 332.802 50.488 332.206 50.146C331.624 49.804 330.978 49.633 330.268 49.633C329.534 49.633 328.875 49.7977 328.292 50.127C327.71 50.4563 327.247 50.9377 326.905 51.571C326.576 52.1917 326.411 52.9327 326.411 53.794C326.411 54.6427 326.576 55.39 326.905 56.036C327.247 56.6693 327.71 57.157 328.292 57.499C328.875 57.8283 329.534 57.993 330.268 57.993C330.978 57.993 331.624 57.822 332.206 57.48C332.802 57.138 333.27 56.6503 333.612 56.017C333.954 55.3837 334.125 54.649 334.125 53.813ZM347.878 53.281C347.878 53.737 347.865 54.0853 347.84 54.326H339.233C339.271 55.1113 339.461 55.7827 339.803 56.34C340.145 56.8973 340.594 57.3217 341.152 57.613C341.709 57.8917 342.317 58.031 342.976 58.031C343.837 58.031 344.559 57.822 345.142 57.404C345.737 56.986 346.13 56.4223 346.32 55.713H347.726C347.472 56.7263 346.928 57.556 346.092 58.202C345.268 58.8353 344.23 59.152 342.976 59.152C342 59.152 341.126 58.9367 340.354 58.506C339.581 58.0627 338.973 57.442 338.53 56.644C338.099 55.8333 337.884 54.8897 337.884 53.813C337.884 52.7363 338.099 51.7927 338.53 50.982C338.96 50.1713 339.562 49.5507 340.335 49.12C341.107 48.6893 341.988 48.474 342.976 48.474C343.964 48.474 344.825 48.6893 345.56 49.12C346.307 49.5507 346.877 50.1333 347.27 50.868C347.675 51.59 347.878 52.3943 347.878 53.281ZM346.529 53.243C346.541 52.4703 346.383 51.8117 346.054 51.267C345.737 50.7223 345.3 50.3107 344.743 50.032C344.185 49.7533 343.577 49.614 342.919 49.614C341.931 49.614 341.088 49.9307 340.392 50.564C339.695 51.1973 339.309 52.0903 339.233 53.243H346.529ZM351.641 50.469C351.932 49.823 352.376 49.3227 352.971 48.968C353.579 48.6133 354.32 48.436 355.194 48.436V49.823H354.833C353.87 49.823 353.098 50.0827 352.515 50.602C351.932 51.1213 351.641 51.989 351.641 53.205V59H350.311V48.626H351.641V50.469ZM363.72 50.925C364.062 50.203 364.587 49.614 365.297 49.158C366.019 48.702 366.867 48.474 367.843 48.474C368.793 48.474 369.641 48.6957 370.389 49.139C371.136 49.5697 371.719 50.1903 372.137 51.001C372.567 51.799 372.783 52.73 372.783 53.794C372.783 54.858 372.567 55.7953 372.137 56.606C371.719 57.4167 371.13 58.0437 370.37 58.487C369.622 58.9303 368.78 59.152 367.843 59.152C366.855 59.152 366 58.9303 365.278 58.487C364.568 58.031 364.049 57.442 363.72 56.72V59H362.409V44.94H363.72V50.925ZM371.434 53.794C371.434 52.9327 371.263 52.1917 370.921 51.571C370.591 50.9377 370.135 50.4563 369.553 50.127C368.97 49.7977 368.311 49.633 367.577 49.633C366.867 49.633 366.215 49.804 365.62 50.146C365.037 50.488 364.575 50.9757 364.233 51.609C363.891 52.2423 363.72 52.977 363.72 53.813C363.72 54.649 363.891 55.3837 364.233 56.017C364.575 56.6503 365.037 57.138 365.62 57.48C366.215 57.822 366.867 57.993 367.577 57.993C368.311 57.993 368.97 57.8283 369.553 57.499C370.135 57.157 370.591 56.6693 370.921 56.036C371.263 55.39 371.434 54.6427 371.434 53.794ZM379.771 59.152C378.796 59.152 377.915 58.9367 377.13 58.506C376.357 58.0627 375.743 57.442 375.287 56.644C374.844 55.8333 374.622 54.8897 374.622 53.813C374.622 52.7363 374.85 51.799 375.306 51.001C375.762 50.1903 376.383 49.5697 377.168 49.139C377.953 48.6957 378.834 48.474 379.809 48.474C380.784 48.474 381.665 48.6957 382.45 49.139C383.248 49.5697 383.869 50.1903 384.312 51.001C384.768 51.799 384.996 52.7363 384.996 53.813C384.996 54.877 384.768 55.8143 384.312 56.625C383.856 57.4357 383.229 58.0627 382.431 58.506C381.633 58.9367 380.746 59.152 379.771 59.152ZM379.771 57.993C380.455 57.993 381.088 57.841 381.671 57.537C382.254 57.2203 382.722 56.7517 383.077 56.131C383.444 55.4977 383.628 54.725 383.628 53.813C383.628 52.901 383.451 52.1347 383.096 51.514C382.741 50.8807 382.273 50.412 381.69 50.108C381.107 49.7913 380.474 49.633 379.79 49.633C379.106 49.633 378.473 49.7913 377.89 50.108C377.307 50.412 376.839 50.8807 376.484 51.514C376.142 52.1347 375.971 52.901 375.971 53.813C375.971 54.725 376.142 55.4977 376.484 56.131C376.839 56.7517 377.301 57.2203 377.871 57.537C378.454 57.841 379.087 57.993 379.771 57.993ZM391.961 59.152C390.986 59.152 390.106 58.9367 389.32 58.506C388.548 58.0627 387.933 57.442 387.477 56.644C387.034 55.8333 386.812 54.8897 386.812 53.813C386.812 52.7363 387.04 51.799 387.496 51.001C387.952 50.1903 388.573 49.5697 389.358 49.139C390.144 48.6957 391.024 48.474 391.999 48.474C392.975 48.474 393.855 48.6957 394.64 49.139C395.438 49.5697 396.059 50.1903 396.502 51.001C396.958 51.799 397.186 52.7363 397.186 53.813C397.186 54.877 396.958 55.8143 396.502 56.625C396.046 57.4357 395.419 58.0627 394.621 58.506C393.823 58.9367 392.937 59.152 391.961 59.152ZM391.961 57.993C392.645 57.993 393.279 57.841 393.861 57.537C394.444 57.2203 394.913 56.7517 395.267 56.131C395.635 55.4977 395.818 54.725 395.818 53.813C395.818 52.901 395.641 52.1347 395.286 51.514C394.932 50.8807 394.463 50.412 393.88 50.108C393.298 49.7913 392.664 49.633 391.98 49.633C391.296 49.633 390.663 49.7913 390.08 50.108C389.498 50.412 389.029 50.8807 388.674 51.514C388.332 52.1347 388.161 52.901 388.161 53.813C388.161 54.725 388.332 55.4977 388.674 56.131C389.029 56.7517 389.491 57.2203 390.061 57.537C390.644 57.841 391.277 57.993 391.961 57.993ZM405.216 59L400.941 54.345V59H399.611V44.94H400.941V53.262L405.121 48.626H406.983L402.062 53.794L407.021 59H405.216ZM10.906 82.281C10.906 82.737 10.8933 83.0853 10.868 83.326H2.261C2.299 84.1113 2.489 84.7827 2.831 85.34C3.173 85.8973 3.62267 86.3217 4.18 86.613C4.73733 86.8917 5.34533 87.031 6.004 87.031C6.86533 87.031 7.58733 86.822 8.17 86.404C8.76533 85.986 9.158 85.4223 9.348 84.713H10.754C10.5007 85.7263 9.956 86.556 9.12 87.202C8.29667 87.8353 7.258 88.152 6.004 88.152C5.02867 88.152 4.15467 87.9367 3.382 87.506C2.60933 87.0627 2.00133 86.442 1.558 85.644C1.12733 84.8333 0.912 83.8897 0.912 82.813C0.912 81.7363 1.12733 80.7927 1.558 79.982C1.98867 79.1713 2.59033 78.5507 3.363 78.12C4.13567 77.6893 5.016 77.474 6.004 77.474C6.992 77.474 7.85333 77.6893 8.588 78.12C9.33533 78.5507 9.90533 79.1333 10.298 79.868C10.7033 80.59 10.906 81.3943 10.906 82.281ZM9.557 82.243C9.56967 81.4703 9.41133 80.8117 9.082 80.267C8.76533 79.7223 8.32833 79.3107 7.771 79.032C7.21367 78.7533 6.60567 78.614 5.947 78.614C4.959 78.614 4.11667 78.9307 3.42 79.564C2.72333 80.1973 2.337 81.0903 2.261 82.243H9.557ZM18.7733 88L16.0943 83.82L13.5103 88H12.1043L15.4483 82.813L12.1423 77.626H13.6433L16.2843 81.749L18.8493 77.626H20.2363L16.9303 82.756L20.2743 88H18.7733ZM21.4706 82.813C21.4706 81.7363 21.6859 80.799 22.1166 80.001C22.5473 79.1903 23.1426 78.5697 23.9026 78.139C24.6626 77.6957 25.5303 77.474 26.5056 77.474C27.7849 77.474 28.8363 77.7907 29.6596 78.424C30.4956 79.0573 31.0339 79.9187 31.2746 81.008H29.8496C29.6723 80.2607 29.2859 79.678 28.6906 79.26C28.1079 78.8293 27.3796 78.614 26.5056 78.614C25.8089 78.614 25.1819 78.7723 24.6246 79.089C24.0673 79.4057 23.6239 79.8807 23.2946 80.514C22.9779 81.1347 22.8196 81.901 22.8196 82.813C22.8196 83.725 22.9779 84.4977 23.2946 85.131C23.6239 85.7643 24.0673 86.2393 24.6246 86.556C25.1819 86.8727 25.8089 87.031 26.5056 87.031C27.3796 87.031 28.1079 86.822 28.6906 86.404C29.2859 85.9733 29.6723 85.378 29.8496 84.618H31.2746C31.0339 85.682 30.4956 86.537 29.6596 87.183C28.8236 87.829 27.7723 88.152 26.5056 88.152C25.5303 88.152 24.6626 87.9367 23.9026 87.506C23.1426 87.0627 22.5473 86.442 22.1166 85.644C21.6859 84.8333 21.4706 83.8897 21.4706 82.813ZM38.6709 77.436C39.4563 77.436 40.1593 77.6007 40.7799 77.93C41.4133 78.2593 41.9073 78.766 42.2619 79.45C42.6293 80.1213 42.8129 80.9447 42.8129 81.92V88H41.5019V82.072C41.5019 80.9447 41.2169 80.0833 40.6469 79.488C40.0896 78.8927 39.3233 78.595 38.3479 78.595C37.3473 78.595 36.5493 78.9117 35.9539 79.545C35.3586 80.1783 35.0609 81.1093 35.0609 82.338V88H33.7309V73.94H35.0609V79.393C35.3903 78.7723 35.8716 78.291 36.5049 77.949C37.1509 77.607 37.8729 77.436 38.6709 77.436ZM45.1464 82.794C45.1464 81.73 45.3554 80.799 45.7734 80.001C46.204 79.1903 46.793 78.5697 47.5404 78.139C48.3004 77.6957 49.1554 77.474 50.1054 77.474C51.0934 77.474 51.942 77.702 52.6514 78.158C53.3734 78.614 53.8927 79.1967 54.2094 79.906V77.626H55.5394V88H54.2094V85.701C53.88 86.4103 53.3544 86.9993 52.6324 87.468C51.923 87.924 51.0744 88.152 50.0864 88.152C49.149 88.152 48.3004 87.9303 47.5404 87.487C46.793 87.0437 46.204 86.4167 45.7734 85.606C45.3554 84.7953 45.1464 83.858 45.1464 82.794ZM54.2094 82.813C54.2094 81.977 54.0384 81.2423 53.6964 80.609C53.3544 79.9757 52.8857 79.488 52.2904 79.146C51.7077 78.804 51.0617 78.633 50.3524 78.633C49.6177 78.633 48.959 78.7977 48.3764 79.127C47.7937 79.4563 47.3314 79.9377 46.9894 80.571C46.66 81.1917 46.4954 81.9327 46.4954 82.794C46.4954 83.6427 46.66 84.39 46.9894 85.036C47.3314 85.6693 47.7937 86.157 48.3764 86.499C48.959 86.8283 49.6177 86.993 50.3524 86.993C51.0617 86.993 51.7077 86.822 52.2904 86.48C52.8857 86.138 53.3544 85.6503 53.6964 85.017C54.0384 84.3837 54.2094 83.649 54.2094 82.813ZM63.4397 77.436C64.681 77.436 65.6943 77.8223 66.4797 78.595C67.265 79.355 67.6577 80.4633 67.6577 81.92V88H66.3467V82.072C66.3467 80.9447 66.0617 80.0833 65.4917 79.488C64.9343 78.8927 64.168 78.595 63.1927 78.595C62.192 78.595 61.394 78.9117 60.7987 79.545C60.2033 80.1783 59.9057 81.1093 59.9057 82.338V88H58.5757V77.626H59.9057V79.393C60.235 78.7597 60.71 78.2783 61.3307 77.949C61.9513 77.607 62.6543 77.436 63.4397 77.436ZM74.9501 77.474C75.9254 77.474 76.7741 77.702 77.4961 78.158C78.2181 78.614 78.7374 79.1903 79.0541 79.887V77.626H80.3841V88.266C80.3841 89.216 80.1751 90.0583 79.7571 90.793C79.3518 91.5277 78.7818 92.0913 78.0471 92.484C77.3124 92.8893 76.4764 93.092 75.5391 93.092C74.2091 93.092 73.1008 92.7753 72.2141 92.142C71.3401 91.5087 70.7954 90.6473 70.5801 89.558H71.8911C72.1191 90.28 72.5498 90.8563 73.1831 91.287C73.8291 91.7177 74.6144 91.933 75.5391 91.933C76.2104 91.933 76.8121 91.7873 77.3441 91.496C77.8761 91.2173 78.2941 90.7993 78.5981 90.242C78.9021 89.6847 79.0541 89.026 79.0541 88.266V85.701C78.7248 86.4103 78.1991 86.9993 77.4771 87.468C76.7678 87.924 75.9254 88.152 74.9501 88.152C74.0001 88.152 73.1451 87.9303 72.3851 87.487C71.6378 87.0437 71.0488 86.4167 70.6181 85.606C70.2001 84.7953 69.9911 83.858 69.9911 82.794C69.9911 81.73 70.2001 80.799 70.6181 80.001C71.0488 79.1903 71.6378 78.5697 72.3851 78.139C73.1451 77.6957 74.0001 77.474 74.9501 77.474ZM79.0541 82.813C79.0541 81.977 78.8831 81.2423 78.5411 80.609C78.1991 79.9757 77.7304 79.488 77.1351 79.146C76.5524 78.804 75.9064 78.633 75.1971 78.633C74.4624 78.633 73.8038 78.7977 73.2211 79.127C72.6384 79.4563 72.1761 79.9377 71.8341 80.571C71.5048 81.1917 71.3401 81.9327 71.3401 82.794C71.3401 83.6427 71.5048 84.39 71.8341 85.036C72.1761 85.6693 72.6384 86.157 73.2211 86.499C73.8038 86.8283 74.4624 86.993 75.1971 86.993C75.9064 86.993 76.5524 86.822 77.1351 86.48C77.7304 86.138 78.1991 85.6503 78.5411 85.017C78.8831 84.3837 79.0541 83.649 79.0541 82.813ZM92.8064 82.281C92.8064 82.737 92.7937 83.0853 92.7684 83.326H84.1614C84.1994 84.1113 84.3894 84.7827 84.7314 85.34C85.0734 85.8973 85.5231 86.3217 86.0804 86.613C86.6377 86.8917 87.2457 87.031 87.9044 87.031C88.7657 87.031 89.4877 86.822 90.0704 86.404C90.6657 85.986 91.0584 85.4223 91.2484 84.713H92.6544C92.4011 85.7263 91.8564 86.556 91.0204 87.202C90.1971 87.8353 89.1584 88.152 87.9044 88.152C86.9291 88.152 86.0551 87.9367 85.2824 87.506C84.5097 87.0627 83.9017 86.442 83.4584 85.644C83.0277 84.8333 82.8124 83.8897 82.8124 82.813C82.8124 81.7363 83.0277 80.7927 83.4584 79.982C83.8891 79.1713 84.4907 78.5507 85.2634 78.12C86.0361 77.6893 86.9164 77.474 87.9044 77.474C88.8924 77.474 89.7537 77.6893 90.4884 78.12C91.2357 78.5507 91.8057 79.1333 92.1984 79.868C92.6037 80.59 92.8064 81.3943 92.8064 82.281ZM91.4574 82.243C91.4701 81.4703 91.3117 80.8117 90.9824 80.267C90.6657 79.7223 90.2287 79.3107 89.6714 79.032C89.1141 78.7533 88.5061 78.614 87.8474 78.614C86.8594 78.614 86.0171 78.9307 85.3204 79.564C84.6237 80.1973 84.2374 81.0903 84.1614 82.243H91.4574ZM98.8117 88.152C97.6211 88.152 96.6457 87.8797 95.8857 87.335C95.1384 86.7777 94.7204 86.024 94.6317 85.074H95.9997C96.0631 85.6567 96.3354 86.1317 96.8167 86.499C97.3107 86.8537 97.9694 87.031 98.7927 87.031C99.5147 87.031 100.078 86.86 100.484 86.518C100.902 86.176 101.111 85.7517 101.111 85.245C101.111 84.8903 100.997 84.599 100.769 84.371C100.541 84.143 100.249 83.9657 99.8947 83.839C99.5527 83.6997 99.0841 83.554 98.4887 83.402C97.7161 83.1993 97.0891 82.9967 96.6077 82.794C96.1264 82.5913 95.7147 82.2937 95.3727 81.901C95.0434 81.4957 94.8787 80.9573 94.8787 80.286C94.8787 79.7793 95.0307 79.3107 95.3347 78.88C95.6387 78.4493 96.0694 78.1073 96.6267 77.854C97.1841 77.6007 97.8174 77.474 98.5267 77.474C99.6414 77.474 100.541 77.759 101.225 78.329C101.909 78.8863 102.276 79.659 102.327 80.647H100.997C100.959 80.039 100.718 79.5513 100.275 79.184C99.8441 78.804 99.2487 78.614 98.4887 78.614C97.8174 78.614 97.2727 78.7723 96.8547 79.089C96.4367 79.4057 96.2277 79.7983 96.2277 80.267C96.2277 80.6723 96.3481 81.008 96.5887 81.274C96.8421 81.5273 97.1524 81.73 97.5197 81.882C97.8871 82.0213 98.3811 82.1797 99.0017 82.357C99.7491 82.5597 100.344 82.756 100.788 82.946C101.231 83.136 101.611 83.4147 101.928 83.782C102.244 84.1493 102.409 84.637 102.422 85.245C102.422 85.8023 102.27 86.3027 101.966 86.746C101.662 87.1767 101.237 87.5187 100.693 87.772C100.148 88.0253 99.5211 88.152 98.8117 88.152ZM114.243 91.534C113.052 90.356 112.115 88.8487 111.431 87.012C110.747 85.1627 110.405 83.155 110.405 80.989C110.405 78.7977 110.76 76.7647 111.469 74.89C112.178 73.0153 113.173 71.47 114.452 70.254H115.839V70.387C114.484 71.717 113.451 73.3067 112.742 75.156C112.045 77.0053 111.697 78.9497 111.697 80.989C111.697 83.003 112.033 84.9093 112.704 86.708C113.375 88.5067 114.357 90.071 115.649 91.401V91.534H114.243ZM117.51 81.35C117.51 80.0453 117.795 78.88 118.365 77.854C118.935 76.8153 119.714 76.011 120.702 75.441C121.69 74.8583 122.792 74.567 124.008 74.567C125.49 74.567 126.756 74.9217 127.808 75.631C128.872 76.3277 129.644 77.3157 130.126 78.595H128.568C128.188 77.6957 127.605 76.9927 126.82 76.486C126.047 75.9793 125.11 75.726 124.008 75.726C123.032 75.726 122.152 75.954 121.367 76.41C120.594 76.866 119.986 77.5247 119.543 78.386C119.099 79.2347 118.878 80.2227 118.878 81.35C118.878 82.4773 119.099 83.4653 119.543 84.314C119.986 85.1627 120.594 85.815 121.367 86.271C122.152 86.727 123.032 86.955 124.008 86.955C125.11 86.955 126.047 86.708 126.82 86.214C127.605 85.7073 128.188 85.0107 128.568 84.124H130.126C129.644 85.3907 128.872 86.3723 127.808 87.069C126.744 87.7657 125.477 88.114 124.008 88.114C122.792 88.114 121.69 87.829 120.702 87.259C119.714 86.6763 118.935 85.872 118.365 84.846C117.795 83.82 117.51 82.6547 117.51 81.35ZM134.106 86.917H138.875V88H132.776V74.719H134.106V86.917ZM146.739 88.133C145.51 88.133 144.396 87.848 143.395 87.278C142.394 86.6953 141.603 85.891 141.02 84.865C140.45 83.8263 140.165 82.6547 140.165 81.35C140.165 80.0453 140.45 78.88 141.02 77.854C141.603 76.8153 142.394 76.011 143.395 75.441C144.396 74.8583 145.51 74.567 146.739 74.567C147.98 74.567 149.101 74.8583 150.102 75.441C151.103 76.011 151.888 76.8153 152.458 77.854C153.028 78.88 153.313 80.0453 153.313 81.35C153.313 82.6547 153.028 83.8263 152.458 84.865C151.888 85.891 151.103 86.6953 150.102 87.278C149.101 87.848 147.98 88.133 146.739 88.133ZM146.739 86.974C147.727 86.974 148.614 86.746 149.399 86.29C150.184 85.834 150.805 85.1817 151.261 84.333C151.717 83.4717 151.945 82.4773 151.945 81.35C151.945 80.2227 151.717 79.2347 151.261 78.386C150.805 77.5373 150.184 76.885 149.399 76.429C148.614 75.973 147.727 75.745 146.739 75.745C145.751 75.745 144.864 75.973 144.079 76.429C143.294 76.885 142.673 77.5373 142.217 78.386C141.761 79.2347 141.533 80.2227 141.533 81.35C141.533 82.4773 141.761 83.4717 142.217 84.333C142.673 85.1817 143.294 85.834 144.079 86.29C144.864 86.746 145.751 86.974 146.739 86.974ZM161.96 81.141C162.707 81.2803 163.34 81.6603 163.86 82.281C164.379 82.9017 164.639 83.6237 164.639 84.447C164.639 85.1183 164.468 85.7263 164.126 86.271C163.796 86.803 163.309 87.2273 162.663 87.544C162.017 87.848 161.244 88 160.345 88H155.747V74.719H160.212C161.554 74.719 162.574 75.0293 163.271 75.65C163.98 76.2707 164.335 77.075 164.335 78.063C164.335 78.8863 164.113 79.5577 163.67 80.077C163.226 80.5837 162.656 80.9383 161.96 81.141ZM157.077 80.59H160.174C161.073 80.59 161.763 80.381 162.245 79.963C162.739 79.5323 162.986 78.9433 162.986 78.196C162.986 77.4613 162.739 76.885 162.245 76.467C161.763 76.049 161.054 75.84 160.117 75.84H157.077V80.59ZM160.25 86.879C161.212 86.879 161.96 86.651 162.492 86.195C163.036 85.739 163.309 85.112 163.309 84.314C163.309 83.516 163.024 82.8827 162.454 82.414C161.896 81.9327 161.143 81.692 160.193 81.692H157.077V86.879H160.25ZM170.655 88.152C169.465 88.152 168.489 87.8797 167.729 87.335C166.982 86.7777 166.564 86.024 166.475 85.074H167.843C167.907 85.6567 168.179 86.1317 168.66 86.499C169.154 86.8537 169.813 87.031 170.636 87.031C171.358 87.031 171.922 86.86 172.327 86.518C172.745 86.176 172.954 85.7517 172.954 85.245C172.954 84.8903 172.84 84.599 172.612 84.371C172.384 84.143 172.093 83.9657 171.738 83.839C171.396 83.6997 170.928 83.554 170.332 83.402C169.56 83.1993 168.933 82.9967 168.451 82.794C167.97 82.5913 167.558 82.2937 167.216 81.901C166.887 81.4957 166.722 80.9573 166.722 80.286C166.722 79.7793 166.874 79.3107 167.178 78.88C167.482 78.4493 167.913 78.1073 168.47 77.854C169.028 77.6007 169.661 77.474 170.37 77.474C171.485 77.474 172.384 77.759 173.068 78.329C173.752 78.8863 174.12 79.659 174.17 80.647H172.84C172.802 80.039 172.562 79.5513 172.118 79.184C171.688 78.804 171.092 78.614 170.332 78.614C169.661 78.614 169.116 78.7723 168.698 79.089C168.28 79.4057 168.071 79.7983 168.071 80.267C168.071 80.6723 168.192 81.008 168.432 81.274C168.686 81.5273 168.996 81.73 169.363 81.882C169.731 82.0213 170.225 82.1797 170.845 82.357C171.593 82.5597 172.188 82.756 172.631 82.946C173.075 83.136 173.455 83.4147 173.771 83.782C174.088 84.1493 174.253 84.637 174.265 85.245C174.265 85.8023 174.113 86.3027 173.809 86.746C173.505 87.1767 173.081 87.5187 172.536 87.772C171.992 88.0253 171.365 88.152 170.655 88.152ZM176.199 91.534V91.401C177.491 90.071 178.473 88.5067 179.144 86.708C179.815 84.9093 180.151 83.003 180.151 80.989C180.151 78.9497 179.796 77.0053 179.087 75.156C178.39 73.3067 177.364 71.717 176.009 70.387V70.254H177.396C178.675 71.47 179.67 73.0153 180.379 74.89C181.088 76.7647 181.443 78.7977 181.443 80.989C181.443 83.155 181.101 85.1627 180.417 87.012C179.733 88.8487 178.796 90.356 177.605 91.534H176.199ZM185.964 85.796L183.988 90.774H183.076L184.482 85.796H185.964ZM192.638 82.794C192.638 81.73 192.847 80.799 193.265 80.001C193.695 79.1903 194.284 78.5697 195.032 78.139C195.792 77.6957 196.647 77.474 197.597 77.474C198.585 77.474 199.433 77.702 200.143 78.158C200.865 78.614 201.384 79.1967 201.701 79.906V77.626H203.031V88H201.701V85.701C201.371 86.4103 200.846 86.9993 200.124 87.468C199.414 87.924 198.566 88.152 197.578 88.152C196.64 88.152 195.792 87.9303 195.032 87.487C194.284 87.0437 193.695 86.4167 193.265 85.606C192.847 84.7953 192.638 83.858 192.638 82.794ZM201.701 82.813C201.701 81.977 201.53 81.2423 201.188 80.609C200.846 79.9757 200.377 79.488 199.782 79.146C199.199 78.804 198.553 78.633 197.844 78.633C197.109 78.633 196.45 78.7977 195.868 79.127C195.285 79.4563 194.823 79.9377 194.481 80.571C194.151 81.1917 193.987 81.9327 193.987 82.794C193.987 83.6427 194.151 84.39 194.481 85.036C194.823 85.6693 195.285 86.157 195.868 86.499C196.45 86.8283 197.109 86.993 197.844 86.993C198.553 86.993 199.199 86.822 199.782 86.48C200.377 86.138 200.846 85.6503 201.188 85.017C201.53 84.3837 201.701 83.649 201.701 82.813ZM210.931 77.436C212.172 77.436 213.186 77.8223 213.971 78.595C214.756 79.355 215.149 80.4633 215.149 81.92V88H213.838V82.072C213.838 80.9447 213.553 80.0833 212.983 79.488C212.426 78.8927 211.659 78.595 210.684 78.595C209.683 78.595 208.885 78.9117 208.29 79.545C207.695 80.1783 207.397 81.1093 207.397 82.338V88H206.067V77.626H207.397V79.393C207.726 78.7597 208.201 78.2783 208.822 77.949C209.443 77.607 210.146 77.436 210.931 77.436ZM217.482 82.794C217.482 81.73 217.698 80.799 218.128 80.001C218.559 79.1903 219.148 78.5697 219.895 78.139C220.655 77.6957 221.51 77.474 222.46 77.474C223.372 77.474 224.196 77.6957 224.93 78.139C225.665 78.5823 226.203 79.1587 226.545 79.868V73.94H227.875V88H226.545V85.682C226.229 86.404 225.709 86.9993 224.987 87.468C224.265 87.924 223.417 88.152 222.441 88.152C221.491 88.152 220.636 87.9303 219.876 87.487C219.129 87.0437 218.54 86.4167 218.109 85.606C217.691 84.7953 217.482 83.858 217.482 82.794ZM226.545 82.813C226.545 81.977 226.374 81.2423 226.032 80.609C225.69 79.9757 225.222 79.488 224.626 79.146C224.044 78.804 223.398 78.633 222.688 78.633C221.954 78.633 221.295 78.7977 220.712 79.127C220.13 79.4563 219.667 79.9377 219.325 80.571C218.996 81.1917 218.831 81.9327 218.831 82.794C218.831 83.6427 218.996 84.39 219.325 85.036C219.667 85.6693 220.13 86.157 220.712 86.499C221.295 86.8283 221.954 86.993 222.688 86.993C223.398 86.993 224.044 86.822 224.626 86.48C225.222 86.138 225.69 85.6503 226.032 85.017C226.374 84.3837 226.545 83.649 226.545 82.813ZM240.058 74.719C241.528 74.719 242.788 74.985 243.839 75.517C244.891 76.049 245.695 76.8153 246.252 77.816C246.81 78.8167 247.088 80.0073 247.088 81.388C247.088 82.756 246.81 83.9403 246.252 84.941C245.695 85.929 244.891 86.689 243.839 87.221C242.788 87.7403 241.528 88 240.058 88H236.125V74.719H240.058ZM240.058 86.898C241.908 86.898 243.314 86.4167 244.276 85.454C245.252 84.4787 245.739 83.1233 245.739 81.388C245.739 79.64 245.252 78.2783 244.276 77.303C243.314 76.315 241.908 75.821 240.058 75.821H237.455V86.898H240.058ZM258.927 82.281C258.927 82.737 258.914 83.0853 258.889 83.326H250.282C250.32 84.1113 250.51 84.7827 250.852 85.34C251.194 85.8973 251.643 86.3217 252.201 86.613C252.758 86.8917 253.366 87.031 254.025 87.031C254.886 87.031 255.608 86.822 256.191 86.404C256.786 85.986 257.179 85.4223 257.369 84.713H258.775C258.521 85.7263 257.977 86.556 257.141 87.202C256.317 87.8353 255.279 88.152 254.025 88.152C253.049 88.152 252.175 87.9367 251.403 87.506C250.63 87.0627 250.022 86.442 249.579 85.644C249.148 84.8333 248.933 83.8897 248.933 82.813C248.933 81.7363 249.148 80.7927 249.579 79.982C250.009 79.1713 250.611 78.5507 251.384 78.12C252.156 77.6893 253.037 77.474 254.025 77.474C255.013 77.474 255.874 77.6893 256.609 78.12C257.356 78.5507 257.926 79.1333 258.319 79.868C258.724 80.59 258.927 81.3943 258.927 82.281ZM257.578 82.243C257.59 81.4703 257.432 80.8117 257.103 80.267C256.786 79.7223 256.349 79.3107 255.792 79.032C255.234 78.7533 254.626 78.614 253.968 78.614C252.98 78.614 252.137 78.9307 251.441 79.564C250.744 80.1973 250.358 81.0903 250.282 82.243H257.578ZM268.542 74.719V75.821H262.69V80.78H267.63V81.882H262.69V88H261.36V74.719H268.542ZM271.395 75.669C271.129 75.669 270.901 75.574 270.711 75.384C270.521 75.194 270.426 74.9597 270.426 74.681C270.426 74.4023 270.521 74.1743 270.711 73.997C270.901 73.807 271.129 73.712 271.395 73.712C271.661 73.712 271.889 73.807 272.079 73.997C272.269 74.1743 272.364 74.4023 272.364 74.681C272.364 74.9597 272.269 75.194 272.079 75.384C271.889 75.574 271.661 75.669 271.395 75.669ZM272.06 77.626V88H270.73V77.626H272.06ZM279.678 82.794C279.678 81.73 279.887 80.799 280.305 80.001C280.735 79.1903 281.324 78.5697 282.072 78.139C282.832 77.6957 283.687 77.474 284.637 77.474C285.625 77.474 286.473 77.702 287.183 78.158C287.905 78.614 288.424 79.1967 288.741 79.906V77.626H290.071V88H288.741V85.701C288.411 86.4103 287.886 86.9993 287.164 87.468C286.454 87.924 285.606 88.152 284.618 88.152C283.68 88.152 282.832 87.9303 282.072 87.487C281.324 87.0437 280.735 86.4167 280.305 85.606C279.887 84.7953 279.678 83.858 279.678 82.794ZM288.741 82.813C288.741 81.977 288.57 81.2423 288.228 80.609C287.886 79.9757 287.417 79.488 286.822 79.146C286.239 78.804 285.593 78.633 284.884 78.633C284.149 78.633 283.49 78.7977 282.908 79.127C282.325 79.4563 281.863 79.9377 281.521 80.571C281.191 81.1917 281.027 81.9327 281.027 82.794C281.027 83.6427 281.191 84.39 281.521 85.036C281.863 85.6693 282.325 86.157 282.908 86.499C283.49 86.8283 284.149 86.993 284.884 86.993C285.593 86.993 286.239 86.822 286.822 86.48C287.417 86.138 287.886 85.6503 288.228 85.017C288.57 84.3837 288.741 83.649 288.741 82.813ZM297.458 77.474C298.433 77.474 299.282 77.702 300.004 78.158C300.726 78.614 301.245 79.1903 301.562 79.887V77.626H302.892V88.266C302.892 89.216 302.683 90.0583 302.265 90.793C301.86 91.5277 301.29 92.0913 300.555 92.484C299.82 92.8893 298.984 93.092 298.047 93.092C296.717 93.092 295.609 92.7753 294.722 92.142C293.848 91.5087 293.303 90.6473 293.088 89.558H294.399C294.627 90.28 295.058 90.8563 295.691 91.287C296.337 91.7177 297.122 91.933 298.047 91.933C298.718 91.933 299.32 91.7873 299.852 91.496C300.384 91.2173 300.802 90.7993 301.106 90.242C301.41 89.6847 301.562 89.026 301.562 88.266V85.701C301.233 86.4103 300.707 86.9993 299.985 87.468C299.276 87.924 298.433 88.152 297.458 88.152C296.508 88.152 295.653 87.9303 294.893 87.487C294.146 87.0437 293.557 86.4167 293.126 85.606C292.708 84.7953 292.499 83.858 292.499 82.794C292.499 81.73 292.708 80.799 293.126 80.001C293.557 79.1903 294.146 78.5697 294.893 78.139C295.653 77.6957 296.508 77.474 297.458 77.474ZM301.562 82.813C301.562 81.977 301.391 81.2423 301.049 80.609C300.707 79.9757 300.238 79.488 299.643 79.146C299.06 78.804 298.414 78.633 297.705 78.633C296.97 78.633 296.312 78.7977 295.729 79.127C295.146 79.4563 294.684 79.9377 294.342 80.571C294.013 81.1917 293.848 81.9327 293.848 82.794C293.848 83.6427 294.013 84.39 294.342 85.036C294.684 85.6693 295.146 86.157 295.729 86.499C296.312 86.8283 296.97 86.993 297.705 86.993C298.414 86.993 299.06 86.822 299.643 86.48C300.238 86.138 300.707 85.6503 301.049 85.017C301.391 84.3837 301.562 83.649 301.562 82.813ZM310.279 77.474C311.255 77.474 312.103 77.702 312.825 78.158C313.547 78.614 314.067 79.1903 314.383 79.887V77.626H315.713V88.266C315.713 89.216 315.504 90.0583 315.086 90.793C314.681 91.5277 314.111 92.0913 313.376 92.484C312.642 92.8893 311.806 93.092 310.868 93.092C309.538 93.092 308.43 92.7753 307.543 92.142C306.669 91.5087 306.125 90.6473 305.909 89.558H307.22C307.448 90.28 307.879 90.8563 308.512 91.287C309.158 91.7177 309.944 91.933 310.868 91.933C311.54 91.933 312.141 91.7873 312.673 91.496C313.205 91.2173 313.623 90.7993 313.927 90.242C314.231 89.6847 314.383 89.026 314.383 88.266V85.701C314.054 86.4103 313.528 86.9993 312.806 87.468C312.097 87.924 311.255 88.152 310.279 88.152C309.329 88.152 308.474 87.9303 307.714 87.487C306.967 87.0437 306.378 86.4167 305.947 85.606C305.529 84.7953 305.32 83.858 305.32 82.794C305.32 81.73 305.529 80.799 305.947 80.001C306.378 79.1903 306.967 78.5697 307.714 78.139C308.474 77.6957 309.329 77.474 310.279 77.474ZM314.383 82.813C314.383 81.977 314.212 81.2423 313.87 80.609C313.528 79.9757 313.06 79.488 312.464 79.146C311.882 78.804 311.236 78.633 310.526 78.633C309.792 78.633 309.133 78.7977 308.55 79.127C307.968 79.4563 307.505 79.9377 307.163 80.571C306.834 81.1917 306.669 81.9327 306.669 82.794C306.669 83.6427 306.834 84.39 307.163 85.036C307.505 85.6693 307.968 86.157 308.55 86.499C309.133 86.8283 309.792 86.993 310.526 86.993C311.236 86.993 311.882 86.822 312.464 86.48C313.06 86.138 313.528 85.6503 313.87 85.017C314.212 84.3837 314.383 83.649 314.383 82.813ZM320.079 79.469C320.371 78.823 320.814 78.3227 321.409 77.968C322.017 77.6133 322.758 77.436 323.632 77.436V78.823H323.271C322.309 78.823 321.536 79.0827 320.953 79.602C320.371 80.1213 320.079 80.989 320.079 82.205V88H318.749V77.626H320.079V79.469ZM335.019 82.281C335.019 82.737 335.007 83.0853 334.981 83.326H326.374C326.412 84.1113 326.602 84.7827 326.944 85.34C327.286 85.8973 327.736 86.3217 328.293 86.613C328.851 86.8917 329.459 87.031 330.117 87.031C330.979 87.031 331.701 86.822 332.283 86.404C332.879 85.986 333.271 85.4223 333.461 84.713H334.867C334.614 85.7263 334.069 86.556 333.233 87.202C332.41 87.8353 331.371 88.152 330.117 88.152C329.142 88.152 328.268 87.9367 327.495 87.506C326.723 87.0627 326.115 86.442 325.671 85.644C325.241 84.8333 325.025 83.8897 325.025 82.813C325.025 81.7363 325.241 80.7927 325.671 79.982C326.102 79.1713 326.704 78.5507 327.476 78.12C328.249 77.6893 329.129 77.474 330.117 77.474C331.105 77.474 331.967 77.6893 332.701 78.12C333.449 78.5507 334.019 79.1333 334.411 79.868C334.817 80.59 335.019 81.3943 335.019 82.281ZM333.67 82.243C333.683 81.4703 333.525 80.8117 333.195 80.267C332.879 79.7223 332.442 79.3107 331.884 79.032C331.327 78.7533 330.719 78.614 330.06 78.614C329.072 78.614 328.23 78.9307 327.533 79.564C326.837 80.1973 326.45 81.0903 326.374 82.243H333.67ZM341.804 77.474C342.779 77.474 343.628 77.702 344.35 78.158C345.072 78.614 345.591 79.1903 345.908 79.887V77.626H347.238V88.266C347.238 89.216 347.029 90.0583 346.611 90.793C346.205 91.5277 345.635 92.0913 344.901 92.484C344.166 92.8893 343.33 93.092 342.393 93.092C341.063 93.092 339.954 92.7753 339.068 92.142C338.194 91.5087 337.649 90.6473 337.434 89.558H338.745C338.973 90.28 339.403 90.8563 340.037 91.287C340.683 91.7177 341.468 91.933 342.393 91.933C343.064 91.933 343.666 91.7873 344.198 91.496C344.73 91.2173 345.148 90.7993 345.452 90.242C345.756 89.6847 345.908 89.026 345.908 88.266V85.701C345.578 86.4103 345.053 86.9993 344.331 87.468C343.621 87.924 342.779 88.152 341.804 88.152C340.854 88.152 339.999 87.9303 339.239 87.487C338.491 87.0437 337.902 86.4167 337.472 85.606C337.054 84.7953 336.845 83.858 336.845 82.794C336.845 81.73 337.054 80.799 337.472 80.001C337.902 79.1903 338.491 78.5697 339.239 78.139C339.999 77.6957 340.854 77.474 341.804 77.474ZM345.908 82.813C345.908 81.977 345.737 81.2423 345.395 80.609C345.053 79.9757 344.584 79.488 343.989 79.146C343.406 78.804 342.76 78.633 342.051 78.633C341.316 78.633 340.657 78.7977 340.075 79.127C339.492 79.4563 339.03 79.9377 338.688 80.571C338.358 81.1917 338.194 81.9327 338.194 82.794C338.194 83.6427 338.358 84.39 338.688 85.036C339.03 85.6693 339.492 86.157 340.075 86.499C340.657 86.8283 341.316 86.993 342.051 86.993C342.76 86.993 343.406 86.822 343.989 86.48C344.584 86.138 345.053 85.6503 345.395 85.017C345.737 84.3837 345.908 83.649 345.908 82.813ZM349.666 82.794C349.666 81.73 349.875 80.799 350.293 80.001C350.724 79.1903 351.313 78.5697 352.06 78.139C352.82 77.6957 353.675 77.474 354.625 77.474C355.613 77.474 356.462 77.702 357.171 78.158C357.893 78.614 358.412 79.1967 358.729 79.906V77.626H360.059V88H358.729V85.701C358.4 86.4103 357.874 86.9993 357.152 87.468C356.443 87.924 355.594 88.152 354.606 88.152C353.669 88.152 352.82 87.9303 352.06 87.487C351.313 87.0437 350.724 86.4167 350.293 85.606C349.875 84.7953 349.666 83.858 349.666 82.794ZM358.729 82.813C358.729 81.977 358.558 81.2423 358.216 80.609C357.874 79.9757 357.405 79.488 356.81 79.146C356.227 78.804 355.581 78.633 354.872 78.633C354.137 78.633 353.479 78.7977 352.896 79.127C352.313 79.4563 351.851 79.9377 351.509 80.571C351.18 81.1917 351.015 81.9327 351.015 82.794C351.015 83.6427 351.18 84.39 351.509 85.036C351.851 85.6693 352.313 86.157 352.896 86.499C353.479 86.8283 354.137 86.993 354.872 86.993C355.581 86.993 356.227 86.822 356.81 86.48C357.405 86.138 357.874 85.6503 358.216 85.017C358.558 84.3837 358.729 83.649 358.729 82.813ZM364.824 78.747V85.188C364.824 85.8213 364.945 86.2583 365.185 86.499C365.426 86.7397 365.85 86.86 366.458 86.86H367.674V88H366.249C365.312 88 364.615 87.7847 364.159 87.354C363.703 86.9107 363.475 86.1887 363.475 85.188V78.747H362.031V77.626H363.475V75.023H364.824V77.626H367.674V78.747H364.824ZM374.409 88.152C373.433 88.152 372.553 87.9367 371.768 87.506C370.995 87.0627 370.381 86.442 369.925 85.644C369.481 84.8333 369.26 83.8897 369.26 82.813C369.26 81.7363 369.488 80.799 369.944 80.001C370.4 79.1903 371.02 78.5697 371.806 78.139C372.591 77.6957 373.471 77.474 374.447 77.474C375.422 77.474 376.302 77.6957 377.088 78.139C377.886 78.5697 378.506 79.1903 378.95 80.001C379.406 80.799 379.634 81.7363 379.634 82.813C379.634 83.877 379.406 84.8143 378.95 85.625C378.494 86.4357 377.867 87.0627 377.069 87.506C376.271 87.9367 375.384 88.152 374.409 88.152ZM374.409 86.993C375.093 86.993 375.726 86.841 376.309 86.537C376.891 86.2203 377.36 85.7517 377.715 85.131C378.082 84.4977 378.266 83.725 378.266 82.813C378.266 81.901 378.088 81.1347 377.734 80.514C377.379 79.8807 376.91 79.412 376.328 79.108C375.745 78.7913 375.112 78.633 374.428 78.633C373.744 78.633 373.11 78.7913 372.528 79.108C371.945 79.412 371.476 79.8807 371.122 80.514C370.78 81.1347 370.609 81.901 370.609 82.813C370.609 83.725 370.78 84.4977 371.122 85.131C371.476 85.7517 371.939 86.2203 372.509 86.537C373.091 86.841 373.725 86.993 374.409 86.993ZM383.388 79.469C383.679 78.823 384.123 78.3227 384.718 77.968C385.326 77.6133 386.067 77.436 386.941 77.436V78.823H386.58C385.617 78.823 384.845 79.0827 384.262 79.602C383.679 80.1213 383.388 80.989 383.388 82.205V88H382.058V77.626H383.388V79.469ZM392.514 88.152C391.323 88.152 390.348 87.8797 389.588 87.335C388.841 86.7777 388.423 86.024 388.334 85.074H389.702C389.765 85.6567 390.038 86.1317 390.519 86.499C391.013 86.8537 391.672 87.031 392.495 87.031C393.217 87.031 393.781 86.86 394.186 86.518C394.604 86.176 394.813 85.7517 394.813 85.245C394.813 84.8903 394.699 84.599 394.471 84.371C394.243 84.143 393.952 83.9657 393.597 83.839C393.255 83.6997 392.786 83.554 392.191 83.402C391.418 83.1993 390.791 82.9967 390.31 82.794C389.829 82.5913 389.417 82.2937 389.075 81.901C388.746 81.4957 388.581 80.9573 388.581 80.286C388.581 79.7793 388.733 79.3107 389.037 78.88C389.341 78.4493 389.772 78.1073 390.329 77.854C390.886 77.6007 391.52 77.474 392.229 77.474C393.344 77.474 394.243 77.759 394.927 78.329C395.611 78.8863 395.978 79.659 396.029 80.647H394.699C394.661 80.039 394.42 79.5513 393.977 79.184C393.546 78.804 392.951 78.614 392.191 78.614C391.52 78.614 390.975 78.7723 390.557 79.089C390.139 79.4057 389.93 79.7983 389.93 80.267C389.93 80.6723 390.05 81.008 390.291 81.274C390.544 81.5273 390.855 81.73 391.222 81.882C391.589 82.0213 392.083 82.1797 392.704 82.357C393.451 82.5597 394.047 82.756 394.49 82.946C394.933 83.136 395.313 83.4147 395.63 83.782C395.947 84.1493 396.111 84.637 396.124 85.245C396.124 85.8023 395.972 86.3027 395.668 86.746C395.364 87.1767 394.94 87.5187 394.395 87.772C393.85 88.0253 393.223 88.152 392.514 88.152Z" fill="white"/>
</svg>
