<svg width="528" height="170" viewBox="0 0 528 170" fill="none" xmlns="http://www.w3.org/2000/svg">
<path d="M32.5 26.63V33.975H13.585V45.61H28.08V52.825H13.585V72H4.485V26.63H32.5ZM60.0128 72.455C55.7661 72.455 51.8661 71.4583 48.3128 69.465C44.7594 67.4717 41.9428 64.72 39.8628 61.21C37.7828 57.6567 36.7428 53.6483 36.7428 49.185C36.7428 44.765 37.7828 40.8 39.8628 37.29C41.9428 33.7367 44.7594 30.9633 48.3128 28.97C51.8661 26.9767 55.7661 25.98 60.0128 25.98C64.3028 25.98 68.2028 26.9767 71.7128 28.97C75.2661 30.9633 78.0611 33.7367 80.0978 37.29C82.1778 40.8 83.2178 44.765 83.2178 49.185C83.2178 53.6483 82.1778 57.6567 80.0978 61.21C78.0611 64.72 75.2661 67.4717 71.7128 69.465C68.1594 71.4583 64.2594 72.455 60.0128 72.455ZM60.0128 64.33C62.7428 64.33 65.1478 63.7233 67.2278 62.51C69.3078 61.2533 70.9328 59.4767 72.1028 57.18C73.2728 54.8833 73.8578 52.2183 73.8578 49.185C73.8578 46.1517 73.2728 43.5083 72.1028 41.255C70.9328 38.9583 69.3078 37.2033 67.2278 35.99C65.1478 34.7767 62.7428 34.17 60.0128 34.17C57.2828 34.17 54.8561 34.7767 52.7328 35.99C50.6528 37.2033 49.0278 38.9583 47.8578 41.255C46.6878 43.5083 46.1028 46.1517 46.1028 49.185C46.1028 52.2183 46.6878 54.8833 47.8578 57.18C49.0278 59.4767 50.6528 61.2533 52.7328 62.51C54.8561 63.7233 57.2828 64.33 60.0128 64.33ZM98.9579 26.63V54.71C98.9579 57.7867 99.7596 60.1483 101.363 61.795C102.966 63.3983 105.22 64.2 108.123 64.2C111.07 64.2 113.345 63.3983 114.948 61.795C116.551 60.1483 117.353 57.7867 117.353 54.71V26.63H126.518V54.645C126.518 58.5017 125.673 61.7733 123.983 64.46C122.336 67.1033 120.105 69.0967 117.288 70.44C114.515 71.7833 111.416 72.455 107.993 72.455C104.613 72.455 101.536 71.7833 98.7629 70.44C96.0329 69.0967 93.8663 67.1033 92.2629 64.46C90.6596 61.7733 89.8579 58.5017 89.8579 54.645V26.63H98.9579ZM174.115 72H165.015L144.41 40.865V72H135.31V26.565H144.41L165.015 57.765V26.565H174.115V72ZM198.968 26.63C203.735 26.63 207.916 27.5617 211.513 29.425C215.153 31.2883 217.948 33.9533 219.898 37.42C221.891 40.8433 222.888 44.83 222.888 49.38C222.888 53.93 221.891 57.9167 219.898 61.34C217.948 64.72 215.153 67.3417 211.513 69.205C207.916 71.0683 203.735 72 198.968 72H183.108V26.63H198.968ZM198.643 64.265C203.41 64.265 207.093 62.965 209.693 60.365C212.293 57.765 213.593 54.1033 213.593 49.38C213.593 44.6567 212.293 40.9733 209.693 38.33C207.093 35.6433 203.41 34.3 198.643 34.3H192.208V64.265H198.643ZM238.8 33.975V45.35H254.075V52.565H238.8V64.59H256.025V72H229.7V26.565H256.025V33.975H238.8ZM287.695 72L277.685 54.32H273.395V72H264.295V26.63H281.325C284.835 26.63 287.825 27.2583 290.295 28.515C292.765 29.7283 294.606 31.3967 295.82 33.52C297.076 35.6 297.705 37.94 297.705 40.54C297.705 43.53 296.838 46.2383 295.105 48.665C293.371 51.0483 290.793 52.695 287.37 53.605L298.225 72H287.695ZM273.395 47.495H281C283.47 47.495 285.311 46.91 286.525 45.74C287.738 44.5267 288.345 42.8583 288.345 40.735C288.345 38.655 287.738 37.0517 286.525 35.925C285.311 34.755 283.47 34.17 281 34.17H273.395V47.495Z" fill="url(#paint0_linear_67_41)"/>
<path d="M14.52 112.12C14.056 111.144 13.384 110.392 12.504 109.864C11.624 109.32 10.6 109.048 9.432 109.048C8.264 109.048 7.208 109.32 6.264 109.864C5.336 110.392 4.6 111.16 4.056 112.168C3.528 113.16 3.264 114.312 3.264 115.624C3.264 116.936 3.528 118.088 4.056 119.08C4.6 120.072 5.336 120.84 6.264 121.384C7.208 121.912 8.264 122.176 9.432 122.176C11.064 122.176 12.408 121.688 13.464 120.712C14.52 119.736 15.136 118.416 15.312 116.752H8.64V114.976H17.64V116.656C17.512 118.032 17.08 119.296 16.344 120.448C15.608 121.584 14.64 122.488 13.44 123.16C12.24 123.816 10.904 124.144 9.432 124.144C7.88 124.144 6.464 123.784 5.184 123.064C3.904 122.328 2.888 121.312 2.136 120.016C1.4 118.72 1.032 117.256 1.032 115.624C1.032 113.992 1.4 112.528 2.136 111.232C2.888 109.92 3.904 108.904 5.184 108.184C6.464 107.448 7.88 107.08 9.432 107.08C11.208 107.08 12.776 107.52 14.136 108.4C15.512 109.28 16.512 110.52 17.136 112.12H14.52ZM32.5277 116.92C32.5277 117.336 32.5037 117.776 32.4557 118.24H21.9437C22.0237 119.536 22.4637 120.552 23.2637 121.288C24.0797 122.008 25.0637 122.368 26.2157 122.368C27.1597 122.368 27.9437 122.152 28.5677 121.72C29.2077 121.272 29.6557 120.68 29.9117 119.944H32.2637C31.9117 121.208 31.2077 122.24 30.1517 123.04C29.0957 123.824 27.7837 124.216 26.2157 124.216C24.9677 124.216 23.8477 123.936 22.8557 123.376C21.8797 122.816 21.1117 122.024 20.5517 121C19.9917 119.96 19.7117 118.76 19.7117 117.4C19.7117 116.04 19.9837 114.848 20.5277 113.824C21.0717 112.8 21.8317 112.016 22.8077 111.472C23.7997 110.912 24.9357 110.632 26.2157 110.632C27.4637 110.632 28.5677 110.904 29.5277 111.448C30.4877 111.992 31.2237 112.744 31.7357 113.704C32.2637 114.648 32.5277 115.72 32.5277 116.92ZM30.2717 116.464C30.2717 115.632 30.0877 114.92 29.7197 114.328C29.3517 113.72 28.8477 113.264 28.2077 112.96C27.5837 112.64 26.8877 112.48 26.1197 112.48C25.0157 112.48 24.0717 112.832 23.2877 113.536C22.5197 114.24 22.0797 115.216 21.9677 116.464H30.2717ZM38.0745 112.648V120.4C38.0745 121.04 38.2105 121.496 38.4825 121.768C38.7545 122.024 39.2265 122.152 39.8985 122.152H41.5065V124H39.5385C38.3225 124 37.4105 123.72 36.8025 123.16C36.1945 122.6 35.8905 121.68 35.8905 120.4V112.648H34.1865V110.848H35.8905V107.536H38.0745V110.848H41.5065V112.648H38.0745ZM51.6791 108.712C51.2631 108.712 50.9111 108.568 50.6231 108.28C50.3351 107.992 50.1911 107.64 50.1911 107.224C50.1911 106.808 50.3351 106.456 50.6231 106.168C50.9111 105.88 51.2631 105.736 51.6791 105.736C52.0791 105.736 52.4151 105.88 52.6871 106.168C52.9751 106.456 53.1191 106.808 53.1191 107.224C53.1191 107.64 52.9751 107.992 52.6871 108.28C52.4151 108.568 52.0791 108.712 51.6791 108.712ZM52.7351 110.848V124H50.5511V110.848H52.7351ZM62.8654 110.608C64.4654 110.608 65.7614 111.096 66.7534 112.072C67.7454 113.032 68.2414 114.424 68.2414 116.248V124H66.0814V116.56C66.0814 115.248 65.7534 114.248 65.0974 113.56C64.4414 112.856 63.5454 112.504 62.4094 112.504C61.2574 112.504 60.3374 112.864 59.6494 113.584C58.9774 114.304 58.6414 115.352 58.6414 116.728V124H56.4574V110.848H58.6414V112.72C59.0734 112.048 59.6574 111.528 60.3934 111.16C61.1454 110.792 61.9694 110.608 62.8654 110.608ZM80.9289 114.28V116.128H71.3529V114.28H80.9289ZM87.6917 112.648V120.4C87.6917 121.04 87.8277 121.496 88.0997 121.768C88.3717 122.024 88.8437 122.152 89.5157 122.152H91.1237V124H89.1557C87.9397 124 87.0277 123.72 86.4197 123.16C85.8117 122.6 85.5077 121.68 85.5077 120.4V112.648H83.8037V110.848H85.5077V107.536H87.6917V110.848H91.1237V112.648H87.6917ZM99.5059 124.216C98.2739 124.216 97.1539 123.936 96.1459 123.376C95.1539 122.816 94.3699 122.024 93.7939 121C93.2339 119.96 92.9539 118.76 92.9539 117.4C92.9539 116.056 93.2419 114.872 93.8179 113.848C94.4099 112.808 95.2099 112.016 96.2179 111.472C97.2259 110.912 98.3539 110.632 99.6019 110.632C100.85 110.632 101.978 110.912 102.986 111.472C103.994 112.016 104.786 112.8 105.362 113.824C105.954 114.848 106.25 116.04 106.25 117.4C106.25 118.76 105.946 119.96 105.338 121C104.746 122.024 103.938 122.816 102.914 123.376C101.89 123.936 100.754 124.216 99.5059 124.216ZM99.5059 122.296C100.29 122.296 101.026 122.112 101.714 121.744C102.402 121.376 102.954 120.824 103.37 120.088C103.802 119.352 104.018 118.456 104.018 117.4C104.018 116.344 103.81 115.448 103.394 114.712C102.978 113.976 102.434 113.432 101.762 113.08C101.09 112.712 100.362 112.528 99.5779 112.528C98.7779 112.528 98.0419 112.712 97.3699 113.08C96.7139 113.432 96.1859 113.976 95.7859 114.712C95.3859 115.448 95.1859 116.344 95.1859 117.4C95.1859 118.472 95.3779 119.376 95.7619 120.112C96.1619 120.848 96.6899 121.4 97.3459 121.768C98.0019 122.12 98.7219 122.296 99.5059 122.296ZM120.785 110.848V124H118.601V122.056C118.185 122.728 117.601 123.256 116.849 123.64C116.113 124.008 115.297 124.192 114.401 124.192C113.377 124.192 112.457 123.984 111.641 123.568C110.825 123.136 110.177 122.496 109.697 121.648C109.233 120.8 109.001 119.768 109.001 118.552V110.848H111.161V118.264C111.161 119.56 111.489 120.56 112.145 121.264C112.801 121.952 113.697 122.296 114.833 122.296C116.001 122.296 116.921 121.936 117.593 121.216C118.265 120.496 118.601 119.448 118.601 118.072V110.848H120.785ZM123.657 117.4C123.657 116.04 123.929 114.856 124.473 113.848C125.017 112.824 125.769 112.032 126.729 111.472C127.705 110.912 128.817 110.632 130.065 110.632C131.681 110.632 133.009 111.024 134.049 111.808C135.105 112.592 135.801 113.68 136.137 115.072H133.785C133.561 114.272 133.121 113.64 132.465 113.176C131.825 112.712 131.025 112.48 130.065 112.48C128.817 112.48 127.809 112.912 127.041 113.776C126.273 114.624 125.889 115.832 125.889 117.4C125.889 118.984 126.273 120.208 127.041 121.072C127.809 121.936 128.817 122.368 130.065 122.368C131.025 122.368 131.825 122.144 132.465 121.696C133.105 121.248 133.545 120.608 133.785 119.776H136.137C135.785 121.12 135.081 122.2 134.025 123.016C132.969 123.816 131.649 124.216 130.065 124.216C128.817 124.216 127.705 123.936 126.729 123.376C125.769 122.816 125.017 122.024 124.473 121C123.929 119.976 123.657 118.776 123.657 117.4ZM145.579 110.608C146.571 110.608 147.467 110.824 148.267 111.256C149.067 111.672 149.691 112.304 150.139 113.152C150.603 114 150.835 115.032 150.835 116.248V124H148.675V116.56C148.675 115.248 148.347 114.248 147.691 113.56C147.035 112.856 146.139 112.504 145.003 112.504C143.851 112.504 142.931 112.864 142.243 113.584C141.571 114.304 141.235 115.352 141.235 116.728V124H139.051V106.24H141.235V112.72C141.667 112.048 142.259 111.528 143.011 111.16C143.779 110.792 144.635 110.608 145.579 110.608ZM162.985 113.296C163.433 112.512 164.089 111.872 164.953 111.376C165.817 110.88 166.801 110.632 167.905 110.632C169.089 110.632 170.153 110.912 171.097 111.472C172.041 112.032 172.785 112.824 173.329 113.848C173.873 114.856 174.145 116.032 174.145 117.376C174.145 118.704 173.873 119.888 173.329 120.928C172.785 121.968 172.033 122.776 171.073 123.352C170.129 123.928 169.073 124.216 167.905 124.216C166.769 124.216 165.769 123.968 164.905 123.472C164.057 122.976 163.417 122.344 162.985 121.576V124H160.801V106.24H162.985V113.296ZM171.913 117.376C171.913 116.384 171.713 115.52 171.313 114.784C170.913 114.048 170.369 113.488 169.681 113.104C169.009 112.72 168.265 112.528 167.449 112.528C166.649 112.528 165.905 112.728 165.217 113.128C164.545 113.512 164.001 114.08 163.585 114.832C163.185 115.568 162.985 116.424 162.985 117.4C162.985 118.392 163.185 119.264 163.585 120.016C164.001 120.752 164.545 121.32 165.217 121.72C165.905 122.104 166.649 122.296 167.449 122.296C168.265 122.296 169.009 122.104 169.681 121.72C170.369 121.32 170.913 120.752 171.313 120.016C171.713 119.264 171.913 118.384 171.913 117.376ZM189.02 116.92C189.02 117.336 188.996 117.776 188.948 118.24H178.436C178.516 119.536 178.956 120.552 179.756 121.288C180.572 122.008 181.556 122.368 182.708 122.368C183.652 122.368 184.436 122.152 185.06 121.72C185.7 121.272 186.148 120.68 186.404 119.944H188.756C188.404 121.208 187.7 122.24 186.644 123.04C185.588 123.824 184.276 124.216 182.708 124.216C181.46 124.216 180.34 123.936 179.348 123.376C178.372 122.816 177.604 122.024 177.044 121C176.484 119.96 176.204 118.76 176.204 117.4C176.204 116.04 176.476 114.848 177.02 113.824C177.564 112.8 178.324 112.016 179.3 111.472C180.292 110.912 181.428 110.632 182.708 110.632C183.956 110.632 185.06 110.904 186.02 111.448C186.98 111.992 187.716 112.744 188.228 113.704C188.756 114.648 189.02 115.72 189.02 116.92ZM186.764 116.464C186.764 115.632 186.58 114.92 186.212 114.328C185.844 113.72 185.34 113.264 184.7 112.96C184.076 112.64 183.38 112.48 182.612 112.48C181.508 112.48 180.564 112.832 179.78 113.536C179.012 114.24 178.572 115.216 178.46 116.464H186.764ZM194.087 106.24V124H191.903V106.24H194.087ZM203.545 124.216C202.313 124.216 201.193 123.936 200.185 123.376C199.193 122.816 198.409 122.024 197.833 121C197.273 119.96 196.993 118.76 196.993 117.4C196.993 116.056 197.281 114.872 197.857 113.848C198.449 112.808 199.249 112.016 200.257 111.472C201.265 110.912 202.393 110.632 203.641 110.632C204.889 110.632 206.017 110.912 207.025 111.472C208.033 112.016 208.825 112.8 209.401 113.824C209.993 114.848 210.289 116.04 210.289 117.4C210.289 118.76 209.985 119.96 209.377 121C208.785 122.024 207.977 122.816 206.953 123.376C205.929 123.936 204.793 124.216 203.545 124.216ZM203.545 122.296C204.329 122.296 205.065 122.112 205.753 121.744C206.441 121.376 206.993 120.824 207.409 120.088C207.841 119.352 208.057 118.456 208.057 117.4C208.057 116.344 207.849 115.448 207.433 114.712C207.017 113.976 206.473 113.432 205.801 113.08C205.129 112.712 204.401 112.528 203.617 112.528C202.817 112.528 202.081 112.712 201.409 113.08C200.753 113.432 200.225 113.976 199.825 114.712C199.425 115.448 199.225 116.344 199.225 117.4C199.225 118.472 199.417 119.376 199.801 120.112C200.201 120.848 200.729 121.4 201.385 121.768C202.041 122.12 202.761 122.296 203.545 122.296ZM230.681 110.848L226.577 124H224.321L221.153 113.56L217.985 124H215.729L211.601 110.848H213.833L216.857 121.888L220.121 110.848H222.353L225.545 121.912L228.521 110.848H230.681ZM240.374 108.712C239.958 108.712 239.606 108.568 239.318 108.28C239.03 107.992 238.886 107.64 238.886 107.224C238.886 106.808 239.03 106.456 239.318 106.168C239.606 105.88 239.958 105.736 240.374 105.736C240.774 105.736 241.11 105.88 241.382 106.168C241.67 106.456 241.814 106.808 241.814 107.224C241.814 107.64 241.67 107.992 241.382 108.28C241.11 108.568 240.774 108.712 240.374 108.712ZM241.43 110.848V124H239.246V110.848H241.43ZM250.505 112.648H247.745V124H245.561V112.648H243.857V110.848H245.561V109.912C245.561 108.44 245.937 107.368 246.689 106.696C247.457 106.008 248.681 105.664 250.361 105.664V107.488C249.401 107.488 248.721 107.68 248.321 108.064C247.937 108.432 247.745 109.048 247.745 109.912V110.848H250.505V112.648ZM270.778 110.848L262.858 130.192H260.602L263.194 123.856L257.89 110.848H260.314L264.442 121.504L268.522 110.848H270.778ZM278.709 124.216C277.477 124.216 276.357 123.936 275.349 123.376C274.357 122.816 273.573 122.024 272.997 121C272.437 119.96 272.157 118.76 272.157 117.4C272.157 116.056 272.445 114.872 273.021 113.848C273.613 112.808 274.413 112.016 275.421 111.472C276.429 110.912 277.557 110.632 278.805 110.632C280.053 110.632 281.181 110.912 282.189 111.472C283.197 112.016 283.989 112.8 284.565 113.824C285.157 114.848 285.453 116.04 285.453 117.4C285.453 118.76 285.149 119.96 284.541 121C283.949 122.024 283.141 122.816 282.117 123.376C281.093 123.936 279.957 124.216 278.709 124.216ZM278.709 122.296C279.493 122.296 280.229 122.112 280.917 121.744C281.605 121.376 282.157 120.824 282.573 120.088C283.005 119.352 283.221 118.456 283.221 117.4C283.221 116.344 283.013 115.448 282.597 114.712C282.181 113.976 281.637 113.432 280.965 113.08C280.293 112.712 279.565 112.528 278.781 112.528C277.981 112.528 277.245 112.712 276.573 113.08C275.917 113.432 275.389 113.976 274.989 114.712C274.589 115.448 274.389 116.344 274.389 117.4C274.389 118.472 274.581 119.376 274.965 120.112C275.365 120.848 275.893 121.4 276.549 121.768C277.205 122.12 277.925 122.296 278.709 122.296ZM299.989 110.848V124H297.805V122.056C297.389 122.728 296.805 123.256 296.053 123.64C295.317 124.008 294.501 124.192 293.605 124.192C292.581 124.192 291.661 123.984 290.845 123.568C290.029 123.136 289.381 122.496 288.901 121.648C288.437 120.8 288.205 119.768 288.205 118.552V110.848H290.365V118.264C290.365 119.56 290.693 120.56 291.349 121.264C292.005 121.952 292.901 122.296 294.037 122.296C295.205 122.296 296.125 121.936 296.797 121.216C297.469 120.496 297.805 119.448 297.805 118.072V110.848H299.989ZM309.259 117.376C309.259 116.032 309.531 114.856 310.075 113.848C310.619 112.824 311.363 112.032 312.307 111.472C313.267 110.912 314.331 110.632 315.499 110.632C316.651 110.632 317.651 110.88 318.499 111.376C319.347 111.872 319.979 112.496 320.395 113.248V110.848H322.603V124H320.395V121.552C319.963 122.32 319.315 122.96 318.451 123.472C317.603 123.968 316.611 124.216 315.475 124.216C314.307 124.216 313.251 123.928 312.307 123.352C311.363 122.776 310.619 121.968 310.075 120.928C309.531 119.888 309.259 118.704 309.259 117.376ZM320.395 117.4C320.395 116.408 320.195 115.544 319.795 114.808C319.395 114.072 318.851 113.512 318.163 113.128C317.491 112.728 316.747 112.528 315.931 112.528C315.115 112.528 314.371 112.72 313.699 113.104C313.027 113.488 312.491 114.048 312.091 114.784C311.691 115.52 311.491 116.384 311.491 117.376C311.491 118.384 311.691 119.264 312.091 120.016C312.491 120.752 313.027 121.32 313.699 121.72C314.371 122.104 315.115 122.296 315.931 122.296C316.747 122.296 317.491 122.104 318.163 121.72C318.851 121.32 319.395 120.752 319.795 120.016C320.195 119.264 320.395 118.392 320.395 117.4ZM328.477 112.984C328.861 112.232 329.405 111.648 330.109 111.232C330.829 110.816 331.701 110.608 332.725 110.608V112.864H332.149C329.701 112.864 328.477 114.192 328.477 116.848V124H326.293V110.848H328.477V112.984ZM347.246 116.92C347.246 117.336 347.222 117.776 347.174 118.24H336.662C336.742 119.536 337.182 120.552 337.982 121.288C338.798 122.008 339.782 122.368 340.934 122.368C341.878 122.368 342.662 122.152 343.286 121.72C343.926 121.272 344.374 120.68 344.63 119.944H346.982C346.63 121.208 345.926 122.24 344.87 123.04C343.814 123.824 342.502 124.216 340.934 124.216C339.686 124.216 338.566 123.936 337.574 123.376C336.598 122.816 335.83 122.024 335.27 121C334.71 119.96 334.43 118.76 334.43 117.4C334.43 116.04 334.702 114.848 335.246 113.824C335.79 112.8 336.55 112.016 337.526 111.472C338.518 110.912 339.654 110.632 340.934 110.632C342.182 110.632 343.286 110.904 344.246 111.448C345.206 111.992 345.942 112.744 346.454 113.704C346.982 114.648 347.246 115.72 347.246 116.92ZM344.99 116.464C344.99 115.632 344.806 114.92 344.438 114.328C344.07 113.72 343.566 113.264 342.926 112.96C342.302 112.64 341.606 112.48 340.838 112.48C339.734 112.48 338.79 112.832 338.006 113.536C337.238 114.24 336.798 115.216 336.686 116.464H344.99ZM355.712 117.376C355.712 116.032 355.984 114.856 356.528 113.848C357.072 112.824 357.816 112.032 358.76 111.472C359.72 110.912 360.784 110.632 361.952 110.632C363.104 110.632 364.104 110.88 364.952 111.376C365.8 111.872 366.432 112.496 366.848 113.248V110.848H369.056V124H366.848V121.552C366.416 122.32 365.768 122.96 364.904 123.472C364.056 123.968 363.064 124.216 361.928 124.216C360.76 124.216 359.704 123.928 358.76 123.352C357.816 122.776 357.072 121.968 356.528 120.928C355.984 119.888 355.712 118.704 355.712 117.376ZM366.848 117.4C366.848 116.408 366.648 115.544 366.248 114.808C365.848 114.072 365.304 113.512 364.616 113.128C363.944 112.728 363.2 112.528 362.384 112.528C361.568 112.528 360.824 112.72 360.152 113.104C359.48 113.488 358.944 114.048 358.544 114.784C358.144 115.52 357.944 116.384 357.944 117.376C357.944 118.384 358.144 119.264 358.544 120.016C358.944 120.752 359.48 121.32 360.152 121.72C360.824 122.104 361.568 122.296 362.384 122.296C363.2 122.296 363.944 122.104 364.616 121.72C365.304 121.32 365.848 120.752 366.248 120.016C366.648 119.264 366.848 118.392 366.848 117.4ZM384.497 112.648H381.737V124H379.553V112.648H377.849V110.848H379.553V109.912C379.553 108.44 379.929 107.368 380.681 106.696C381.449 106.008 382.673 105.664 384.353 105.664V107.488C383.393 107.488 382.713 107.68 382.313 108.064C381.929 108.432 381.737 109.048 381.737 109.912V110.848H384.497V112.648ZM392.779 124.216C391.547 124.216 390.427 123.936 389.419 123.376C388.427 122.816 387.643 122.024 387.067 121C386.507 119.96 386.227 118.76 386.227 117.4C386.227 116.056 386.515 114.872 387.091 113.848C387.683 112.808 388.483 112.016 389.491 111.472C390.499 110.912 391.627 110.632 392.875 110.632C394.123 110.632 395.251 110.912 396.259 111.472C397.267 112.016 398.059 112.8 398.635 113.824C399.227 114.848 399.523 116.04 399.523 117.4C399.523 118.76 399.219 119.96 398.611 121C398.019 122.024 397.211 122.816 396.187 123.376C395.163 123.936 394.027 124.216 392.779 124.216ZM392.779 122.296C393.563 122.296 394.299 122.112 394.987 121.744C395.675 121.376 396.227 120.824 396.643 120.088C397.075 119.352 397.291 118.456 397.291 117.4C397.291 116.344 397.083 115.448 396.667 114.712C396.251 113.976 395.707 113.432 395.035 113.08C394.363 112.712 393.635 112.528 392.851 112.528C392.051 112.528 391.315 112.712 390.643 113.08C389.987 113.432 389.459 113.976 389.059 114.712C388.659 115.448 388.459 116.344 388.459 117.4C388.459 118.472 388.651 119.376 389.035 120.112C389.435 120.848 389.963 121.4 390.619 121.768C391.275 122.12 391.995 122.296 392.779 122.296ZM414.059 110.848V124H411.875V122.056C411.459 122.728 410.875 123.256 410.123 123.64C409.387 124.008 408.571 124.192 407.675 124.192C406.651 124.192 405.731 123.984 404.915 123.568C404.099 123.136 403.451 122.496 402.971 121.648C402.507 120.8 402.275 119.768 402.275 118.552V110.848H404.435V118.264C404.435 119.56 404.763 120.56 405.419 121.264C406.075 121.952 406.971 122.296 408.107 122.296C409.275 122.296 410.195 121.936 410.867 121.216C411.539 120.496 411.875 119.448 411.875 118.072V110.848H414.059ZM424.154 110.608C425.754 110.608 427.05 111.096 428.042 112.072C429.034 113.032 429.53 114.424 429.53 116.248V124H427.37V116.56C427.37 115.248 427.042 114.248 426.386 113.56C425.73 112.856 424.834 112.504 423.698 112.504C422.546 112.504 421.626 112.864 420.938 113.584C420.266 114.304 419.93 115.352 419.93 116.728V124H417.746V110.848H419.93V112.72C420.362 112.048 420.946 111.528 421.682 111.16C422.434 110.792 423.258 110.608 424.154 110.608ZM432.282 117.376C432.282 116.032 432.554 114.856 433.098 113.848C433.642 112.824 434.386 112.032 435.33 111.472C436.29 110.912 437.362 110.632 438.546 110.632C439.57 110.632 440.522 110.872 441.402 111.352C442.282 111.816 442.954 112.432 443.418 113.2V106.24H445.626V124H443.418V121.528C442.986 122.312 442.346 122.96 441.498 123.472C440.65 123.968 439.658 124.216 438.522 124.216C437.354 124.216 436.29 123.928 435.33 123.352C434.386 122.776 433.642 121.968 433.098 120.928C432.554 119.888 432.282 118.704 432.282 117.376ZM443.418 117.4C443.418 116.408 443.218 115.544 442.818 114.808C442.418 114.072 441.874 113.512 441.186 113.128C440.514 112.728 439.77 112.528 438.954 112.528C438.138 112.528 437.394 112.72 436.722 113.104C436.05 113.488 435.514 114.048 435.114 114.784C434.714 115.52 434.514 116.384 434.514 117.376C434.514 118.384 434.714 119.264 435.114 120.016C435.514 120.752 436.05 121.32 436.722 121.72C437.394 122.104 438.138 122.296 438.954 122.296C439.77 122.296 440.514 122.104 441.186 121.72C441.874 121.32 442.418 120.752 442.818 120.016C443.218 119.264 443.418 118.392 443.418 117.4ZM461.317 116.92C461.317 117.336 461.293 117.776 461.245 118.24H450.733C450.813 119.536 451.253 120.552 452.053 121.288C452.869 122.008 453.853 122.368 455.005 122.368C455.949 122.368 456.733 122.152 457.357 121.72C457.997 121.272 458.445 120.68 458.701 119.944H461.053C460.701 121.208 459.997 122.24 458.941 123.04C457.885 123.824 456.573 124.216 455.005 124.216C453.757 124.216 452.637 123.936 451.645 123.376C450.669 122.816 449.901 122.024 449.341 121C448.781 119.96 448.501 118.76 448.501 117.4C448.501 116.04 448.773 114.848 449.317 113.824C449.861 112.8 450.621 112.016 451.597 111.472C452.589 110.912 453.725 110.632 455.005 110.632C456.253 110.632 457.357 110.904 458.317 111.448C459.277 111.992 460.013 112.744 460.525 113.704C461.053 114.648 461.317 115.72 461.317 116.92ZM459.061 116.464C459.061 115.632 458.877 114.92 458.509 114.328C458.141 113.72 457.637 113.264 456.997 112.96C456.373 112.64 455.677 112.48 454.909 112.48C453.805 112.48 452.861 112.832 452.077 113.536C451.309 114.24 450.869 115.216 450.757 116.464H459.061ZM466.384 112.984C466.768 112.232 467.312 111.648 468.016 111.232C468.736 110.816 469.608 110.608 470.632 110.608V112.864H470.056C467.608 112.864 466.384 114.192 466.384 116.848V124H464.2V110.848H466.384V112.984ZM4.032 142.24V160H1.848V142.24H4.032ZM13.4903 160.216C12.2583 160.216 11.1383 159.936 10.1303 159.376C9.13825 158.816 8.35425 158.024 7.77825 157C7.21825 155.96 6.93825 154.76 6.93825 153.4C6.93825 152.056 7.22625 150.872 7.80225 149.848C8.39425 148.808 9.19425 148.016 10.2023 147.472C11.2103 146.912 12.3383 146.632 13.5863 146.632C14.8343 146.632 15.9623 146.912 16.9703 147.472C17.9783 148.016 18.7703 148.8 19.3463 149.824C19.9383 150.848 20.2343 152.04 20.2343 153.4C20.2343 154.76 19.9303 155.96 19.3223 157C18.7303 158.024 17.9223 158.816 16.8983 159.376C15.8743 159.936 14.7383 160.216 13.4903 160.216ZM13.4903 158.296C14.2743 158.296 15.0103 158.112 15.6983 157.744C16.3863 157.376 16.9383 156.824 17.3543 156.088C17.7863 155.352 18.0023 154.456 18.0023 153.4C18.0023 152.344 17.7943 151.448 17.3783 150.712C16.9623 149.976 16.4183 149.432 15.7463 149.08C15.0743 148.712 14.3463 148.528 13.5623 148.528C12.7623 148.528 12.0263 148.712 11.3543 149.08C10.6983 149.432 10.1703 149.976 9.77025 150.712C9.37025 151.448 9.17025 152.344 9.17025 153.4C9.17025 154.472 9.36225 155.376 9.74625 156.112C10.1463 156.848 10.6743 157.4 11.3303 157.768C11.9863 158.12 12.7063 158.296 13.4903 158.296ZM28.8418 160.216C27.6098 160.216 26.4898 159.936 25.4818 159.376C24.4898 158.816 23.7058 158.024 23.1298 157C22.5698 155.96 22.2898 154.76 22.2898 153.4C22.2898 152.056 22.5778 150.872 23.1538 149.848C23.7458 148.808 24.5458 148.016 25.5538 147.472C26.5618 146.912 27.6898 146.632 28.9378 146.632C30.1858 146.632 31.3138 146.912 32.3218 147.472C33.3298 148.016 34.1218 148.8 34.6978 149.824C35.2898 150.848 35.5858 152.04 35.5858 153.4C35.5858 154.76 35.2818 155.96 34.6738 157C34.0818 158.024 33.2738 158.816 32.2498 159.376C31.2258 159.936 30.0898 160.216 28.8418 160.216ZM28.8418 158.296C29.6258 158.296 30.3618 158.112 31.0498 157.744C31.7378 157.376 32.2898 156.824 32.7058 156.088C33.1378 155.352 33.3538 154.456 33.3538 153.4C33.3538 152.344 33.1458 151.448 32.7298 150.712C32.3138 149.976 31.7698 149.432 31.0978 149.08C30.4258 148.712 29.6978 148.528 28.9138 148.528C28.1138 148.528 27.3778 148.712 26.7058 149.08C26.0498 149.432 25.5218 149.976 25.1218 150.712C24.7218 151.448 24.5218 152.344 24.5218 153.4C24.5218 154.472 24.7138 155.376 25.0978 156.112C25.4978 156.848 26.0258 157.4 26.6818 157.768C27.3378 158.12 28.0578 158.296 28.8418 158.296ZM45.8014 160L40.6414 154.192V160H38.4574V142.24H40.6414V152.68L45.7054 146.848H48.7534L42.5614 153.4L48.7774 160H45.8014ZM51.9369 144.712C51.5209 144.712 51.1689 144.568 50.8809 144.28C50.5929 143.992 50.4489 143.64 50.4489 143.224C50.4489 142.808 50.5929 142.456 50.8809 142.168C51.1689 141.88 51.5209 141.736 51.9369 141.736C52.3369 141.736 52.6729 141.88 52.9449 142.168C53.2329 142.456 53.3769 142.808 53.3769 143.224C53.3769 143.64 53.2329 143.992 52.9449 144.28C52.6729 144.568 52.3369 144.712 51.9369 144.712ZM52.9929 146.848V160H50.8089V146.848H52.9929ZM63.1232 146.608C64.7232 146.608 66.0192 147.096 67.0112 148.072C68.0032 149.032 68.4992 150.424 68.4992 152.248V160H66.3392V152.56C66.3392 151.248 66.0112 150.248 65.3552 149.56C64.6992 148.856 63.8032 148.504 62.6672 148.504C61.5152 148.504 60.5952 148.864 59.9072 149.584C59.2352 150.304 58.8992 151.352 58.8992 152.728V160H56.7152V146.848H58.8992V148.72C59.3312 148.048 59.9152 147.528 60.6512 147.16C61.4032 146.792 62.2272 146.608 63.1232 146.608ZM77.4908 146.632C78.6268 146.632 79.6188 146.88 80.4668 147.376C81.3308 147.872 81.9708 148.496 82.3868 149.248V146.848H84.5948V160.288C84.5948 161.488 84.3388 162.552 83.8268 163.48C83.3148 164.424 82.5788 165.16 81.6188 165.688C80.6748 166.216 79.5708 166.48 78.3068 166.48C76.5788 166.48 75.1388 166.072 73.9868 165.256C72.8348 164.44 72.1548 163.328 71.9468 161.92H74.1068C74.3468 162.72 74.8428 163.36 75.5948 163.84C76.3468 164.336 77.2508 164.584 78.3068 164.584C79.5068 164.584 80.4828 164.208 81.2348 163.456C82.0028 162.704 82.3868 161.648 82.3868 160.288V157.528C81.9548 158.296 81.3148 158.936 80.4668 159.448C79.6188 159.96 78.6268 160.216 77.4908 160.216C76.3228 160.216 75.2588 159.928 74.2988 159.352C73.3548 158.776 72.6108 157.968 72.0668 156.928C71.5228 155.888 71.2508 154.704 71.2508 153.376C71.2508 152.032 71.5228 150.856 72.0668 149.848C72.6108 148.824 73.3548 148.032 74.2988 147.472C75.2588 146.912 76.3228 146.632 77.4908 146.632ZM82.3868 153.4C82.3868 152.408 82.1868 151.544 81.7868 150.808C81.3868 150.072 80.8428 149.512 80.1548 149.128C79.4828 148.728 78.7388 148.528 77.9228 148.528C77.1068 148.528 76.3628 148.72 75.6908 149.104C75.0188 149.488 74.4828 150.048 74.0828 150.784C73.6828 151.52 73.4828 152.384 73.4828 153.376C73.4828 154.384 73.6828 155.264 74.0828 156.016C74.4828 156.752 75.0188 157.32 75.6908 157.72C76.3628 158.104 77.1068 158.296 77.9228 158.296C78.7388 158.296 79.4828 158.104 80.1548 157.72C80.8428 157.32 81.3868 156.752 81.7868 156.016C82.1868 155.264 82.3868 154.392 82.3868 153.4ZM100.036 148.648H97.2759V160H95.0919V148.648H93.3879V146.848H95.0919V145.912C95.0919 144.44 95.4679 143.368 96.2199 142.696C96.9879 142.008 98.2119 141.664 99.8919 141.664V143.488C98.9319 143.488 98.2519 143.68 97.8519 144.064C97.4679 144.432 97.2759 145.048 97.2759 145.912V146.848H100.036V148.648ZM108.318 160.216C107.086 160.216 105.966 159.936 104.958 159.376C103.966 158.816 103.182 158.024 102.606 157C102.046 155.96 101.766 154.76 101.766 153.4C101.766 152.056 102.054 150.872 102.63 149.848C103.222 148.808 104.022 148.016 105.03 147.472C106.038 146.912 107.166 146.632 108.414 146.632C109.662 146.632 110.79 146.912 111.798 147.472C112.806 148.016 113.598 148.8 114.174 149.824C114.766 150.848 115.062 152.04 115.062 153.4C115.062 154.76 114.758 155.96 114.15 157C113.558 158.024 112.75 158.816 111.726 159.376C110.702 159.936 109.566 160.216 108.318 160.216ZM108.318 158.296C109.102 158.296 109.838 158.112 110.526 157.744C111.214 157.376 111.766 156.824 112.182 156.088C112.614 155.352 112.83 154.456 112.83 153.4C112.83 152.344 112.622 151.448 112.206 150.712C111.79 149.976 111.246 149.432 110.574 149.08C109.902 148.712 109.174 148.528 108.39 148.528C107.59 148.528 106.854 148.712 106.182 149.08C105.526 149.432 104.998 149.976 104.598 150.712C104.198 151.448 103.998 152.344 103.998 153.4C103.998 154.472 104.19 155.376 104.574 156.112C104.974 156.848 105.502 157.4 106.158 157.768C106.814 158.12 107.534 158.296 108.318 158.296ZM120.118 148.984C120.502 148.232 121.046 147.648 121.75 147.232C122.47 146.816 123.342 146.608 124.366 146.608V148.864H123.79C121.342 148.864 120.118 150.192 120.118 152.848V160H117.934V146.848H120.118V148.984ZM138.638 148.648H135.878V160H133.694V148.648H131.99V146.848H133.694V145.912C133.694 144.44 134.07 143.368 134.822 142.696C135.59 142.008 136.814 141.664 138.493 141.664V143.488C137.534 143.488 136.854 143.68 136.454 144.064C136.07 144.432 135.878 145.048 135.878 145.912V146.848H138.638V148.648ZM152.848 146.848V160H150.664V158.056C150.248 158.728 149.664 159.256 148.912 159.64C148.176 160.008 147.36 160.192 146.464 160.192C145.44 160.192 144.52 159.984 143.704 159.568C142.888 159.136 142.24 158.496 141.76 157.648C141.296 156.8 141.064 155.768 141.064 154.552V146.848H143.224V154.264C143.224 155.56 143.552 156.56 144.208 157.264C144.864 157.952 145.76 158.296 146.896 158.296C148.064 158.296 148.984 157.936 149.656 157.216C150.328 156.496 150.664 155.448 150.664 154.072V146.848H152.848ZM162.944 146.608C164.544 146.608 165.84 147.096 166.832 148.072C167.824 149.032 168.32 150.424 168.32 152.248V160H166.16V152.56C166.16 151.248 165.832 150.248 165.176 149.56C164.52 148.856 163.624 148.504 162.488 148.504C161.336 148.504 160.416 148.864 159.728 149.584C159.056 150.304 158.72 151.352 158.72 152.728V160H156.536V146.848H158.72V148.72C159.152 148.048 159.736 147.528 160.472 147.16C161.224 146.792 162.048 146.608 162.944 146.608ZM171.071 153.376C171.071 152.032 171.343 150.856 171.887 149.848C172.431 148.824 173.175 148.032 174.119 147.472C175.079 146.912 176.151 146.632 177.335 146.632C178.359 146.632 179.311 146.872 180.191 147.352C181.071 147.816 181.743 148.432 182.207 149.2V142.24H184.415V160H182.207V157.528C181.775 158.312 181.135 158.96 180.287 159.472C179.439 159.968 178.447 160.216 177.311 160.216C176.143 160.216 175.079 159.928 174.119 159.352C173.175 158.776 172.431 157.968 171.887 156.928C171.343 155.888 171.071 154.704 171.071 153.376ZM182.207 153.4C182.207 152.408 182.007 151.544 181.607 150.808C181.207 150.072 180.663 149.512 179.975 149.128C179.303 148.728 178.559 148.528 177.743 148.528C176.927 148.528 176.183 148.72 175.511 149.104C174.839 149.488 174.303 150.048 173.903 150.784C173.503 151.52 173.303 152.384 173.303 153.376C173.303 154.384 173.503 155.264 173.903 156.016C174.303 156.752 174.839 157.32 175.511 157.72C176.183 158.104 176.927 158.296 177.743 158.296C178.559 158.296 179.303 158.104 179.975 157.72C180.663 157.32 181.207 156.752 181.607 156.016C182.007 155.264 182.207 154.392 182.207 153.4ZM189.234 144.712C188.818 144.712 188.466 144.568 188.178 144.28C187.89 143.992 187.746 143.64 187.746 143.224C187.746 142.808 187.89 142.456 188.178 142.168C188.466 141.88 188.818 141.736 189.234 141.736C189.634 141.736 189.97 141.88 190.242 142.168C190.53 142.456 190.674 142.808 190.674 143.224C190.674 143.64 190.53 143.992 190.242 144.28C189.97 144.568 189.634 144.712 189.234 144.712ZM190.29 146.848V160H188.106V146.848H190.29ZM200.42 146.608C202.02 146.608 203.316 147.096 204.308 148.072C205.3 149.032 205.796 150.424 205.796 152.248V160H203.636V152.56C203.636 151.248 203.308 150.248 202.652 149.56C201.996 148.856 201.1 148.504 199.964 148.504C198.812 148.504 197.892 148.864 197.204 149.584C196.532 150.304 196.196 151.352 196.196 152.728V160H194.012V146.848H196.196V148.72C196.628 148.048 197.212 147.528 197.948 147.16C198.7 146.792 199.524 146.608 200.42 146.608ZM214.788 146.632C215.924 146.632 216.916 146.88 217.764 147.376C218.628 147.872 219.268 148.496 219.684 149.248V146.848H221.892V160.288C221.892 161.488 221.636 162.552 221.124 163.48C220.612 164.424 219.876 165.16 218.916 165.688C217.972 166.216 216.868 166.48 215.604 166.48C213.876 166.48 212.436 166.072 211.284 165.256C210.132 164.44 209.452 163.328 209.244 161.92H211.404C211.644 162.72 212.14 163.36 212.892 163.84C213.644 164.336 214.548 164.584 215.604 164.584C216.804 164.584 217.78 164.208 218.532 163.456C219.3 162.704 219.684 161.648 219.684 160.288V157.528C219.252 158.296 218.612 158.936 217.764 159.448C216.916 159.96 215.924 160.216 214.788 160.216C213.62 160.216 212.556 159.928 211.596 159.352C210.652 158.776 209.908 157.968 209.364 156.928C208.82 155.888 208.548 154.704 208.548 153.376C208.548 152.032 208.82 150.856 209.364 149.848C209.908 148.824 210.652 148.032 211.596 147.472C212.556 146.912 213.62 146.632 214.788 146.632ZM219.684 153.4C219.684 152.408 219.484 151.544 219.084 150.808C218.684 150.072 218.14 149.512 217.452 149.128C216.78 148.728 216.036 148.528 215.22 148.528C214.404 148.528 213.66 148.72 212.988 149.104C212.316 149.488 211.78 150.048 211.38 150.784C210.98 151.52 210.78 152.384 210.78 153.376C210.78 154.384 210.98 155.264 211.38 156.016C211.78 156.752 212.316 157.32 212.988 157.72C213.66 158.104 214.404 158.296 215.22 158.296C216.036 158.296 216.78 158.104 217.452 157.72C218.14 157.32 218.684 156.752 219.084 156.016C219.484 155.264 219.684 154.392 219.684 153.4Z" fill="#7C8782"/>
<defs>
<linearGradient id="paint0_linear_67_41" x1="10.5965" y1="36.2174" x2="277.301" y2="117.381" gradientUnits="userSpaceOnUse">
<stop stop-color="#5BFFAC"/>
<stop offset="1" stop-color="#78FA52"/>
</linearGradient>
</defs>
</svg>
