<svg width="238" height="68" viewBox="0 0 238 68" fill="none" xmlns="http://www.w3.org/2000/svg">
<rect width="238" height="68" rx="34" fill="#294F40"/>
<path d="M56.947 27.738C58.3403 27.738 59.5627 28.0103 60.614 28.555C61.678 29.0997 62.495 29.8787 63.065 30.892C63.6477 31.8927 63.939 33.058 63.939 34.388C63.939 35.718 63.6477 36.8833 63.065 37.884C62.495 38.872 61.678 39.6383 60.614 40.183C59.5627 40.7277 58.3403 41 56.947 41H52.311V27.738H56.947ZM56.852 38.739C58.2453 38.739 59.322 38.359 60.082 37.599C60.842 36.839 61.222 35.7687 61.222 34.388C61.222 33.0073 60.842 31.9307 60.082 31.158C59.322 30.3727 58.2453 29.98 56.852 29.98H54.971V38.739H56.852ZM67.2791 29.22C66.8105 29.22 66.4178 29.0743 66.1011 28.783C65.7971 28.479 65.6451 28.1053 65.6451 27.662C65.6451 27.2187 65.7971 26.8513 66.1011 26.56C66.4178 26.256 66.8105 26.104 67.2791 26.104C67.7478 26.104 68.1341 26.256 68.4381 26.56C68.7548 26.8513 68.9131 27.2187 68.9131 27.662C68.9131 28.1053 68.7548 28.479 68.4381 28.783C68.1341 29.0743 67.7478 29.22 67.2791 29.22ZM68.5901 30.474V41H65.9301V30.474H68.5901ZM75.2462 41.171C74.3849 41.171 73.6122 41.019 72.9282 40.715C72.2442 40.3983 71.6996 39.974 71.2942 39.442C70.9016 38.91 70.6862 38.321 70.6482 37.675H73.3272C73.3779 38.0803 73.5742 38.416 73.9162 38.682C74.2709 38.948 74.7079 39.081 75.2272 39.081C75.7339 39.081 76.1266 38.9797 76.4052 38.777C76.6966 38.5743 76.8422 38.3147 76.8422 37.998C76.8422 37.656 76.6649 37.4027 76.3102 37.238C75.9682 37.0607 75.4172 36.8707 74.6572 36.668C73.8719 36.478 73.2259 36.2817 72.7192 36.079C72.2252 35.8763 71.7946 35.566 71.4272 35.148C71.0726 34.73 70.8952 34.1663 70.8952 33.457C70.8952 32.8743 71.0599 32.3423 71.3892 31.861C71.7312 31.3797 72.2126 30.9997 72.8332 30.721C73.4666 30.4423 74.2076 30.303 75.0562 30.303C76.3102 30.303 77.3109 30.6197 78.0582 31.253C78.8056 31.8737 79.2172 32.716 79.2932 33.78H76.7472C76.7092 33.362 76.5319 33.0327 76.2152 32.792C75.9112 32.5387 75.4996 32.412 74.9802 32.412C74.4989 32.412 74.1252 32.5007 73.8592 32.678C73.6059 32.8553 73.4792 33.1023 73.4792 33.419C73.4792 33.7737 73.6566 34.046 74.0112 34.236C74.3659 34.4133 74.9169 34.597 75.6642 34.787C76.4242 34.977 77.0512 35.1733 77.5452 35.376C78.0392 35.5787 78.4636 35.8953 78.8182 36.326C79.1856 36.744 79.3756 37.3013 79.3882 37.998C79.3882 38.606 79.2172 39.1507 78.8752 39.632C78.5459 40.1133 78.0646 40.4933 77.4312 40.772C76.8106 41.038 76.0822 41.171 75.2462 41.171ZM80.8877 35.737C80.8877 34.6477 81.1094 33.6977 81.5527 32.887C81.9961 32.0637 82.6104 31.4303 83.3957 30.987C84.1811 30.531 85.0804 30.303 86.0937 30.303C87.3984 30.303 88.4751 30.6323 89.3237 31.291C90.1851 31.937 90.7614 32.849 91.0527 34.027H88.1837C88.0317 33.571 87.7721 33.2163 87.4047 32.963C87.0501 32.697 86.6067 32.564 86.0747 32.564C85.3147 32.564 84.7131 32.8427 84.2697 33.4C83.8264 33.9447 83.6047 34.7237 83.6047 35.737C83.6047 36.7377 83.8264 37.5167 84.2697 38.074C84.7131 38.6187 85.3147 38.891 86.0747 38.891C87.1514 38.891 87.8544 38.4097 88.1837 37.447H91.0527C90.7614 38.587 90.1851 39.4927 89.3237 40.164C88.4624 40.8353 87.3857 41.171 86.0937 41.171C85.0804 41.171 84.1811 40.9493 83.3957 40.506C82.6104 40.05 81.9961 39.4167 81.5527 38.606C81.1094 37.7827 80.8877 36.8263 80.8877 35.737ZM97.6754 41.171C96.6621 41.171 95.7501 40.9493 94.9394 40.506C94.1288 40.05 93.4891 39.4103 93.0204 38.587C92.5644 37.7637 92.3364 36.8137 92.3364 35.737C92.3364 34.6603 92.5708 33.7103 93.0394 32.887C93.5208 32.0637 94.1731 31.4303 94.9964 30.987C95.8198 30.531 96.7381 30.303 97.7514 30.303C98.7648 30.303 99.6831 30.531 100.506 30.987C101.33 31.4303 101.976 32.0637 102.444 32.887C102.926 33.7103 103.166 34.6603 103.166 35.737C103.166 36.8137 102.919 37.7637 102.425 38.587C101.944 39.4103 101.285 40.05 100.449 40.506C99.6261 40.9493 98.7014 41.171 97.6754 41.171ZM97.6754 38.853C98.1568 38.853 98.6064 38.739 99.0244 38.511C99.4551 38.2703 99.7971 37.9157 100.05 37.447C100.304 36.9783 100.43 36.4083 100.43 35.737C100.43 34.7363 100.164 33.97 99.6324 33.438C99.1131 32.8933 98.4734 32.621 97.7134 32.621C96.9534 32.621 96.3138 32.8933 95.7944 33.438C95.2878 33.97 95.0344 34.7363 95.0344 35.737C95.0344 36.7377 95.2814 37.5103 95.7754 38.055C96.2821 38.587 96.9154 38.853 97.6754 38.853ZM109.507 38.549L112.167 30.474H114.998L111.103 41H107.873L103.997 30.474H106.847L109.507 38.549ZM126.277 35.509C126.277 35.889 126.251 36.231 126.201 36.535H118.506C118.569 37.295 118.835 37.8903 119.304 38.321C119.772 38.7517 120.349 38.967 121.033 38.967C122.021 38.967 122.724 38.5427 123.142 37.694H126.011C125.707 38.7073 125.124 39.5433 124.263 40.202C123.401 40.848 122.344 41.171 121.09 41.171C120.076 41.171 119.164 40.9493 118.354 40.506C117.556 40.05 116.929 39.4103 116.473 38.587C116.029 37.7637 115.808 36.8137 115.808 35.737C115.808 34.6477 116.029 33.6913 116.473 32.868C116.916 32.0447 117.537 31.4113 118.335 30.968C119.133 30.5247 120.051 30.303 121.09 30.303C122.09 30.303 122.983 30.5183 123.769 30.949C124.567 31.3797 125.181 31.994 125.612 32.792C126.055 33.5773 126.277 34.483 126.277 35.509ZM123.522 34.749C123.509 34.065 123.262 33.5203 122.781 33.115C122.299 32.697 121.71 32.488 121.014 32.488C120.355 32.488 119.798 32.6907 119.342 33.096C118.898 33.4887 118.626 34.0397 118.525 34.749H123.522ZM130.878 32.108C131.22 31.5507 131.664 31.1137 132.208 30.797C132.766 30.4803 133.399 30.322 134.108 30.322V33.115H133.405C132.569 33.115 131.936 33.3113 131.505 33.704C131.087 34.0967 130.878 34.7807 130.878 35.756V41H128.218V30.474H130.878V32.108ZM154.886 27.738V41H152.226V32.374L148.673 41H146.659L143.087 32.374V41H140.427V27.738H143.448L147.666 37.599L151.884 27.738H154.886ZM162.19 41.171C161.177 41.171 160.265 40.9493 159.454 40.506C158.643 40.05 158.004 39.4103 157.535 38.587C157.079 37.7637 156.851 36.8137 156.851 35.737C156.851 34.6603 157.085 33.7103 157.554 32.887C158.035 32.0637 158.688 31.4303 159.511 30.987C160.334 30.531 161.253 30.303 162.266 30.303C163.279 30.303 164.198 30.531 165.021 30.987C165.844 31.4303 166.49 32.0637 166.959 32.887C167.44 33.7103 167.681 34.6603 167.681 35.737C167.681 36.8137 167.434 37.7637 166.94 38.587C166.459 39.4103 165.8 40.05 164.964 40.506C164.141 40.9493 163.216 41.171 162.19 41.171ZM162.19 38.853C162.671 38.853 163.121 38.739 163.539 38.511C163.97 38.2703 164.312 37.9157 164.565 37.447C164.818 36.9783 164.945 36.4083 164.945 35.737C164.945 34.7363 164.679 33.97 164.147 33.438C163.628 32.8933 162.988 32.621 162.228 32.621C161.468 32.621 160.828 32.8933 160.309 33.438C159.802 33.97 159.549 34.7363 159.549 35.737C159.549 36.7377 159.796 37.5103 160.29 38.055C160.797 38.587 161.43 38.853 162.19 38.853ZM172.292 32.108C172.634 31.5507 173.078 31.1137 173.622 30.797C174.18 30.4803 174.813 30.322 175.522 30.322V33.115H174.819C173.983 33.115 173.35 33.3113 172.919 33.704C172.501 34.0967 172.292 34.7807 172.292 35.756V41H169.632V30.474H172.292V32.108ZM187.099 35.509C187.099 35.889 187.074 36.231 187.023 36.535H179.328C179.391 37.295 179.657 37.8903 180.126 38.321C180.595 38.7517 181.171 38.967 181.855 38.967C182.843 38.967 183.546 38.5427 183.964 37.694H186.833C186.529 38.7073 185.946 39.5433 185.085 40.202C184.224 40.848 183.166 41.171 181.912 41.171C180.899 41.171 179.987 40.9493 179.176 40.506C178.378 40.05 177.751 39.4103 177.295 38.587C176.852 37.7637 176.63 36.8137 176.63 35.737C176.63 34.6477 176.852 33.6913 177.295 32.868C177.738 32.0447 178.359 31.4113 179.157 30.968C179.955 30.5247 180.873 30.303 181.912 30.303C182.913 30.303 183.806 30.5183 184.591 30.949C185.389 31.3797 186.003 31.994 186.434 32.792C186.877 33.5773 187.099 34.483 187.099 35.509ZM184.344 34.749C184.331 34.065 184.084 33.5203 183.603 33.115C183.122 32.697 182.533 32.488 181.836 32.488C181.177 32.488 180.62 32.6907 180.164 33.096C179.721 33.4887 179.448 34.0397 179.347 34.749H184.344Z" fill="#55FFAE"/>
</svg>
