<svg width="104" height="44" viewBox="0 0 104 44" fill="none" xmlns="http://www.w3.org/2000/svg">
<path d="M4.749 28.228H14.384V32H0.0750001V3.505H4.749V28.228ZM28.0918 32.369C25.9598 32.369 24.0328 31.8907 22.3108 30.934C20.5888 29.95 19.2358 28.5833 18.2518 26.834C17.2678 25.0573 16.7758 23.0073 16.7758 20.684C16.7758 18.388 17.2814 16.3517 18.2928 14.575C19.3041 12.7983 20.6844 11.4317 22.4338 10.475C24.1831 9.51833 26.1374 9.04 28.2968 9.04C30.4561 9.04 32.4104 9.51833 34.1598 10.475C35.9091 11.4317 37.2894 12.7983 38.3008 14.575C39.3121 16.3517 39.8178 18.388 39.8178 20.684C39.8178 22.98 39.2984 25.0163 38.2598 26.793C37.2211 28.5697 35.7998 29.95 33.9958 30.934C32.2191 31.8907 30.2511 32.369 28.0918 32.369ZM28.0918 28.31C29.2944 28.31 30.4151 28.023 31.4538 27.449C32.5198 26.875 33.3808 26.014 34.0368 24.866C34.6928 23.718 35.0208 22.324 35.0208 20.684C35.0208 19.044 34.7064 17.6637 34.0778 16.543C33.4491 15.395 32.6154 14.534 31.5768 13.96C30.5381 13.386 29.4174 13.099 28.2148 13.099C27.0121 13.099 25.8914 13.386 24.8528 13.96C23.8414 14.534 23.0351 15.395 22.4338 16.543C21.8324 17.6637 21.5318 19.044 21.5318 20.684C21.5318 23.1167 22.1468 25.0027 23.3768 26.342C24.6341 27.654 26.2058 28.31 28.0918 28.31ZM53.5403 9.04C55.2896 9.04 56.8339 9.39533 58.1733 10.106C59.5399 10.7893 60.6059 11.6503 61.3713 12.689V9.409H66.0863V32.369C66.0863 34.4463 65.6489 36.2913 64.7743 37.904C63.8996 39.544 62.6286 40.8287 60.9613 41.758C59.3213 42.6873 57.3533 43.152 55.0573 43.152C51.9959 43.152 49.4539 42.4277 47.4313 40.979C45.4086 39.5577 44.2606 37.617 43.9873 35.157H48.6203C48.9756 36.3323 49.7273 37.2753 50.8753 37.986C52.0506 38.724 53.4446 39.093 55.0573 39.093C56.9433 39.093 58.4603 38.519 59.6083 37.371C60.7836 36.223 61.3713 34.5557 61.3713 32.369V28.597C60.5786 29.663 59.4989 30.565 58.1323 31.303C56.7929 32.0137 55.2623 32.369 53.5403 32.369C51.5723 32.369 49.7683 31.877 48.1283 30.893C46.5156 29.8817 45.2309 28.4877 44.2743 26.711C43.3449 24.907 42.8803 22.8707 42.8803 20.602C42.8803 18.3333 43.3449 16.3243 44.2743 14.575C45.2309 12.8257 46.5156 11.4727 48.1283 10.516C49.7683 9.532 51.5723 9.04 53.5403 9.04ZM61.3713 20.684C61.3713 19.126 61.0433 17.773 60.3873 16.625C59.7586 15.477 58.9249 14.6023 57.8863 14.001C56.8476 13.3997 55.7269 13.099 54.5243 13.099C53.3216 13.099 52.2009 13.3997 51.1623 14.001C50.1236 14.575 49.2763 15.436 48.6203 16.584C47.9916 17.7047 47.6773 19.044 47.6773 20.602C47.6773 22.16 47.9916 23.5267 48.6203 24.702C49.2763 25.8773 50.1236 26.7793 51.1623 27.408C52.2283 28.0093 53.3489 28.31 54.5243 28.31C55.7269 28.31 56.8476 28.0093 57.8863 27.408C58.9249 26.8067 59.7586 25.932 60.3873 24.784C61.0433 23.6087 61.3713 22.242 61.3713 20.684ZM74.6034 6.416C73.7561 6.416 73.0454 6.129 72.4714 5.555C71.8974 4.981 71.6104 4.27033 71.6104 3.423C71.6104 2.57567 71.8974 1.865 72.4714 1.291C73.0454 0.716999 73.7561 0.429998 74.6034 0.429998C75.4234 0.429998 76.1204 0.716999 76.6944 1.291C77.2684 1.865 77.5554 2.57567 77.5554 3.423C77.5554 4.27033 77.2684 4.981 76.6944 5.555C76.1204 6.129 75.4234 6.416 74.6034 6.416ZM76.8994 9.409V32H72.2254V9.409H76.8994ZM94.4339 9.04C96.2106 9.04 97.7959 9.409 99.1899 10.147C100.611 10.885 101.718 11.9783 102.511 13.427C103.304 14.8757 103.7 16.625 103.7 18.675V32H99.0669V19.372C99.0669 17.3493 98.5613 15.805 97.5499 14.739C96.5386 13.6457 95.1583 13.099 93.4089 13.099C91.6596 13.099 90.2656 13.6457 89.2269 14.739C88.2156 15.805 87.7099 17.3493 87.7099 19.372V32H83.0359V9.409H87.7099V11.992C88.4753 11.0627 89.4456 10.3383 90.6209 9.819C91.8236 9.29967 93.0946 9.04 94.4339 9.04Z" fill="white"/>
</svg>
