<svg width="450" height="56" viewBox="0 0 450 56" fill="none" xmlns="http://www.w3.org/2000/svg">
<path d="M8.1473 35.228H20.1073V41H0.867297V4.704H8.1473V35.228ZM37.5265 41.468C34.7532 41.468 32.2572 40.8613 30.0385 39.648C27.8198 38.4 26.0692 36.6493 24.7865 34.396C23.5385 32.1427 22.9145 29.5427 22.9145 26.596C22.9145 23.6493 23.5558 21.0493 24.8385 18.796C26.1558 16.5427 27.9412 14.8093 30.1945 13.596C32.4478 12.348 34.9612 11.724 37.7345 11.724C40.5078 11.724 43.0212 12.348 45.2745 13.596C47.5278 14.8093 49.2958 16.5427 50.5785 18.796C51.8958 21.0493 52.5545 23.6493 52.5545 26.596C52.5545 29.5427 51.8785 32.1427 50.5265 34.396C49.2092 36.6493 47.4065 38.4 45.1185 39.648C42.8652 40.8613 40.3345 41.468 37.5265 41.468ZM37.5265 35.124C38.8438 35.124 40.0745 34.812 41.2185 34.188C42.3972 33.5293 43.3332 32.5587 44.0265 31.276C44.7198 29.9933 45.0665 28.4333 45.0665 26.596C45.0665 23.8573 44.3385 21.76 42.8825 20.304C41.4612 18.8133 39.7105 18.068 37.6305 18.068C35.5505 18.068 33.7998 18.8133 32.3785 20.304C30.9918 21.76 30.2985 23.8573 30.2985 26.596C30.2985 29.3347 30.9745 31.4493 32.3265 32.94C33.7132 34.396 35.4465 35.124 37.5265 35.124ZM69.1786 11.724C71.328 11.724 73.2173 12.1573 74.8466 13.024C76.476 13.856 77.7586 14.948 78.6946 16.3V12.192H86.0266V41.208C86.0266 43.8773 85.4893 46.252 84.4146 48.332C83.34 50.4467 81.728 52.1107 79.5786 53.324C77.4293 54.572 74.8293 55.196 71.7786 55.196C67.688 55.196 64.3253 54.2427 61.6906 52.336C59.0906 50.4293 57.6173 47.8293 57.2706 44.536H64.4986C64.88 45.8533 65.6946 46.8933 66.9426 47.656C68.2253 48.4533 69.768 48.852 71.5706 48.852C73.6853 48.852 75.4013 48.2107 76.7186 46.928C78.036 45.68 78.6946 43.7733 78.6946 41.208V36.736C77.7586 38.088 76.4586 39.2147 74.7946 40.116C73.1653 41.0173 71.2933 41.468 69.1786 41.468C66.752 41.468 64.5333 40.844 62.5226 39.596C60.512 38.348 58.9173 36.5973 57.7386 34.344C56.5946 32.056 56.0226 29.4387 56.0226 26.492C56.0226 23.58 56.5946 20.9973 57.7386 18.744C58.9173 16.4907 60.4946 14.7573 62.4706 13.544C64.4813 12.3307 66.7173 11.724 69.1786 11.724ZM78.6946 26.596C78.6946 24.828 78.348 23.32 77.6546 22.072C76.9613 20.7893 76.0253 19.8187 74.8466 19.16C73.668 18.4667 72.4026 18.12 71.0506 18.12C69.6986 18.12 68.4506 18.4493 67.3066 19.108C66.1626 19.7667 65.2266 20.7373 64.4986 22.02C63.8053 23.268 63.4586 24.7587 63.4586 26.492C63.4586 28.2253 63.8053 29.7507 64.4986 31.068C65.2266 32.3507 66.1626 33.3387 67.3066 34.032C68.4853 34.7253 69.7333 35.072 71.0506 35.072C72.4026 35.072 73.668 34.7427 74.8466 34.084C76.0253 33.3907 76.9613 32.42 77.6546 31.172C78.348 29.8893 78.6946 28.364 78.6946 26.596ZM96.8288 8.76C95.5462 8.76 94.4715 8.36133 93.6048 7.564C92.7728 6.732 92.3568 5.70933 92.3568 4.496C92.3568 3.28266 92.7728 2.27733 93.6048 1.48C94.4715 0.647998 95.5462 0.231998 96.8288 0.231998C98.1115 0.231998 99.1688 0.647998 100.001 1.48C100.867 2.27733 101.301 3.28266 101.301 4.496C101.301 5.70933 100.867 6.732 100.001 7.564C99.1688 8.36133 98.1115 8.76 96.8288 8.76ZM100.417 12.192V41H93.1368V12.192H100.417ZM123.573 11.776C127.005 11.776 129.779 12.868 131.893 15.052C134.008 17.2013 135.065 20.2173 135.065 24.1V41H127.785V25.088C127.785 22.8 127.213 21.0493 126.069 19.836C124.925 18.588 123.365 17.964 121.389 17.964C119.379 17.964 117.784 18.588 116.605 19.836C115.461 21.0493 114.889 22.8 114.889 25.088V41H107.609V12.192H114.889V15.78C115.86 14.532 117.091 13.5613 118.581 12.868C120.107 12.14 121.771 11.776 123.573 11.776ZM162.855 18.172V32.108C162.855 33.0787 163.08 33.7893 163.531 34.24C164.016 34.656 164.814 34.864 165.923 34.864H169.303V41H164.727C158.591 41 155.523 38.0187 155.523 32.056V18.172H152.091V12.192H155.523V5.068H162.855V12.192H169.303V18.172H162.855ZM187.331 41.468C184.558 41.468 182.062 40.8613 179.843 39.648C177.625 38.4 175.874 36.6493 174.591 34.396C173.343 32.1427 172.719 29.5427 172.719 26.596C172.719 23.6493 173.361 21.0493 174.643 18.796C175.961 16.5427 177.746 14.8093 179.999 13.596C182.253 12.348 184.766 11.724 187.539 11.724C190.313 11.724 192.826 12.348 195.079 13.596C197.333 14.8093 199.101 16.5427 200.383 18.796C201.701 21.0493 202.359 23.6493 202.359 26.596C202.359 29.5427 201.683 32.1427 200.331 34.396C199.014 36.6493 197.211 38.4 194.923 39.648C192.67 40.8613 190.139 41.468 187.331 41.468ZM187.331 35.124C188.649 35.124 189.879 34.812 191.023 34.188C192.202 33.5293 193.138 32.5587 193.831 31.276C194.525 29.9933 194.871 28.4333 194.871 26.596C194.871 23.8573 194.143 21.76 192.687 20.304C191.266 18.8133 189.515 18.068 187.435 18.068C185.355 18.068 183.605 18.8133 182.183 20.304C180.797 21.76 180.103 23.8573 180.103 26.596C180.103 29.3347 180.779 31.4493 182.131 32.94C183.518 34.396 185.251 35.124 187.331 35.124ZM227.266 4.704V27.168C227.266 29.6293 227.907 31.5187 229.19 32.836C230.473 34.1187 232.275 34.76 234.598 34.76C236.955 34.76 238.775 34.1187 240.058 32.836C241.341 31.5187 241.982 29.6293 241.982 27.168V4.704H249.314V27.116C249.314 30.2013 248.638 32.8187 247.286 34.968C245.969 37.0827 244.183 38.6773 241.93 39.752C239.711 40.8267 237.233 41.364 234.494 41.364C231.79 41.364 229.329 40.8267 227.11 39.752C224.926 38.6773 223.193 37.0827 221.91 34.968C220.627 32.8187 219.986 30.2013 219.986 27.116V4.704H227.266ZM272.312 11.776C275.744 11.776 278.517 12.868 280.632 15.052C282.746 17.2013 283.804 20.2173 283.804 24.1V41H276.524V25.088C276.524 22.8 275.952 21.0493 274.808 19.836C273.664 18.588 272.104 17.964 270.128 17.964C268.117 17.964 266.522 18.588 265.344 19.836C264.2 21.0493 263.628 22.8 263.628 25.088V41H256.348V12.192H263.628V15.78C264.598 14.532 265.829 13.5613 267.32 12.868C268.845 12.14 270.509 11.776 272.312 11.776ZM307.783 41L298.007 28.728V41H290.727V2.52H298.007V24.412L307.679 12.192H317.143L304.455 26.648L317.247 41H307.783ZM328.374 35.228H340.334V41H321.094V4.704H328.374V35.228ZM357.753 41.468C354.98 41.468 352.484 40.8613 350.265 39.648C348.046 38.4 346.296 36.6493 345.013 34.396C343.765 32.1427 343.141 29.5427 343.141 26.596C343.141 23.6493 343.782 21.0493 345.065 18.796C346.382 16.5427 348.168 14.8093 350.421 13.596C352.674 12.348 355.188 11.724 357.961 11.724C360.734 11.724 363.248 12.348 365.501 13.596C367.754 14.8093 369.522 16.5427 370.805 18.796C372.122 21.0493 372.781 23.6493 372.781 26.596C372.781 29.5427 372.105 32.1427 370.753 34.396C369.436 36.6493 367.633 38.4 365.345 39.648C363.092 40.8613 360.561 41.468 357.753 41.468ZM357.753 35.124C359.07 35.124 360.301 34.812 361.445 34.188C362.624 33.5293 363.56 32.5587 364.253 31.276C364.946 29.9933 365.293 28.4333 365.293 26.596C365.293 23.8573 364.565 21.76 363.109 20.304C361.688 18.8133 359.937 18.068 357.857 18.068C355.777 18.068 354.026 18.8133 352.605 20.304C351.218 21.76 350.525 23.8573 350.525 26.596C350.525 29.3347 351.201 31.4493 352.553 32.94C353.94 34.396 355.673 35.124 357.753 35.124ZM405.317 12.192V41H397.985V37.36C397.049 38.608 395.819 39.596 394.293 40.324C392.803 41.0173 391.173 41.364 389.405 41.364C387.152 41.364 385.159 40.896 383.425 39.96C381.692 38.9893 380.323 37.5853 379.317 35.748C378.347 33.876 377.861 31.6573 377.861 29.092V12.192H385.141V28.052C385.141 30.34 385.713 32.108 386.857 33.356C388.001 34.5693 389.561 35.176 391.537 35.176C393.548 35.176 395.125 34.5693 396.269 33.356C397.413 32.108 397.985 30.34 397.985 28.052V12.192H405.317ZM416.192 8.76C414.909 8.76 413.835 8.36133 412.968 7.564C412.136 6.732 411.72 5.70933 411.72 4.496C411.72 3.28266 412.136 2.27733 412.968 1.48C413.835 0.647998 414.909 0.231998 416.192 0.231998C417.475 0.231998 418.532 0.647998 419.364 1.48C420.231 2.27733 420.664 3.28266 420.664 4.496C420.664 5.70933 420.231 6.732 419.364 7.564C418.532 8.36133 417.475 8.76 416.192 8.76ZM419.78 12.192V41H412.5V12.192H419.78ZM437.997 41.468C435.639 41.468 433.525 41.052 431.653 40.22C429.781 39.3533 428.29 38.192 427.181 36.736C426.106 35.28 425.517 33.668 425.413 31.9H432.745C432.883 33.0093 433.421 33.928 434.357 34.656C435.327 35.384 436.523 35.748 437.945 35.748C439.331 35.748 440.406 35.4707 441.169 34.916C441.966 34.3613 442.365 33.6507 442.365 32.784C442.365 31.848 441.879 31.1547 440.909 30.704C439.973 30.2187 438.465 29.6987 436.385 29.144C434.235 28.624 432.467 28.0867 431.081 27.532C429.729 26.9773 428.55 26.128 427.545 24.984C426.574 23.84 426.089 22.2973 426.089 20.356C426.089 18.7613 426.539 17.3053 427.441 15.988C428.377 14.6707 429.694 13.6307 431.393 12.868C433.126 12.1053 435.154 11.724 437.477 11.724C440.909 11.724 443.647 12.5907 445.693 14.324C447.738 16.0227 448.865 18.328 449.073 21.24H442.105C442.001 20.096 441.515 19.1947 440.649 18.536C439.817 17.8427 438.69 17.496 437.269 17.496C435.951 17.496 434.929 17.7387 434.201 18.224C433.507 18.7093 433.161 19.3853 433.161 20.252C433.161 21.2227 433.646 21.968 434.617 22.488C435.587 22.9733 437.095 23.476 439.141 23.996C441.221 24.516 442.937 25.0533 444.289 25.608C445.641 26.1627 446.802 27.0293 447.773 28.208C448.778 29.352 449.298 30.8773 449.333 32.784C449.333 34.448 448.865 35.9387 447.929 37.256C447.027 38.5733 445.71 39.6133 443.977 40.376C442.278 41.104 440.285 41.468 437.997 41.468Z" fill="url(#paint0_linear_95_380)"/>
<defs>
<linearGradient id="paint0_linear_95_380" x1="12.9649" y1="12.8261" x2="342.61" y2="202.72" gradientUnits="userSpaceOnUse">
<stop stop-color="#5BFFAC"/>
<stop offset="0.9999" stop-color="#78FA52"/>
<stop offset="1" stop-color="#78FA52"/>
</linearGradient>
</defs>
</svg>
