<svg width="279" height="53" viewBox="0 0 279 53" fill="none" xmlns="http://www.w3.org/2000/svg">
<g clip-path="url(#clip0_33_259)">
<path d="M242.049 13.6912C243.731 13.6912 245.306 14.2432 246.691 15.2834C248.138 16.3662 248.926 18.0647 249.096 20.1033C249.104 20.1307 249.101 20.1601 249.089 20.1855C249.076 20.211 249.054 20.2307 249.027 20.2406L248.968 20.2515H245.69C245.642 20.2515 245.594 20.2275 245.573 20.1888L245.562 20.1452C245.178 17.1945 241.582 16.3874 239.411 17.8315C237.899 18.8505 237.601 21.186 239.049 22.3745C239.616 22.842 240.268 23.2148 240.931 23.575L242.684 24.5286L244.224 25.3182C244.992 25.7132 245.754 26.1219 246.478 26.5998C248.968 28.2558 249.798 30.7614 249.35 33.5421C248.841 36.3877 246.329 39.1265 241.476 39.1265C239.623 39.1265 237.835 38.617 236.196 37.3855C234.451 36.0902 233.812 34.6679 233.812 32.0986C233.812 32.0512 233.848 32.0033 233.893 31.9826L233.94 31.9717H237.494C237.558 31.9717 237.622 32.0349 237.622 32.0986C237.622 32.3324 237.664 32.8631 237.749 33.1394C238.24 34.6679 239.643 35.6444 241.454 35.7507C243.114 35.857 244.774 34.9442 245.413 33.6271C246.116 32.1836 245.604 30.3576 243.987 29.3604L243.779 29.234L243.012 28.7948L242.085 28.288L237.614 25.9307L237.342 25.7792L237.259 25.7296C232.598 22.8415 233.386 13.6912 242.049 13.6912ZM263.294 14.1794C263.342 14.1794 263.39 14.2154 263.411 14.2601L263.422 14.3069V23.861C263.422 23.946 263.504 24.0038 263.58 23.9798L263.635 23.946L273.022 14.2219C273.036 14.2065 273.052 14.1942 273.071 14.186L273.108 14.1794H277.641C277.726 14.1794 277.784 14.2612 277.761 14.3374L277.726 14.3919L266.657 25.8571C266.643 25.8725 266.633 25.8912 266.628 25.9115C266.623 25.9317 266.623 25.9529 266.628 25.9732L266.657 26.0266L278.96 38.7014C279.028 38.7527 279.001 38.8584 278.944 38.9091L278.896 38.9358H274.363L274.32 38.9221L274.278 38.8927L263.635 27.9376C263.584 27.8695 263.478 27.8967 263.438 27.9648L263.422 28.0226V38.8082C263.422 38.8557 263.386 38.9036 263.342 38.9243L263.294 38.9352H259.739C259.691 38.9352 259.643 38.8998 259.622 38.8551L259.611 38.8082V14.3069C259.611 14.259 259.647 14.2116 259.692 14.1903L259.739 14.1794H263.294ZM82.4891 14.1582C82.5316 14.1582 82.5654 14.168 82.5888 14.193L82.6171 14.2432L85.533 23.8398C85.5394 23.8614 85.5511 23.881 85.5671 23.8969C85.5831 23.9127 85.6029 23.9242 85.6246 23.9303C85.6462 23.9364 85.6691 23.9369 85.691 23.9317C85.713 23.9266 85.7332 23.9159 85.7499 23.9008L85.7886 23.8398L88.705 14.2437C88.7199 14.2122 88.7448 14.1865 88.7758 14.1707L88.8325 14.1582H94.218C94.2659 14.1582 94.3139 14.1941 94.3346 14.2388L94.3455 14.2857V38.7875C94.3455 38.8349 94.3095 38.8829 94.2648 38.9036L94.218 38.9145H90.6629C90.6155 38.9145 90.5675 38.8791 90.5463 38.8344L90.5354 38.7875V20.1676C90.5354 20.0433 90.3877 19.9932 90.3136 20.0662L90.2798 20.1251L87.3427 29.7854L87.1296 30.4644C87.1146 30.4957 87.0897 30.5212 87.0588 30.5369L87.0021 30.5494H84.2775C84.2345 30.5494 84.2012 30.5401 84.1778 30.5151L84.1495 30.4644L83.9369 29.7854L80.9998 20.1251C80.9638 20.0188 80.8102 20.0161 80.76 20.1038L80.7437 20.1676V38.7875C80.7437 38.8349 80.7077 38.8829 80.663 38.9036L80.6162 38.9145H77.0611C77.0132 38.9145 76.9652 38.8791 76.9445 38.8344L76.9336 38.7875V14.2857C76.9336 14.2377 76.9696 14.1903 77.0142 14.1691L77.0611 14.1582H82.4891ZM185.706 14.1582C185.749 14.1582 185.782 14.168 185.805 14.193L185.834 14.2432L188.75 23.8398C188.757 23.8613 188.769 23.8808 188.785 23.8966C188.801 23.9123 188.82 23.9238 188.842 23.9299C188.863 23.936 188.886 23.9365 188.908 23.9314C188.93 23.9263 188.95 23.9158 188.967 23.9008L189.006 23.8398L191.921 14.2437C191.936 14.2122 191.961 14.1865 191.992 14.1707L192.048 14.1582H197.456C197.504 14.1582 197.552 14.1941 197.572 14.2388L197.583 14.2857V38.7875C197.583 38.8349 197.548 38.8829 197.502 38.9036L197.456 38.9145H193.902C193.854 38.9145 193.806 38.8791 193.785 38.8344L193.774 38.7875V20.1676C193.774 20.0433 193.626 19.9932 193.552 20.0662L193.519 20.1251L190.58 29.7854L190.368 30.4644C190.353 30.4958 190.328 30.5212 190.296 30.5369L190.24 30.5494H187.515C187.472 30.5494 187.439 30.5401 187.415 30.5151L187.387 30.4644L187.174 29.7854L184.238 20.1251C184.202 20.0188 184.048 20.0161 183.998 20.1038L183.982 20.1676V38.7875C183.982 38.8349 183.946 38.8829 183.901 38.9036L183.854 38.9145H180.299C180.251 38.9145 180.203 38.8791 180.182 38.8344L180.171 38.7875V14.2857C180.171 14.2377 180.207 14.1903 180.252 14.1691L180.299 14.1582H185.706ZM146.199 14.1582C146.225 14.1567 146.25 14.1638 146.272 14.1784C146.294 14.1929 146.31 14.2142 146.319 14.2388L146.326 14.2857V17.3427C146.326 17.3906 146.29 17.4386 146.245 17.4593L146.199 17.4702H139.706V38.7875C139.706 38.8349 139.67 38.8829 139.625 38.9036L139.578 38.9145H136.024C135.976 38.9145 135.928 38.8791 135.907 38.8344L135.896 38.7875V17.4702H129.402C129.355 17.4702 129.307 17.4342 129.286 17.3895L129.275 17.3427V14.2857C129.275 14.2372 129.311 14.1898 129.356 14.1685L129.402 14.1576L146.199 14.1582ZM163.717 14.0732C163.76 14.0732 163.793 14.0824 163.816 14.1075L163.845 14.1582L170.528 38.7439C170.535 38.7738 170.532 38.8052 170.52 38.8334C170.508 38.8615 170.486 38.8847 170.459 38.8993L170.4 38.914H167.166C167.13 38.9102 167.097 38.8949 167.071 38.8704L167.038 38.829L165.101 31.6741C165.086 31.6428 165.061 31.6173 165.03 31.6017L164.973 31.5891H157.82C157.777 31.5891 157.744 31.5984 157.72 31.6235L157.692 31.6741L155.755 38.829C155.74 38.8603 155.716 38.8857 155.685 38.9014L155.627 38.914H152.392C152.362 38.9135 152.332 38.9025 152.309 38.883C152.285 38.8635 152.269 38.8365 152.263 38.8066L152.264 38.7439L158.948 14.1582C158.963 14.1269 158.988 14.1014 159.019 14.0857L159.076 14.0732H163.717ZM218.891 14.0732C218.933 14.0732 218.966 14.0824 218.99 14.1075L219.019 14.1582L225.701 38.7439C225.708 38.7738 225.706 38.8053 225.693 38.8335C225.681 38.8616 225.659 38.8848 225.632 38.8993L225.573 38.914H222.339C222.32 38.9141 222.302 38.9102 222.284 38.9027C222.267 38.8952 222.252 38.8842 222.239 38.8704L222.211 38.829L220.274 31.6741C220.259 31.6428 220.234 31.6173 220.203 31.6017L220.146 31.5891H212.994C212.952 31.5891 212.918 31.5984 212.895 31.6235L212.867 31.6741L210.93 38.829C210.915 38.8603 210.89 38.8857 210.859 38.9014L210.802 38.914H207.566C207.536 38.9135 207.506 38.9025 207.483 38.883C207.459 38.8635 207.443 38.8365 207.437 38.8066L207.438 38.7439L214.122 14.1582C214.136 14.1269 214.161 14.1014 214.192 14.0857L214.25 14.0732H218.891ZM119.677 14.1794C119.724 14.1794 119.772 14.2154 119.793 14.2601L119.804 14.3069V17.3639C119.804 17.4119 119.768 17.4598 119.723 17.4805L119.676 17.4914H108.905C108.857 17.4914 108.809 17.5274 108.789 17.5721L108.778 17.619V24.1161C108.778 24.1635 108.814 24.2114 108.858 24.2321L108.905 24.243H118.378C118.426 24.243 118.474 24.279 118.495 24.3237L118.506 24.3705V27.4276C118.506 27.4755 118.47 27.5235 118.424 27.5442L118.378 27.5551H108.905C108.857 27.5551 108.809 27.591 108.789 27.6357L108.778 27.6826V35.2837C108.778 35.3404 108.797 35.378 108.828 35.4036L108.884 35.4325H120.123C120.171 35.4325 120.219 35.4679 120.24 35.5131L120.251 35.5594V38.787C120.251 38.8344 120.215 38.8824 120.17 38.9031L120.123 38.914H105.095C105.047 38.914 104.999 38.8785 104.979 38.8333L104.968 38.787V14.3069C104.968 14.259 105.004 14.2116 105.048 14.1903L105.095 14.1794H119.677ZM161.525 18.5105C161.519 18.4888 161.507 18.4692 161.491 18.4534C161.475 18.4375 161.455 18.426 161.434 18.4199C161.412 18.4138 161.389 18.4133 161.367 18.4185C161.345 18.4237 161.325 18.4343 161.308 18.4494L161.27 18.5105L158.672 28.0858C158.656 28.1496 158.689 28.2133 158.741 28.2411L158.8 28.2558H163.994C164.025 28.2552 164.054 28.2442 164.077 28.2247C164.101 28.2052 164.117 28.1783 164.123 28.1485L164.122 28.0858L161.525 18.5105ZM216.698 18.5105C216.692 18.4888 216.68 18.4692 216.664 18.4534C216.648 18.4375 216.629 18.426 216.607 18.4199C216.585 18.4138 216.562 18.4133 216.54 18.4185C216.518 18.4237 216.498 18.4343 216.482 18.4494L216.443 18.5105L213.846 28.0858C213.829 28.1496 213.862 28.2133 213.914 28.2411L213.973 28.2558H219.167C219.198 28.2553 219.227 28.2444 219.251 28.2249C219.274 28.2054 219.291 28.1784 219.297 28.1485L219.296 28.0858L216.698 18.5105Z" fill="#161616"/>
<path d="M54.3615 0L30.4819 17.6691L34.9225 7.25618L54.3615 0Z" fill="#E17726"/>
<path d="M1.34587 0.0207062L20.7325 7.25727L24.9492 17.807L1.34587 0.0207062ZM44.7516 37.5773L55.3056 37.7784L51.6171 50.3088L38.7384 46.763L44.7516 37.5773ZM10.8994 37.5773L16.8903 46.763L4.03288 50.3094L0.367188 37.7784L10.8994 37.5773Z" fill="#E27625"/>
<path d="M24.3761 15.1199L24.8077 29.0509L11.9006 28.4634L15.5718 22.9249L15.6186 22.8715L24.3761 15.1199ZM31.1418 14.9641L40.0328 22.872L40.0791 22.9254L43.7502 28.4634L30.8465 29.0509L31.1418 14.9641ZM17.2681 37.6176L24.3156 43.1088L16.1292 47.0611L17.2681 37.6176ZM38.3844 37.617L39.4998 47.0611L31.3364 43.1082L38.3844 37.617Z" fill="#E27625"/>
<path d="M31.5167 42.5911L39.8006 46.6023L32.0948 50.2647L32.1749 47.8441L31.5167 42.5911ZM24.1324 42.5927L23.5003 47.8044L23.5521 50.262L15.8284 46.6023L24.1324 42.5927Z" fill="#D5BFB2"/>
<path d="M21.7402 30.8687L23.9052 35.4183L16.5352 33.2593L21.7402 30.8687ZM33.9105 30.8693L39.1407 33.2593L31.7466 35.4177L33.9105 30.8693Z" fill="#233447"/>
<path d="M17.8315 37.5713L16.6403 47.3624L10.2549 37.7854L17.8315 37.5713ZM37.8203 37.5713L45.3974 37.7854L38.9881 47.363L37.8203 37.5713ZM43.9371 27.9098L38.4224 33.5296L34.1715 31.5869L32.1357 35.8657L30.8017 28.5076L43.9371 27.9098ZM11.712 27.9098L24.8495 28.5076L23.515 35.8657L21.4792 31.5875L17.25 33.5296L11.712 27.9098Z" fill="#CC6228"/>
<path d="M11.3403 26.7568L17.5786 33.0871L17.7949 39.3368L11.3403 26.7568ZM44.3174 26.7453L37.8513 39.3477L38.0944 33.0871L44.3174 26.7453ZM24.5443 27.142L24.7955 28.7228L25.4162 32.6599L25.0173 44.7517L23.1314 35.0379L23.1308 34.9377L24.5443 27.142ZM31.1036 27.1202L32.5209 34.9377L32.5204 35.0379L30.63 44.7762L30.5548 42.3404L30.26 32.588L31.1036 27.1202Z" fill="#E27525"/>
<path d="M38.649 32.8354L38.4382 38.2655L31.8566 43.3932L30.5264 42.4532L32.0173 34.7715L38.649 32.8354ZM17.0249 32.8359L23.6337 34.772L25.1246 42.4532L23.7945 43.3932L17.2129 38.265L17.0249 32.8359Z" fill="#F5841F"/>
<path d="M14.5691 45.4034L22.9887 49.3928L22.9533 47.6888L23.6578 47.0709H31.9913L32.721 47.6872L32.667 49.3895L41.0338 45.4132L36.9626 48.7776L32.0398 52.1588H23.5903L18.6707 48.7634L14.5691 45.4034Z" fill="#C0AC9D"/>
<path d="M30.9135 42.0603L32.1041 42.9011L32.8016 48.467L31.7919 47.6147H23.8627L22.8721 48.4844L23.5472 42.9017L24.7379 42.0603H30.9135Z" fill="#161616"/>
<path d="M52.7849 0.489334L55.6512 9.0882L53.8612 17.783L55.1357 18.7666L53.411 20.0826L54.7074 21.0836L52.9909 22.647L54.0448 23.4104L51.2477 26.6767L39.776 23.3368L39.6768 23.2834L31.4104 16.3101L52.7849 0.489334ZM2.86629 0.489334L24.2414 16.3101L15.9744 23.2834L15.8752 23.3368L4.40351 26.6767L1.60697 23.4104L2.65976 22.6475L0.943804 21.0836L2.23799 20.0836L0.48716 18.7638L1.81023 17.7797L0 9.08875L2.86629 0.489334Z" fill="#763E1A"/>
<path d="M39.2148 22.6061L51.3698 26.1454L55.3189 38.3156H44.9011L37.7223 38.4061L42.9426 28.2308L39.2148 22.6061ZM16.4365 22.6061L12.7076 28.2308L17.9291 38.4061L10.7541 38.3156H0.354248L4.2815 26.1454L16.4365 22.6061ZM35.518 7.19788L32.1177 16.3804L31.3963 28.7844L31.1205 32.6724L31.0987 42.6047H24.5526L24.5313 32.691L24.2545 28.7811L23.5325 16.3804L20.1333 7.19788H35.518Z" fill="#F5841F"/>
</g>
<defs>
<clipPath id="clip0_33_259">
<rect width="279" height="52.3125" fill="white"/>
</clipPath>
</defs>
</svg>
