<svg width="863" height="232" viewBox="0 0 863 232" fill="none" xmlns="http://www.w3.org/2000/svg">
<path d="M64.4935 31.936C64.4935 33.8773 64.0255 35.6973 63.0895 37.396C62.1882 39.0947 60.7495 40.464 58.7735 41.504C56.8322 42.544 54.3708 43.064 51.3895 43.064H45.3055V57H38.0255V20.704H51.3895C54.1975 20.704 56.5895 21.1893 58.5655 22.16C60.5415 23.1307 62.0148 24.4653 62.9855 26.164C63.9908 27.8627 64.4935 29.7867 64.4935 31.936ZM51.0775 37.188C53.0882 37.188 54.5788 36.7373 55.5495 35.836C56.5202 34.9 57.0055 33.6 57.0055 31.936C57.0055 28.4 55.0295 26.632 51.0775 26.632H45.3055V37.188H51.0775ZM67.7902 42.492C67.7902 39.58 68.3622 36.9973 69.5062 34.744C70.6849 32.4907 72.2622 30.7573 74.2382 29.544C76.2489 28.3307 78.4849 27.724 80.9462 27.724C83.0956 27.724 84.9676 28.1573 86.5622 29.024C88.1916 29.8907 89.4916 30.9827 90.4622 32.3V28.192H97.7942V57H90.4622V52.788C89.5262 54.14 88.2262 55.2667 86.5622 56.168C84.9329 57.0347 83.0436 57.468 80.8942 57.468C78.4676 57.468 76.2489 56.844 74.2382 55.596C72.2622 54.348 70.6849 52.5973 69.5062 50.344C68.3622 48.056 67.7902 45.4387 67.7902 42.492ZM90.4622 42.596C90.4622 40.828 90.1156 39.32 89.4222 38.072C88.7289 36.7893 87.7929 35.8187 86.6142 35.16C85.4356 34.4667 84.1702 34.12 82.8182 34.12C81.4662 34.12 80.2182 34.4493 79.0742 35.108C77.9302 35.7667 76.9942 36.7373 76.2662 38.02C75.5729 39.268 75.2262 40.7587 75.2262 42.492C75.2262 44.2253 75.5729 45.7507 76.2662 47.068C76.9942 48.3507 77.9302 49.3387 79.0742 50.032C80.2529 50.7253 81.5009 51.072 82.8182 51.072C84.1702 51.072 85.4356 50.7427 86.6142 50.084C87.7929 49.3907 88.7289 48.42 89.4222 47.172C90.1156 45.8893 90.4622 44.364 90.4622 42.596ZM112.184 32.664C113.12 31.1387 114.334 29.9427 115.824 29.076C117.35 28.2093 119.083 27.776 121.024 27.776V35.42H119.1C116.812 35.42 115.079 35.9573 113.9 37.032C112.756 38.1067 112.184 39.9787 112.184 42.648V57H104.904V28.192H112.184V32.664ZM134.404 34.172V48.108C134.404 49.0787 134.629 49.7893 135.08 50.24C135.565 50.656 136.363 50.864 137.472 50.864H140.852V57H136.276C130.14 57 127.072 54.0187 127.072 48.056V34.172H123.64V28.192H127.072V21.068H134.404V28.192H140.852V34.172H134.404ZM162.052 27.776C165.484 27.776 168.257 28.868 170.372 31.052C172.487 33.2013 173.544 36.2173 173.544 40.1V57H166.264V41.088C166.264 38.8 165.692 37.0493 164.548 35.836C163.404 34.588 161.844 33.964 159.868 33.964C157.857 33.964 156.263 34.588 155.084 35.836C153.94 37.0493 153.368 38.8 153.368 41.088V57H146.088V28.192H153.368V31.78C154.339 30.532 155.569 29.5613 157.06 28.868C158.585 28.14 160.249 27.776 162.052 27.776ZM207.247 41.972C207.247 43.012 207.178 43.948 207.039 44.78H185.979C186.152 46.86 186.88 48.4893 188.163 49.668C189.446 50.8467 191.023 51.436 192.895 51.436C195.599 51.436 197.523 50.2747 198.667 47.952H206.519C205.687 50.7253 204.092 53.0133 201.735 54.816C199.378 56.584 196.483 57.468 193.051 57.468C190.278 57.468 187.782 56.8613 185.563 55.648C183.379 54.4 181.663 52.6493 180.415 50.396C179.202 48.1427 178.595 45.5427 178.595 42.596C178.595 39.6147 179.202 36.9973 180.415 34.744C181.628 32.4907 183.327 30.7573 185.511 29.544C187.695 28.3307 190.208 27.724 193.051 27.724C195.79 27.724 198.234 28.3133 200.383 29.492C202.567 30.6707 204.248 32.352 205.427 34.536C206.64 36.6853 207.247 39.164 207.247 41.972ZM199.707 39.892C199.672 38.02 198.996 36.5293 197.679 35.42C196.362 34.276 194.75 33.704 192.843 33.704C191.04 33.704 189.515 34.2587 188.267 35.368C187.054 36.4427 186.308 37.9507 186.031 39.892H199.707ZM219.841 32.664C220.777 31.1387 221.99 29.9427 223.481 29.076C225.006 28.2093 226.739 27.776 228.681 27.776V35.42H226.757C224.469 35.42 222.735 35.9573 221.557 37.032C220.413 38.1067 219.841 39.9787 219.841 42.648V57H212.561V28.192H219.841V32.664ZM285.911 28.192L277.487 57H269.635L264.383 36.876L259.131 57H251.227L242.751 28.192H250.135L255.231 50.136L260.743 28.192H268.439L273.847 50.084L278.943 28.192H285.911ZM293.542 24.76C292.259 24.76 291.184 24.3613 290.318 23.564C289.486 22.732 289.07 21.7093 289.07 20.496C289.07 19.2827 289.486 18.2773 290.318 17.48C291.184 16.648 292.259 16.232 293.542 16.232C294.824 16.232 295.882 16.648 296.714 17.48C297.58 18.2773 298.014 19.2827 298.014 20.496C298.014 21.7093 297.58 22.732 296.714 23.564C295.882 24.3613 294.824 24.76 293.542 24.76ZM297.13 28.192V57H289.85V28.192H297.13ZM312.798 34.172V48.108C312.798 49.0787 313.024 49.7893 313.474 50.24C313.96 50.656 314.757 50.864 315.866 50.864H319.246V57H314.67C308.534 57 305.466 54.0187 305.466 48.056V34.172H302.034V28.192H305.466V21.068H312.798V28.192H319.246V34.172H312.798ZM340.707 27.776C342.891 27.776 344.832 28.2613 346.531 29.232C348.229 30.168 349.547 31.572 350.483 33.444C351.453 35.2813 351.939 37.5 351.939 40.1V57H344.659V41.088C344.659 38.8 344.087 37.0493 342.943 35.836C341.799 34.588 340.239 33.964 338.263 33.964C336.252 33.964 334.657 34.588 333.479 35.836C332.335 37.0493 331.763 38.8 331.763 41.088V57H324.483V18.52H331.763V31.78C332.699 30.532 333.947 29.5613 335.507 28.868C337.067 28.14 338.8 27.776 340.707 27.776ZM378.428 20.704V43.168C378.428 45.6293 379.069 47.5187 380.352 48.836C381.635 50.1187 383.437 50.76 385.76 50.76C388.117 50.76 389.937 50.1187 391.22 48.836C392.503 47.5187 393.144 45.6293 393.144 43.168V20.704H400.476V43.116C400.476 46.2013 399.8 48.8187 398.448 50.968C397.131 53.0827 395.345 54.6773 393.092 55.752C390.873 56.8267 388.395 57.364 385.656 57.364C382.952 57.364 380.491 56.8267 378.272 55.752C376.088 54.6773 374.355 53.0827 373.072 50.968C371.789 48.8187 371.148 46.2013 371.148 43.116V20.704H378.428ZM423.474 27.776C426.906 27.776 429.679 28.868 431.794 31.052C433.909 33.2013 434.966 36.2173 434.966 40.1V57H427.686V41.088C427.686 38.8 427.114 37.0493 425.97 35.836C424.826 34.588 423.266 33.964 421.29 33.964C419.279 33.964 417.685 34.588 416.506 35.836C415.362 37.0493 414.79 38.8 414.79 41.088V57H407.51V28.192H414.79V31.78C415.761 30.532 416.991 29.5613 418.482 28.868C420.007 28.14 421.671 27.776 423.474 27.776ZM458.945 57L449.169 44.728V57H441.889V18.52H449.169V40.412L458.841 28.192H468.305L455.617 42.648L468.409 57H458.945ZM479.536 51.228H491.496V57H472.256V20.704H479.536V51.228ZM508.915 57.468C506.142 57.468 503.646 56.8613 501.427 55.648C499.208 54.4 497.458 52.6493 496.175 50.396C494.927 48.1427 494.303 45.5427 494.303 42.596C494.303 39.6493 494.944 37.0493 496.227 34.796C497.544 32.5427 499.33 30.8093 501.583 29.596C503.836 28.348 506.35 27.724 509.123 27.724C511.896 27.724 514.41 28.348 516.663 29.596C518.916 30.8093 520.684 32.5427 521.967 34.796C523.284 37.0493 523.943 39.6493 523.943 42.596C523.943 45.5427 523.267 48.1427 521.915 50.396C520.598 52.6493 518.795 54.4 516.507 55.648C514.254 56.8613 511.723 57.468 508.915 57.468ZM508.915 51.124C510.232 51.124 511.463 50.812 512.607 50.188C513.786 49.5293 514.722 48.5587 515.415 47.276C516.108 45.9933 516.455 44.4333 516.455 42.596C516.455 39.8573 515.727 37.76 514.271 36.304C512.85 34.8133 511.099 34.068 509.019 34.068C506.939 34.068 505.188 34.8133 503.767 36.304C502.38 37.76 501.687 39.8573 501.687 42.596C501.687 45.3347 502.363 47.4493 503.715 48.94C505.102 50.396 506.835 51.124 508.915 51.124ZM556.479 28.192V57H549.147V53.36C548.211 54.608 546.981 55.596 545.455 56.324C543.965 57.0173 542.335 57.364 540.567 57.364C538.314 57.364 536.321 56.896 534.587 55.96C532.854 54.9893 531.485 53.5853 530.479 51.748C529.509 49.876 529.023 47.6573 529.023 45.092V28.192H536.303V44.052C536.303 46.34 536.875 48.108 538.019 49.356C539.163 50.5693 540.723 51.176 542.699 51.176C544.71 51.176 546.287 50.5693 547.431 49.356C548.575 48.108 549.147 46.34 549.147 44.052V28.192H556.479ZM567.354 24.76C566.072 24.76 564.997 24.3613 564.13 23.564C563.298 22.732 562.882 21.7093 562.882 20.496C562.882 19.2827 563.298 18.2773 564.13 17.48C564.997 16.648 566.072 16.232 567.354 16.232C568.637 16.232 569.694 16.648 570.526 17.48C571.393 18.2773 571.826 19.2827 571.826 20.496C571.826 21.7093 571.393 22.732 570.526 23.564C569.694 24.3613 568.637 24.76 567.354 24.76ZM570.942 28.192V57H563.662V28.192H570.942ZM589.159 57.468C586.802 57.468 584.687 57.052 582.815 56.22C580.943 55.3533 579.452 54.192 578.343 52.736C577.268 51.28 576.679 49.668 576.575 47.9H583.907C584.046 49.0093 584.583 49.928 585.519 50.656C586.49 51.384 587.686 51.748 589.107 51.748C590.494 51.748 591.568 51.4707 592.331 50.916C593.128 50.3613 593.527 49.6507 593.527 48.784C593.527 47.848 593.042 47.1547 592.071 46.704C591.135 46.2187 589.627 45.6987 587.547 45.144C585.398 44.624 583.63 44.0867 582.243 43.532C580.891 42.9773 579.712 42.128 578.707 40.984C577.736 39.84 577.251 38.2973 577.251 36.356C577.251 34.7613 577.702 33.3053 578.603 31.988C579.539 30.6707 580.856 29.6307 582.555 28.868C584.288 28.1053 586.316 27.724 588.639 27.724C592.071 27.724 594.81 28.5907 596.855 30.324C598.9 32.0227 600.027 34.328 600.235 37.24H593.267C593.163 36.096 592.678 35.1947 591.811 34.536C590.979 33.8427 589.852 33.496 588.431 33.496C587.114 33.496 586.091 33.7387 585.363 34.224C584.67 34.7093 584.323 35.3853 584.323 36.252C584.323 37.2227 584.808 37.968 585.779 38.488C586.75 38.9733 588.258 39.476 590.303 39.996C592.383 40.516 594.099 41.0533 595.451 41.608C596.803 42.1627 597.964 43.0293 598.935 44.208C599.94 45.352 600.46 46.8773 600.495 48.784C600.495 50.448 600.027 51.9387 599.091 53.256C598.19 54.5733 596.872 55.6133 595.139 56.376C593.44 57.104 591.447 57.468 589.159 57.468ZM622.553 24.76C621.271 24.76 620.196 24.3613 619.329 23.564C618.497 22.732 618.081 21.7093 618.081 20.496C618.081 19.2827 618.497 18.2773 619.329 17.48C620.196 16.648 621.271 16.232 622.553 16.232C623.836 16.232 624.893 16.648 625.725 17.48C626.592 18.2773 627.025 19.2827 627.025 20.496C627.025 21.7093 626.592 22.732 625.725 23.564C624.893 24.3613 623.836 24.76 622.553 24.76ZM626.141 28.192V57H618.861V28.192H626.141ZM649.298 27.776C652.73 27.776 655.503 28.868 657.618 31.052C659.733 33.2013 660.79 36.2173 660.79 40.1V57H653.51V41.088C653.51 38.8 652.938 37.0493 651.794 35.836C650.65 34.588 649.09 33.964 647.114 33.964C645.103 33.964 643.509 34.588 642.33 35.836C641.186 37.0493 640.614 38.8 640.614 41.088V57H633.334V28.192H640.614V31.78C641.585 30.532 642.815 29.5613 644.306 28.868C645.831 28.14 647.495 27.776 649.298 27.776ZM707.664 28.192L689.828 70.624H682.08L688.32 56.272L676.776 28.192H684.94L692.376 48.316L699.916 28.192H707.664ZM724.38 57.468C721.607 57.468 719.111 56.8613 716.892 55.648C714.673 54.4 712.923 52.6493 711.64 50.396C710.392 48.1427 709.768 45.5427 709.768 42.596C709.768 39.6493 710.409 37.0493 711.692 34.796C713.009 32.5427 714.795 30.8093 717.048 29.596C719.301 28.348 721.815 27.724 724.588 27.724C727.361 27.724 729.875 28.348 732.128 29.596C734.381 30.8093 736.149 32.5427 737.432 34.796C738.749 37.0493 739.408 39.6493 739.408 42.596C739.408 45.5427 738.732 48.1427 737.38 50.396C736.063 52.6493 734.26 54.4 731.972 55.648C729.719 56.8613 727.188 57.468 724.38 57.468ZM724.38 51.124C725.697 51.124 726.928 50.812 728.072 50.188C729.251 49.5293 730.187 48.5587 730.88 47.276C731.573 45.9933 731.92 44.4333 731.92 42.596C731.92 39.8573 731.192 37.76 729.736 36.304C728.315 34.8133 726.564 34.068 724.484 34.068C722.404 34.068 720.653 34.8133 719.232 36.304C717.845 37.76 717.152 39.8573 717.152 42.596C717.152 45.3347 717.828 47.4493 719.18 48.94C720.567 50.396 722.3 51.124 724.38 51.124ZM771.944 28.192V57H764.612V53.36C763.676 54.608 762.445 55.596 760.92 56.324C759.429 57.0173 757.8 57.364 756.032 57.364C753.779 57.364 751.785 56.896 750.052 55.96C748.319 54.9893 746.949 53.5853 745.944 51.748C744.973 49.876 744.488 47.6573 744.488 45.092V28.192H751.768V44.052C751.768 46.34 752.34 48.108 753.484 49.356C754.628 50.5693 756.188 51.176 758.164 51.176C760.175 51.176 761.752 50.5693 762.896 49.356C764.04 48.108 764.612 46.34 764.612 44.052V28.192H771.944ZM786.407 32.664C787.343 31.1387 788.556 29.9427 790.047 29.076C791.572 28.2093 793.306 27.776 795.247 27.776V35.42H793.323C791.035 35.42 789.302 35.9573 788.123 37.032C786.979 38.1067 786.407 39.9787 786.407 42.648V57H779.127V28.192H786.407V32.664ZM229.761 105.724C231.91 105.724 233.799 106.157 235.429 107.024C237.058 107.856 238.341 108.948 239.277 110.3V106.192H246.609V135.208C246.609 137.877 246.071 140.252 244.997 142.332C243.922 144.447 242.31 146.111 240.161 147.324C238.011 148.572 235.411 149.196 232.361 149.196C228.27 149.196 224.907 148.243 222.273 146.336C219.673 144.429 218.199 141.829 217.853 138.536H225.081C225.462 139.853 226.277 140.893 227.525 141.656C228.807 142.453 230.35 142.852 232.153 142.852C234.267 142.852 235.983 142.211 237.301 140.928C238.618 139.68 239.277 137.773 239.277 135.208V130.736C238.341 132.088 237.041 133.215 235.377 134.116C233.747 135.017 231.875 135.468 229.761 135.468C227.334 135.468 225.115 134.844 223.105 133.596C221.094 132.348 219.499 130.597 218.321 128.344C217.177 126.056 216.605 123.439 216.605 120.492C216.605 117.58 217.177 114.997 218.321 112.744C219.499 110.491 221.077 108.757 223.053 107.544C225.063 106.331 227.299 105.724 229.761 105.724ZM239.277 120.596C239.277 118.828 238.93 117.32 238.237 116.072C237.543 114.789 236.607 113.819 235.429 113.16C234.25 112.467 232.985 112.12 231.633 112.12C230.281 112.12 229.033 112.449 227.889 113.108C226.745 113.767 225.809 114.737 225.081 116.02C224.387 117.268 224.041 118.759 224.041 120.492C224.041 122.225 224.387 123.751 225.081 125.068C225.809 126.351 226.745 127.339 227.889 128.032C229.067 128.725 230.315 129.072 231.633 129.072C232.985 129.072 234.25 128.743 235.429 128.084C236.607 127.391 237.543 126.42 238.237 125.172C238.93 123.889 239.277 122.364 239.277 120.596ZM260.999 110.664C261.935 109.139 263.148 107.943 264.639 107.076C266.164 106.209 267.898 105.776 269.839 105.776V113.42H267.915C265.627 113.42 263.894 113.957 262.715 115.032C261.571 116.107 260.999 117.979 260.999 120.648V135H253.719V106.192H260.999V110.664ZM287.534 135.468C284.761 135.468 282.265 134.861 280.046 133.648C277.828 132.4 276.077 130.649 274.794 128.396C273.546 126.143 272.922 123.543 272.922 120.596C272.922 117.649 273.564 115.049 274.846 112.796C276.164 110.543 277.949 108.809 280.202 107.596C282.456 106.348 284.969 105.724 287.742 105.724C290.516 105.724 293.029 106.348 295.282 107.596C297.536 108.809 299.304 110.543 300.586 112.796C301.904 115.049 302.562 117.649 302.562 120.596C302.562 123.543 301.886 126.143 300.534 128.396C299.217 130.649 297.414 132.4 295.126 133.648C292.873 134.861 290.342 135.468 287.534 135.468ZM287.534 129.124C288.852 129.124 290.082 128.812 291.226 128.188C292.405 127.529 293.341 126.559 294.034 125.276C294.728 123.993 295.074 122.433 295.074 120.596C295.074 117.857 294.346 115.76 292.89 114.304C291.469 112.813 289.718 112.068 287.638 112.068C285.558 112.068 283.808 112.813 282.386 114.304C281 115.76 280.306 117.857 280.306 120.596C280.306 123.335 280.982 125.449 282.334 126.94C283.721 128.396 285.454 129.124 287.534 129.124ZM347.838 106.192L339.414 135H331.562L326.31 114.876L321.058 135H313.154L304.678 106.192H312.062L317.158 128.136L322.67 106.192H330.366L335.774 128.084L340.87 106.192H347.838ZM360.253 112.172V126.108C360.253 127.079 360.479 127.789 360.929 128.24C361.415 128.656 362.212 128.864 363.321 128.864H366.701V135H362.125C355.989 135 352.921 132.019 352.921 126.056V112.172H349.489V106.192H352.921V99.068H360.253V106.192H366.701V112.172H360.253ZM388.162 105.776C390.346 105.776 392.287 106.261 393.986 107.232C395.684 108.168 397.002 109.572 397.938 111.444C398.908 113.281 399.394 115.5 399.394 118.1V135H392.114V119.088C392.114 116.8 391.542 115.049 390.398 113.836C389.254 112.588 387.694 111.964 385.718 111.964C383.707 111.964 382.112 112.588 380.934 113.836C379.79 115.049 379.218 116.8 379.218 119.088V135H371.938V96.52H379.218V109.78C380.154 108.532 381.402 107.561 382.962 106.868C384.522 106.14 386.255 105.776 388.162 105.776ZM422.399 102.76C421.082 102.76 419.99 102.361 419.123 101.564C418.291 100.732 417.875 99.7093 417.875 98.496C417.875 97.2827 418.291 96.2773 419.123 95.48C419.99 94.648 421.082 94.232 422.399 94.232C423.682 94.232 424.739 94.648 425.571 95.48C426.403 96.2773 426.819 97.2827 426.819 98.496C426.819 99.7093 426.403 100.732 425.571 101.564C424.739 102.361 423.682 102.76 422.399 102.76ZM425.987 139.732C425.987 142.921 425.19 145.209 423.595 146.596C422.035 148.017 419.782 148.728 416.835 148.728H413.611V142.54H415.691C416.8 142.54 417.58 142.315 418.031 141.864C418.482 141.448 418.707 140.755 418.707 139.784V106.192H425.987V139.732ZM445.972 135.468C443.198 135.468 440.702 134.861 438.484 133.648C436.265 132.4 434.514 130.649 433.232 128.396C431.984 126.143 431.36 123.543 431.36 120.596C431.36 117.649 432.001 115.049 433.284 112.796C434.601 110.543 436.386 108.809 438.64 107.596C440.893 106.348 443.406 105.724 446.18 105.724C448.953 105.724 451.466 106.348 453.72 107.596C455.973 108.809 457.741 110.543 459.024 112.796C460.341 115.049 461 117.649 461 120.596C461 123.543 460.324 126.143 458.972 128.396C457.654 130.649 455.852 132.4 453.564 133.648C451.31 134.861 448.78 135.468 445.972 135.468ZM445.972 129.124C447.289 129.124 448.52 128.812 449.664 128.188C450.842 127.529 451.778 126.559 452.472 125.276C453.165 123.993 453.512 122.433 453.512 120.596C453.512 117.857 452.784 115.76 451.328 114.304C449.906 112.813 448.156 112.068 446.076 112.068C443.996 112.068 442.245 112.813 440.824 114.304C439.437 115.76 438.744 117.857 438.744 120.596C438.744 123.335 439.42 125.449 440.772 126.94C442.158 128.396 443.892 129.124 445.972 129.124ZM493.536 106.192V135H486.204V131.36C485.268 132.608 484.037 133.596 482.512 134.324C481.021 135.017 479.392 135.364 477.624 135.364C475.371 135.364 473.377 134.896 471.644 133.96C469.911 132.989 468.541 131.585 467.536 129.748C466.565 127.876 466.08 125.657 466.08 123.092V106.192H473.36V122.052C473.36 124.34 473.932 126.108 475.076 127.356C476.22 128.569 477.78 129.176 479.756 129.176C481.767 129.176 483.344 128.569 484.488 127.356C485.632 126.108 486.204 124.34 486.204 122.052V106.192H493.536ZM507.999 110.664C508.935 109.139 510.148 107.943 511.639 107.076C513.164 106.209 514.898 105.776 516.839 105.776V113.42H514.915C512.627 113.42 510.894 113.957 509.715 115.032C508.571 116.107 507.999 117.979 507.999 120.648V135H500.719V106.192H507.999V110.664ZM537.706 105.776C541.138 105.776 543.912 106.868 546.026 109.052C548.141 111.201 549.198 114.217 549.198 118.1V135H541.918V119.088C541.918 116.8 541.346 115.049 540.202 113.836C539.058 112.588 537.498 111.964 535.522 111.964C533.512 111.964 531.917 112.588 530.738 113.836C529.594 115.049 529.022 116.8 529.022 119.088V135H521.742V106.192H529.022V109.78C529.993 108.532 531.224 107.561 532.714 106.868C534.24 106.14 535.904 105.776 537.706 105.776ZM582.901 119.972C582.901 121.012 582.832 121.948 582.693 122.78H561.633C561.807 124.86 562.535 126.489 563.817 127.668C565.1 128.847 566.677 129.436 568.549 129.436C571.253 129.436 573.177 128.275 574.321 125.952H582.173C581.341 128.725 579.747 131.013 577.389 132.816C575.032 134.584 572.137 135.468 568.705 135.468C565.932 135.468 563.436 134.861 561.217 133.648C559.033 132.4 557.317 130.649 556.069 128.396C554.856 126.143 554.249 123.543 554.249 120.596C554.249 117.615 554.856 114.997 556.069 112.744C557.283 110.491 558.981 108.757 561.165 107.544C563.349 106.331 565.863 105.724 568.705 105.724C571.444 105.724 573.888 106.313 576.037 107.492C578.221 108.671 579.903 110.352 581.081 112.536C582.295 114.685 582.901 117.164 582.901 119.972ZM575.361 117.892C575.327 116.02 574.651 114.529 573.333 113.42C572.016 112.276 570.404 111.704 568.497 111.704C566.695 111.704 565.169 112.259 563.921 113.368C562.708 114.443 561.963 115.951 561.685 117.892H575.361ZM615.775 106.192L597.939 148.624H590.191L596.431 134.272L584.887 106.192H593.051L600.487 126.316L608.027 106.192H615.775Z" fill="url(#paint0_linear_67_22)"/>
<path d="M23.8391 188.179C24.3205 188.255 24.7575 188.451 25.1501 188.768C25.5555 189.085 25.8721 189.477 26.1001 189.946C26.3408 190.415 26.4611 190.915 26.4611 191.447C26.4611 192.118 26.2901 192.726 25.9481 193.271C25.6061 193.803 25.1058 194.227 24.4471 194.544C23.8011 194.848 23.0348 195 22.1481 195H17.2081V181.757H21.9581C22.8575 181.757 23.6238 181.909 24.2571 182.213C24.8905 182.504 25.3655 182.903 25.6821 183.41C25.9988 183.917 26.1571 184.487 26.1571 185.12C26.1571 185.905 25.9418 186.558 25.5111 187.077C25.0931 187.584 24.5358 187.951 23.8391 188.179ZM18.9371 187.476H21.8441C22.6548 187.476 23.2818 187.286 23.7251 186.906C24.1685 186.526 24.3901 186 24.3901 185.329C24.3901 184.658 24.1685 184.132 23.7251 183.752C23.2818 183.372 22.6421 183.182 21.8061 183.182H18.9371V187.476ZM21.9961 193.575C22.8575 193.575 23.5288 193.372 24.0101 192.967C24.4915 192.562 24.7321 191.998 24.7321 191.276C24.7321 190.541 24.4788 189.965 23.9721 189.547C23.4655 189.116 22.7878 188.901 21.9391 188.901H18.9371V193.575H21.9961ZM38.3605 189.395C38.3605 189.724 38.3415 190.073 38.3035 190.44H29.9815C30.0448 191.466 30.3931 192.27 31.0265 192.853C31.6725 193.423 32.4515 193.708 33.3635 193.708C34.1108 193.708 34.7315 193.537 35.2255 193.195C35.7321 192.84 36.0868 192.372 36.2895 191.789H38.1515C37.8728 192.79 37.3155 193.607 36.4795 194.24C35.6435 194.861 34.6048 195.171 33.3635 195.171C32.3755 195.171 31.4888 194.949 30.7035 194.506C29.9308 194.063 29.3228 193.436 28.8795 192.625C28.4361 191.802 28.2145 190.852 28.2145 189.775C28.2145 188.698 28.4298 187.755 28.8605 186.944C29.2911 186.133 29.8928 185.513 30.6655 185.082C31.4508 184.639 32.3501 184.417 33.3635 184.417C34.3515 184.417 35.2255 184.632 35.9855 185.063C36.7455 185.494 37.3281 186.089 37.7335 186.849C38.1515 187.596 38.3605 188.445 38.3605 189.395ZM36.5745 189.034C36.5745 188.375 36.4288 187.812 36.1375 187.343C35.8461 186.862 35.4471 186.501 34.9405 186.26C34.4465 186.007 33.8955 185.88 33.2875 185.88C32.4135 185.88 31.6661 186.159 31.0455 186.716C30.4375 187.273 30.0891 188.046 30.0005 189.034H36.5745ZM45.0621 189.756C45.0621 188.692 45.2775 187.761 45.7081 186.963C46.1388 186.152 46.7278 185.525 47.4751 185.082C48.2351 184.639 49.0775 184.417 50.0021 184.417C50.9141 184.417 51.7058 184.613 52.3771 185.006C53.0485 185.399 53.5488 185.893 53.8781 186.488V184.588H55.6261V195H53.8781V193.062C53.5361 193.67 53.0231 194.177 52.3391 194.582C51.6678 194.975 50.8825 195.171 49.9831 195.171C49.0585 195.171 48.2225 194.943 47.4751 194.487C46.7278 194.031 46.1388 193.391 45.7081 192.568C45.2775 191.745 45.0621 190.807 45.0621 189.756ZM53.8781 189.775C53.8781 188.99 53.7198 188.306 53.4031 187.723C53.0865 187.14 52.6558 186.697 52.1111 186.393C51.5791 186.076 50.9901 185.918 50.3441 185.918C49.6981 185.918 49.1091 186.07 48.5771 186.374C48.0451 186.678 47.6208 187.121 47.3041 187.704C46.9875 188.287 46.8291 188.971 46.8291 189.756C46.8291 190.554 46.9875 191.251 47.3041 191.846C47.6208 192.429 48.0451 192.878 48.5771 193.195C49.1091 193.499 49.6981 193.651 50.3441 193.651C50.9901 193.651 51.5791 193.499 52.1111 193.195C52.6558 192.878 53.0865 192.429 53.4031 191.846C53.7198 191.251 53.8781 190.56 53.8781 189.775ZM60.277 186.526C60.6316 185.905 61.151 185.399 61.835 185.006C62.519 184.613 63.298 184.417 64.172 184.417C65.1093 184.417 65.9516 184.639 66.699 185.082C67.4463 185.525 68.0353 186.152 68.466 186.963C68.8966 187.761 69.112 188.692 69.112 189.756C69.112 190.807 68.8966 191.745 68.466 192.568C68.0353 193.391 67.44 194.031 66.68 194.487C65.9326 194.943 65.0966 195.171 64.172 195.171C63.2726 195.171 62.481 194.975 61.797 194.582C61.1256 194.189 60.619 193.689 60.277 193.081V195H58.548V180.94H60.277V186.526ZM67.345 189.756C67.345 188.971 67.1866 188.287 66.87 187.704C66.5533 187.121 66.1226 186.678 65.578 186.374C65.046 186.07 64.457 185.918 63.811 185.918C63.1776 185.918 62.5886 186.076 62.044 186.393C61.512 186.697 61.0813 187.147 60.752 187.742C60.4353 188.325 60.277 189.002 60.277 189.775C60.277 190.56 60.4353 191.251 60.752 191.846C61.0813 192.429 61.512 192.878 62.044 193.195C62.5886 193.499 63.1776 193.651 63.811 193.651C64.457 193.651 65.046 193.499 65.578 193.195C66.1226 192.878 66.5533 192.429 66.87 191.846C67.1866 191.251 67.345 190.554 67.345 189.756ZM73.1168 180.94V195H71.3878V180.94H73.1168ZM85.5636 189.395C85.5636 189.724 85.5446 190.073 85.5066 190.44H77.1846C77.2479 191.466 77.5963 192.27 78.2296 192.853C78.8756 193.423 79.6546 193.708 80.5666 193.708C81.3139 193.708 81.9346 193.537 82.4286 193.195C82.9353 192.84 83.2899 192.372 83.4926 191.789H85.3546C85.0759 192.79 84.5186 193.607 83.6826 194.24C82.8466 194.861 81.8079 195.171 80.5666 195.171C79.5786 195.171 78.6919 194.949 77.9066 194.506C77.1339 194.063 76.5259 193.436 76.0826 192.625C75.6393 191.802 75.4176 190.852 75.4176 189.775C75.4176 188.698 75.6329 187.755 76.0636 186.944C76.4943 186.133 77.0959 185.513 77.8686 185.082C78.6539 184.639 79.5533 184.417 80.5666 184.417C81.5546 184.417 82.4286 184.632 83.1886 185.063C83.9486 185.494 84.5313 186.089 84.9366 186.849C85.3546 187.596 85.5636 188.445 85.5636 189.395ZM83.7776 189.034C83.7776 188.375 83.6319 187.812 83.3406 187.343C83.0493 186.862 82.6503 186.501 82.1436 186.26C81.6496 186.007 81.0986 185.88 80.4906 185.88C79.6166 185.88 78.8693 186.159 78.2486 186.716C77.6406 187.273 77.2923 188.046 77.2036 189.034H83.7776ZM95.0202 186.013V192.15C95.0202 192.657 95.1279 193.018 95.3432 193.233C95.5586 193.436 95.9322 193.537 96.4642 193.537H97.7372V195H96.1792C95.2166 195 94.4946 194.778 94.0132 194.335C93.5319 193.892 93.2912 193.163 93.2912 192.15V186.013H91.9422V184.588H93.2912V181.966H95.0202V184.588H97.7372V186.013H95.0202ZM104.373 195.171C103.398 195.171 102.511 194.949 101.713 194.506C100.928 194.063 100.307 193.436 99.8511 192.625C99.4078 191.802 99.1861 190.852 99.1861 189.775C99.1861 188.711 99.4141 187.774 99.8701 186.963C100.339 186.14 100.972 185.513 101.77 185.082C102.568 184.639 103.461 184.417 104.449 184.417C105.437 184.417 106.33 184.639 107.128 185.082C107.926 185.513 108.553 186.133 109.009 186.944C109.478 187.755 109.712 188.698 109.712 189.775C109.712 190.852 109.471 191.802 108.99 192.625C108.521 193.436 107.882 194.063 107.071 194.506C106.26 194.949 105.361 195.171 104.373 195.171ZM104.373 193.651C104.994 193.651 105.576 193.505 106.121 193.214C106.666 192.923 107.103 192.486 107.432 191.903C107.774 191.32 107.945 190.611 107.945 189.775C107.945 188.939 107.78 188.23 107.451 187.647C107.122 187.064 106.691 186.634 106.159 186.355C105.627 186.064 105.051 185.918 104.43 185.918C103.797 185.918 103.214 186.064 102.682 186.355C102.163 186.634 101.745 187.064 101.428 187.647C101.111 188.23 100.953 188.939 100.953 189.775C100.953 190.624 101.105 191.339 101.409 191.922C101.726 192.505 102.144 192.942 102.663 193.233C103.182 193.512 103.752 193.651 104.373 193.651ZM129.572 184.398C130.383 184.398 131.105 184.569 131.738 184.911C132.371 185.24 132.872 185.741 133.239 186.412C133.606 187.083 133.79 187.9 133.79 188.863V195H132.08V189.11C132.08 188.071 131.82 187.28 131.301 186.735C130.794 186.178 130.104 185.899 129.23 185.899C128.331 185.899 127.615 186.19 127.083 186.773C126.551 187.343 126.285 188.173 126.285 189.262V195H124.575V189.11C124.575 188.071 124.315 187.28 123.796 186.735C123.289 186.178 122.599 185.899 121.725 185.899C120.826 185.899 120.11 186.19 119.578 186.773C119.046 187.343 118.78 188.173 118.78 189.262V195H117.051V184.588H118.78V186.089C119.122 185.544 119.578 185.126 120.148 184.835C120.731 184.544 121.37 184.398 122.067 184.398C122.941 184.398 123.714 184.594 124.385 184.987C125.056 185.38 125.557 185.956 125.886 186.716C126.177 185.981 126.659 185.411 127.33 185.006C128.001 184.601 128.749 184.398 129.572 184.398ZM141.167 195.171C140.192 195.171 139.305 194.949 138.507 194.506C137.722 194.063 137.101 193.436 136.645 192.625C136.202 191.802 135.98 190.852 135.98 189.775C135.98 188.711 136.208 187.774 136.664 186.963C137.133 186.14 137.766 185.513 138.564 185.082C139.362 184.639 140.255 184.417 141.243 184.417C142.231 184.417 143.124 184.639 143.922 185.082C144.72 185.513 145.347 186.133 145.803 186.944C146.272 187.755 146.506 188.698 146.506 189.775C146.506 190.852 146.265 191.802 145.784 192.625C145.315 193.436 144.676 194.063 143.865 194.506C143.054 194.949 142.155 195.171 141.167 195.171ZM141.167 193.651C141.788 193.651 142.37 193.505 142.915 193.214C143.46 192.923 143.897 192.486 144.226 191.903C144.568 191.32 144.739 190.611 144.739 189.775C144.739 188.939 144.574 188.23 144.245 187.647C143.916 187.064 143.485 186.634 142.953 186.355C142.421 186.064 141.845 185.918 141.224 185.918C140.591 185.918 140.008 186.064 139.476 186.355C138.957 186.634 138.539 187.064 138.222 187.647C137.905 188.23 137.747 188.939 137.747 189.775C137.747 190.624 137.899 191.339 138.203 191.922C138.52 192.505 138.938 192.942 139.457 193.233C139.976 193.512 140.546 193.651 141.167 193.651ZM153.852 184.398C155.119 184.398 156.145 184.784 156.93 185.557C157.716 186.317 158.108 187.419 158.108 188.863V195H156.398V189.11C156.398 188.071 156.139 187.28 155.619 186.735C155.1 186.178 154.391 185.899 153.491 185.899C152.579 185.899 151.851 186.184 151.306 186.754C150.774 187.324 150.508 188.154 150.508 189.243V195H148.779V184.588H150.508V186.07C150.85 185.538 151.313 185.126 151.895 184.835C152.491 184.544 153.143 184.398 153.852 184.398ZM161.826 182.897C161.496 182.897 161.218 182.783 160.99 182.555C160.762 182.327 160.648 182.048 160.648 181.719C160.648 181.39 160.762 181.111 160.99 180.883C161.218 180.655 161.496 180.541 161.826 180.541C162.142 180.541 162.408 180.655 162.624 180.883C162.852 181.111 162.966 181.39 162.966 181.719C162.966 182.048 162.852 182.327 162.624 182.555C162.408 182.783 162.142 182.897 161.826 182.897ZM162.662 184.588V195H160.933V184.588H162.662ZM167.718 186.013V192.15C167.718 192.657 167.825 193.018 168.041 193.233C168.256 193.436 168.63 193.537 169.162 193.537H170.435V195H168.877C167.914 195 167.192 194.778 166.711 194.335C166.229 193.892 165.989 193.163 165.989 192.15V186.013H164.64V184.588H165.989V181.966H167.718V184.588H170.435V186.013H167.718ZM177.07 195.171C176.095 195.171 175.208 194.949 174.41 194.506C173.625 194.063 173.004 193.436 172.548 192.625C172.105 191.802 171.883 190.852 171.883 189.775C171.883 188.711 172.111 187.774 172.567 186.963C173.036 186.14 173.669 185.513 174.467 185.082C175.265 184.639 176.158 184.417 177.146 184.417C178.134 184.417 179.027 184.639 179.825 185.082C180.623 185.513 181.25 186.133 181.706 186.944C182.175 187.755 182.409 188.698 182.409 189.775C182.409 190.852 182.169 191.802 181.687 192.625C181.219 193.436 180.579 194.063 179.768 194.506C178.958 194.949 178.058 195.171 177.07 195.171ZM177.07 193.651C177.691 193.651 178.274 193.505 178.818 193.214C179.363 192.923 179.8 192.486 180.129 191.903C180.471 191.32 180.642 190.611 180.642 189.775C180.642 188.939 180.478 188.23 180.148 187.647C179.819 187.064 179.388 186.634 178.856 186.355C178.324 186.064 177.748 185.918 177.127 185.918C176.494 185.918 175.911 186.064 175.379 186.355C174.86 186.634 174.442 187.064 174.125 187.647C173.809 188.23 173.65 188.939 173.65 189.775C173.65 190.624 173.802 191.339 174.106 191.922C174.423 192.505 174.841 192.942 175.36 193.233C175.88 193.512 176.45 193.651 177.07 193.651ZM186.412 186.279C186.716 185.684 187.146 185.221 187.704 184.892C188.274 184.563 188.964 184.398 189.775 184.398V186.184H189.319C187.381 186.184 186.412 187.235 186.412 189.338V195H184.683V184.588H186.412V186.279ZM210.706 184.588L207.457 195H205.671L203.163 186.735L200.655 195H198.869L195.601 184.588H197.368L199.762 193.328L202.346 184.588H204.113L206.64 193.347L208.996 184.588H210.706ZM221.922 189.395C221.922 189.724 221.903 190.073 221.865 190.44H213.543C213.606 191.466 213.955 192.27 214.588 192.853C215.234 193.423 216.013 193.708 216.925 193.708C217.672 193.708 218.293 193.537 218.787 193.195C219.294 192.84 219.648 192.372 219.851 191.789H221.713C221.434 192.79 220.877 193.607 220.041 194.24C219.205 194.861 218.166 195.171 216.925 195.171C215.937 195.171 215.05 194.949 214.265 194.506C213.492 194.063 212.884 193.436 212.441 192.625C211.998 191.802 211.776 190.852 211.776 189.775C211.776 188.698 211.991 187.755 212.422 186.944C212.853 186.133 213.454 185.513 214.227 185.082C215.012 184.639 215.912 184.417 216.925 184.417C217.913 184.417 218.787 184.632 219.547 185.063C220.307 185.494 220.89 186.089 221.295 186.849C221.713 187.596 221.922 188.445 221.922 189.395ZM220.136 189.034C220.136 188.375 219.99 187.812 219.699 187.343C219.408 186.862 219.009 186.501 218.502 186.26C218.008 186.007 217.457 185.88 216.849 185.88C215.975 185.88 215.228 186.159 214.607 186.716C213.999 187.273 213.651 188.046 213.562 189.034H220.136ZM225.933 186.526C226.288 185.905 226.807 185.399 227.491 185.006C228.175 184.613 228.954 184.417 229.828 184.417C230.766 184.417 231.608 184.639 232.355 185.082C233.103 185.525 233.692 186.152 234.122 186.963C234.553 187.761 234.768 188.692 234.768 189.756C234.768 190.807 234.553 191.745 234.122 192.568C233.692 193.391 233.096 194.031 232.336 194.487C231.589 194.943 230.753 195.171 229.828 195.171C228.929 195.171 228.137 194.975 227.453 194.582C226.782 194.189 226.275 193.689 225.933 193.081V195H224.204V180.94H225.933V186.526ZM233.001 189.756C233.001 188.971 232.843 188.287 232.526 187.704C232.21 187.121 231.779 186.678 231.234 186.374C230.702 186.07 230.113 185.918 229.467 185.918C228.834 185.918 228.245 186.076 227.7 186.393C227.168 186.697 226.738 187.147 226.408 187.742C226.092 188.325 225.933 189.002 225.933 189.775C225.933 190.56 226.092 191.251 226.408 191.846C226.738 192.429 227.168 192.878 227.7 193.195C228.245 193.499 228.834 193.651 229.467 193.651C230.113 193.651 230.702 193.499 231.234 193.195C231.779 192.878 232.21 192.429 232.526 191.846C232.843 191.251 233.001 190.554 233.001 189.756ZM240.73 195.171C239.932 195.171 239.216 195.038 238.583 194.772C237.95 194.493 237.449 194.113 237.082 193.632C236.715 193.138 236.512 192.574 236.474 191.941H238.26C238.311 192.46 238.551 192.885 238.982 193.214C239.425 193.543 240.002 193.708 240.711 193.708C241.37 193.708 241.889 193.562 242.269 193.271C242.649 192.98 242.839 192.612 242.839 192.169C242.839 191.713 242.636 191.377 242.231 191.162C241.826 190.934 241.199 190.712 240.35 190.497C239.577 190.294 238.944 190.092 238.45 189.889C237.969 189.674 237.551 189.363 237.196 188.958C236.854 188.54 236.683 187.995 236.683 187.324C236.683 186.792 236.841 186.304 237.158 185.861C237.475 185.418 237.924 185.069 238.507 184.816C239.09 184.55 239.755 184.417 240.502 184.417C241.655 184.417 242.586 184.708 243.295 185.291C244.004 185.874 244.384 186.672 244.435 187.685H242.706C242.668 187.14 242.446 186.703 242.041 186.374C241.648 186.045 241.116 185.88 240.445 185.88C239.824 185.88 239.33 186.013 238.963 186.279C238.596 186.545 238.412 186.893 238.412 187.324C238.412 187.666 238.52 187.951 238.735 188.179C238.963 188.394 239.242 188.572 239.571 188.711C239.913 188.838 240.382 188.983 240.977 189.148C241.724 189.351 242.332 189.553 242.801 189.756C243.27 189.946 243.669 190.237 243.998 190.63C244.34 191.023 244.517 191.536 244.53 192.169C244.53 192.739 244.372 193.252 244.055 193.708C243.738 194.164 243.289 194.525 242.706 194.791C242.136 195.044 241.477 195.171 240.73 195.171ZM247.864 182.897C247.534 182.897 247.256 182.783 247.028 182.555C246.8 182.327 246.686 182.048 246.686 181.719C246.686 181.39 246.8 181.111 247.028 180.883C247.256 180.655 247.534 180.541 247.864 180.541C248.18 180.541 248.446 180.655 248.662 180.883C248.89 181.111 249.004 181.39 249.004 181.719C249.004 182.048 248.89 182.327 248.662 182.555C248.446 182.783 248.18 182.897 247.864 182.897ZM248.7 184.588V195H246.971V184.588H248.7ZM253.756 186.013V192.15C253.756 192.657 253.863 193.018 254.079 193.233C254.294 193.436 254.668 193.537 255.2 193.537H256.473V195H254.915C253.952 195 253.23 194.778 252.749 194.335C252.267 193.892 252.027 193.163 252.027 192.15V186.013H250.678V184.588H252.027V181.966H253.756V184.588H256.473V186.013H253.756ZM268.067 189.395C268.067 189.724 268.048 190.073 268.01 190.44H259.688C259.752 191.466 260.1 192.27 260.733 192.853C261.379 193.423 262.158 193.708 263.07 193.708C263.818 193.708 264.438 193.537 264.932 193.195C265.439 192.84 265.794 192.372 265.996 191.789H267.858C267.58 192.79 267.022 193.607 266.186 194.24C265.35 194.861 264.312 195.171 263.07 195.171C262.082 195.171 261.196 194.949 260.41 194.506C259.638 194.063 259.03 193.436 258.586 192.625C258.143 191.802 257.921 190.852 257.921 189.775C257.921 188.698 258.137 187.755 258.567 186.944C258.998 186.133 259.6 185.513 260.372 185.082C261.158 184.639 262.057 184.417 263.07 184.417C264.058 184.417 264.932 184.632 265.692 185.063C266.452 185.494 267.035 186.089 267.44 186.849C267.858 187.596 268.067 188.445 268.067 189.395ZM266.281 189.034C266.281 188.375 266.136 187.812 265.844 187.343C265.553 186.862 265.154 186.501 264.647 186.26C264.153 186.007 263.602 185.88 262.994 185.88C262.12 185.88 261.373 186.159 260.752 186.716C260.144 187.273 259.796 188.046 259.707 189.034H266.281ZM274.036 195.171C273.238 195.171 272.522 195.038 271.889 194.772C271.255 194.493 270.755 194.113 270.388 193.632C270.02 193.138 269.818 192.574 269.78 191.941H271.566C271.616 192.46 271.857 192.885 272.288 193.214C272.731 193.543 273.307 193.708 274.017 193.708C274.675 193.708 275.195 193.562 275.575 193.271C275.955 192.98 276.145 192.612 276.145 192.169C276.145 191.713 275.942 191.377 275.537 191.162C275.131 190.934 274.504 190.712 273.656 190.497C272.883 190.294 272.25 190.092 271.756 189.889C271.274 189.674 270.856 189.363 270.502 188.958C270.16 188.54 269.989 187.995 269.989 187.324C269.989 186.792 270.147 186.304 270.464 185.861C270.78 185.418 271.23 185.069 271.813 184.816C272.395 184.55 273.06 184.417 273.808 184.417C274.96 184.417 275.891 184.708 276.601 185.291C277.31 185.874 277.69 186.672 277.741 187.685H276.012C275.974 187.14 275.752 186.703 275.347 186.374C274.954 186.045 274.422 185.88 273.751 185.88C273.13 185.88 272.636 186.013 272.269 186.279C271.901 186.545 271.718 186.893 271.718 187.324C271.718 187.666 271.825 187.951 272.041 188.179C272.269 188.394 272.547 188.572 272.877 188.711C273.219 188.838 273.687 188.983 274.283 189.148C275.03 189.351 275.638 189.553 276.107 189.756C276.575 189.946 276.974 190.237 277.304 190.63C277.646 191.023 277.823 191.536 277.836 192.169C277.836 192.739 277.677 193.252 277.361 193.708C277.044 194.164 276.594 194.525 276.012 194.791C275.442 195.044 274.783 195.171 274.036 195.171ZM299.212 184.588L295.963 195H294.177L291.669 186.735L289.161 195H287.375L284.107 184.588H285.874L288.268 193.328L290.852 184.588H292.619L295.146 193.347L297.502 184.588H299.212ZM310.428 189.395C310.428 189.724 310.409 190.073 310.371 190.44H302.049C302.112 191.466 302.461 192.27 303.094 192.853C303.74 193.423 304.519 193.708 305.431 193.708C306.178 193.708 306.799 193.537 307.293 193.195C307.8 192.84 308.154 192.372 308.357 191.789H310.219C309.94 192.79 309.383 193.607 308.547 194.24C307.711 194.861 306.672 195.171 305.431 195.171C304.443 195.171 303.556 194.949 302.771 194.506C301.998 194.063 301.39 193.436 300.947 192.625C300.504 191.802 300.282 190.852 300.282 189.775C300.282 188.698 300.497 187.755 300.928 186.944C301.359 186.133 301.96 185.513 302.733 185.082C303.518 184.639 304.418 184.417 305.431 184.417C306.419 184.417 307.293 184.632 308.053 185.063C308.813 185.494 309.396 186.089 309.801 186.849C310.219 187.596 310.428 188.445 310.428 189.395ZM308.642 189.034C308.642 188.375 308.496 187.812 308.205 187.343C307.914 186.862 307.515 186.501 307.008 186.26C306.514 186.007 305.963 185.88 305.355 185.88C304.481 185.88 303.734 186.159 303.113 186.716C302.505 187.273 302.157 188.046 302.068 189.034H308.642ZM319.505 186.507C319.847 185.912 320.353 185.418 321.025 185.025C321.709 184.62 322.5 184.417 323.4 184.417C324.324 184.417 325.16 184.639 325.907 185.082C326.667 185.525 327.263 186.152 327.694 186.963C328.124 187.761 328.34 188.692 328.34 189.756C328.34 190.807 328.124 191.745 327.694 192.568C327.263 193.391 326.667 194.031 325.907 194.487C325.16 194.943 324.324 195.171 323.4 195.171C322.513 195.171 321.728 194.975 321.044 194.582C320.372 194.177 319.859 193.676 319.505 193.081V199.94H317.776V184.588H319.505V186.507ZM326.573 189.756C326.573 188.971 326.414 188.287 326.098 187.704C325.781 187.121 325.35 186.678 324.806 186.374C324.274 186.07 323.685 185.918 323.039 185.918C322.405 185.918 321.816 186.076 321.272 186.393C320.74 186.697 320.309 187.147 319.98 187.742C319.663 188.325 319.505 189.002 319.505 189.775C319.505 190.56 319.663 191.251 319.98 191.846C320.309 192.429 320.74 192.878 321.272 193.195C321.816 193.499 322.405 193.651 323.039 193.651C323.685 193.651 324.274 193.499 324.806 193.195C325.35 192.878 325.781 192.429 326.098 191.846C326.414 191.251 326.573 190.554 326.573 189.756ZM339.849 184.588V195H338.12V193.461C337.791 193.993 337.329 194.411 336.733 194.715C336.151 195.006 335.505 195.152 334.795 195.152C333.985 195.152 333.256 194.987 332.61 194.658C331.964 194.316 331.451 193.809 331.071 193.138C330.704 192.467 330.52 191.65 330.52 190.687V184.588H332.23V190.459C332.23 191.485 332.49 192.277 333.009 192.834C333.529 193.379 334.238 193.651 335.137 193.651C336.062 193.651 336.79 193.366 337.322 192.796C337.854 192.226 338.12 191.396 338.12 190.307V184.588H339.849ZM344.878 186.013V192.15C344.878 192.657 344.985 193.018 345.201 193.233C345.416 193.436 345.79 193.537 346.322 193.537H347.595V195H346.037C345.074 195 344.352 194.778 343.871 194.335C343.389 193.892 343.149 193.163 343.149 192.15V186.013H341.8V184.588H343.149V181.966H344.878V184.588H347.595V186.013H344.878ZM356.484 180.94V195H354.755V180.94H356.484ZM360.324 182.897C359.994 182.897 359.716 182.783 359.488 182.555C359.26 182.327 359.146 182.048 359.146 181.719C359.146 181.39 359.26 181.111 359.488 180.883C359.716 180.655 359.994 180.541 360.324 180.541C360.64 180.541 360.906 180.655 361.122 180.883C361.35 181.111 361.464 181.39 361.464 181.719C361.464 182.048 361.35 182.327 361.122 182.555C360.906 182.783 360.64 182.897 360.324 182.897ZM361.16 184.588V195H359.431V184.588H361.16ZM369.18 184.398C370.446 184.398 371.472 184.784 372.258 185.557C373.043 186.317 373.436 187.419 373.436 188.863V195H371.726V189.11C371.726 188.071 371.466 187.28 370.947 186.735C370.427 186.178 369.718 185.899 368.819 185.899C367.907 185.899 367.178 186.184 366.634 186.754C366.102 187.324 365.836 188.154 365.836 189.243V195H364.107V184.588H365.836V186.07C366.178 185.538 366.64 185.126 367.223 184.835C367.818 184.544 368.47 184.398 369.18 184.398ZM382.074 195L377.989 190.402V195H376.26V180.94H377.989V189.205L381.998 184.588H384.411L379.509 189.775L384.43 195H382.074ZM391.997 182.897C391.667 182.897 391.389 182.783 391.161 182.555C390.933 182.327 390.819 182.048 390.819 181.719C390.819 181.39 390.933 181.111 391.161 180.883C391.389 180.655 391.667 180.541 391.997 180.541C392.313 180.541 392.579 180.655 392.795 180.883C393.023 181.111 393.137 181.39 393.137 181.719C393.137 182.048 393.023 182.327 392.795 182.555C392.579 182.783 392.313 182.897 391.997 182.897ZM392.833 184.588V195H391.104V184.588H392.833ZM400.852 184.398C402.119 184.398 403.145 184.784 403.93 185.557C404.716 186.317 405.108 187.419 405.108 188.863V195H403.398V189.11C403.398 188.071 403.139 187.28 402.619 186.735C402.1 186.178 401.391 185.899 400.491 185.899C399.579 185.899 398.851 186.184 398.306 186.754C397.774 187.324 397.508 188.154 397.508 189.243V195H395.779V184.588H397.508V186.07C397.85 185.538 398.313 185.126 398.895 184.835C399.491 184.544 400.143 184.398 400.852 184.398ZM415.107 186.013V192.15C415.107 192.657 415.215 193.018 415.43 193.233C415.645 193.436 416.019 193.537 416.551 193.537H417.824V195H416.266C415.303 195 414.581 194.778 414.1 194.335C413.619 193.892 413.378 193.163 413.378 192.15V186.013H412.029V184.588H413.378V181.966H415.107V184.588H417.824V186.013H415.107ZM424.46 195.171C423.485 195.171 422.598 194.949 421.8 194.506C421.015 194.063 420.394 193.436 419.938 192.625C419.495 191.802 419.273 190.852 419.273 189.775C419.273 188.711 419.501 187.774 419.957 186.963C420.426 186.14 421.059 185.513 421.857 185.082C422.655 184.639 423.548 184.417 424.536 184.417C425.524 184.417 426.417 184.639 427.215 185.082C428.013 185.513 428.64 186.133 429.096 186.944C429.565 187.755 429.799 188.698 429.799 189.775C429.799 190.852 429.558 191.802 429.077 192.625C428.608 193.436 427.969 194.063 427.158 194.506C426.347 194.949 425.448 195.171 424.46 195.171ZM424.46 193.651C425.081 193.651 425.663 193.505 426.208 193.214C426.753 192.923 427.19 192.486 427.519 191.903C427.861 191.32 428.032 190.611 428.032 189.775C428.032 188.939 427.867 188.23 427.538 187.647C427.209 187.064 426.778 186.634 426.246 186.355C425.714 186.064 425.138 185.918 424.517 185.918C423.884 185.918 423.301 186.064 422.769 186.355C422.25 186.634 421.832 187.064 421.515 187.647C421.198 188.23 421.04 188.939 421.04 189.775C421.04 190.624 421.192 191.339 421.496 191.922C421.813 192.505 422.231 192.942 422.75 193.233C423.269 193.512 423.839 193.651 424.46 193.651ZM436.492 189.756C436.492 188.692 436.707 187.761 437.138 186.963C437.568 186.152 438.157 185.525 438.905 185.082C439.665 184.639 440.507 184.417 441.432 184.417C442.344 184.417 443.135 184.613 443.807 185.006C444.478 185.399 444.978 185.893 445.308 186.488V184.588H447.056V195H445.308V193.062C444.966 193.67 444.453 194.177 443.769 194.582C443.097 194.975 442.312 195.171 441.413 195.171C440.488 195.171 439.652 194.943 438.905 194.487C438.157 194.031 437.568 193.391 437.138 192.568C436.707 191.745 436.492 190.807 436.492 189.756ZM445.308 189.775C445.308 188.99 445.149 188.306 444.833 187.723C444.516 187.14 444.085 186.697 443.541 186.393C443.009 186.076 442.42 185.918 441.774 185.918C441.128 185.918 440.539 186.07 440.007 186.374C439.475 186.678 439.05 187.121 438.734 187.704C438.417 188.287 438.259 188.971 438.259 189.756C438.259 190.554 438.417 191.251 438.734 191.846C439.05 192.429 439.475 192.878 440.007 193.195C440.539 193.499 441.128 193.651 441.774 193.651C442.42 193.651 443.009 193.499 443.541 193.195C444.085 192.878 444.516 192.429 444.833 191.846C445.149 191.251 445.308 190.56 445.308 189.775ZM456.772 186.507C457.114 185.912 457.621 185.418 458.292 185.025C458.976 184.62 459.768 184.417 460.667 184.417C461.592 184.417 462.428 184.639 463.175 185.082C463.935 185.525 464.53 186.152 464.961 186.963C465.392 187.761 465.607 188.692 465.607 189.756C465.607 190.807 465.392 191.745 464.961 192.568C464.53 193.391 463.935 194.031 463.175 194.487C462.428 194.943 461.592 195.171 460.667 195.171C459.78 195.171 458.995 194.975 458.311 194.582C457.64 194.177 457.127 193.676 456.772 193.081V199.94H455.043V184.588H456.772V186.507ZM463.84 189.756C463.84 188.971 463.682 188.287 463.365 187.704C463.048 187.121 462.618 186.678 462.073 186.374C461.541 186.07 460.952 185.918 460.306 185.918C459.673 185.918 459.084 186.076 458.539 186.393C458.007 186.697 457.576 187.147 457.247 187.742C456.93 188.325 456.772 189.002 456.772 189.775C456.772 190.56 456.93 191.251 457.247 191.846C457.576 192.429 458.007 192.878 458.539 193.195C459.084 193.499 459.673 193.651 460.306 193.651C460.952 193.651 461.541 193.499 462.073 193.195C462.618 192.878 463.048 192.429 463.365 191.846C463.682 191.251 463.84 190.554 463.84 189.756ZM469.612 186.279C469.916 185.684 470.347 185.221 470.904 184.892C471.474 184.563 472.164 184.398 472.975 184.398V186.184H472.519C470.581 186.184 469.612 187.235 469.612 189.338V195H467.883V184.588H469.612V186.279ZM479.512 195.171C478.536 195.171 477.65 194.949 476.852 194.506C476.066 194.063 475.446 193.436 474.99 192.625C474.546 191.802 474.325 190.852 474.325 189.775C474.325 188.711 474.553 187.774 475.009 186.963C475.477 186.14 476.111 185.513 476.909 185.082C477.707 184.639 478.6 184.417 479.588 184.417C480.576 184.417 481.469 184.639 482.267 185.082C483.065 185.513 483.692 186.133 484.148 186.944C484.616 187.755 484.851 188.698 484.851 189.775C484.851 190.852 484.61 191.802 484.129 192.625C483.66 193.436 483.02 194.063 482.21 194.506C481.399 194.949 480.5 195.171 479.512 195.171ZM479.512 193.651C480.132 193.651 480.715 193.505 481.26 193.214C481.804 192.923 482.241 192.486 482.571 191.903C482.913 191.32 483.084 190.611 483.084 189.775C483.084 188.939 482.919 188.23 482.59 187.647C482.26 187.064 481.83 186.634 481.298 186.355C480.766 186.064 480.189 185.918 479.569 185.918C478.935 185.918 478.353 186.064 477.821 186.355C477.301 186.634 476.883 187.064 476.567 187.647C476.25 188.23 476.092 188.939 476.092 189.775C476.092 190.624 476.244 191.339 476.548 191.922C476.864 192.505 477.282 192.942 477.802 193.233C478.321 193.512 478.891 193.651 479.512 193.651ZM486.478 189.756C486.478 188.692 486.693 187.761 487.124 186.963C487.555 186.152 488.144 185.525 488.891 185.082C489.651 184.639 490.5 184.417 491.437 184.417C492.248 184.417 493.001 184.607 493.698 184.987C494.395 185.354 494.927 185.842 495.294 186.45V180.94H497.042V195H495.294V193.043C494.952 193.664 494.445 194.177 493.774 194.582C493.103 194.975 492.317 195.171 491.418 195.171C490.493 195.171 489.651 194.943 488.891 194.487C488.144 194.031 487.555 193.391 487.124 192.568C486.693 191.745 486.478 190.807 486.478 189.756ZM495.294 189.775C495.294 188.99 495.136 188.306 494.819 187.723C494.502 187.14 494.072 186.697 493.527 186.393C492.995 186.076 492.406 185.918 491.76 185.918C491.114 185.918 490.525 186.07 489.993 186.374C489.461 186.678 489.037 187.121 488.72 187.704C488.403 188.287 488.245 188.971 488.245 189.756C488.245 190.554 488.403 191.251 488.72 191.846C489.037 192.429 489.461 192.878 489.993 193.195C490.525 193.499 491.114 193.651 491.76 193.651C492.406 193.651 492.995 193.499 493.527 193.195C494.072 192.878 494.502 192.429 494.819 191.846C495.136 191.251 495.294 190.56 495.294 189.775ZM509.198 184.588V195H507.469V193.461C507.14 193.993 506.677 194.411 506.082 194.715C505.499 195.006 504.853 195.152 504.144 195.152C503.333 195.152 502.605 194.987 501.959 194.658C501.313 194.316 500.8 193.809 500.42 193.138C500.053 192.467 499.869 191.65 499.869 190.687V184.588H501.579V190.459C501.579 191.485 501.839 192.277 502.358 192.834C502.877 193.379 503.587 193.651 504.486 193.651C505.411 193.651 506.139 193.366 506.671 192.796C507.203 192.226 507.469 191.396 507.469 190.307V184.588H509.198ZM511.471 189.775C511.471 188.698 511.687 187.761 512.117 186.963C512.548 186.152 513.143 185.525 513.903 185.082C514.676 184.639 515.556 184.417 516.544 184.417C517.824 184.417 518.875 184.727 519.698 185.348C520.534 185.969 521.085 186.83 521.351 187.932H519.489C519.312 187.299 518.964 186.798 518.444 186.431C517.938 186.064 517.304 185.88 516.544 185.88C515.556 185.88 514.758 186.222 514.15 186.906C513.542 187.577 513.238 188.534 513.238 189.775C513.238 191.029 513.542 191.998 514.15 192.682C514.758 193.366 515.556 193.708 516.544 193.708C517.304 193.708 517.938 193.531 518.444 193.176C518.951 192.821 519.299 192.315 519.489 191.656H521.351C521.073 192.72 520.515 193.575 519.679 194.221C518.843 194.854 517.798 195.171 516.544 195.171C515.556 195.171 514.676 194.949 513.903 194.506C513.143 194.063 512.548 193.436 512.117 192.625C511.687 191.814 511.471 190.864 511.471 189.775ZM525.767 186.013V192.15C525.767 192.657 525.875 193.018 526.09 193.233C526.306 193.436 526.679 193.537 527.211 193.537H528.484V195H526.926C525.964 195 525.242 194.778 524.76 194.335C524.279 193.892 524.038 193.163 524.038 192.15V186.013H522.689V184.588H524.038V181.966H525.767V184.588H528.484V186.013H525.767ZM534.999 189.756C534.999 188.692 535.214 187.761 535.645 186.963C536.075 186.152 536.664 185.525 537.412 185.082C538.172 184.639 539.014 184.417 539.939 184.417C540.851 184.417 541.642 184.613 542.314 185.006C542.985 185.399 543.485 185.893 543.815 186.488V184.588H545.563V195H543.815V193.062C543.473 193.67 542.96 194.177 542.276 194.582C541.604 194.975 540.819 195.171 539.92 195.171C538.995 195.171 538.159 194.943 537.412 194.487C536.664 194.031 536.075 193.391 535.645 192.568C535.214 191.745 534.999 190.807 534.999 189.756ZM543.815 189.775C543.815 188.99 543.656 188.306 543.34 187.723C543.023 187.14 542.592 186.697 542.048 186.393C541.516 186.076 540.927 185.918 540.281 185.918C539.635 185.918 539.046 186.07 538.514 186.374C537.982 186.678 537.557 187.121 537.241 187.704C536.924 188.287 536.766 188.971 536.766 189.756C536.766 190.554 536.924 191.251 537.241 191.846C537.557 192.429 537.982 192.878 538.514 193.195C539.046 193.499 539.635 193.651 540.281 193.651C540.927 193.651 541.516 193.499 542.048 193.195C542.592 192.878 543.023 192.429 543.34 191.846C543.656 191.251 543.815 190.56 543.815 189.775ZM553.557 184.398C554.824 184.398 555.85 184.784 556.635 185.557C557.421 186.317 557.813 187.419 557.813 188.863V195H556.103V189.11C556.103 188.071 555.844 187.28 555.324 186.735C554.805 186.178 554.096 185.899 553.196 185.899C552.284 185.899 551.556 186.184 551.011 186.754C550.479 187.324 550.213 188.154 550.213 189.243V195H548.484V184.588H550.213V186.07C550.555 185.538 551.018 185.126 551.6 184.835C552.196 184.544 552.848 184.398 553.557 184.398ZM559.992 189.756C559.992 188.692 560.207 187.761 560.638 186.963C561.068 186.152 561.657 185.525 562.405 185.082C563.165 184.639 564.013 184.417 564.951 184.417C565.761 184.417 566.515 184.607 567.212 184.987C567.908 185.354 568.44 185.842 568.808 186.45V180.94H570.556V195H568.808V193.043C568.466 193.664 567.959 194.177 567.288 194.582C566.616 194.975 565.831 195.171 564.932 195.171C564.007 195.171 563.165 194.943 562.405 194.487C561.657 194.031 561.068 193.391 560.638 192.568C560.207 191.745 559.992 190.807 559.992 189.756ZM568.808 189.775C568.808 188.99 568.649 188.306 568.333 187.723C568.016 187.14 567.585 186.697 567.041 186.393C566.509 186.076 565.92 185.918 565.274 185.918C564.628 185.918 564.039 186.07 563.507 186.374C562.975 186.678 562.55 187.121 562.234 187.704C561.917 188.287 561.759 188.971 561.759 189.756C561.759 190.554 561.917 191.251 562.234 191.846C562.55 192.429 562.975 192.878 563.507 193.195C564.039 193.499 564.628 193.651 565.274 193.651C565.92 193.651 566.509 193.499 567.041 193.195C567.585 192.878 568.016 192.429 568.333 191.846C568.649 191.251 568.808 190.56 568.808 189.775ZM577.897 189.756C577.897 188.692 578.112 187.761 578.543 186.963C578.974 186.152 579.563 185.525 580.31 185.082C581.07 184.639 581.912 184.417 582.837 184.417C583.749 184.417 584.541 184.613 585.212 185.006C585.883 185.399 586.384 185.893 586.713 186.488V184.588H588.461V195H586.713V193.062C586.371 193.67 585.858 194.177 585.174 194.582C584.503 194.975 583.717 195.171 582.818 195.171C581.893 195.171 581.057 194.943 580.31 194.487C579.563 194.031 578.974 193.391 578.543 192.568C578.112 191.745 577.897 190.807 577.897 189.756ZM586.713 189.775C586.713 188.99 586.555 188.306 586.238 187.723C585.921 187.14 585.491 186.697 584.946 186.393C584.414 186.076 583.825 185.918 583.179 185.918C582.533 185.918 581.944 186.07 581.412 186.374C580.88 186.678 580.456 187.121 580.139 187.704C579.822 188.287 579.664 188.971 579.664 189.756C579.664 190.554 579.822 191.251 580.139 191.846C580.456 192.429 580.88 192.878 581.412 193.195C581.944 193.499 582.533 193.651 583.179 193.651C583.825 193.651 584.414 193.499 584.946 193.195C585.491 192.878 585.921 192.429 586.238 191.846C586.555 191.251 586.713 190.56 586.713 189.775ZM595.069 195.171C594.271 195.171 593.555 195.038 592.922 194.772C592.289 194.493 591.788 194.113 591.421 193.632C591.054 193.138 590.851 192.574 590.813 191.941H592.599C592.65 192.46 592.89 192.885 593.321 193.214C593.764 193.543 594.341 193.708 595.05 193.708C595.709 193.708 596.228 193.562 596.608 193.271C596.988 192.98 597.178 192.612 597.178 192.169C597.178 191.713 596.975 191.377 596.57 191.162C596.165 190.934 595.538 190.712 594.689 190.497C593.916 190.294 593.283 190.092 592.789 189.889C592.308 189.674 591.89 189.363 591.535 188.958C591.193 188.54 591.022 187.995 591.022 187.324C591.022 186.792 591.18 186.304 591.497 185.861C591.814 185.418 592.263 185.069 592.846 184.816C593.429 184.55 594.094 184.417 594.841 184.417C595.994 184.417 596.925 184.708 597.634 185.291C598.343 185.874 598.723 186.672 598.774 187.685H597.045C597.007 187.14 596.785 186.703 596.38 186.374C595.987 186.045 595.455 185.88 594.784 185.88C594.163 185.88 593.669 186.013 593.302 186.279C592.935 186.545 592.751 186.893 592.751 187.324C592.751 187.666 592.859 187.951 593.074 188.179C593.302 188.394 593.581 188.572 593.91 188.711C594.252 188.838 594.721 188.983 595.316 189.148C596.063 189.351 596.671 189.553 597.14 189.756C597.609 189.946 598.008 190.237 598.337 190.63C598.679 191.023 598.856 191.536 598.869 192.169C598.869 192.739 598.711 193.252 598.394 193.708C598.077 194.164 597.628 194.525 597.045 194.791C596.475 195.044 595.816 195.171 595.069 195.171ZM610.061 195.171C609.263 195.171 608.547 195.038 607.914 194.772C607.281 194.493 606.78 194.113 606.413 193.632C606.046 193.138 605.843 192.574 605.805 191.941H607.591C607.642 192.46 607.882 192.885 608.313 193.214C608.756 193.543 609.333 193.708 610.042 193.708C610.701 193.708 611.22 193.562 611.6 193.271C611.98 192.98 612.17 192.612 612.17 192.169C612.17 191.713 611.967 191.377 611.562 191.162C611.157 190.934 610.53 190.712 609.681 190.497C608.908 190.294 608.275 190.092 607.781 189.889C607.3 189.674 606.882 189.363 606.527 188.958C606.185 188.54 606.014 187.995 606.014 187.324C606.014 186.792 606.172 186.304 606.489 185.861C606.806 185.418 607.255 185.069 607.838 184.816C608.421 184.55 609.086 184.417 609.833 184.417C610.986 184.417 611.917 184.708 612.626 185.291C613.335 185.874 613.715 186.672 613.766 187.685H612.037C611.999 187.14 611.777 186.703 611.372 186.374C610.979 186.045 610.447 185.88 609.776 185.88C609.155 185.88 608.661 186.013 608.294 186.279C607.927 186.545 607.743 186.893 607.743 187.324C607.743 187.666 607.851 187.951 608.066 188.179C608.294 188.394 608.573 188.572 608.902 188.711C609.244 188.838 609.713 188.983 610.308 189.148C611.055 189.351 611.663 189.553 612.132 189.756C612.601 189.946 613 190.237 613.329 190.63C613.671 191.023 613.848 191.536 613.861 192.169C613.861 192.739 613.703 193.252 613.386 193.708C613.069 194.164 612.62 194.525 612.037 194.791C611.467 195.044 610.808 195.171 610.061 195.171ZM620.843 195.171C619.868 195.171 618.981 194.949 618.183 194.506C617.398 194.063 616.777 193.436 616.321 192.625C615.878 191.802 615.656 190.852 615.656 189.775C615.656 188.711 615.884 187.774 616.34 186.963C616.809 186.14 617.442 185.513 618.24 185.082C619.038 184.639 619.931 184.417 620.919 184.417C621.907 184.417 622.8 184.639 623.598 185.082C624.396 185.513 625.023 186.133 625.479 186.944C625.948 187.755 626.182 188.698 626.182 189.775C626.182 190.852 625.941 191.802 625.46 192.625C624.991 193.436 624.352 194.063 623.541 194.506C622.73 194.949 621.831 195.171 620.843 195.171ZM620.843 193.651C621.464 193.651 622.046 193.505 622.591 193.214C623.136 192.923 623.573 192.486 623.902 191.903C624.244 191.32 624.415 190.611 624.415 189.775C624.415 188.939 624.25 188.23 623.921 187.647C623.592 187.064 623.161 186.634 622.629 186.355C622.097 186.064 621.521 185.918 620.9 185.918C620.267 185.918 619.684 186.064 619.152 186.355C618.633 186.634 618.215 187.064 617.898 187.647C617.581 188.23 617.423 188.939 617.423 189.775C617.423 190.624 617.575 191.339 617.879 191.922C618.196 192.505 618.614 192.942 619.133 193.233C619.652 193.512 620.222 193.651 620.843 193.651ZM632.996 195.171C632.021 195.171 631.134 194.949 630.336 194.506C629.551 194.063 628.93 193.436 628.474 192.625C628.031 191.802 627.809 190.852 627.809 189.775C627.809 188.711 628.037 187.774 628.493 186.963C628.962 186.14 629.595 185.513 630.393 185.082C631.191 184.639 632.084 184.417 633.072 184.417C634.06 184.417 634.953 184.639 635.751 185.082C636.549 185.513 637.176 186.133 637.632 186.944C638.101 187.755 638.335 188.698 638.335 189.775C638.335 190.852 638.095 191.802 637.613 192.625C637.145 193.436 636.505 194.063 635.694 194.506C634.884 194.949 633.984 195.171 632.996 195.171ZM632.996 193.651C633.617 193.651 634.2 193.505 634.744 193.214C635.289 192.923 635.726 192.486 636.055 191.903C636.397 191.32 636.568 190.611 636.568 189.775C636.568 188.939 636.404 188.23 636.074 187.647C635.745 187.064 635.314 186.634 634.782 186.355C634.25 186.064 633.674 185.918 633.053 185.918C632.42 185.918 631.837 186.064 631.305 186.355C630.786 186.634 630.368 187.064 630.051 187.647C629.735 188.23 629.576 188.939 629.576 189.775C629.576 190.624 629.728 191.339 630.032 191.922C630.349 192.505 630.767 192.942 631.286 193.233C631.806 193.512 632.376 193.651 632.996 193.651ZM645.682 184.398C646.948 184.398 647.974 184.784 648.76 185.557C649.545 186.317 649.938 187.419 649.938 188.863V195H648.228V189.11C648.228 188.071 647.968 187.28 647.449 186.735C646.929 186.178 646.22 185.899 645.321 185.899C644.409 185.899 643.68 186.184 643.136 186.754C642.604 187.324 642.338 188.154 642.338 189.243V195H640.609V184.588H642.338V186.07C642.68 185.538 643.142 185.126 643.725 184.835C644.32 184.544 644.972 184.398 645.682 184.398ZM657.181 189.756C657.181 188.692 657.397 187.761 657.827 186.963C658.258 186.152 658.847 185.525 659.594 185.082C660.354 184.639 661.197 184.417 662.121 184.417C663.033 184.417 663.825 184.613 664.496 185.006C665.168 185.399 665.668 185.893 665.997 186.488V184.588H667.745V195H665.997V193.062C665.655 193.67 665.142 194.177 664.458 194.582C663.787 194.975 663.002 195.171 662.102 195.171C661.178 195.171 660.342 194.943 659.594 194.487C658.847 194.031 658.258 193.391 657.827 192.568C657.397 191.745 657.181 190.807 657.181 189.756ZM665.997 189.775C665.997 188.99 665.839 188.306 665.522 187.723C665.206 187.14 664.775 186.697 664.23 186.393C663.698 186.076 663.109 185.918 662.463 185.918C661.817 185.918 661.228 186.07 660.696 186.374C660.164 186.678 659.74 187.121 659.423 187.704C659.107 188.287 658.948 188.971 658.948 189.756C658.948 190.554 659.107 191.251 659.423 191.846C659.74 192.429 660.164 192.878 660.696 193.195C661.228 193.499 661.817 193.651 662.463 193.651C663.109 193.651 663.698 193.499 664.23 193.195C664.775 192.878 665.206 192.429 665.522 191.846C665.839 191.251 665.997 190.56 665.997 189.775ZM674.353 195.171C673.555 195.171 672.839 195.038 672.206 194.772C671.573 194.493 671.072 194.113 670.705 193.632C670.338 193.138 670.135 192.574 670.097 191.941H671.883C671.934 192.46 672.174 192.885 672.605 193.214C673.048 193.543 673.625 193.708 674.334 193.708C674.993 193.708 675.512 193.562 675.892 193.271C676.272 192.98 676.462 192.612 676.462 192.169C676.462 191.713 676.259 191.377 675.854 191.162C675.449 190.934 674.822 190.712 673.973 190.497C673.2 190.294 672.567 190.092 672.073 189.889C671.592 189.674 671.174 189.363 670.819 188.958C670.477 188.54 670.306 187.995 670.306 187.324C670.306 186.792 670.464 186.304 670.781 185.861C671.098 185.418 671.547 185.069 672.13 184.816C672.713 184.55 673.378 184.417 674.125 184.417C675.278 184.417 676.209 184.708 676.918 185.291C677.627 185.874 678.007 186.672 678.058 187.685H676.329C676.291 187.14 676.069 186.703 675.664 186.374C675.271 186.045 674.739 185.88 674.068 185.88C673.447 185.88 672.953 186.013 672.586 186.279C672.219 186.545 672.035 186.893 672.035 187.324C672.035 187.666 672.143 187.951 672.358 188.179C672.586 188.394 672.865 188.572 673.194 188.711C673.536 188.838 674.005 188.983 674.6 189.148C675.347 189.351 675.955 189.553 676.424 189.756C676.893 189.946 677.292 190.237 677.621 190.63C677.963 191.023 678.14 191.536 678.153 192.169C678.153 192.739 677.995 193.252 677.678 193.708C677.361 194.164 676.912 194.525 676.329 194.791C675.759 195.044 675.1 195.171 674.353 195.171ZM686.552 182.897C686.223 182.897 685.944 182.783 685.716 182.555C685.488 182.327 685.374 182.048 685.374 181.719C685.374 181.39 685.488 181.111 685.716 180.883C685.944 180.655 686.223 180.541 686.552 180.541C686.869 180.541 687.135 180.655 687.35 180.883C687.578 181.111 687.692 181.39 687.692 181.719C687.692 182.048 687.578 182.327 687.35 182.555C687.135 182.783 686.869 182.897 686.552 182.897ZM687.388 184.588V195H685.659V184.588H687.388ZM692.444 186.013V192.15C692.444 192.657 692.552 193.018 692.767 193.233C692.982 193.436 693.356 193.537 693.888 193.537H695.161V195H693.603C692.64 195 691.918 194.778 691.437 194.335C690.956 193.892 690.715 193.163 690.715 192.15V186.013H689.366V184.588H690.715V181.966H692.444V184.588H695.161V186.013H692.444ZM706.756 189.395C706.756 189.724 706.737 190.073 706.699 190.44H698.377C698.44 191.466 698.789 192.27 699.422 192.853C700.068 193.423 700.847 193.708 701.759 193.708C702.506 193.708 703.127 193.537 703.621 193.195C704.128 192.84 704.482 192.372 704.685 191.789H706.547C706.268 192.79 705.711 193.607 704.875 194.24C704.039 194.861 703 195.171 701.759 195.171C700.771 195.171 699.884 194.949 699.099 194.506C698.326 194.063 697.718 193.436 697.275 192.625C696.832 191.802 696.61 190.852 696.61 189.775C696.61 188.698 696.825 187.755 697.256 186.944C697.687 186.133 698.288 185.513 699.061 185.082C699.846 184.639 700.746 184.417 701.759 184.417C702.747 184.417 703.621 184.632 704.381 185.063C705.141 185.494 705.724 186.089 706.129 186.849C706.547 187.596 706.756 188.445 706.756 189.395ZM704.97 189.034C704.97 188.375 704.824 187.812 704.533 187.343C704.242 186.862 703.843 186.501 703.336 186.26C702.842 186.007 702.291 185.88 701.683 185.88C700.809 185.88 700.062 186.159 699.441 186.716C698.833 187.273 698.485 188.046 698.396 189.034H704.97ZM721.559 184.398C722.37 184.398 723.092 184.569 723.725 184.911C724.359 185.24 724.859 185.741 725.226 186.412C725.594 187.083 725.777 187.9 725.777 188.863V195H724.067V189.11C724.067 188.071 723.808 187.28 723.288 186.735C722.782 186.178 722.091 185.899 721.217 185.899C720.318 185.899 719.602 186.19 719.07 186.773C718.538 187.343 718.272 188.173 718.272 189.262V195H716.562V189.11C716.562 188.071 716.303 187.28 715.783 186.735C715.277 186.178 714.586 185.899 713.712 185.899C712.813 185.899 712.097 186.19 711.565 186.773C711.033 187.343 710.767 188.173 710.767 189.262V195H709.038V184.588H710.767V186.089C711.109 185.544 711.565 185.126 712.135 184.835C712.718 184.544 713.358 184.398 714.054 184.398C714.928 184.398 715.701 184.594 716.372 184.987C717.044 185.38 717.544 185.956 717.873 186.716C718.165 185.981 718.646 185.411 719.317 185.006C719.989 184.601 720.736 184.398 721.559 184.398ZM735.408 186.279C735.712 185.684 736.142 185.221 736.7 184.892C737.27 184.563 737.96 184.398 738.771 184.398V186.184H738.315C736.377 186.184 735.408 187.235 735.408 189.338V195H733.679V184.588H735.408V186.279ZM750.267 189.395C750.267 189.724 750.248 190.073 750.21 190.44H741.888C741.951 191.466 742.299 192.27 742.933 192.853C743.579 193.423 744.358 193.708 745.27 193.708C746.017 193.708 746.638 193.537 747.132 193.195C747.638 192.84 747.993 192.372 748.196 191.789H750.058C749.779 192.79 749.222 193.607 748.386 194.24C747.55 194.861 746.511 195.171 745.27 195.171C744.282 195.171 743.395 194.949 742.61 194.506C741.837 194.063 741.229 193.436 740.786 192.625C740.342 191.802 740.121 190.852 740.121 189.775C740.121 188.698 740.336 187.755 740.767 186.944C741.197 186.133 741.799 185.513 742.572 185.082C743.357 184.639 744.256 184.417 745.27 184.417C746.258 184.417 747.132 184.632 747.892 185.063C748.652 185.494 749.234 186.089 749.64 186.849C750.058 187.596 750.267 188.445 750.267 189.395ZM748.481 189.034C748.481 188.375 748.335 187.812 748.044 187.343C747.752 186.862 747.353 186.501 746.847 186.26C746.353 186.007 745.802 185.88 745.194 185.88C744.32 185.88 743.572 186.159 742.952 186.716C742.344 187.273 741.995 188.046 741.907 189.034H748.481ZM756.235 195.171C755.437 195.171 754.721 195.038 754.088 194.772C753.455 194.493 752.954 194.113 752.587 193.632C752.22 193.138 752.017 192.574 751.979 191.941H753.765C753.816 192.46 754.056 192.885 754.487 193.214C754.93 193.543 755.507 193.708 756.216 193.708C756.875 193.708 757.394 193.562 757.774 193.271C758.154 192.98 758.344 192.612 758.344 192.169C758.344 191.713 758.141 191.377 757.736 191.162C757.331 190.934 756.704 190.712 755.855 190.497C755.082 190.294 754.449 190.092 753.955 189.889C753.474 189.674 753.056 189.363 752.701 188.958C752.359 188.54 752.188 187.995 752.188 187.324C752.188 186.792 752.346 186.304 752.663 185.861C752.98 185.418 753.429 185.069 754.012 184.816C754.595 184.55 755.26 184.417 756.007 184.417C757.16 184.417 758.091 184.708 758.8 185.291C759.509 185.874 759.889 186.672 759.94 187.685H758.211C758.173 187.14 757.951 186.703 757.546 186.374C757.153 186.045 756.621 185.88 755.95 185.88C755.329 185.88 754.835 186.013 754.468 186.279C754.101 186.545 753.917 186.893 753.917 187.324C753.917 187.666 754.025 187.951 754.24 188.179C754.468 188.394 754.747 188.572 755.076 188.711C755.418 188.838 755.887 188.983 756.482 189.148C757.229 189.351 757.837 189.553 758.306 189.756C758.775 189.946 759.174 190.237 759.503 190.63C759.845 191.023 760.022 191.536 760.035 192.169C760.035 192.739 759.877 193.252 759.56 193.708C759.243 194.164 758.794 194.525 758.211 194.791C757.641 195.044 756.982 195.171 756.235 195.171ZM764.585 186.013V192.15C764.585 192.657 764.692 193.018 764.908 193.233C765.123 193.436 765.497 193.537 766.029 193.537H767.302V195H765.744C764.781 195 764.059 194.778 763.578 194.335C763.096 193.892 762.856 193.163 762.856 192.15V186.013H761.507V184.588H762.856V181.966H764.585V184.588H767.302V186.013H764.585ZM773.938 195.171C772.962 195.171 772.076 194.949 771.278 194.506C770.492 194.063 769.872 193.436 769.416 192.625C768.972 191.802 768.751 190.852 768.751 189.775C768.751 188.711 768.979 187.774 769.435 186.963C769.903 186.14 770.537 185.513 771.335 185.082C772.133 184.639 773.026 184.417 774.014 184.417C775.002 184.417 775.895 184.639 776.693 185.082C777.491 185.513 778.118 186.133 778.574 186.944C779.042 187.755 779.277 188.698 779.277 189.775C779.277 190.852 779.036 191.802 778.555 192.625C778.086 193.436 777.446 194.063 776.636 194.506C775.825 194.949 774.926 195.171 773.938 195.171ZM773.938 193.651C774.558 193.651 775.141 193.505 775.686 193.214C776.23 192.923 776.667 192.486 776.997 191.903C777.339 191.32 777.51 190.611 777.51 189.775C777.51 188.939 777.345 188.23 777.016 187.647C776.686 187.064 776.256 186.634 775.724 186.355C775.192 186.064 774.615 185.918 773.995 185.918C773.361 185.918 772.779 186.064 772.247 186.355C771.727 186.634 771.309 187.064 770.993 187.647C770.676 188.23 770.518 188.939 770.518 189.775C770.518 190.624 770.67 191.339 770.974 191.922C771.29 192.505 771.708 192.942 772.228 193.233C772.747 193.512 773.317 193.651 773.938 193.651ZM780.904 189.775C780.904 188.698 781.119 187.761 781.55 186.963C781.981 186.152 782.576 185.525 783.336 185.082C784.109 184.639 784.989 184.417 785.977 184.417C787.256 184.417 788.308 184.727 789.131 185.348C789.967 185.969 790.518 186.83 790.784 187.932H788.922C788.745 187.299 788.396 186.798 787.877 186.431C787.37 186.064 786.737 185.88 785.977 185.88C784.989 185.88 784.191 186.222 783.583 186.906C782.975 187.577 782.671 188.534 782.671 189.775C782.671 191.029 782.975 191.998 783.583 192.682C784.191 193.366 784.989 193.708 785.977 193.708C786.737 193.708 787.37 193.531 787.877 193.176C788.384 192.821 788.732 192.315 788.922 191.656H790.784C790.505 192.72 789.948 193.575 789.112 194.221C788.276 194.854 787.231 195.171 785.977 195.171C784.989 195.171 784.109 194.949 783.336 194.506C782.576 194.063 781.981 193.436 781.55 192.625C781.119 191.814 780.904 190.864 780.904 189.775ZM798.905 195L794.82 190.402V195H793.091V180.94H794.82V189.205L798.829 184.588H801.242L796.34 189.775L801.261 195H798.905ZM806.555 195.171C805.757 195.171 805.042 195.038 804.408 194.772C803.775 194.493 803.275 194.113 802.907 193.632C802.54 193.138 802.337 192.574 802.299 191.941H804.085C804.136 192.46 804.377 192.885 804.807 193.214C805.251 193.543 805.827 193.708 806.536 193.708C807.195 193.708 807.714 193.562 808.094 193.271C808.474 192.98 808.664 192.612 808.664 192.169C808.664 191.713 808.462 191.377 808.056 191.162C807.651 190.934 807.024 190.712 806.175 190.497C805.403 190.294 804.769 190.092 804.275 189.889C803.794 189.674 803.376 189.363 803.021 188.958C802.679 188.54 802.508 187.995 802.508 187.324C802.508 186.792 802.667 186.304 802.983 185.861C803.3 185.418 803.75 185.069 804.332 184.816C804.915 184.55 805.58 184.417 806.327 184.417C807.48 184.417 808.411 184.708 809.12 185.291C809.83 185.874 810.21 186.672 810.26 187.685H808.531C808.493 187.14 808.272 186.703 807.866 186.374C807.474 186.045 806.942 185.88 806.27 185.88C805.65 185.88 805.156 186.013 804.788 186.279C804.421 186.545 804.237 186.893 804.237 187.324C804.237 187.666 804.345 187.951 804.56 188.179C804.788 188.394 805.067 188.572 805.396 188.711C805.738 188.838 806.207 188.983 806.802 189.148C807.55 189.351 808.158 189.553 808.626 189.756C809.095 189.946 809.494 190.237 809.823 190.63C810.165 191.023 810.343 191.536 810.355 192.169C810.355 192.739 810.197 193.252 809.88 193.708C809.564 194.164 809.114 194.525 808.531 194.791C807.961 195.044 807.303 195.171 806.555 195.171ZM819.97 186.013V192.15C819.97 192.657 820.078 193.018 820.293 193.233C820.509 193.436 820.882 193.537 821.414 193.537H822.687V195H821.129C820.167 195 819.445 194.778 818.963 194.335C818.482 193.892 818.241 193.163 818.241 192.15V186.013H816.892V184.588H818.241V181.966H819.97V184.588H822.687V186.013H819.97ZM829.95 184.398C830.736 184.398 831.445 184.569 832.078 184.911C832.712 185.24 833.206 185.741 833.56 186.412C833.928 187.083 834.111 187.9 834.111 188.863V195H832.401V189.11C832.401 188.071 832.142 187.28 831.622 186.735C831.103 186.178 830.394 185.899 829.494 185.899C828.582 185.899 827.854 186.184 827.309 186.754C826.777 187.324 826.511 188.154 826.511 189.243V195H824.782V180.94H826.511V186.07C826.853 185.538 827.322 185.126 827.917 184.835C828.525 184.544 829.203 184.398 829.95 184.398ZM846.436 189.395C846.436 189.724 846.417 190.073 846.379 190.44H838.057C838.12 191.466 838.468 192.27 839.102 192.853C839.748 193.423 840.527 193.708 841.439 193.708C842.186 193.708 842.807 193.537 843.301 193.195C843.807 192.84 844.162 192.372 844.365 191.789H846.227C845.948 192.79 845.391 193.607 844.555 194.24C843.719 194.861 842.68 195.171 841.439 195.171C840.451 195.171 839.564 194.949 838.779 194.506C838.006 194.063 837.398 193.436 836.955 192.625C836.511 191.802 836.29 190.852 836.29 189.775C836.29 188.698 836.505 187.755 836.936 186.944C837.366 186.133 837.968 185.513 838.741 185.082C839.526 184.639 840.425 184.417 841.439 184.417C842.427 184.417 843.301 184.632 844.061 185.063C844.821 185.494 845.403 186.089 845.809 186.849C846.227 187.596 846.436 188.445 846.436 189.395ZM844.65 189.034C844.65 188.375 844.504 187.812 844.213 187.343C843.921 186.862 843.522 186.501 843.016 186.26C842.522 186.007 841.971 185.88 841.363 185.88C840.489 185.88 839.741 186.159 839.121 186.716C838.513 187.273 838.164 188.046 838.076 189.034H844.65ZM356.363 215.526C356.718 214.905 357.237 214.399 357.921 214.006C358.605 213.613 359.384 213.417 360.258 213.417C361.196 213.417 362.038 213.639 362.785 214.082C363.533 214.525 364.122 215.152 364.552 215.963C364.983 216.761 365.198 217.692 365.198 218.756C365.198 219.807 364.983 220.745 364.552 221.568C364.122 222.391 363.526 223.031 362.766 223.487C362.019 223.943 361.183 224.171 360.258 224.171C359.359 224.171 358.567 223.975 357.883 223.582C357.212 223.189 356.705 222.689 356.363 222.081V224H354.634V209.94H356.363V215.526ZM363.431 218.756C363.431 217.971 363.273 217.287 362.956 216.704C362.64 216.121 362.209 215.678 361.664 215.374C361.132 215.07 360.543 214.918 359.897 214.918C359.264 214.918 358.675 215.076 358.13 215.393C357.598 215.697 357.168 216.147 356.838 216.742C356.522 217.325 356.363 218.002 356.363 218.775C356.363 219.56 356.522 220.251 356.838 220.846C357.168 221.429 357.598 221.878 358.13 222.195C358.675 222.499 359.264 222.651 359.897 222.651C360.543 222.651 361.132 222.499 361.664 222.195C362.209 221.878 362.64 221.429 362.956 220.846C363.273 220.251 363.431 219.554 363.431 218.756ZM372.015 224.171C371.04 224.171 370.153 223.949 369.355 223.506C368.57 223.063 367.949 222.436 367.493 221.625C367.05 220.802 366.828 219.852 366.828 218.775C366.828 217.711 367.056 216.774 367.512 215.963C367.981 215.14 368.614 214.513 369.412 214.082C370.21 213.639 371.103 213.417 372.091 213.417C373.079 213.417 373.972 213.639 374.77 214.082C375.568 214.513 376.195 215.133 376.651 215.944C377.12 216.755 377.354 217.698 377.354 218.775C377.354 219.852 377.114 220.802 376.632 221.625C376.164 222.436 375.524 223.063 374.713 223.506C373.903 223.949 373.003 224.171 372.015 224.171ZM372.015 222.651C372.636 222.651 373.219 222.505 373.763 222.214C374.308 221.923 374.745 221.486 375.074 220.903C375.416 220.32 375.587 219.611 375.587 218.775C375.587 217.939 375.423 217.23 375.093 216.647C374.764 216.064 374.333 215.634 373.801 215.355C373.269 215.064 372.693 214.918 372.072 214.918C371.439 214.918 370.856 215.064 370.324 215.355C369.805 215.634 369.387 216.064 369.07 216.647C368.754 217.23 368.595 217.939 368.595 218.775C368.595 219.624 368.747 220.339 369.051 220.922C369.368 221.505 369.786 221.942 370.305 222.233C370.825 222.512 371.395 222.651 372.015 222.651ZM381.737 215.013V221.15C381.737 221.657 381.844 222.018 382.06 222.233C382.275 222.436 382.649 222.537 383.181 222.537H384.454V224H382.896C381.933 224 381.211 223.778 380.73 223.335C380.248 222.892 380.008 222.163 380.008 221.15V215.013H378.659V213.588H380.008V210.966H381.737V213.588H384.454V215.013H381.737ZM390.968 218.775C390.968 217.698 391.183 216.761 391.614 215.963C392.045 215.152 392.64 214.525 393.4 214.082C394.173 213.639 395.053 213.417 396.041 213.417C397.32 213.417 398.372 213.727 399.195 214.348C400.031 214.969 400.582 215.83 400.848 216.932H398.986C398.809 216.299 398.46 215.798 397.941 215.431C397.434 215.064 396.801 214.88 396.041 214.88C395.053 214.88 394.255 215.222 393.647 215.906C393.039 216.577 392.735 217.534 392.735 218.775C392.735 220.029 393.039 220.998 393.647 221.682C394.255 222.366 395.053 222.708 396.041 222.708C396.801 222.708 397.434 222.531 397.941 222.176C398.448 221.821 398.796 221.315 398.986 220.656H400.848C400.569 221.72 400.012 222.575 399.176 223.221C398.34 223.854 397.295 224.171 396.041 224.171C395.053 224.171 394.173 223.949 393.4 223.506C392.64 223.063 392.045 222.436 391.614 221.625C391.183 220.814 390.968 219.864 390.968 218.775ZM408.323 213.398C409.108 213.398 409.818 213.569 410.451 213.911C411.084 214.24 411.578 214.741 411.933 215.412C412.3 216.083 412.484 216.9 412.484 217.863V224H410.774V218.11C410.774 217.071 410.514 216.28 409.995 215.735C409.476 215.178 408.766 214.899 407.867 214.899C406.955 214.899 406.227 215.184 405.682 215.754C405.15 216.324 404.884 217.154 404.884 218.243V224H403.155V209.94H404.884V215.07C405.226 214.538 405.695 214.126 406.29 213.835C406.898 213.544 407.576 213.398 408.323 213.398ZM424.808 218.395C424.808 218.724 424.789 219.073 424.751 219.44H416.429C416.493 220.466 416.841 221.27 417.474 221.853C418.12 222.423 418.899 222.708 419.811 222.708C420.559 222.708 421.179 222.537 421.673 222.195C422.18 221.84 422.535 221.372 422.737 220.789H424.599C424.321 221.79 423.763 222.607 422.927 223.24C422.091 223.861 421.053 224.171 419.811 224.171C418.823 224.171 417.937 223.949 417.151 223.506C416.379 223.063 415.771 222.436 415.327 221.625C414.884 220.802 414.662 219.852 414.662 218.775C414.662 217.698 414.878 216.755 415.308 215.944C415.739 215.133 416.341 214.513 417.113 214.082C417.899 213.639 418.798 213.417 419.811 213.417C420.799 213.417 421.673 213.632 422.433 214.063C423.193 214.494 423.776 215.089 424.181 215.849C424.599 216.596 424.808 217.445 424.808 218.395ZM423.022 218.034C423.022 217.375 422.877 216.812 422.585 216.343C422.294 215.862 421.895 215.501 421.388 215.26C420.894 215.007 420.343 214.88 419.735 214.88C418.861 214.88 418.114 215.159 417.493 215.716C416.885 216.273 416.537 217.046 416.448 218.034H423.022ZM426.444 218.775C426.444 217.698 426.66 216.761 427.09 215.963C427.521 215.152 428.116 214.525 428.876 214.082C429.649 213.639 430.529 213.417 431.517 213.417C432.797 213.417 433.848 213.727 434.671 214.348C435.507 214.969 436.058 215.83 436.324 216.932H434.462C434.285 216.299 433.937 215.798 433.417 215.431C432.911 215.064 432.277 214.88 431.517 214.88C430.529 214.88 429.731 215.222 429.123 215.906C428.515 216.577 428.211 217.534 428.211 218.775C428.211 220.029 428.515 220.998 429.123 221.682C429.731 222.366 430.529 222.708 431.517 222.708C432.277 222.708 432.911 222.531 433.417 222.176C433.924 221.821 434.272 221.315 434.462 220.656H436.324C436.046 221.72 435.488 222.575 434.652 223.221C433.816 223.854 432.771 224.171 431.517 224.171C430.529 224.171 429.649 223.949 428.876 223.506C428.116 223.063 427.521 222.436 427.09 221.625C426.66 220.814 426.444 219.864 426.444 218.775ZM444.445 224L440.36 219.402V224H438.631V209.94H440.36V218.205L444.369 213.588H446.782L441.88 218.775L446.801 224H444.445ZM452.096 224.171C451.298 224.171 450.582 224.038 449.949 223.772C449.315 223.493 448.815 223.113 448.448 222.632C448.08 222.138 447.878 221.574 447.84 220.941H449.626C449.676 221.46 449.917 221.885 450.348 222.214C450.791 222.543 451.367 222.708 452.077 222.708C452.735 222.708 453.255 222.562 453.635 222.271C454.015 221.98 454.205 221.612 454.205 221.169C454.205 220.713 454.002 220.377 453.597 220.162C453.191 219.934 452.564 219.712 451.716 219.497C450.943 219.294 450.31 219.092 449.816 218.889C449.334 218.674 448.916 218.363 448.562 217.958C448.22 217.54 448.049 216.995 448.049 216.324C448.049 215.792 448.207 215.304 448.524 214.861C448.84 214.418 449.29 214.069 449.873 213.816C450.455 213.55 451.12 213.417 451.868 213.417C453.02 213.417 453.951 213.708 454.661 214.291C455.37 214.874 455.75 215.672 455.801 216.685H454.072C454.034 216.14 453.812 215.703 453.407 215.374C453.014 215.045 452.482 214.88 451.811 214.88C451.19 214.88 450.696 215.013 450.329 215.279C449.961 215.545 449.778 215.893 449.778 216.324C449.778 216.666 449.885 216.951 450.101 217.179C450.329 217.394 450.607 217.572 450.937 217.711C451.279 217.838 451.747 217.983 452.343 218.148C453.09 218.351 453.698 218.553 454.167 218.756C454.635 218.946 455.034 219.237 455.364 219.63C455.706 220.023 455.883 220.536 455.896 221.169C455.896 221.739 455.737 222.252 455.421 222.708C455.104 223.164 454.654 223.525 454.072 223.791C453.502 224.044 452.843 224.171 452.096 224.171ZM464.295 211.897C463.966 211.897 463.687 211.783 463.459 211.555C463.231 211.327 463.117 211.048 463.117 210.719C463.117 210.39 463.231 210.111 463.459 209.883C463.687 209.655 463.966 209.541 464.295 209.541C464.612 209.541 464.878 209.655 465.093 209.883C465.321 210.111 465.435 210.39 465.435 210.719C465.435 211.048 465.321 211.327 465.093 211.555C464.878 211.783 464.612 211.897 464.295 211.897ZM465.131 213.588V224H463.402V213.588H465.131ZM470.187 215.013V221.15C470.187 221.657 470.294 222.018 470.51 222.233C470.725 222.436 471.099 222.537 471.631 222.537H472.904V224H471.346C470.383 224 469.661 223.778 469.18 223.335C468.698 222.892 468.458 222.163 468.458 221.15V215.013H467.109V213.588H468.458V210.966H470.187V213.588H472.904V215.013H470.187ZM484.605 224.171C483.63 224.171 482.743 223.949 481.945 223.506C481.16 223.063 480.539 222.436 480.083 221.625C479.64 220.802 479.418 219.852 479.418 218.775C479.418 217.711 479.646 216.774 480.102 215.963C480.571 215.14 481.204 214.513 482.002 214.082C482.8 213.639 483.693 213.417 484.681 213.417C485.669 213.417 486.562 213.639 487.36 214.082C488.158 214.513 488.785 215.133 489.241 215.944C489.71 216.755 489.944 217.698 489.944 218.775C489.944 219.852 489.703 220.802 489.222 221.625C488.753 222.436 488.114 223.063 487.303 223.506C486.492 223.949 485.593 224.171 484.605 224.171ZM484.605 222.651C485.226 222.651 485.808 222.505 486.353 222.214C486.898 221.923 487.335 221.486 487.664 220.903C488.006 220.32 488.177 219.611 488.177 218.775C488.177 217.939 488.012 217.23 487.683 216.647C487.354 216.064 486.923 215.634 486.391 215.355C485.859 215.064 485.283 214.918 484.662 214.918C484.029 214.918 483.446 215.064 482.914 215.355C482.395 215.634 481.977 216.064 481.66 216.647C481.343 217.23 481.185 217.939 481.185 218.775C481.185 219.624 481.337 220.339 481.641 220.922C481.958 221.505 482.376 221.942 482.895 222.233C483.414 222.512 483.984 222.651 484.605 222.651ZM501.451 213.588V224H499.722V222.461C499.393 222.993 498.931 223.411 498.335 223.715C497.753 224.006 497.107 224.152 496.397 224.152C495.587 224.152 494.858 223.987 494.212 223.658C493.566 223.316 493.053 222.809 492.673 222.138C492.306 221.467 492.122 220.65 492.122 219.687V213.588H493.832V219.459C493.832 220.485 494.092 221.277 494.611 221.834C495.131 222.379 495.84 222.651 496.739 222.651C497.664 222.651 498.392 222.366 498.924 221.796C499.456 221.226 499.722 220.396 499.722 219.307V213.588H501.451ZM506.48 215.013V221.15C506.48 221.657 506.587 222.018 506.803 222.233C507.018 222.436 507.392 222.537 507.924 222.537H509.197V224H507.639C506.676 224 505.954 223.778 505.473 223.335C504.991 222.892 504.751 222.163 504.751 221.15V215.013H503.402V213.588H504.751V210.966H506.48V213.588H509.197V215.013H506.48Z" fill="#B2BDB8"/>
<defs>
<linearGradient id="paint0_linear_67_22" x1="34.7369" y1="57.6521" x2="657.584" y2="380.568" gradientUnits="userSpaceOnUse">
<stop stop-color="#5BFFAC"/>
<stop offset="0.9999" stop-color="#78FA52"/>
<stop offset="1" stop-color="#78FA52"/>
</linearGradient>
</defs>
</svg>
