<svg width="336" height="119" viewBox="0 0 336 119" fill="none" xmlns="http://www.w3.org/2000/svg">
  <path
    d="M56.5724 41.4202C56.5724 45.7781 55.7647 49.4507 54.1493 52.4379C52.534 55.4252 50.3568 57.8326 47.6177 59.6601C44.8786 61.4876 41.7182 62.8231 38.1363 63.6665C34.5544 64.51 30.8321 64.9317 26.9693 64.9317H23.4369C20.4423 64.9317 18.0147 67.3594 18.0147 70.354V89.4675C18.0147 91.4639 16.3962 93.0824 14.3998 93.0824H0V23.8581C0 20.8634 2.42763 18.4358 5.42227 18.4358H27.3907C31.4642 18.4358 35.2743 18.84 38.8211 19.6483C42.3678 20.4566 45.458 21.7569 48.0918 23.5493C50.7255 25.3417 52.7974 27.6963 54.3074 30.6133C55.8174 33.5303 56.5724 37.1326 56.5724 41.4202ZM38.6789 41.5795C38.6789 39.8298 38.3266 38.395 37.6222 37.2752C36.9178 36.1554 35.9668 35.2805 34.7693 34.6506C33.5717 34.0208 32.2157 33.6008 30.7012 33.3909C29.1866 33.1809 27.6193 33.0759 25.9991 33.0759H21.6891C19.6927 33.0759 18.0742 34.6943 18.0742 36.6908V50.6079H25.6821C27.3727 50.6079 28.9929 50.4679 30.5427 50.188C32.0924 49.908 33.4837 49.4181 34.7164 48.7182C35.9492 48.0184 36.9178 47.091 37.6222 45.9362C38.3266 44.7814 38.6789 43.3292 38.6789 41.5795Z"
    fill="white" />
  <path
    d="M97.3645 93.0956V85.8262H97.1537C96.5216 87.0202 95.6963 88.144 94.6779 89.1975C93.6595 90.2511 92.4655 91.1641 91.0958 91.9367C89.7262 92.7094 88.2161 93.3415 86.5656 93.8331C84.915 94.3248 83.1767 94.5706 81.3505 94.5706C77.8387 94.5706 74.8712 93.9385 72.448 92.6742C70.0248 91.41 68.0582 89.777 66.5481 87.7752C65.038 85.7735 63.9494 83.4908 63.2821 80.9272C62.6149 78.3635 62.2812 75.7472 62.2812 73.0782V46.0512C62.2812 43.0565 64.7089 40.6289 67.7035 40.6289H79.6648V69.0747C79.6648 70.5497 79.7702 71.9544 79.9809 73.2889C80.1916 74.6234 80.5955 75.8174 81.1925 76.871C81.7895 77.9245 82.5796 78.7498 83.563 79.3468C84.5463 79.9438 85.8456 80.2424 87.4611 80.2424C90.4813 80.2424 92.7815 79.1186 94.3618 76.871C95.9422 74.6234 96.7323 71.9895 96.7323 68.9694V46.0512C96.7323 43.0565 99.16 40.6289 102.155 40.6289H114.011V87.6734C114.011 90.668 111.583 93.0956 108.588 93.0956H97.3645Z"
    fill="white" />
  <path
    d="M122.356 93.0956V18.8695C122.356 15.8749 124.784 13.4473 127.779 13.4473H139.845V87.6733C139.845 90.6679 137.418 93.0956 134.423 93.0956H122.356Z"
    fill="white" />
  <path
    d="M178.528 53.5541C178.002 53.2235 177.523 52.9537 177.088 52.7446C175.192 51.8315 173.19 51.375 171.083 51.375C169.468 51.375 167.975 51.6911 166.605 52.3232C165.236 52.9553 164.551 54.044 164.551 55.5892C164.551 57.0642 165.306 58.1177 166.816 58.7498C168.326 59.382 170.767 60.0843 174.138 60.8569C176.105 61.2784 178.089 61.8754 180.091 62.648C182.093 63.4206 183.901 64.439 185.517 65.7033C187.132 66.9675 188.432 68.5127 189.415 70.3389C190.398 72.165 190.89 74.3424 190.89 76.8709C190.89 80.172 190.223 82.9639 188.888 85.2466C187.554 87.5293 185.815 89.373 183.673 90.7778C181.531 92.1825 179.125 93.2009 176.456 93.833C173.787 94.4652 171.118 94.7812 168.449 94.7812C164.165 94.7812 159.968 94.0964 155.859 92.7268C151.75 91.3572 148.326 89.3379 145.587 86.6689L151.83 80.0865C153.685 78.1303 156.695 77.8339 158.895 79.3904C159.655 79.928 160.346 80.3524 160.969 80.6637C163.217 81.7875 165.605 82.3494 168.133 82.3494C169.538 82.3494 170.925 82.0157 172.295 81.3485C173.664 80.6812 174.349 79.5048 174.349 77.8191C174.349 76.2037 173.506 75.0096 171.821 74.237C170.135 73.4644 167.501 72.6567 163.919 71.8139C162.093 71.3924 160.267 70.8305 158.44 70.1282C156.614 69.4258 154.981 68.4776 153.541 67.2836C152.102 66.0896 150.925 64.6146 150.012 62.8587C149.099 61.1028 148.642 58.9957 148.642 56.5374C148.642 53.3767 149.31 50.6902 150.644 48.4777C151.979 46.2653 153.699 44.4567 155.807 43.052C157.914 41.6472 160.249 40.6112 162.813 39.944C165.376 39.2767 167.922 38.9431 170.451 38.9431C174.384 38.9431 178.23 39.5577 181.987 40.7868C185.745 42.016 188.923 43.8597 191.522 46.318L185.312 52.7353C183.528 54.5783 180.698 54.9198 178.528 53.5541Z"
    fill="white" />
  <path
    d="M234.403 58.0745C234.316 57.5928 234.264 57.3292 234.248 57.2837C233.804 56.0058 233.057 54.985 232.384 54.2608C230.488 52.2203 228.081 51.3308 224.64 51.3308C222.954 51.3308 221.409 51.5924 220.004 52.1156C218.599 52.6388 217.37 53.3539 216.316 54.2608C215.262 55.1676 214.42 56.2315 213.787 57.4523C213.155 58.6731 212.804 59.9462 212.734 61.2717H231.736C233.234 61.2716 234.447 60.0578 234.447 58.5605C234.447 58.3975 234.433 58.2349 234.403 58.0745ZM250.223 65.7976C250.223 65.8997 250.223 66.0019 250.223 66.104C250.223 69.0986 247.795 71.5262 244.8 71.5262H212.13C212.271 73.0015 212.71 74.3363 213.449 75.5305C214.188 76.7248 215.137 77.761 216.298 78.6391C217.459 79.5173 218.76 80.2022 220.202 80.694C221.644 81.1857 223.139 81.4316 224.687 81.4316C227.43 81.4316 229.752 80.9223 231.651 79.9036C232.444 79.4782 233.348 78.8022 234.362 77.8758C235.564 76.778 237.351 76.6189 238.728 77.4871L248.323 83.5391C245.861 87.1219 242.608 89.8792 238.563 91.8111C234.518 93.743 229.822 94.709 224.476 94.709C220.536 94.709 216.808 94.0943 213.291 92.8649C209.773 91.6355 206.696 89.8441 204.058 87.4907C201.42 85.1373 199.344 82.2395 197.832 78.7972C196.319 75.3549 195.563 71.4209 195.563 66.9951C195.563 62.7098 196.302 58.8284 197.779 55.351C199.256 51.8736 201.261 48.923 203.794 46.4994C206.326 44.0757 209.316 42.1965 212.763 40.8618C216.21 39.527 219.938 38.8596 223.948 38.8596C227.817 38.8596 231.37 39.5094 234.606 40.8091C237.842 42.1087 240.62 43.9879 242.942 46.4467C245.263 48.9055 247.075 51.8911 248.376 55.4037C249.677 58.9162 250.223 61.3016 250.223 65.7976Z"
    fill="white" />
  <path fill-rule="evenodd" clip-rule="evenodd"
    d="M299.781 74.5284L321.541 112.422H296.887C295.269 112.422 293.775 111.557 292.969 110.155L286.113 98.2246L299.781 74.5284ZM261.114 11.7483C262.732 11.7483 264.226 12.6135 265.032 14.0167L279.185 38.6623L265.508 62.3738L236.411 11.7483H261.114Z"
    fill="url(#paint0_linear_39_45)" />
  <path fill-rule="evenodd" clip-rule="evenodd"
    d="M270.041 113.878L336 0H313.642C310.415 0 307.432 1.72138 305.817 4.51606L240.026 118.386H262.221C265.446 118.386 268.425 116.668 270.041 113.878Z"
    fill="url(#paint1_linear_39_45)" />
  <defs>
    <linearGradient id="paint0_linear_39_45" x1="1449.33" y1="11.7483" x2="7477.83" y2="10445.4"
      gradientUnits="userSpaceOnUse">
      <stop offset="0.000863882" stop-color="#FF0000" />
      <stop offset="1" stop-color="#FF0033" />
    </linearGradient>
    <linearGradient id="paint1_linear_39_45" x1="8192.51" y1="-0.000363386" x2="1361.31" y2="11549.3"
      gradientUnits="userSpaceOnUse">
      <stop stop-color="#00FF99" />
      <stop offset="1" stop-color="#00FF55" />
    </linearGradient>
  </defs>
</svg>