<svg width="563" height="71" viewBox="0 0 563 71" fill="none" xmlns="http://www.w3.org/2000/svg">
  <path
    d="M6.11111 0.0634766C2.7309 0.0634766 0 2.32623 0 5.12697C0 7.92772 2.7309 10.1905 6.11111 10.1905H13.75V20.3175H0V40.5714C10.1215 40.5714 18.3333 47.3755 18.3333 55.7619V65.8889C18.3333 68.6897 21.0642 70.9524 24.4444 70.9524H30.5556C33.9358 70.9524 36.6667 68.6897 36.6667 65.8889V55.7619C36.6667 47.3755 44.8785 40.5714 55 40.5714C65.1215 40.5714 73.3333 47.3755 73.3333 55.7619V65.8889C73.3333 68.6897 76.0642 70.9524 79.4444 70.9524H85.5555C88.9358 70.9524 91.6667 68.6897 91.6667 65.8889V55.7619C91.6667 47.3755 99.8785 40.5714 110 40.5714V20.3175H96.25V10.1905H103.889C107.269 10.1905 110 7.92772 110 5.12697C110 2.32623 107.269 0.0634766 103.889 0.0634766H6.11111ZM87.0833 10.1905V20.3175H71.8055V10.1905H87.0833ZM62.6389 10.1905V20.3175H47.3611V10.1905H62.6389ZM38.1944 10.1905V20.3175H22.9167V10.1905H38.1944Z"
    fill="url(#paint0_linear_0_1)" />
  <path
    d="M142 55V10.2H161.392C165.402 10.2 168.858 10.8613 171.76 12.184C174.661 13.464 176.901 15.32 178.48 17.752C180.058 20.184 180.848 23.0853 180.848 26.456C180.848 29.784 180.058 32.664 178.48 35.096C176.901 37.528 174.661 39.4053 171.76 40.728C168.858 42.008 165.402 42.648 161.392 42.648H147.76L152.368 37.976V55H142ZM152.368 39.128L147.76 34.2H160.816C164.016 34.2 166.405 33.5173 167.984 32.152C169.562 30.7867 170.352 28.888 170.352 26.456C170.352 23.9813 169.562 22.0613 167.984 20.696C166.405 19.3307 164.016 18.648 160.816 18.648H147.76L152.368 13.72V39.128ZM202.699 55.512C199.84 55.512 197.28 54.9573 195.019 53.848C192.8 52.7387 191.072 51.0533 189.835 48.792C188.597 46.488 187.979 43.5653 187.979 40.024V20.568H197.963V38.552C197.963 41.4107 198.56 43.5227 199.755 44.888C200.992 46.2107 202.72 46.872 204.939 46.872C206.475 46.872 207.84 46.552 209.035 45.912C210.229 45.2293 211.168 44.2053 211.851 42.84C212.533 41.432 212.875 39.6827 212.875 37.592V20.568H222.859V55H213.387V45.528L215.115 48.28C213.963 50.6693 212.256 52.4827 209.995 53.72C207.776 54.9147 205.344 55.512 202.699 55.512ZM232.108 55V7.512H242.092V55H232.108ZM262.942 55.512C259.998 55.512 257.161 55.1707 254.43 54.488C251.742 53.7627 249.609 52.8667 248.03 51.8L251.358 44.632C252.937 45.6133 254.793 46.424 256.926 47.064C259.102 47.6613 261.235 47.96 263.326 47.96C265.63 47.96 267.251 47.6827 268.19 47.128C269.171 46.5733 269.662 45.8053 269.662 44.824C269.662 44.0133 269.278 43.416 268.51 43.032C267.785 42.6053 266.803 42.2853 265.566 42.072C264.329 41.8587 262.963 41.6453 261.47 41.432C260.019 41.2187 258.547 40.9413 257.054 40.6C255.561 40.216 254.195 39.6613 252.958 38.936C251.721 38.2107 250.718 37.2293 249.95 35.992C249.225 34.7547 248.862 33.1547 248.862 31.192C248.862 29.016 249.481 27.096 250.718 25.432C251.998 23.768 253.833 22.4667 256.222 21.528C258.611 20.5467 261.47 20.056 264.798 20.056C267.145 20.056 269.534 20.312 271.966 20.824C274.398 21.336 276.425 22.0827 278.046 23.064L274.718 30.168C273.054 29.1867 271.369 28.5253 269.662 28.184C267.998 27.8 266.377 27.608 264.798 27.608C262.579 27.608 260.958 27.9067 259.934 28.504C258.91 29.1013 258.398 29.8693 258.398 30.808C258.398 31.6613 258.761 32.3013 259.486 32.728C260.254 33.1547 261.257 33.496 262.494 33.752C263.731 34.008 265.075 34.2427 266.526 34.456C268.019 34.6267 269.513 34.904 271.006 35.288C272.499 35.672 273.843 36.2267 275.038 36.952C276.275 37.6347 277.278 38.5947 278.046 39.832C278.814 41.0267 279.198 42.6053 279.198 44.568C279.198 46.7013 278.558 48.6 277.278 50.264C275.998 51.8853 274.142 53.1653 271.71 54.104C269.321 55.0427 266.398 55.512 262.942 55.512ZM302.446 55.512C298.521 55.512 295.065 54.744 292.078 53.208C289.134 51.672 286.851 49.5813 285.23 46.936C283.609 44.248 282.798 41.1973 282.798 37.784C282.798 34.328 283.587 31.2773 285.166 28.632C286.787 25.944 288.985 23.8533 291.758 22.36C294.531 20.824 297.667 20.056 301.166 20.056C304.537 20.056 307.566 20.7813 310.254 22.232C312.985 23.64 315.139 25.688 316.718 28.376C318.297 31.0213 319.086 34.2 319.086 37.912C319.086 38.296 319.065 38.744 319.022 39.256C318.979 39.7253 318.937 40.1733 318.894 40.6H290.926V34.776H313.646L309.806 36.504C309.806 34.712 309.443 33.1547 308.718 31.832C307.993 30.5093 306.99 29.4853 305.71 28.76C304.43 27.992 302.937 27.608 301.23 27.608C299.523 27.608 298.009 27.992 296.686 28.76C295.406 29.4853 294.403 30.5307 293.678 31.896C292.953 33.2187 292.59 34.7973 292.59 36.632V38.168C292.59 40.0453 292.995 41.7093 293.806 43.16C294.659 44.568 295.833 45.656 297.326 46.424C298.862 47.1493 300.654 47.512 302.702 47.512C304.537 47.512 306.137 47.2347 307.502 46.68C308.91 46.1253 310.19 45.2933 311.342 44.184L316.654 49.944C315.075 51.736 313.091 53.1227 310.702 54.104C308.313 55.0427 305.561 55.512 302.446 55.512ZM344.562 55V10.2H366.45C372.082 10.2 376.306 11.2667 379.122 13.4C381.981 15.5333 383.41 18.3493 383.41 21.848C383.41 24.1947 382.834 26.2427 381.682 27.992C380.53 29.6987 378.951 31.0213 376.946 31.96C374.941 32.8987 372.637 33.368 370.034 33.368L371.25 30.744C374.066 30.744 376.562 31.2133 378.738 32.152C380.914 33.048 382.599 34.392 383.794 36.184C385.031 37.976 385.65 40.1733 385.65 42.776C385.65 46.616 384.135 49.624 381.106 51.8C378.077 53.9333 373.618 55 367.73 55H344.562ZM354.866 47.192H366.962C369.65 47.192 371.677 46.7653 373.042 45.912C374.45 45.016 375.154 43.608 375.154 41.688C375.154 39.8107 374.45 38.424 373.042 37.528C371.677 36.5893 369.65 36.12 366.962 36.12H354.098V28.568H365.17C367.687 28.568 369.607 28.1413 370.93 27.288C372.295 26.392 372.978 25.048 372.978 23.256C372.978 21.5067 372.295 20.2053 370.93 19.352C369.607 18.456 367.687 18.008 365.17 18.008H354.866V47.192ZM392.796 55V20.568H402.332V30.296L400.988 27.48C402.012 25.048 403.654 23.2133 405.916 21.976C408.177 20.696 410.929 20.056 414.172 20.056V29.272C413.745 29.2293 413.361 29.208 413.02 29.208C412.678 29.1653 412.316 29.144 411.932 29.144C409.201 29.144 406.982 29.9333 405.276 31.512C403.612 33.048 402.78 35.4587 402.78 38.744V55H392.796ZM420.171 55V20.568H430.155V55H420.171ZM425.163 15.768C423.328 15.768 421.835 15.2347 420.683 14.168C419.531 13.1013 418.955 11.7787 418.955 10.2C418.955 8.62133 419.531 7.29866 420.683 6.232C421.835 5.16533 423.328 4.632 425.163 4.632C426.997 4.632 428.491 5.144 429.643 6.168C430.795 7.14933 431.371 8.42933 431.371 10.008C431.371 11.672 430.795 13.0587 429.643 14.168C428.533 15.2347 427.04 15.768 425.163 15.768ZM454.205 55.512C450.962 55.512 448.039 54.7867 445.437 53.336C442.834 51.8427 440.765 49.7733 439.229 47.128C437.735 44.4827 436.989 41.368 436.989 37.784C436.989 34.1573 437.735 31.0213 439.229 28.376C440.765 25.7307 442.834 23.6827 445.437 22.232C448.039 20.7813 450.962 20.056 454.205 20.056C457.106 20.056 459.645 20.696 461.821 21.976C463.997 23.256 465.682 25.1973 466.877 27.8C468.071 30.4027 468.669 33.7307 468.669 37.784C468.669 41.7947 468.093 45.1227 466.941 47.768C465.789 50.3707 464.125 52.312 461.949 53.592C459.815 54.872 457.234 55.512 454.205 55.512ZM455.933 47.32C457.554 47.32 459.026 46.936 460.349 46.168C461.671 45.4 462.717 44.312 463.485 42.904C464.295 41.4533 464.701 39.7467 464.701 37.784C464.701 35.7787 464.295 34.072 463.485 32.664C462.717 31.256 461.671 30.168 460.349 29.4C459.026 28.632 457.554 28.248 455.933 28.248C454.269 28.248 452.775 28.632 451.453 29.4C450.13 30.168 449.063 31.256 448.253 32.664C447.485 34.072 447.101 35.7787 447.101 37.784C447.101 39.7467 447.485 41.4533 448.253 42.904C449.063 44.312 450.13 45.4 451.453 46.168C452.775 46.936 454.269 47.32 455.933 47.32ZM464.957 55V47.96L465.149 37.72L464.509 27.544V7.512H474.493V55H464.957ZM499.925 67.928C496.682 67.928 493.546 67.5227 490.517 66.712C487.53 65.944 485.034 64.7707 483.029 63.192L486.997 56.024C488.448 57.2187 490.282 58.1573 492.501 58.84C494.762 59.5653 496.981 59.928 499.157 59.928C502.698 59.928 505.258 59.1387 506.837 57.56C508.458 55.9813 509.269 53.6347 509.269 50.52V45.336L509.909 36.696L509.781 27.992V20.568H519.253V49.24C519.253 55.64 517.589 60.3547 514.261 63.384C510.933 66.4133 506.154 67.928 499.925 67.928ZM498.389 53.336C495.189 53.336 492.288 52.6533 489.685 51.288C487.125 49.88 485.056 47.9387 483.477 45.464C481.941 42.9467 481.173 40.024 481.173 36.696C481.173 33.3253 481.941 30.4027 483.477 27.928C485.056 25.4107 487.125 23.4693 489.685 22.104C492.288 20.7387 495.189 20.056 498.389 20.056C501.29 20.056 503.85 20.6533 506.069 21.848C508.288 23 510.016 24.8133 511.253 27.288C512.49 29.72 513.109 32.856 513.109 36.696C513.109 40.4933 512.49 43.6293 511.253 46.104C510.016 48.536 508.288 50.3493 506.069 51.544C503.85 52.7387 501.29 53.336 498.389 53.336ZM500.373 45.144C502.122 45.144 503.68 44.8027 505.045 44.12C506.41 43.3947 507.477 42.392 508.245 41.112C509.013 39.832 509.397 38.36 509.397 36.696C509.397 34.9893 509.013 33.5173 508.245 32.28C507.477 31 506.41 30.0187 505.045 29.336C503.68 28.6107 502.122 28.248 500.373 28.248C498.624 28.248 497.066 28.6107 495.701 29.336C494.336 30.0187 493.248 31 492.437 32.28C491.669 33.5173 491.285 34.9893 491.285 36.696C491.285 38.36 491.669 39.832 492.437 41.112C493.248 42.392 494.336 43.3947 495.701 44.12C497.066 44.8027 498.624 45.144 500.373 45.144ZM545.634 55.512C541.708 55.512 538.252 54.744 535.266 53.208C532.322 51.672 530.039 49.5813 528.418 46.936C526.796 44.248 525.986 41.1973 525.986 37.784C525.986 34.328 526.775 31.2773 528.354 28.632C529.975 25.944 532.172 23.8533 534.946 22.36C537.719 20.824 540.855 20.056 544.354 20.056C547.724 20.056 550.754 20.7813 553.442 22.232C556.172 23.64 558.327 25.688 559.906 28.376C561.484 31.0213 562.274 34.2 562.274 37.912C562.274 38.296 562.252 38.744 562.21 39.256C562.167 39.7253 562.124 40.1733 562.082 40.6H534.114V34.776H556.833L552.994 36.504C552.994 34.712 552.631 33.1547 551.906 31.832C551.18 30.5093 550.178 29.4853 548.898 28.76C547.618 27.992 546.124 27.608 544.418 27.608C542.711 27.608 541.196 27.992 539.874 28.76C538.594 29.4853 537.591 30.5307 536.866 31.896C536.14 33.2187 535.778 34.7973 535.778 36.632V38.168C535.778 40.0453 536.183 41.7093 536.994 43.16C537.847 44.568 539.02 45.656 540.514 46.424C542.05 47.1493 543.842 47.512 545.89 47.512C547.724 47.512 549.324 47.2347 550.69 46.68C552.098 46.1253 553.378 45.2933 554.53 44.184L559.842 49.944C558.263 51.736 556.279 53.1227 553.89 54.104C551.5 55.0427 548.748 55.512 545.634 55.512Z"
    fill="white" />
  <defs>
    <linearGradient id="paint0_linear_0_1" x1="81" y1="11" x2="0.350803" y2="72.0057" gradientUnits="userSpaceOnUse">
      <stop stop-color="#00F0FF" />
      <stop offset="0.18" stop-color="#5200FF" />
      <stop offset="0.3" stop-color="#6500E3" />
      <stop offset="0.495" stop-color="#FE0000" />
      <stop offset="0.73" stop-color="#EA00FE" />
      <stop offset="1" stop-color="#000AFF" />
    </linearGradient>
  </defs>
</svg>