<svg width="37" height="54" viewBox="0 0 37 54" fill="none" xmlns="http://www.w3.org/2000/svg">
<path d="M29.5806 27.4436C29.5806 27.4436 29.6101 19.0467 29.5659 16.1446C29.669 7.20263 18.3111 0.352539 18.3111 0.352539C18.3111 0.352539 6.99738 7.15844 7.1005 16.1004C7.01211 22.9063 7.1005 27.473 7.1005 27.473C7.1005 27.473 0.265137 31.9514 0.265137 38.7278L36.4012 38.772C36.357 31.9514 29.5806 27.4436 29.5806 27.4436ZM14.1126 16.395C14.1123 15.8475 14.22 15.3052 14.4294 14.7993C14.6388 14.2933 14.9458 13.8336 15.333 13.4464C15.7202 13.0592 16.1799 12.7522 16.6859 12.5428C17.1918 12.3334 17.7341 12.2257 18.2816 12.226C19.1055 12.2265 19.9108 12.4712 20.5956 12.9292C21.2805 13.3872 21.8142 14.038 22.1292 14.7993C22.4443 15.5605 22.5266 16.3981 22.3658 17.2062C22.205 18.0142 21.8082 18.7564 21.2256 19.339C20.643 19.9216 19.9008 20.3184 19.0928 20.4792C18.2847 20.64 17.4471 20.5577 16.6859 20.2426C15.9246 19.9276 15.2738 19.3939 14.8158 18.709C14.3578 18.0242 14.1131 17.2189 14.1126 16.395ZM18.3553 53.8717C21.0044 51.067 22.5707 47.4123 22.7747 43.5597H13.9359C12.4627 47.9791 18.3553 53.8717 18.3553 53.8717Z" fill="black"/>
</svg>
