<svg width="152" height="44" viewBox="0 0 152 44" fill="none" xmlns="http://www.w3.org/2000/svg">
<path d="M10.5016 32.287C8.58826 32.287 6.86626 31.959 5.3356 31.303C3.80493 30.6197 2.60226 29.663 1.7276 28.433C0.852931 27.203 0.415598 25.768 0.415598 24.128H5.4176C5.52693 25.358 6.00526 26.3693 6.8526 27.162C7.72726 27.9547 8.9436 28.351 10.5016 28.351C12.1143 28.351 13.3716 27.9683 14.2736 27.203C15.1756 26.4103 15.6266 25.399 15.6266 24.169C15.6266 23.2123 15.3396 22.4333 14.7656 21.832C14.2189 21.2307 13.5219 20.766 12.6746 20.438C11.8546 20.11 10.7066 19.7547 9.2306 19.372C7.37193 18.88 5.85493 18.388 4.6796 17.896C3.5316 17.3767 2.5476 16.584 1.7276 15.518C0.907598 14.452 0.497598 13.0307 0.497598 11.254C0.497598 9.614 0.907598 8.179 1.7276 6.949C2.5476 5.719 3.6956 4.776 5.1716 4.12C6.6476 3.464 8.35593 3.136 10.2966 3.136C13.0573 3.136 15.3123 3.833 17.0616 5.227C18.8383 6.59366 19.8223 8.47966 20.0136 10.885H14.8476C14.7656 9.84633 14.2736 8.958 13.3716 8.22C12.4696 7.482 11.2806 7.113 9.8046 7.113C8.46526 7.113 7.37193 7.45466 6.5246 8.138C5.67726 8.82133 5.2536 9.80533 5.2536 11.09C5.2536 11.9647 5.51326 12.689 6.0326 13.263C6.57926 13.8097 7.2626 14.247 8.0826 14.575C8.9026 14.903 10.0233 15.2583 11.4446 15.641C13.3306 16.1603 14.8613 16.6797 16.0366 17.199C17.2393 17.7183 18.2506 18.5247 19.0706 19.618C19.9179 20.684 20.3416 22.119 20.3416 23.923C20.3416 25.3717 19.9453 26.7383 19.1526 28.023C18.3873 29.3077 17.2529 30.3463 15.7496 31.139C14.2736 31.9043 12.5243 32.287 10.5016 32.287ZM28.2347 6.416C27.3874 6.416 26.6767 6.129 26.1027 5.555C25.5287 4.981 25.2417 4.27033 25.2417 3.423C25.2417 2.57567 25.5287 1.865 26.1027 1.291C26.6767 0.716999 27.3874 0.429998 28.2347 0.429998C29.0547 0.429998 29.7517 0.716999 30.3257 1.291C30.8997 1.865 31.1867 2.57567 31.1867 3.423C31.1867 4.27033 30.8997 4.981 30.3257 5.555C29.7517 6.129 29.0547 6.416 28.2347 6.416ZM30.5307 9.409V32H25.8567V9.409H30.5307ZM45.7693 9.04C47.5186 9.04 49.063 9.39533 50.4023 10.106C51.769 10.7893 52.835 11.6503 53.6003 12.689V9.409H58.3153V32.369C58.3153 34.4463 57.878 36.2913 57.0033 37.904C56.1286 39.544 54.8576 40.8287 53.1903 41.758C51.5503 42.6873 49.5823 43.152 47.2863 43.152C44.225 43.152 41.683 42.4277 39.6603 40.979C37.6376 39.5577 36.4896 37.617 36.2163 35.157H40.8493C41.2046 36.3323 41.9563 37.2753 43.1043 37.986C44.2796 38.724 45.6736 39.093 47.2863 39.093C49.1723 39.093 50.6893 38.519 51.8373 37.371C53.0126 36.223 53.6003 34.5557 53.6003 32.369V28.597C52.8076 29.663 51.728 30.565 50.3613 31.303C49.022 32.0137 47.4913 32.369 45.7693 32.369C43.8013 32.369 41.9973 31.877 40.3573 30.893C38.7446 29.8817 37.46 28.4877 36.5033 26.711C35.574 24.907 35.1093 22.8707 35.1093 20.602C35.1093 18.3333 35.574 16.3243 36.5033 14.575C37.46 12.8257 38.7446 11.4727 40.3573 10.516C41.9973 9.532 43.8013 9.04 45.7693 9.04ZM53.6003 20.684C53.6003 19.126 53.2723 17.773 52.6163 16.625C51.9876 15.477 51.154 14.6023 50.1153 14.001C49.0766 13.3997 47.956 13.099 46.7533 13.099C45.5506 13.099 44.43 13.3997 43.3913 14.001C42.3526 14.575 41.5053 15.436 40.8493 16.584C40.2206 17.7047 39.9063 19.044 39.9063 20.602C39.9063 22.16 40.2206 23.5267 40.8493 24.702C41.5053 25.8773 42.3526 26.7793 43.3913 27.408C44.4573 28.0093 45.578 28.31 46.7533 28.31C47.956 28.31 49.0766 28.0093 50.1153 27.408C51.154 26.8067 51.9876 25.932 52.6163 24.784C53.2723 23.6087 53.6003 22.242 53.6003 20.684ZM75.8524 9.04C77.6291 9.04 79.2144 9.409 80.6084 10.147C82.0297 10.885 83.1367 11.9783 83.9294 13.427C84.7221 14.8757 85.1184 16.625 85.1184 18.675V32H80.4854V19.372C80.4854 17.3493 79.9797 15.805 78.9684 14.739C77.9571 13.6457 76.5767 13.099 74.8274 13.099C73.0781 13.099 71.6841 13.6457 70.6454 14.739C69.6341 15.805 69.1284 17.3493 69.1284 19.372V32H64.4544V9.409H69.1284V11.992C69.8937 11.0627 70.8641 10.3383 72.0394 9.819C73.2421 9.29967 74.5131 9.04 75.8524 9.04ZM122.19 9.409V32H117.516V29.335C116.778 30.2643 115.807 31.0023 114.605 31.549C113.429 32.0683 112.172 32.328 110.833 32.328C109.056 32.328 107.457 31.959 106.036 31.221C104.642 30.483 103.535 29.3897 102.715 27.941C101.922 26.4923 101.526 24.743 101.526 22.693V9.409H106.159V21.996C106.159 24.0187 106.664 25.5767 107.676 26.67C108.687 27.736 110.067 28.269 111.817 28.269C113.566 28.269 114.946 27.736 115.958 26.67C116.996 25.5767 117.516 24.0187 117.516 21.996V9.409H122.19ZM133.031 12.73C133.823 11.6913 134.903 10.8167 136.27 10.106C137.636 9.39533 139.181 9.04 140.903 9.04C142.871 9.04 144.661 9.532 146.274 10.516C147.914 11.4727 149.198 12.8257 150.128 14.575C151.057 16.3243 151.522 18.3333 151.522 20.602C151.522 22.8707 151.057 24.907 150.128 26.711C149.198 28.4877 147.914 29.8817 146.274 30.893C144.661 31.877 142.871 32.369 140.903 32.369C139.181 32.369 137.65 32.0273 136.311 31.344C134.971 30.6333 133.878 29.7587 133.031 28.72V42.742H128.357V9.409H133.031V12.73ZM146.766 20.602C146.766 19.044 146.438 17.7047 145.782 16.584C145.153 15.436 144.306 14.575 143.24 14.001C142.201 13.3997 141.08 13.099 139.878 13.099C138.702 13.099 137.582 13.3997 136.516 14.001C135.477 14.6023 134.63 15.477 133.974 16.625C133.345 17.773 133.031 19.126 133.031 20.684C133.031 22.242 133.345 23.6087 133.974 24.784C134.63 25.932 135.477 26.8067 136.516 27.408C137.582 28.0093 138.702 28.31 139.878 28.31C141.08 28.31 142.201 28.0093 143.24 27.408C144.306 26.7793 145.153 25.8773 145.782 24.702C146.438 23.5267 146.766 22.16 146.766 20.602Z" fill="white"/>
</svg>
