<svg width="89" height="17" viewBox="0 0 89 17" fill="none" xmlns="http://www.w3.org/2000/svg">
<path d="M3.14 2.04V10.68C3.14 11.6267 3.38667 12.3533 3.88 12.86C4.37333 13.3533 5.06667 13.6 5.96 13.6C6.86667 13.6 7.56667 13.3533 8.06 12.86C8.55333 12.3533 8.8 11.6267 8.8 10.68V2.04H11.62V10.66C11.62 11.8467 11.36 12.8533 10.84 13.68C10.3333 14.4933 9.64667 15.1067 8.78 15.52C7.92667 15.9333 6.97333 16.14 5.92 16.14C4.88 16.14 3.93333 15.9333 3.08 15.52C2.24 15.1067 1.57333 14.4933 1.08 13.68C0.586667 12.8533 0.34 11.8467 0.34 10.66V2.04H3.14ZM20.4653 4.76C21.7853 4.76 22.852 5.18 23.6653 6.02C24.4786 6.84667 24.8853 8.00667 24.8853 9.5V16H22.0853V9.88C22.0853 9 21.8653 8.32667 21.4253 7.86C20.9853 7.38 20.3853 7.14 19.6253 7.14C18.852 7.14 18.2386 7.38 17.7853 7.86C17.3453 8.32667 17.1253 9 17.1253 9.88V16H14.3253V4.92H17.1253V6.3C17.4986 5.82 17.972 5.44667 18.5453 5.18C19.132 4.9 19.772 4.76 20.4653 4.76ZM34.108 16L30.348 11.28V16H27.548V1.2H30.348V9.62L34.068 4.92H37.708L32.828 10.48L37.748 16H34.108ZM42.0277 13.78H46.6277V16H39.2277V2.04H42.0277V13.78ZM53.3273 16.18C52.2607 16.18 51.3007 15.9467 50.4473 15.48C49.594 15 48.9207 14.3267 48.4273 13.46C47.9473 12.5933 47.7073 11.5933 47.7073 10.46C47.7073 9.32667 47.954 8.32667 48.4473 7.46C48.954 6.59333 49.6407 5.92667 50.5073 5.46C51.374 4.98 52.3407 4.74 53.4073 4.74C54.474 4.74 55.4407 4.98 56.3073 5.46C57.174 5.92667 57.854 6.59333 58.3473 7.46C58.854 8.32667 59.1073 9.32667 59.1073 10.46C59.1073 11.5933 58.8473 12.5933 58.3273 13.46C57.8207 14.3267 57.1273 15 56.2473 15.48C55.3807 15.9467 54.4073 16.18 53.3273 16.18ZM53.3273 13.74C53.834 13.74 54.3073 13.62 54.7473 13.38C55.2007 13.1267 55.5607 12.7533 55.8273 12.26C56.094 11.7667 56.2273 11.1667 56.2273 10.46C56.2273 9.40667 55.9473 8.6 55.3873 8.04C54.8407 7.46667 54.1673 7.18 53.3673 7.18C52.5673 7.18 51.894 7.46667 51.3473 8.04C50.814 8.6 50.5473 9.40667 50.5473 10.46C50.5473 11.5133 50.8073 12.3267 51.3273 12.9C51.8607 13.46 52.5273 13.74 53.3273 13.74ZM71.6213 4.92V16H68.8013V14.6C68.4413 15.08 67.9679 15.46 67.3813 15.74C66.8079 16.0067 66.1813 16.14 65.5013 16.14C64.6346 16.14 63.8679 15.96 63.2013 15.6C62.5346 15.2267 62.0079 14.6867 61.6213 13.98C61.2479 13.26 61.0613 12.4067 61.0613 11.42V4.92H63.8613V11.02C63.8613 11.9 64.0813 12.58 64.5213 13.06C64.9613 13.5267 65.5613 13.76 66.3213 13.76C67.0946 13.76 67.7013 13.5267 68.1413 13.06C68.5813 12.58 68.8013 11.9 68.8013 11.02V4.92H71.6213ZM75.8039 3.6C75.3106 3.6 74.8972 3.44667 74.5639 3.14C74.2439 2.82 74.0839 2.42667 74.0839 1.96C74.0839 1.49333 74.2439 1.10667 74.5639 0.799999C74.8972 0.479999 75.3106 0.319999 75.8039 0.319999C76.2972 0.319999 76.7039 0.479999 77.0239 0.799999C77.3572 1.10667 77.5239 1.49333 77.5239 1.96C77.5239 2.42667 77.3572 2.82 77.0239 3.14C76.7039 3.44667 76.2972 3.6 75.8039 3.6ZM77.1839 4.92V16H74.3839V4.92H77.1839ZM84.1903 16.18C83.2836 16.18 82.4703 16.02 81.7503 15.7C81.0303 15.3667 80.457 14.92 80.0303 14.36C79.617 13.8 79.3903 13.18 79.3503 12.5H82.1703C82.2236 12.9267 82.4303 13.28 82.7903 13.56C83.1636 13.84 83.6236 13.98 84.1703 13.98C84.7036 13.98 85.117 13.8733 85.4103 13.66C85.717 13.4467 85.8703 13.1733 85.8703 12.84C85.8703 12.48 85.6836 12.2133 85.3103 12.04C84.9503 11.8533 84.3703 11.6533 83.5703 11.44C82.7436 11.24 82.0636 11.0333 81.5303 10.82C81.0103 10.6067 80.557 10.28 80.1703 9.84C79.797 9.4 79.6103 8.80667 79.6103 8.06C79.6103 7.44667 79.7836 6.88667 80.1303 6.38C80.4903 5.87333 80.997 5.47333 81.6503 5.18C82.317 4.88667 83.097 4.74 83.9903 4.74C85.3103 4.74 86.3636 5.07333 87.1503 5.74C87.937 6.39333 88.3703 7.28 88.4503 8.4H85.7703C85.7303 7.96 85.5436 7.61333 85.2103 7.36C84.8903 7.09333 84.457 6.96 83.9103 6.96C83.4036 6.96 83.0103 7.05333 82.7303 7.24C82.4636 7.42667 82.3303 7.68667 82.3303 8.02C82.3303 8.39333 82.517 8.68 82.8903 8.88C83.2636 9.06667 83.8436 9.26 84.6303 9.46C85.4303 9.66 86.0903 9.86667 86.6103 10.08C87.1303 10.2933 87.577 10.6267 87.9503 11.08C88.337 11.52 88.537 12.1067 88.5503 12.84C88.5503 13.48 88.3703 14.0533 88.0103 14.56C87.6636 15.0667 87.157 15.4667 86.4903 15.76C85.837 16.04 85.0703 16.18 84.1903 16.18Z" fill="url(#paint0_linear_95_309)"/>
<defs>
<linearGradient id="paint0_linear_95_309" x1="-0.999999" y1="9" x2="90.0003" y2="8.90338" gradientUnits="userSpaceOnUse">
<stop stop-color="#55FFAE"/>
<stop offset="0.9999" stop-color="#AEFF91"/>
</linearGradient>
</defs>
</svg>
