<svg width="508" height="48" viewBox="0 0 508 48" fill="none" xmlns="http://www.w3.org/2000/svg">
<path d="M64.13 1.63L51.455 47H40.73L32.215 14.695L23.31 47L12.65 47.065L0.43 1.63H10.18L18.175 36.86L27.405 1.63H37.545L46.255 36.665L54.315 1.63H64.13ZM107.707 1.63V47H98.6069V27.695H79.1719V47H70.0719V1.63H79.1719V20.285H98.6069V1.63H107.707ZM152.739 1.63L137.399 31.205V47H128.299V31.205L112.894 1.63H123.164L132.914 22.365L142.599 1.63H152.739ZM234.12 1.63L221.445 47H210.72L202.205 14.695L193.3 47L182.64 47.065L170.42 1.63H180.17L188.165 36.86L197.395 1.63H207.535L216.245 36.665L224.305 1.63H234.12ZM249.162 8.975V20.35H264.437V27.565H249.162V39.59H266.387V47H240.062V1.565H266.387V8.975H249.162ZM299.245 1.63V47H290.145V1.63H299.245ZM347.041 47H337.941L317.336 15.865V47H308.236V1.565H317.336L337.941 32.765V1.565H347.041V47ZM396.789 1.63L380.149 47H369.099L352.459 1.63H362.209L374.689 37.705L387.104 1.63H396.789ZM411.345 8.975V20.35H426.62V27.565H411.345V39.59H428.57V47H402.245V1.565H428.57V8.975H411.345ZM452.504 47.455C449.341 47.455 446.481 46.9133 443.924 45.83C441.411 44.7467 439.418 43.1867 437.944 41.15C436.471 39.1133 435.713 36.7083 435.669 33.935H445.419C445.549 35.7983 446.199 37.2717 447.369 38.355C448.583 39.4383 450.229 39.98 452.309 39.98C454.433 39.98 456.101 39.4817 457.314 38.485C458.528 37.445 459.134 36.1017 459.134 34.455C459.134 33.1117 458.723 32.0067 457.899 31.14C457.076 30.2733 456.036 29.6017 454.779 29.125C453.566 28.605 451.876 28.0417 449.709 27.435C446.763 26.5683 444.358 25.7233 442.494 24.9C440.674 24.0333 439.093 22.755 437.749 21.065C436.449 19.3317 435.799 17.035 435.799 14.175C435.799 11.4883 436.471 9.14833 437.814 7.155C439.158 5.16166 441.043 3.645 443.469 2.605C445.896 1.52167 448.669 0.98 451.789 0.98C456.469 0.98 460.261 2.12833 463.164 4.425C466.111 6.67833 467.736 9.84166 468.039 13.915H458.029C457.943 12.355 457.271 11.0767 456.014 10.08C454.801 9.04 453.176 8.52 451.139 8.52C449.363 8.52 447.933 8.975 446.849 9.885C445.809 10.795 445.289 12.1167 445.289 13.85C445.289 15.0633 445.679 16.0817 446.459 16.905C447.283 17.685 448.279 18.335 449.449 18.855C450.663 19.3317 452.353 19.895 454.519 20.545C457.466 21.4117 459.871 22.2783 461.734 23.145C463.598 24.0117 465.201 25.3117 466.544 27.045C467.888 28.7783 468.559 31.0533 468.559 33.87C468.559 36.2967 467.931 38.55 466.674 40.63C465.418 42.71 463.576 44.3783 461.149 45.635C458.723 46.8483 455.841 47.455 452.504 47.455ZM507.324 1.63V8.975H495.234V47H486.134V8.975H474.044V1.63H507.324Z" fill="url(#paint0_linear_67_33)"/>
<defs>
<linearGradient id="paint0_linear_67_33" x1="16.9298" y1="11.2174" x2="406.663" y2="211.901" gradientUnits="userSpaceOnUse">
<stop stop-color="#5BFFAC"/>
<stop offset="1" stop-color="#78FA52"/>
</linearGradient>
</defs>
</svg>
